<svg xmlns="http://www.w3.org/2000/svg" width="88.933" height="88.933"><defs><clipPath id="a" clipPathUnits="userSpaceOnUse"><path d="M0 66.7h66.7V0H0Z"/></clipPath></defs><path d="m0 0 7.5-5.6L0-11.2" style="fill:none;stroke:#0099df;stroke-width:2.115;stroke-linecap:round;stroke-linejoin:round;stroke-miterlimit:10;stroke-dasharray:none;stroke-opacity:1" transform="matrix(1.33333 0 0 -1.33333 14.267 41.867)"/><path d="M0 0h9.4" style="fill:none;stroke:#0099df;stroke-width:2.115;stroke-linecap:round;stroke-linejoin:round;stroke-miterlimit:10;stroke-dasharray:none;stroke-opacity:1" transform="matrix(1.33333 0 0 -1.33333 34.133 49.333)"/><g clip-path="url(#a)" transform="matrix(1.33333 0 0 -1.33333 0 88.933)"><path d="M0 0v18.5C0 20.4-1.6 22-3.5 22h-44.1c-1.9 0-3.5-1.6-3.5-3.5v-37.1c0-1.9 1.6-3.5 3.5-3.5h28.3" style="fill:none;stroke:#0099df;stroke-width:2.115;stroke-linecap:round;stroke-linejoin:round;stroke-miterlimit:10;stroke-dasharray:none;stroke-opacity:1" transform="translate(53.4 34.6)"/><path d="M0 0c0 1.3 1 2.3 2.3 2.3h45.1c2.1 0 3.7-1.7 3.7-3.7v-25.8" style="fill:none;stroke:#0099df;stroke-width:2.115;stroke-linecap:round;stroke-linejoin:round;stroke-miterlimit:10;stroke-dasharray:none;stroke-opacity:1" transform="translate(7.8 59.9)"/><path d="M0 0a1.7 1.7 0 1 0 0-3.4A1.7 1.7 0 0 0 0 0z" style="fill:none;stroke:#0099df;stroke-width:2.115;stroke-linecap:round;stroke-linejoin:round;stroke-miterlimit:10;stroke-dasharray:none;stroke-opacity:1" transform="translate(24.3 52.8)"/><path d="M0 0a1.7 1.7 0 1 0 0-3.4A1.7 1.7 0 0 0 0 0z" style="fill:none;stroke:#0099df;stroke-width:2.115;stroke-linecap:round;stroke-linejoin:round;stroke-miterlimit:10;stroke-dasharray:none;stroke-opacity:1" transform="translate(17.7 52.8)"/><path d="M0 0a1.7 1.7 0 1 0 0-3.4A1.7 1.7 0 0 0 0 0z" style="fill:none;stroke:#0099df;stroke-width:2.115;stroke-linecap:round;stroke-linejoin:round;stroke-miterlimit:10;stroke-dasharray:none;stroke-opacity:1" transform="translate(11.2 52.8)"/><path d="M0 0h-50.1" style="fill:none;stroke:#0099df;stroke-width:2.115;stroke-linecap:round;stroke-linejoin:round;stroke-miterlimit:10;stroke-dasharray:none;stroke-opacity:1" transform="translate(53 46.2)"/><path d="M0 0c-5.6 0-10.1-4.5-10.1-10.1S-5.6-20.2 0-20.2s10.1 4.5 10.1 10.1S5.6 0 0 0m0-22.4c-6.8 0-12.3 5.5-12.3 12.3C-12.3-3.3-6.8 2.2 0 2.2c6.8 0 12.3-5.5 12.3-12.3-.1-6.8-5.6-12.3-12.3-12.3" style="fill:#0099df;fill-opacity:1;fill-rule:nonzero;stroke:none" transform="translate(48.1 30.2)"/><path d="M0 0c-.1.2-.1.4-.1.6 0 .2-.1.4-.1.6C-.2 1-.3.8-.3.6-.3.4-.4.2-.4 0l-.7-2.2H.6zm-2.1-4.9c-.1-.2-.2-.3-.4-.4-.2-.1-.3-.2-.5-.2s-.5.1-.6.2c-.2.1-.3.3-.3.6v.2l2.5 7.2c.1.2.2.4.4.6.2.2.4.2.7.2.3 0 .5-.1.7-.2.1-.2.3-.4.4-.6l2.5-7.2v-.2c0-.2-.1-.4-.3-.6-.2-.1-.4-.2-.7-.2-.2 0-.3.1-.5.2s-.3.3-.4.4L1-3.6h-2.7z" style="fill:#0099df;fill-opacity:1;fill-rule:nonzero;stroke:none" transform="translate(44.4 20.8)"/><path d="M0 0c-.1.2-.1.4-.1.6 0 .2-.1.4-.1.6C-.2 1-.3.8-.3.6-.3.4-.4.2-.4 0l-.7-2.2H.6zm-2.1-4.9c-.1-.2-.2-.3-.4-.4-.2-.1-.3-.2-.5-.2s-.5.1-.6.2c-.2.1-.3.3-.3.6v.2l2.5 7.2c.1.2.2.4.4.6.2.2.4.2.7.2.3 0 .5-.1.7-.2.1-.2.3-.4.4-.6l2.5-7.2v-.2c0-.2-.1-.4-.3-.6-.2-.1-.4-.2-.7-.2-.2 0-.3.1-.5.2s-.3.3-.4.4L1-3.6h-2.7z" style="fill:none;stroke:#0099df;stroke-width:.311;stroke-linecap:butt;stroke-linejoin:miter;stroke-miterlimit:10;stroke-dasharray:none;stroke-opacity:1" transform="translate(44.4 20.8)"/><path d="M0 0c0 .1 0 .3-.1.4 0 .1-.1.2-.2.3-.1.1-.3.2-.4.2-.2.1-.4.1-.7.1h-1.4v-2.1h1.5c.4 0 .8.1 1 .3.2.2.3.4.3.8m1.8 0c0-.6-.2-1.1-.5-1.5C1-1.9.5-2.2 0-2.4L1.8-5c.1-.2.1-.3.1-.5s-.1-.3-.2-.4l-.3-.3c-.1-.1-.3-.1-.4-.1-.3 0-.6.1-.8.4L-2-2.6h-.9v-2.9c0-.2-.1-.4-.3-.6-.2-.2-.4-.3-.6-.3-.2 0-.4.1-.6.2-.2.2-.3.4-.3.6v7.3c0 .2.1.5.3.6.2.1.4.3.7.3h2.4c.6 0 1.1-.1 1.5-.2.4-.2.7-.4 1-.6.2-.3.4-.5.5-.9.1-.3.1-.6.1-.9" style="fill:#0099df;fill-opacity:1;fill-rule:nonzero;stroke:none" transform="translate(53.3 21.7)"/><path d="M0 0c0 .1 0 .3-.1.4 0 .1-.1.2-.2.3-.1.1-.3.2-.4.2-.2.1-.4.1-.7.1h-1.4v-2.1h1.5c.4 0 .8.1 1 .3.2.2.3.4.3.8Zm1.8 0c0-.6-.2-1.1-.5-1.5C1-1.9.5-2.2 0-2.4L1.8-5c.1-.2.1-.3.1-.5s-.1-.3-.2-.4l-.3-.3c-.1-.1-.3-.1-.4-.1-.3 0-.6.1-.8.4L-2-2.6h-.9v-2.9c0-.2-.1-.4-.3-.6-.2-.2-.4-.3-.6-.3-.2 0-.4.1-.6.2-.2.2-.3.4-.3.6v7.3c0 .2.1.5.3.6.2.1.4.3.7.3h2.4c.6 0 1.1-.1 1.5-.2.4-.2.7-.4 1-.6.2-.3.4-.5.5-.9.1-.3.1-.6.1-.9Z" style="fill:none;stroke:#0099df;stroke-width:.311;stroke-linecap:butt;stroke-linejoin:miter;stroke-miterlimit:10;stroke-dasharray:none;stroke-opacity:1" transform="translate(53.3 21.7)"/><path d="m0 0-7.3 7.8" style="fill:none;stroke:#0099df;stroke-width:2.115;stroke-linecap:round;stroke-linejoin:round;stroke-miterlimit:10;stroke-dasharray:none;stroke-opacity:1" transform="translate(64.3 3.8)"/></g></svg>