<svg xmlns="http://www.w3.org/2000/svg" width="66.667" height="66.667"><defs><clipPath id="a" clipPathUnits="userSpaceOnUse"><path d="M0 50h50V0H0Z"/></clipPath></defs><g clip-path="url(#a)" transform="matrix(1.33333 0 0 -1.33333 0 66.667)"><path d="M0 0a.81.81 0 0 0-.572.236l-2.25 2.249a.81.81 0 1 0 1.145 1.147L0 1.955l3.535 3.533a.808.808 0 1 0 1.144-1.143L.572.237A.803.803 0 0 0 0 0" style="fill:#0099df;fill-opacity:1;fill-rule:nonzero;stroke:none" transform="translate(41.291 22.941)"/><path d="M0 0a.81.81 0 0 0-.804.911 11.447 11.447 0 0 0 11.353 10.014c.043 0 .088-.002.13-.001a11.66 11.66 0 0 0 5.192-1.229.81.81 0 1 0-.725-1.447 10.299 10.299 0 0 1-4.509 1.058h-.079A9.83 9.83 0 0 1 .802.708.809.809 0 0 0 0 0" style="fill:#0099df;fill-opacity:1;fill-rule:nonzero;stroke:none" transform="translate(1.262 21.959)"/><path d="M0 0a4.29 4.29 0 0 1-4.285-4.284A4.29 4.29 0 0 1 0-8.57a4.29 4.29 0 0 1 4.285 4.286A4.29 4.29 0 0 1 0 0m0-10.188a5.91 5.91 0 0 0-5.904 5.904A5.91 5.91 0 0 0 0 1.618a5.91 5.91 0 0 0 5.904-5.902A5.91 5.91 0 0 0 0-10.188" style="fill:#0099df;fill-opacity:1;fill-rule:nonzero;stroke:none" transform="translate(10.498 42.747)"/><path d="M0 0a3.03 3.03 0 0 1-3.026-3.026A3.03 3.03 0 0 1 0-6.052a3.03 3.03 0 0 1 3.025 3.026A3.03 3.03 0 0 1 0 0m0-7.671a4.65 4.65 0 0 0-4.646 4.645A4.65 4.65 0 0 0 0 1.618a4.65 4.65 0 0 0 4.645-4.644A4.65 4.65 0 0 0 0-7.671" style="fill:#0099df;fill-opacity:1;fill-rule:nonzero;stroke:none" transform="translate(24.473 43.003)"/><path d="M0 0a.81.81 0 0 0-.607.272 5.688 5.688 0 0 1-8.518 0 .81.81 0 1 0-1.213 1.074 7.312 7.312 0 0 0 5.472 2.465A7.312 7.312 0 0 0 .606 1.346.81.81 0 0 0 0 0" style="fill:#0099df;fill-opacity:1;fill-rule:nonzero;stroke:none" transform="translate(29.329 32.045)"/><path d="M0 0a.812.812 0 0 0-.81.81v3.201h-1.649a3.273 3.273 0 0 0-3.269 3.268v11.945a3.273 3.273 0 0 0 3.269 3.268h18.261a.81.81 0 1 0 0-1.619H-2.459a1.65 1.65 0 0 1-1.649-1.649V7.279c0-.91.739-1.65 1.649-1.65H0a.81.81 0 0 0 .81-.81V2.171l6.181 3.36a.8.8 0 0 0 .386.098h16.239c.91 0 1.651.74 1.651 1.65v2.202a.809.809 0 1 0 1.618 0V7.279a3.272 3.272 0 0 0-3.269-3.268H7.583L.387.098A.806.806 0 0 0 0 0" style="fill:#0099df;fill-opacity:1;fill-rule:nonzero;stroke:none" transform="translate(15.878 5.379)"/><path d="M0 0a5.716 5.716 0 0 1-5.709-5.711A5.717 5.717 0 0 1 0-11.421a5.718 5.718 0 0 1 5.71 5.71A5.717 5.717 0 0 1 0 0m0-13.039c-4.041 0-7.329 3.287-7.329 7.328 0 4.042 3.288 7.329 7.329 7.329a7.336 7.336 0 0 0 7.329-7.329c0-4.041-3.287-7.328-7.329-7.328" style="fill:#0099df;fill-opacity:1;fill-rule:nonzero;stroke:none" transform="translate(42.22 31.514)"/><path d="M0 0a.81.81 0 0 0-.81.81v7.743a.81.81 0 0 0 1.62 0V.81A.81.81 0 0 0 0 0" style="fill:#0099df;fill-opacity:1;fill-rule:nonzero;stroke:none" transform="translate(18.28 13.919)"/><path d="M0 0a.81.81 0 0 0-.81.81v4.01a.81.81 0 1 0 1.62 0V.81A.81.81 0 0 0 0 0" style="fill:#0099df;fill-opacity:1;fill-rule:nonzero;stroke:none" transform="translate(15.148 15.785)"/><path d="M0 0a.81.81 0 0 0-.81.81v4.01a.81.81 0 1 0 1.62 0V.81A.81.81 0 0 0 0 0" style="fill:#0099df;fill-opacity:1;fill-rule:nonzero;stroke:none" transform="translate(21.36 15.785)"/><path d="M0 0a.81.81 0 0 0-.81.81v7.743a.81.81 0 0 0 1.62 0V.81A.81.81 0 0 0 0 0" style="fill:#0099df;fill-opacity:1;fill-rule:nonzero;stroke:none" transform="translate(24.487 13.919)"/><path d="M0 0a.81.81 0 0 0-.81.81v4.01a.81.81 0 1 0 1.62 0V.81A.81.81 0 0 0 0 0" style="fill:#0099df;fill-opacity:1;fill-rule:nonzero;stroke:none" transform="translate(27.566 15.785)"/><path d="M0 0a.81.81 0 0 0-.81.81v7.743a.81.81 0 0 0 1.62 0V.81A.81.81 0 0 0 0 0" style="fill:#0099df;fill-opacity:1;fill-rule:nonzero;stroke:none" transform="translate(30.698 13.919)"/><path d="M0 0a.81.81 0 0 0-.81.81v4.01a.81.81 0 1 0 1.62 0V.81A.81.81 0 0 0 0 0" style="fill:#0099df;fill-opacity:1;fill-rule:nonzero;stroke:none" transform="translate(33.777 15.785)"/></g></svg>