<svg width="66.667" height="66.667" xmlns="http://www.w3.org/2000/svg"><defs><clipPath clipPathUnits="userSpaceOnUse" id="a"><path d="M0 50h50V0H0Z"/></clipPath></defs><g clip-path="url(#a)" transform="matrix(1.33333 0 0 -1.33333 0 66.667)"><path d="M0 0c-2.083 0-3.911 1.157-4.912 2.871H.816a.81.81 0 0 1 0 1.622H-5.56c-.1.422-.159.86-.162 1.311l-.001 1.615H5.723V5.81C5.697 2.606 3.13 0 0 0m7.343 5.804v5.381a.81.81 0 1 1-1.62 0V9.041H-5.723v2.144a.81.81 0 1 1-1.622 0l.001-5.388A7.504 7.504 0 0 1-3.037-.94a7.51 7.51 0 0 1-4.307-6.744v-5.381a.81.81 0 1 1 1.622 0v2.144H.59a.81.81 0 1 1 0 1.621h-6.312v1.61C-5.697-4.487-3.13-1.88 0-1.88c2.039 0 3.906-1.12 4.924-2.871h-5.74a.812.812 0 0 1 0-1.623h6.957c.441 0 .802.354.81.797l.002.101a.821.821 0 0 1-.047.286A7.425 7.425 0 0 1 3.028-.944a7.506 7.506 0 0 1 4.315 6.748" style="fill:#0099df;fill-opacity:1;fill-rule:nonzero;stroke:none" transform="translate(23.173 33.387)"/><path d="M0 0a6.4 6.4 0 0 0-6.392-6.391A6.399 6.399 0 0 0-12.783 0a6.398 6.398 0 0 0 6.391 6.391A6.398 6.398 0 0 0 0 0m-14.404 0c0-4.418 3.594-8.012 8.012-8.012C-1.974-8.012 1.62-4.418 1.62 0c0 4.418-3.594 8.013-8.012 8.013-4.418 0-8.012-3.595-8.012-8.013" style="fill:#0099df;fill-opacity:1;fill-rule:nonzero;stroke:none" transform="translate(45.102 22.175)"/><path d="M0 0a.81.81 0 0 1-1.146-1.147L.521-2.812a1.548 1.548 0 0 1 1.087-.451c.405 0 .801.164 1.088.451l4.175 4.179a.811.811 0 0 1-1.147 1.146L1.608-1.606Z" style="fill:#0099df;fill-opacity:1;fill-rule:nonzero;stroke:none" transform="translate(35.848 22.43)"/><path d="M0 0a.81.81 0 0 1 .811.811c0 1.184.442 2.597 2.549 2.597h14.333V.881a.81.81 0 0 1 1.622 0v2.527h14.332c2.109 0 2.551-1.413 2.551-2.597a.81.81 0 1 1 1.62 0c0 2.602-1.597 4.218-4.171 4.218H3.36C.788 5.029-.811 3.413-.811.811A.81.81 0 0 1 0 0" style="fill:#0099df;fill-opacity:1;fill-rule:nonzero;stroke:none" transform="translate(6.401 7.14)"/><path d="M0 0c0-.031-.047-.076-.122-.076h-8.962c-.075 0-.122.045-.122.076v2.437c0 .035.05.084.13.084H-.13c.08 0 .13-.049.13-.084Zm-.13 4.142h-8.946c-.966 0-1.751-.765-1.751-1.705V0c0-.937.781-1.697 1.743-1.697h8.962c.962 0 1.743.76 1.743 1.697v2.437c0 .94-.785 1.705-1.751 1.705" style="fill:#0099df;fill-opacity:1;fill-rule:nonzero;stroke:none" transform="translate(47.973 1.999)"/><path d="M0 0c0-.031-.048-.076-.122-.076h-8.963c-.074 0-.122.045-.122.076v2.437c0 .034.051.084.13.084h8.946c.08 0 .131-.049.131-.084Zm-.131 4.142h-8.946c-.965 0-1.752-.765-1.752-1.705V0c0-.937.783-1.697 1.744-1.697h8.963c.961 0 1.743.76 1.743 1.697v2.437c0 .94-.785 1.705-1.752 1.705" style="fill:#0099df;fill-opacity:1;fill-rule:nonzero;stroke:none" transform="translate(29.133 1.999)"/><path d="M0 0c0-.031-.047-.076-.121-.076h-8.964c-.074 0-.121.045-.121.076v2.437c0 .035.049.084.13.084H-.13c.079 0 .13-.05.13-.084Zm-.13 4.142h-8.946c-.966 0-1.752-.765-1.752-1.705V0c0-.937.782-1.697 1.743-1.697h8.964c.961 0 1.743.76 1.743 1.697v2.437c0 .94-.787 1.705-1.752 1.705" style="fill:#0099df;fill-opacity:1;fill-rule:nonzero;stroke:none" transform="translate(11.234 1.999)"/><path d="M0 0h17.335a.81.81 0 1 1 0 1.621H0c-.635 0-1.151.517-1.151 1.151v29.676c0 .635.516 1.151 1.151 1.151h25.156c.635 0 1.151-.516 1.151-1.151V19.821a.81.81 0 0 1 1.621 0v12.627a2.776 2.776 0 0 1-2.772 2.773H0a2.776 2.776 0 0 1-2.773-2.773V2.772A2.776 2.776 0 0 1 0 0" style="fill:#0099df;fill-opacity:1;fill-rule:nonzero;stroke:none" transform="translate(11.684 14.477)"/></g></svg>