<svg width="66.667" height="66.667" xmlns="http://www.w3.org/2000/svg"><defs><clipPath clipPathUnits="userSpaceOnUse" id="a"><path d="M0 50h50V0H0Z"/></clipPath></defs><g clip-path="url(#a)" transform="matrix(1.33333 0 0 -1.33333 0 66.667)"><path d="M0 0a2.498 2.498 0 0 0-2.495-2.495h-33.203A2.497 2.497 0 0 0-38.192 0v41.56a2.738 2.738 0 0 0 2.736 2.735h22.022c.025 0 .048-.006.073-.007v-7.207a6.153 6.153 0 0 1 6.145-6.147h7.208c.001-.026.008-.051.008-.077Zm-1.331 34.071a4.552 4.552 0 0 0 1.005-1.532h-6.89a4.548 4.548 0 0 0-4.542 4.542v6.89a4.522 4.522 0 0 0 1.533-1.005zm1.135 1.135-8.894 8.895a6.105 6.105 0 0 1-4.344 1.799h-22.022a4.345 4.345 0 0 1-4.341-4.34V0c0-2.261 1.839-4.1 4.099-4.1h33.203A4.103 4.103 0 0 1 1.604 0v30.857c0 1.643-.64 3.187-1.8 4.349" style="fill:#0099df;fill-opacity:1;fill-rule:nonzero;stroke:none" transform="translate(44.097 4.1)"/><path d="M0 0h-.721v1.811H0c.693 0 1.016-.29 1.016-.911C1.016.286.693 0 0 0m0 3.278h-1.451c-.482 0-.888-.375-.888-.817v-5.584c0-.411.37-.758.809-.758.439 0 .809.347.809.758v1.656H0c1.625 0 2.634.904 2.634 2.358 0 1.495-.985 2.387-2.634 2.387" style="fill:#0099df;fill-opacity:1;fill-rule:nonzero;stroke:none" transform="translate(18.82 12.665)"/><path d="M0 0v4.147h.553c1.101 0 1.332-.653 1.332-1.201V1.279C1.885.431 1.437 0 .553 0Zm.385 5.614H-.73c-.481 0-.888-.373-.888-.815V-.65c0-.443.407-.817.888-.817H.385c2.815 0 3.117 1.921 3.117 2.746v1.667c0 1.696-1.135 2.668-3.117 2.668" style="fill:#0099df;fill-opacity:1;fill-rule:nonzero;stroke:none" transform="translate(24.22 10.338)"/><path d="M0 0c.453 0 .809.316.809.719 0 .406-.372.748-.809.748h-2.675c-.517 0-.878-.425-.878-.807v-5.623c0-.4.371-.738.81-.738.438 0 .808.338.808.738v2.161h1.748c.448 0 .798.324.798.739 0 .436-.413.728-.798.728h-1.748V0Z" style="fill:#0099df;fill-opacity:1;fill-rule:nonzero;stroke:none" transform="translate(32.512 14.485)"/><path d="M0 0c0-.523-.513-.95-1.142-.95h-24.191c-.629 0-1.141.427-1.141.95v10.241c0 .524.512.95 1.141.95h24.191c.629 0 1.142-.426 1.142-.95Zm-1.142 12.796h-24.191c-1.514 0-2.746-1.147-2.746-2.555V0c0-1.408 1.232-2.555 2.746-2.555h24.191C.372-2.555 1.604-1.408 1.604 0v10.241c0 1.408-1.232 2.555-2.746 2.555" style="fill:#0099df;fill-opacity:1;fill-rule:nonzero;stroke:none" transform="translate(38.237 7.451)"/><path d="M23.636 27.384h1.8v-2.215h-1.8zm-5.937 6.338H19.5v-8.553h-1.801zm-5.935-3.698h1.8v-4.856h-1.8zm27.275-4.856H27.041v3.018a.803.803 0 0 1-.803.803h-3.405a.804.804 0 0 1-.803-.803v-3.018h-.925v9.356a.803.803 0 0 1-.802.803h-3.406a.804.804 0 0 1-.803-.803v-9.356h-.925v5.659a.803.803 0 0 1-.803.803h-2.602v2.894a.804.804 0 0 1-1.605 0V24.366c0-.443.359-.803.802-.803h28.078a.804.804 0 0 1 0 1.605" style="fill:#0099df;fill-opacity:1;fill-rule:nonzero;stroke:none"/><path d="M0 0h-9.194a.802.802 0 1 1 0-1.605H0A.803.803 0 1 1 0 0" style="fill:#0099df;fill-opacity:1;fill-rule:nonzero;stroke:none" transform="translate(39.04 28.4)"/><path d="M0 0h-9.194a.803.803 0 1 1 0-1.605H0A.803.803 0 1 1 0 0" style="fill:#0099df;fill-opacity:1;fill-rule:nonzero;stroke:none" transform="translate(39.04 31.63)"/></g></svg>