<svg width="66.667" height="66.667" xmlns="http://www.w3.org/2000/svg"><defs><clipPath clipPathUnits="userSpaceOnUse" id="a"><path d="M0 50h50V0H0Z"/></clipPath></defs><g clip-path="url(#a)" transform="matrix(1.33333 0 0 -1.33333 0 66.667)"><path d="M0 0a.767.767 0 0 1-.768-.767v-11.045a1.995 1.995 0 0 0-1.992-1.992h-36.118a1.995 1.995 0 0 0-1.993 1.992v31.029c0 1.099.894 1.992 1.993 1.992h14.398a.768.768 0 0 1 0 1.535h-14.398a3.53 3.53 0 0 1-3.527-3.527v-31.029a3.53 3.53 0 0 1 3.527-3.525H-2.76a3.53 3.53 0 0 1 3.527 3.525V-.767A.766.766 0 0 1 0 0" style="fill:#0099df;fill-opacity:1;fill-rule:nonzero;stroke:none" transform="translate(47.188 21.116)"/><path d="M0 0a.765.765 0 0 1-1.046-.286 1.883 1.883 0 0 0-1.632-.95h-35.547A1.877 1.877 0 0 0-40.1.64v30.751c0 .666.358 1.288.935 1.623a.768.768 0 1 1-.77 1.326 3.42 3.42 0 0 1-1.699-2.949V.64a3.414 3.414 0 0 1 3.409-3.411h35.547c1.223 0 2.359.662 2.964 1.725A.767.767 0 0 1 0 0" style="fill:#0099df;fill-opacity:1;fill-rule:nonzero;stroke:none" transform="translate(41.774 3.945)"/><path d="m0 0-3.677-3.746-.129.001-1.443 1.666a.768.768 0 0 1-1.159-1.004l1.429-1.651a1.588 1.588 0 0 1 1.196-.56h.043c.454 0 .881.177 1.162.478l3.673 3.741A.767.767 0 1 1 0 0" style="fill:#0099df;fill-opacity:1;fill-rule:nonzero;stroke:none" transform="translate(39.247 42.245)"/><path d="M0 0a7.522 7.522 0 0 0-5.414 2.079 7.529 7.529 0 0 0-2.359 5.298 7.525 7.525 0 0 0 2.079 5.415 7.527 7.527 0 0 0 5.502 2.362 7.532 7.532 0 0 0 5.211-2.081 7.535 7.535 0 0 0 2.359-5.299A7.532 7.532 0 0 0 5.3 2.36 7.534 7.534 0 0 0 0 0m12.816-3.975L6.788 1.746a9.064 9.064 0 0 1 2.123 6.069 9.105 9.105 0 0 1-9.348 8.87c-5.022-.132-9.001-4.325-8.87-9.348.13-4.942 4.191-8.874 9.106-8.874l.242.003A9.069 9.069 0 0 1 5.713.65l6.047-5.738a.765.765 0 0 1 1.085.028.768.768 0 0 1-.029 1.085" style="fill:#0099df;fill-opacity:1;fill-rule:nonzero;stroke:none" transform="translate(36.805 32.137)"/><path d="M0 0a.768.768 0 0 1-1.081-.092l-5.485-6.513c-.039-.045-.106-.057-.153-.068a.188.188 0 0 0-.148.076l-1.606 2.141a.766.766 0 1 1-1.228-.919l1.606-2.143a1.721 1.721 0 0 1 1.332-.689l.051-.001c.509 0 .987.222 1.318.614L.093-1.081A.767.767 0 0 1 0 0" style="fill:#0099df;fill-opacity:1;fill-rule:nonzero;stroke:none" transform="translate(23.173 38.489)"/><path d="M0 0h5.252a.768.768 0 0 1 0 1.535H0A1.996 1.996 0 0 1-1.993-.458v-6.804c0-1.099.894-1.993 1.993-1.993h6.804c1.099 0 1.993.894 1.993 1.993v2.677a.768.768 0 0 1-1.535 0v-2.677a.458.458 0 0 0-.458-.458H0a.458.458 0 0 0-.458.458v6.804C-.458-.206-.253 0 0 0" style="fill:#0099df;fill-opacity:1;fill-rule:nonzero;stroke:none" transform="translate(12.977 36.441)"/><path d="M0 0a.77.77 0 0 1-1.081-.093l-5.485-6.512c-.038-.045-.101-.063-.154-.07a.19.19 0 0 0-.147.076l-1.606 2.142a.766.766 0 1 1-1.228-.92l1.607-2.143a1.715 1.715 0 0 1 1.333-.688l.047-.001c.51 0 .989.222 1.32.613L.093-1.082A.768.768 0 0 1 0 0" style="fill:#0099df;fill-opacity:1;fill-rule:nonzero;stroke:none" transform="translate(23.173 23.006)"/><path d="M0 0c0-1.099.894-1.992 1.993-1.992h6.803c1.1 0 1.994.893 1.994 1.992v2.677a.766.766 0 0 1-1.535 0V0a.46.46 0 0 0-.459-.459H1.993A.46.46 0 0 0 1.534 0v6.804a.46.46 0 0 0 .459.459h5.252a.766.766 0 1 1 0 1.533H1.993A1.995 1.995 0 0 1 0 6.804Z" style="fill:#0099df;fill-opacity:1;fill-rule:nonzero;stroke:none" transform="translate(10.985 13.695)"/><path d="M0 0v6.804c0 .253.205.459.458.459h6.804a.46.46 0 0 0 .459-.459V0a.46.46 0 0 0-.459-.459H.458A.459.459 0 0 0 0 0m7.262-1.992c1.098 0 1.993.893 1.993 1.992v6.804a1.996 1.996 0 0 1-1.993 1.992H.458a1.994 1.994 0 0 1-1.992-1.992V0c0-1.099.893-1.992 1.992-1.992z" style="fill:#0099df;fill-opacity:1;fill-rule:nonzero;stroke:none" transform="translate(30.162 13.695)"/></g></svg>