<svg xmlns="http://www.w3.org/2000/svg" width="66.667" height="66.667"><defs><clipPath id="a" clipPathUnits="userSpaceOnUse"><path d="M0 50h50V0H0Z"/></clipPath></defs><g clip-path="url(#a)" transform="matrix(1.33333 0 0 -1.33333 0 66.667)"><path d="M0 0h.552a.797.797 0 1 1 0 1.595H0A5.371 5.371 0 0 1-5.365-3.77v-26.052A5.37 5.37 0 0 1 0-35.187h.552a.798.798 0 0 1 0 1.595H0a3.774 3.774 0 0 0-3.769 3.77v12.229h3.477a.797.797 0 1 1 0 1.595h-3.477V-3.77A3.774 3.774 0 0 0 0 0" style="fill:#0099df;fill-opacity:1;fill-rule:nonzero;stroke:none" transform="translate(36.36 41.766)"/><path d="M0 0a.19.19 0 0 0-.188-.189h-7.495A.189.189 0 0 0-7.872 0v9.253c0 .104.084.19.189.19h4.219a.803.803 0 0 0 .568-.236.767.767 0 0 1 .081-.07l2.611-1.984A.795.795 0 0 0 0 6.618Zm.812 8.385-2.623 1.993a2.387 2.387 0 0 1-1.653.659h-4.219c-.984 0-1.784-.8-1.784-1.784V0c0-.984.8-1.784 1.784-1.784h7.495c.983 0 1.783.8 1.783 1.784v6.618c0 .641-.249 1.244-.702 1.695a.613.613 0 0 1-.081.072" style="fill:#0099df;fill-opacity:1;fill-rule:nonzero;stroke:none" transform="translate(48.337 2.68)"/><path d="M0 0h-4.926a.797.797 0 1 1 0-1.595H0A.797.797 0 0 1 0 0" style="fill:#0099df;fill-opacity:1;fill-rule:nonzero;stroke:none" transform="translate(46.864 8.709)"/><path d="M0 0h-4.926a.798.798 0 1 1 0-1.595H0A.797.797 0 0 1 0 0" style="fill:#0099df;fill-opacity:1;fill-rule:nonzero;stroke:none" transform="translate(46.864 5.851)"/><path d="M0 0a.19.19 0 0 0-.188-.19h-7.495a.19.19 0 0 0-.189.19v9.253c0 .104.084.189.189.189h4.219a.802.802 0 0 0 .568-.235.675.675 0 0 1 .081-.071l2.611-1.983A.797.797 0 0 0 0 6.618Zm.812 8.385-2.623 1.992a2.384 2.384 0 0 1-1.653.66h-4.219c-.984 0-1.784-.8-1.784-1.784V0c0-.984.8-1.785 1.784-1.785h7.495c.983 0 1.783.801 1.783 1.785v6.618a2.38 2.38 0 0 1-.702 1.695.8.8 0 0 1-.081.072" style="fill:#0099df;fill-opacity:1;fill-rule:nonzero;stroke:none" transform="translate(48.337 20.345)"/><path d="M0 0h-4.926a.797.797 0 1 1 0-1.595H0A.797.797 0 0 1 0 0" style="fill:#0099df;fill-opacity:1;fill-rule:nonzero;stroke:none" transform="translate(46.864 26.372)"/><path d="M0 0h-4.926a.797.797 0 1 1 0-1.595H0A.797.797 0 0 1 0 0" style="fill:#0099df;fill-opacity:1;fill-rule:nonzero;stroke:none" transform="translate(46.864 23.514)"/><path d="M0 0a.188.188 0 0 0-.188-.188h-7.495A.188.188 0 0 0-7.872 0v9.254c0 .103.084.188.189.188h4.22c.225-.028.414-.082.567-.234a.686.686 0 0 1 .081-.071l2.612-1.985A.793.793 0 0 0 0 6.618Zm.893 8.314a.675.675 0 0 1-.081.071l-2.623 1.993a2.375 2.375 0 0 1-1.648.659h-4.224c-.984 0-1.784-.8-1.784-1.783V0c0-.983.8-1.783 1.784-1.783h7.495c.983 0 1.783.8 1.783 1.783v6.618c0 .643-.249 1.244-.702 1.696" style="fill:#0099df;fill-opacity:1;fill-rule:nonzero;stroke:none" transform="translate(48.337 38.066)"/><path d="M0 0h-4.926a.797.797 0 1 1 0-1.594H0A.797.797 0 0 1 0 0" style="fill:#0099df;fill-opacity:1;fill-rule:nonzero;stroke:none" transform="translate(46.864 44.094)"/><path d="M0 0h-4.926a.797.797 0 1 1 0-1.595H0A.797.797 0 0 1 0 0" style="fill:#0099df;fill-opacity:1;fill-rule:nonzero;stroke:none" transform="translate(46.864 41.236)"/><path d="M0 0c.104-.104.195-.218.276-.336H-3.21a2.331 2.331 0 0 0-2.33 2.328V5.48a2.31 2.31 0 0 0 .337-.276zm-11.188-21.57h-8.855c-.624 0-1.131.508-1.131 1.132V4.613c0 .701.57 1.273 1.272 1.273h12.767V1.992A3.927 3.927 0 0 1-3.21-1.931H.683v-7.945a.797.797 0 1 1 1.595 0v8.228c0 .166-.028.327-.048.489 0 .009.005.016.005.025 0 .027-.012.048-.014.073a3.877 3.877 0 0 1-1.093 2.188l-5.204 5.206c-.6.6-1.364.968-2.188 1.09-.026.003-.048.015-.073.015-.01 0-.017-.004-.026-.005-.161.02-.321.047-.485.047h-13.054a2.87 2.87 0 0 1-2.868-2.867v-25.051a2.73 2.73 0 0 1 2.727-2.727h8.855a.797.797 0 1 1 0 1.595" style="fill:#0099df;fill-opacity:1;fill-rule:nonzero;stroke:none" transform="translate(22.838 33.795)"/><path d="M0 0v-2.365h-1.567V0c0 .44-.357.798-.798.798H-4.73v1.567h2.365c.441 0 .798.357.798.798v2.365H0V3.163c0-.441.357-.798.798-.798h2.365V.798H.798A.798.798 0 0 1 0 0m1.596-2.636v1.839h1.838c.731 0 1.325.594 1.325 1.324v2.109c0 .73-.594 1.324-1.325 1.324H1.596v1.839c0 .73-.595 1.324-1.325 1.324h-2.108a1.327 1.327 0 0 1-1.326-1.324V3.96H-5a1.326 1.326 0 0 1-1.325-1.324V.527c0-.73.594-1.324 1.325-1.324h1.837v-1.839c0-.73.595-1.324 1.326-1.324H.271c.73 0 1.325.594 1.325 1.324" style="fill:#0099df;fill-opacity:1;fill-rule:nonzero;stroke:none" transform="translate(13.375 23.348)"/><path d="M0 0a5.633 5.633 0 0 0-5.627 5.628A5.634 5.634 0 0 0 0 11.256a5.634 5.634 0 0 0 5.627-5.628A5.633 5.633 0 0 0 0 0m0 12.851c-3.982 0-7.223-3.24-7.223-7.223 0-3.983 3.241-7.223 7.223-7.223 3.983 0 7.223 3.24 7.223 7.223 0 3.983-3.24 7.223-7.223 7.223" style="fill:#0099df;fill-opacity:1;fill-rule:nonzero;stroke:none" transform="translate(21.637 8.128)"/><path d="M0 0a3.062 3.062 0 0 1-2.76-1.711.797.797 0 0 1 1.429-.71c.252.51.763.826 1.331.826s1.079-.316 1.331-.826a.798.798 0 1 1 1.429.71A3.062 3.062 0 0 1 0 0" style="fill:#0099df;fill-opacity:1;fill-rule:nonzero;stroke:none" transform="translate(21.636 13.324)"/><path d="M0 0a1.013 1.013 0 1 1-1.012-1.012C-.454-1.012 0-.559 0 0" style="fill:#0099df;fill-opacity:1;fill-rule:nonzero;stroke:none" transform="translate(20.507 15.472)"/><path d="M0 0a1.013 1.013 0 0 1-1.012-1.011 1.012 1.012 0 0 1 2.024 0C1.012-.454.558 0 0 0" style="fill:#0099df;fill-opacity:1;fill-rule:nonzero;stroke:none" transform="translate(23.78 16.483)"/></g></svg>