<svg xmlns="http://www.w3.org/2000/svg" width="66.667" height="66.667"><defs><clipPath id="a" clipPathUnits="userSpaceOnUse"><path d="M0 50h50V0H0Z"/></clipPath></defs><g clip-path="url(#a)" transform="matrix(1.33333 0 0 -1.33333 0 66.667)"><path d="m0 0-2.274-2.273-.872.869A.753.753 0 0 1-4.21-2.469l1.403-1.402a.752.752 0 0 1 1.065-.001l2.806 2.807A.752.752 0 1 1 0 0" style="fill:#0099df;fill-opacity:1;fill-rule:nonzero;stroke:none" transform="translate(26.477 24.737)"/><path d="M0 0a.753.753 0 0 1-.753-.753V-9.79a3.93 3.93 0 0 0-3.925-3.925h-11.697a3.929 3.929 0 0 0-3.924 3.925V1.906a3.929 3.929 0 0 0 3.924 3.925h10.81a.753.753 0 1 1 0 1.506h-10.81a5.437 5.437 0 0 1-5.431-5.431V-9.79a5.437 5.437 0 0 1 5.431-5.431h11.697A5.437 5.437 0 0 1 .753-9.79v9.037A.752.752 0 0 1 0 0" style="fill:#0099df;fill-opacity:1;fill-rule:nonzero;stroke:none" transform="translate(22.136 16.218)"/><path d="M0 0a.754.754 0 0 1 .586 1.388 3.92 3.92 0 0 0-2.401 3.619v11.696a3.929 3.929 0 0 0 3.924 3.925h11.698a3.929 3.929 0 0 0 3.924-3.925V5.007a3.93 3.93 0 0 0-2.337-3.591.753.753 0 0 1 .611-1.378 5.438 5.438 0 0 1 3.232 4.969v11.696a5.437 5.437 0 0 1-5.43 5.432H2.109a5.438 5.438 0 0 1-5.431-5.432V5.007A5.423 5.423 0 0 1 0 0" style="fill:#0099df;fill-opacity:1;fill-rule:nonzero;stroke:none" transform="translate(17.042 26.869)"/><path d="M0 0a4.72 4.72 0 0 0-4.715 4.716c0 2.6 2.115 4.716 4.715 4.716 2.6 0 4.716-2.116 4.716-4.716A4.721 4.721 0 0 0 0 0m6.223 4.716A6.23 6.23 0 0 1 0 10.938a6.229 6.229 0 0 1-6.222-6.222A6.228 6.228 0 0 1 0-1.506a6.229 6.229 0 0 1 6.223 6.222" style="fill:#0099df;fill-opacity:1;fill-rule:nonzero;stroke:none" transform="translate(25 18.455)"/><path d="M0 0h-10.81a.752.752 0 1 1 0-1.506H0a3.93 3.93 0 0 0 3.926-3.925v-11.696A3.93 3.93 0 0 0 0-21.052h-11.696a3.93 3.93 0 0 0-3.925 3.925v9.022a.752.752 0 1 1-1.506 0v-9.022a5.437 5.437 0 0 1 5.431-5.431H0a5.438 5.438 0 0 1 5.432 5.431v11.696A5.438 5.438 0 0 1 0 0" style="fill:#0099df;fill-opacity:1;fill-rule:nonzero;stroke:none" transform="translate(44.238 23.555)"/><path d="M0 0c.416 0 .753.338.753.753v.908h.078a2.417 2.417 0 0 1 2.414 2.415v.908h.299a1.167 1.167 0 0 1 1.09 1.589l-.35.923c-1.251 3.327-2.431 6.47-6.568 6.47h-.006a5.901 5.901 0 0 1-5.528-3.769 5.9 5.9 0 0 1 1.25-6.291V.753a.754.754 0 0 1 1.506 0v3.47c0 .21-.087.41-.24.552a4.405 4.405 0 0 0-1.114 4.872 4.405 4.405 0 0 0 4.126 2.812h.005c2.95 0 3.841-1.984 5.159-5.494l.181-.474h-.563a.753.753 0 0 1-.753-.754V4.076a.91.91 0 0 0-.908-.908H0a.753.753 0 0 1-.753-.753V.753C-.753.338-.416 0 0 0" style="fill:#0099df;fill-opacity:1;fill-rule:nonzero;stroke:none" transform="translate(26.759 31.245)"/><path d="m0 0-1.48-1.545L-2.973.012a.443.443 0 0 0 .314.759.45.45 0 0 0 .316-.131l.33-.33a.751.751 0 0 1 1.065 0l.331.331A.444.444 0 1 0 0 0m1.443 1.199a1.955 1.955 0 0 1-2.923.683 1.955 1.955 0 0 1-2.925-.684 1.942 1.942 0 0 1 .356-2.24l2.025-2.114a.753.753 0 0 1 1.088.001l2.013 2.101a1.95 1.95 0 0 1 .366 2.253" style="fill:#0099df;fill-opacity:1;fill-rule:nonzero;stroke:none" transform="translate(25.843 39.22)"/><path d="M0 0a.753.753 0 0 1-.753-.753v-4.2A1.65 1.65 0 0 1 .894-6.601h1.789a.753.753 0 1 1 0 1.506H.894a.142.142 0 0 0-.141.142v4.2A.753.753 0 0 1 0 0" style="fill:#0099df;fill-opacity:1;fill-rule:nonzero;stroke:none" transform="translate(6.691 13.327)"/><path d="m0 0 3.927-3.323a.75.75 0 0 1 1.061.089.751.751 0 0 1-.088 1.06L.973 1.15a1.643 1.643 0 0 1-2.129-.001L-6.39-3.279a.753.753 0 1 1 .973-1.15L-.183-.001C-.13.044-.053.043 0 0" style="fill:#0099df;fill-opacity:1;fill-rule:nonzero;stroke:none" transform="translate(10.807 17.597)"/><path d="M0 0c.504 0 .972-.144 1.382-.377l-3.829-3.829c-.233.41-.377.878-.377 1.383A2.827 2.827 0 0 0 0 0m0-5.647c-.504 0-.972.143-1.382.376l3.829 3.829c.233-.411.376-.877.376-1.381A2.826 2.826 0 0 0 0-5.647m-3.062-.239c.005-.004.011-.006.015-.01A4.318 4.318 0 0 1 0-7.153a4.335 4.335 0 0 1 4.33 4.33A4.31 4.31 0 0 1 3.064.231c-.001.002-.001.004-.003.005l-.003.002A4.317 4.317 0 0 1 0 1.506a4.336 4.336 0 0 1-4.331-4.329c0-1.189.483-2.265 1.26-3.048.004-.005.005-.011.009-.015" style="fill:#0099df;fill-opacity:1;fill-rule:nonzero;stroke:none" transform="translate(14.74 12.092)"/><path d="M0 0a.753.753 0 1 1 0-1.506h3.109c.263 0 .497-.106.679-.27h-.679a.752.752 0 1 1 0-1.506h3.997c.337 0 .633-.189.817-.487H0a.752.752 0 1 1 0-1.505h8.882c.417 0 .754.337.754.753 0 1.54-1.112 2.745-2.53 2.745H5.524A2.534 2.534 0 0 1 3.109 0Z" style="fill:#0099df;fill-opacity:1;fill-rule:nonzero;stroke:none" transform="translate(31.729 10.472)"/><path d="M0 0v-1.158h-1.911a.753.753 0 0 1-.753-.753v-1.912h-1.159v1.912a.753.753 0 0 1-.753.753h-1.912V0h1.912c.416 0 .753.337.753.753v1.912h1.159V.753c0-.416.337-.753.753-.753Zm-2.355 4.171h-1.777a1.197 1.197 0 0 1-1.197-1.197V1.506h-1.467A1.198 1.198 0 0 1-7.994.309v-1.776c0-.661.537-1.197 1.198-1.197h1.467v-1.468c0-.661.536-1.197 1.197-1.197h1.777c.661 0 1.197.536 1.197 1.197v1.468H.309c.661 0 1.197.536 1.197 1.197V.309C1.506.97.97 1.506.309 1.506h-1.467v1.468c0 .661-.536 1.197-1.197 1.197" style="fill:#0099df;fill-opacity:1;fill-rule:nonzero;stroke:none" transform="translate(44.299 15.184)"/></g></svg>