<svg xmlns="http://www.w3.org/2000/svg" width="66.667" height="66.667"><defs><clipPath id="a" clipPathUnits="userSpaceOnUse"><path d="M0 50h50V0H0Z"/></clipPath></defs><g clip-path="url(#a)" transform="matrix(1.33333 0 0 -1.33333 0 66.667)"><path d="M0 0c.333-.345.5-.781.5-1.312.011-.61-.322-1.297-1-2.065l-.361-.405a7.74 7.74 0 0 1-.681-.779 2.999 2.999 0 0 1-.224-.305 12.04 12.04 0 0 0-.181-.287 1.86 1.86 0 0 1-.172-.322 4.586 4.586 0 0 1-.104-.313 2.01 2.01 0 0 1-.069-.347c0-.328.087-.592.259-.795a.857.857 0 0 1 .689-.304c.241 0 .448.084.62.253.173.169.282.378.328.627 0 .292.04.491.121.592.137.214.373.496.706.846.333.349.631.665.896.947.264.281.502.671.715 1.167.212.496.319 1.022.319 1.574 0 .994-.334 1.809-1 2.446-.666.637-1.562.956-2.687.956a7.008 7.008 0 0 1-2.37-.423c-.786-.282-1.18-.671-1.18-1.168 0-.237.092-.434.276-.592a.923.923 0 0 1 .62-.236c.115 0 .227.024.336.075.109.051.233.118.371.203.137.084.252.15.344.196.425.191.925.287 1.499.287C-.81.516-.333.344 0 0" style="fill:#0099df;fill-opacity:1;fill-rule:nonzero;stroke:none" transform="translate(15.74 31.154)"/><path d="M0 0c.229.22.345.481.345.786 0 .306-.116.565-.345.779-.23.214-.506.322-.827.322-.333 0-.615-.108-.844-.322a1.024 1.024 0 0 1-.345-.779c0-.305.118-.566.353-.786.236-.221.515-.33.836-.33.321 0 .597.109.827.33" style="fill:#0099df;fill-opacity:1;fill-rule:nonzero;stroke:none" transform="translate(15.223 21.22)"/><path d="M0 0a.782.782 0 0 1-.783.782h-13.171c-1.636 0-2.967-1.391-2.967-3.102v-23.941a.782.782 0 1 1 1.565 0V-2.32c0 .847.629 1.538 1.402 1.538H-.783C-.351-.782 0-.432 0 0" style="fill:#0099df;fill-opacity:1;fill-rule:nonzero;stroke:none" transform="translate(17.192 41.918)"/><path d="M0 0h.538a.782.782 0 1 1 0 1.564H0a5.235 5.235 0 0 1-5.23-5.229v-25.373A5.236 5.236 0 0 1 0-34.268h.538a.782.782 0 0 1 0 1.565H0a3.668 3.668 0 0 0-3.665 3.665v11.904h3.381a.783.783 0 1 1 0 1.565h-3.381v11.904A3.67 3.67 0 0 0 0 0" style="fill:#0099df;fill-opacity:1;fill-rule:nonzero;stroke:none" transform="translate(36.506 41.323)"/><path d="M0 0c0-.1-.08-.18-.179-.18h-7.298a.179.179 0 0 0-.178.18v9.012c0 .098.08.178.178.178h4.108a.792.792 0 0 0 .55-.227.583.583 0 0 1 .08-.069l2.542-1.931A.778.778 0 0 0 0 6.445Zm.799 8.171-2.555 1.94a2.324 2.324 0 0 1-1.613.644h-4.108a1.746 1.746 0 0 1-1.744-1.743V0c0-.962.783-1.744 1.744-1.744h7.298c.961 0 1.743.782 1.743 1.744v6.445c0 .625-.243 1.212-.684 1.656a.904.904 0 0 1-.081.07" style="fill:#0099df;fill-opacity:1;fill-rule:nonzero;stroke:none" transform="translate(48.165 3.264)"/><path d="M0 0h-4.797a.782.782 0 0 1 0-1.564H0A.782.782 0 1 1 0 0" style="fill:#0099df;fill-opacity:1;fill-rule:nonzero;stroke:none" transform="translate(46.736 9.14)"/><path d="M0 0h-4.797a.782.782 0 1 1 0-1.563H0A.78.78 0 1 1 0 0" style="fill:#0099df;fill-opacity:1;fill-rule:nonzero;stroke:none" transform="translate(46.736 6.356)"/><path d="M0 0c0-.1-.08-.18-.179-.18h-7.298a.179.179 0 0 0-.178.18v9.012c0 .098.08.178.178.178h4.108a.792.792 0 0 0 .55-.227.574.574 0 0 1 .079-.069l2.543-1.932A.771.771 0 0 0 0 6.445Zm.8 8.17-2.555 1.941a2.328 2.328 0 0 1-1.614.644h-4.108a1.746 1.746 0 0 1-1.744-1.743V0c0-.961.783-1.743 1.744-1.743h7.298c.961 0 1.743.782 1.743 1.743v6.445c0 .625-.243 1.213-.685 1.655a.878.878 0 0 1-.079.07" style="fill:#0099df;fill-opacity:1;fill-rule:nonzero;stroke:none" transform="translate(48.165 20.466)"/><path d="M0 0h-4.797a.782.782 0 1 1 0-1.564H0A.781.781 0 1 1 0 0" style="fill:#0099df;fill-opacity:1;fill-rule:nonzero;stroke:none" transform="translate(46.736 26.342)"/><path d="M0 0h-4.797a.782.782 0 0 1 0-1.564H0A.782.782 0 1 1 0 0" style="fill:#0099df;fill-opacity:1;fill-rule:nonzero;stroke:none" transform="translate(46.736 23.558)"/><path d="M0 0c0-.1-.08-.18-.179-.18h-7.298a.179.179 0 0 0-.178.18v9.011c0 .098.08.178.178.178h4.108a.779.779 0 0 0 .55-.226.542.542 0 0 1 .08-.07l2.542-1.931A.774.774 0 0 0 0 6.444Zm.879 8.1a.77.77 0 0 1-.08.07l-2.554 1.94a2.329 2.329 0 0 1-1.614.644h-4.108a1.746 1.746 0 0 1-1.744-1.743V0c0-.962.783-1.744 1.744-1.744h7.298c.961 0 1.743.782 1.743 1.744v6.444c0 .626-.243 1.214-.685 1.656" style="fill:#0099df;fill-opacity:1;fill-rule:nonzero;stroke:none" transform="translate(48.165 37.726)"/><path d="M0 0h-4.797a.782.782 0 1 1 0-1.564H0A.781.781 0 1 1 0 0" style="fill:#0099df;fill-opacity:1;fill-rule:nonzero;stroke:none" transform="translate(46.736 43.602)"/><path d="M0 0h-4.797a.782.782 0 1 1 0-1.563H0A.78.78 0 1 1 0 0" style="fill:#0099df;fill-opacity:1;fill-rule:nonzero;stroke:none" transform="translate(46.736 40.818)"/><path d="M0 0h-4.104c-.87.025-1.561.844-1.54 1.84l-.001 21.274c-.02.979.671 1.797 1.518 1.823h12.61a1.403 1.403 0 0 0 1.043-.501l4.397-5.017a2.02 2.02 0 0 0 .483-1.34v-7.112a.783.783 0 0 1 1.566 0v7.11a3.6 3.6 0 0 1-.868 2.37l-4.398 5.017a2.971 2.971 0 0 1-2.218 1.038H-4.151c-1.725-.053-3.097-1.588-3.058-3.405V1.857c-.04-1.836 1.333-3.371 3.082-3.421H0A.782.782 0 1 1 0 0" style="fill:#0099df;fill-opacity:1;fill-rule:nonzero;stroke:none" transform="translate(10.598 12.99)"/><path d="M0 0a.597.597 0 0 0-.597.589c.014.134.211.504.597.992.384-.484.582-.853.598-.989A.599.599 0 0 0 0 0m-6.619-.01a.598.598 0 0 0-.597.59c.013.132.211.502.598.991.387-.487.581-.849.597-.988a.6.6 0 0 0-.598-.593M.529 3.309a.779.779 0 0 1-.565.246h-.005l-2.417-.013v.603a.783.783 0 0 1-1.565 0v-.612L-6.45 3.52c-.047-.001-.087-.02-.131-.028-.012 0-.023.007-.035.007h-.002a.97.97 0 0 1-.637-.275C-8.268 2.147-8.781 1.26-8.781.588c0-1.192.97-2.162 2.162-2.162 1.193 0 2.163.97 2.163 2.162 0 .387-.19.851-.526 1.375l.959.006v-4.848h-.815a.782.782 0 1 1 0-1.563h3.194a.782.782 0 1 1 0 1.563h-.814v4.857l.817.003c-.304-.469-.521-.955-.521-1.383 0-1.193.97-2.162 2.162-2.162 1.193 0 2.163.969 2.163 2.162 0 .839-.83 1.897-1.523 2.631-.032.035-.076.051-.111.08" style="fill:#0099df;fill-opacity:1;fill-rule:nonzero;stroke:none" transform="translate(24.98 12.96)"/><path d="M0 0a6.448 6.448 0 0 0-6.44 6.44A6.448 6.448 0 0 0 0 12.881c3.552 0 6.44-2.89 6.44-6.441C6.44 2.89 3.552 0 0 0m0 14.445c-4.414 0-8.005-3.591-8.005-8.005 0-4.414 3.591-8.004 8.005-8.004 4.414 0 8.006 3.59 8.006 8.004S4.414 14.445 0 14.445" style="fill:#0099df;fill-opacity:1;fill-rule:nonzero;stroke:none" transform="translate(21.67 6.761)"/></g></svg>