<svg xmlns="http://www.w3.org/2000/svg" width="66.667" height="66.667"><defs><clipPath id="a" clipPathUnits="userSpaceOnUse"><path d="M0 50h50V0H0Z"/></clipPath></defs><g clip-path="url(#a)" transform="matrix(1.33333 0 0 -1.33333 0 66.667)"><path d="M0 0c0 1.425.964 2.616 2.271 2.989v-4.312a.85.85 0 1 1 1.7 0v4.312A3.115 3.115 0 0 0 6.242 0v-1.797h-.473a.85.85 0 0 1-.846-.766l-.586-5.853H1.904l-.585 5.853a.85.85 0 0 1-.845.766H0Zm1.324 7.942A1.8 1.8 0 0 0 3.121 9.74a1.798 1.798 0 1 0-1.797-1.798M-.85-3.497h.555L.29-9.351a.849.849 0 0 1 .845-.764h3.971c.437 0 .803.33.846.764l.586 5.854h.554c.47 0 .85.381.85.85V0c0 2.253-1.559 4.135-3.65 4.661 1.351.484 2.327 1.765 2.327 3.281a3.502 3.502 0 0 1-3.498 3.498A3.5 3.5 0 0 1-.376 7.942c0-1.516.975-2.797 2.327-3.281C-.141 4.135-1.7 2.253-1.7 0v-2.647a.85.85 0 0 1 .85-.85" style="fill:#0098da;fill-opacity:1;fill-rule:nonzero;stroke:none" transform="translate(15.922 33.012)"/><path d="M0 0h9.266a.475.475 0 0 0 .474-.474V-9.74a.475.475 0 0 0-.474-.474H1.323a.85.85 0 0 1 0-1.7h1.799v-2.933H1.323a.85.85 0 0 1 0-1.7h5.296a.85.85 0 0 1 0 1.7H4.821v2.933h4.445c1.198 0 2.173.976 2.173 2.174v9.266A2.176 2.176 0 0 1 9.266 1.7H0A.85.85 0 0 1 0 0" style="fill:#0098da;fill-opacity:1;fill-rule:nonzero;stroke:none" transform="translate(24.338 42.752)"/><path d="m0 0 1.384 1.385L2.768 0A.854.854 0 0 1 3.97 0l1.86 1.859v-.595a.85.85 0 1 1 1.699 0v2.647a.854.854 0 0 1-.85.85H4.032a.85.85 0 1 1 0-1.7h.595L3.37 1.804 1.986 3.188a.876.876 0 0 1-1.203 0l-1.985-1.986A.85.85 0 1 1 0 0" style="fill:#0098da;fill-opacity:1;fill-rule:nonzero;stroke:none" transform="translate(25.601 35.72)"/><path d="M0 0a1.15 1.15 0 0 0 1.15 1.149h22.057c.633 0 1.15-.515 1.15-1.149v-23.069c0-.634-.517-1.151-1.15-1.151H1.15c-.634 0-1.15.517-1.15 1.151zm1.15-25.919h22.057a2.852 2.852 0 0 1 2.849 2.85V0a2.853 2.853 0 0 1-2.849 2.85H1.15A2.854 2.854 0 0 1-1.7 0v-23.069a2.853 2.853 0 0 1 2.85-2.85" style="fill:#0098da;fill-opacity:1;fill-rule:nonzero;stroke:none" transform="translate(12.822 45.546)"/><path d="M0 0c.469 0 .85.38.85.85v.523a3.484 3.484 0 0 0 3.48 3.48h13.389V1.649a.85.85 0 0 1 1.7 0v3.204h13.39a3.484 3.484 0 0 0 3.479-3.48V.85a.85.85 0 1 1 1.699 0v.523a5.184 5.184 0 0 1-5.178 5.179H4.33A5.185 5.185 0 0 1-.85 1.373V.85C-.85.38-.469 0 0 0" style="fill:#0098da;fill-opacity:1;fill-rule:nonzero;stroke:none" transform="translate(6.553 11.85)"/><path d="M0 0a.087.087 0 0 0-.086-.086h-8.995A.087.087 0 0 0-9.167 0v6.274c0 .053.043.096.095.096h8.976A.095.095 0 0 0 0 6.274Zm-.096 8.069h-8.976c-.99 0-1.794-.804-1.794-1.795V0c0-.984.801-1.785 1.785-1.785h8.995c.984 0 1.785.801 1.785 1.785v6.274c0 .991-.804 1.795-1.795 1.795" style="fill:#0098da;fill-opacity:1;fill-rule:nonzero;stroke:none" transform="translate(48.018 3.39)"/><path d="M0 0h-4.67a.85.85 0 1 1 0-1.699H0A.85.85 0 1 1 0 0" style="fill:#0098da;fill-opacity:1;fill-rule:nonzero;stroke:none" transform="translate(45.769 8.735)"/><path d="M0 0h-4.67a.85.85 0 1 1 0-1.699H0A.85.85 0 1 1 0 0" style="fill:#0098da;fill-opacity:1;fill-rule:nonzero;stroke:none" transform="translate(45.769 6.14)"/><path d="M0 0h-4.669a.85.85 0 1 1 0-1.699H0A.85.85 0 1 1 0 0" style="fill:#0098da;fill-opacity:1;fill-rule:nonzero;stroke:none" transform="translate(26.628 8.735)"/><path d="M0 0h-4.669a.85.85 0 1 1 0-1.699H0A.85.85 0 1 1 0 0" style="fill:#0098da;fill-opacity:1;fill-rule:nonzero;stroke:none" transform="translate(26.628 6.14)"/><path d="M0 0a.087.087 0 0 0-.086-.086h-8.995A.086.086 0 0 0-9.166 0v6.274c0 .053.042.096.095.096h8.976A.096.096 0 0 0 0 6.274Zm-.095 8.069h-8.976c-.99 0-1.795-.804-1.795-1.795V0c0-.984.801-1.785 1.785-1.785h8.995c.984 0 1.785.801 1.785 1.785v6.274c0 .991-.804 1.795-1.794 1.795" style="fill:#0098da;fill-opacity:1;fill-rule:nonzero;stroke:none" transform="translate(29.11 3.39)"/><path d="M0 0a.086.086 0 0 0-.085-.086H-9.08A.087.087 0 0 0-9.166 0v6.274c0 .053.042.096.095.096h8.977A.095.095 0 0 0 0 6.274Zm-.094 8.069h-8.977c-.99 0-1.795-.804-1.795-1.795V0c0-.984.802-1.785 1.786-1.785h8.995C.899-1.785 1.7-.984 1.7 0v6.274c0 .991-.805 1.795-1.794 1.795" style="fill:#0098da;fill-opacity:1;fill-rule:nonzero;stroke:none" transform="translate(11.149 3.39)"/><path d="M0 0h-4.669a.85.85 0 1 1 0-1.699H0A.85.85 0 1 1 0 0" style="fill:#0098da;fill-opacity:1;fill-rule:nonzero;stroke:none" transform="translate(8.9 8.735)"/><path d="M0 0h-4.669a.85.85 0 1 1 0-1.699H0A.85.85 0 1 1 0 0" style="fill:#0098da;fill-opacity:1;fill-rule:nonzero;stroke:none" transform="translate(8.9 6.14)"/></g></svg>