<svg xmlns="http://www.w3.org/2000/svg" width="66.667" height="66.667"><defs><clipPath id="a" clipPathUnits="userSpaceOnUse"><path d="M0 50h50V0H0Z"/></clipPath></defs><g clip-path="url(#a)" transform="matrix(1.33333 0 0 -1.33333 0 66.667)"><path d="M0 0a.85.85 0 0 0-.85.85v10.871c0 1.132-.973 2.051-2.169 2.051h-6.037a.85.85 0 0 0 0 1.701h6.037c2.133 0 3.869-1.683 3.869-3.752V.85A.85.85 0 0 0 0 0" style="fill:#0099df;fill-opacity:1;fill-rule:nonzero;stroke:none" transform="translate(37.674 27.634)"/><path d="M0 0h-27.169c-2.133 0-3.869 1.683-3.869 3.751v34.817c0 2.069 1.736 3.752 3.869 3.752h6.038a.85.85 0 0 0 0-1.7h-6.038c-1.196 0-2.168-.92-2.168-2.052V3.751c0-1.131.972-2.052 2.168-2.052H0a2.19 2.19 0 0 1 1.842.969.85.85 0 1 0 1.42-.936A3.886 3.886 0 0 0 0 0" style="fill:#0099df;fill-opacity:1;fill-rule:nonzero;stroke:none" transform="translate(34.655 .787)"/><path d="M0 0h-5.689a.85.85 0 1 0 0 1.7H0A.85.85 0 1 0 0 0" style="fill:#0099df;fill-opacity:1;fill-rule:nonzero;stroke:none" transform="translate(31.947 29.166)"/><path d="M0 0h-13.767a.85.85 0 0 0 0 1.7H0A.85.85 0 0 0 0 0" style="fill:#0099df;fill-opacity:1;fill-rule:nonzero;stroke:none" transform="translate(23.494 29.166)"/><path d="M0 0h-12.61a.85.85 0 1 0 0 1.7H0A.85.85 0 0 0 0 0" style="fill:#0099df;fill-opacity:1;fill-rule:nonzero;stroke:none" transform="translate(22.338 23.597)"/><path d="M0 0h.628v1.393c0 .469.381.85.851.85h1.478v.542H1.479a.85.85 0 0 0-.851.85v1.393H0V3.635a.85.85 0 0 0-.85-.85h-1.479v-.542H-.85a.85.85 0 0 0 .85-.85Zm.896-1.7H-.268c-.79 0-1.432.633-1.432 1.41v.832h-.897c-.79 0-1.432.633-1.432 1.411v1.122c0 .778.642 1.41 1.432 1.41h.897v.832c0 .778.642 1.411 1.432 1.411H.896c.79 0 1.433-.633 1.433-1.411v-.832h.896c.79 0 1.432-.632 1.432-1.41V1.953c0-.778-.642-1.411-1.432-1.411h-.896V-.29c0-.777-.643-1.41-1.433-1.41" style="fill:#0099df;fill-opacity:1;fill-rule:nonzero;stroke:none" transform="translate(20.757 39.674)"/><path d="M0 0a5.818 5.818 0 0 1-5.811-5.812A5.818 5.818 0 0 1 0-11.623a5.818 5.818 0 0 1 5.812 5.811A5.818 5.818 0 0 1 0 0m0-13.323c-4.142 0-7.511 3.37-7.511 7.511C-7.511-1.669-4.142 1.7 0 1.7c4.142 0 7.511-3.369 7.511-7.512 0-4.141-3.369-7.511-7.511-7.511" style="fill:#0099df;fill-opacity:1;fill-rule:nonzero;stroke:none" transform="translate(21.07 47.999)"/><path d="M0 0h-6.662a.85.85 0 1 0 0 1.699H0A.85.85 0 1 0 0 0" style="fill:#0099df;fill-opacity:1;fill-rule:nonzero;stroke:none" transform="translate(22.338 17.84)"/><path d="M0 0h-3.164a.85.85 0 1 0 0 1.699H0A.85.85 0 1 0 0 0" style="fill:#0099df;fill-opacity:1;fill-rule:nonzero;stroke:none" transform="translate(12.891 17.84)"/><path d="M0 0h-12.61a.85.85 0 1 0 0 1.699H0A.85.85 0 1 0 0 0" style="fill:#0099df;fill-opacity:1;fill-rule:nonzero;stroke:none" transform="translate(22.338 12.102)"/><path d="M0 0h-3.185a.85.85 0 1 0 0 1.699H0A.85.85 0 1 0 0 0" style="fill:#0099df;fill-opacity:1;fill-rule:nonzero;stroke:none" transform="translate(22.338 6.375)"/><path d="M0 0h-6.607a.85.85 0 1 0 0 1.699H0A.85.85 0 1 0 0 0" style="fill:#0099df;fill-opacity:1;fill-rule:nonzero;stroke:none" transform="translate(16.334 6.375)"/><path d="M0 0a1.403 1.403 0 0 1-1.401-1.401v-12.411c0-.772.629-1.401 1.401-1.401h12.41c.773 0 1.402.629 1.402 1.401v12.411C13.812-.629 13.183 0 12.41 0Zm12.41-16.912H0a3.104 3.104 0 0 0-3.101 3.1v12.411A3.104 3.104 0 0 0 0 1.7h12.41a3.104 3.104 0 0 0 3.101-3.101v-12.411c0-1.709-1.391-3.1-3.101-3.1" style="fill:#0099df;fill-opacity:1;fill-rule:nonzero;stroke:none" transform="translate(30.129 23.342)"/><path d="M0 0a.848.848 0 0 0-.601.249l-2.879 2.88A.849.849 0 1 0-2.279 4.33L0 2.052 5.157 7.21A.85.85 0 0 0 6.36 6.009L.602.249A.852.852 0 0 0 0 0" style="fill:#0099df;fill-opacity:1;fill-rule:nonzero;stroke:none" transform="translate(35.045 11.79)"/></g></svg>