<svg xmlns="http://www.w3.org/2000/svg" width="66.667" height="66.667"><defs><clipPath id="a" clipPathUnits="userSpaceOnUse"><path d="M0 50h50V0H0Z"/></clipPath></defs><g clip-path="url(#a)" transform="matrix(1.33333 0 0 -1.33333 0 66.667)"><path d="M0 0h-14.803a3.677 3.677 0 0 0-3.66 3.659v27.403a3.664 3.664 0 0 0 3.643 3.646h38.138a3.676 3.676 0 0 0 3.661-3.657V20.695a.85.85 0 1 0-1.699 0v10.353a1.973 1.973 0 0 1-1.964 1.96h-38.133a1.958 1.958 0 0 1-1.946-1.948V3.661a1.973 1.973 0 0 1 1.962-1.962H0A.85.85 0 1 0 0 0" style="fill:#0099df;fill-opacity:1;fill-rule:nonzero;stroke:none" transform="translate(19.085 11.474)"/><path d="M0 0h-43.743a.85.85 0 0 0 0 1.7H0A.85.85 0 1 0 0 0" style="fill:#0099df;fill-opacity:1;fill-rule:nonzero;stroke:none" transform="translate(45.215 36.301)"/><path d="M0 0h-18.162a3.034 3.034 0 0 0-3.031 3.03v14.281c0 1.67 1.36 3.03 3.031 3.03h9.758a.85.85 0 0 0 0-1.699h-9.758a1.333 1.333 0 0 1-1.331-1.331V3.03c0-.733.597-1.331 1.331-1.331H0c.733 0 1.331.598 1.331 1.331v8.493a.85.85 0 1 0 1.699 0V3.03A3.033 3.033 0 0 0 0 0" style="fill:#0099df;fill-opacity:1;fill-rule:nonzero;stroke:none" transform="translate(43.086 3.57)"/><path d="M0 0a.845.845 0 0 0-.601.249l-1.362 1.362A.85.85 0 0 0-.762 2.813L0 2.052l2.126 2.124a.85.85 0 1 0 1.201-1.202L.601.248A.85.85 0 0 0 0 0" style="fill:#0099df;fill-opacity:1;fill-rule:nonzero;stroke:none" transform="translate(42.894 21.43)"/><path d="M0 0a4.213 4.213 0 0 1-4.208-4.208A4.213 4.213 0 0 1 0-8.415a4.213 4.213 0 0 1 4.208 4.207A4.213 4.213 0 0 1 0 0m0-10.114a5.913 5.913 0 0 0-5.907 5.906A5.913 5.913 0 0 0 0 1.7a5.913 5.913 0 0 0 5.907-5.908A5.913 5.913 0 0 0 0-10.114" style="fill:#0099df;fill-opacity:1;fill-rule:nonzero;stroke:none" transform="translate(43.575 27.85)"/><path d="M0 0a.579.579 0 1 1 .577-.578A.578.578 0 0 1 0 0m0-2.855A2.28 2.28 0 0 0-2.278-.578 2.28 2.28 0 0 0 0 1.7 2.28 2.28 0 0 0 2.277-.578 2.28 2.28 0 0 0 0-2.855" style="fill:#0099df;fill-opacity:1;fill-rule:nonzero;stroke:none" transform="translate(7.906 41.593)"/><path d="M0 0a.579.579 0 1 1 .577-.578A.578.578 0 0 1 0 0m0-2.855A2.28 2.28 0 0 0-2.278-.578 2.28 2.28 0 0 0 0 1.7 2.28 2.28 0 0 0 2.277-.578 2.28 2.28 0 0 0 0-2.855" style="fill:#0099df;fill-opacity:1;fill-rule:nonzero;stroke:none" transform="translate(13.41 41.593)"/><path d="M0 0a.578.578 0 1 1 .002-1.156A.578.578 0 0 1 0 0m0-2.855A2.28 2.28 0 0 0-2.277-.578 2.28 2.28 0 0 0 0 1.7 2.28 2.28 0 0 0 2.277-.578 2.28 2.28 0 0 0 0-2.855" style="fill:#0099df;fill-opacity:1;fill-rule:nonzero;stroke:none" transform="translate(18.756 41.593)"/><path d="M0 0h-.067C-5.362-.041-7.39-4.762-7.474-4.963l-.316-.758.398-.719c.114-.206 2.839-5.032 7.339-5.032l.072.001c4.489.051 7.374 4.893 7.495 5.099l.459.784-.397.817C7.481-4.576 5.199 0 0 0m0-1.7c4.195 0 6.047-3.814 6.047-3.814S3.579-9.731-.001-9.772h-.052c-3.55 0-5.852 4.155-5.852 4.155S-4.286-1.733-.053-1.7H0" style="fill:#0099df;fill-opacity:1;fill-rule:nonzero;stroke:none" transform="translate(33.934 19.006)"/><path d="M0 0a4.593 4.593 0 0 1-4.588-4.587A4.593 4.593 0 0 1 0-9.175a4.592 4.592 0 0 1 4.587 4.588A4.592 4.592 0 0 1 0 0m0-1.7a2.887 2.887 0 1 0 0-5.774A2.887 2.887 0 0 0 0-1.7" style="fill:#0099df;fill-opacity:1;fill-rule:nonzero;stroke:none" transform="translate(34.005 17.857)"/><path d="M0 0a1.426 1.426 0 1 0-2.852 0A1.426 1.426 0 0 0 0 0" style="fill:#0099df;fill-opacity:1;fill-rule:nonzero;stroke:none" transform="translate(35.43 13.27)"/><path d="M0 0h-5.334a.85.85 0 1 0 0 1.7H0A.85.85 0 0 0 0 0" style="fill:#0099df;fill-opacity:1;fill-rule:nonzero;stroke:none" transform="translate(12.493 28.814)"/><path d="M0 0h-18.766a.85.85 0 0 0 0 1.7H0A.85.85 0 1 0 0 0" style="fill:#0099df;fill-opacity:1;fill-rule:nonzero;stroke:none" transform="translate(34.53 28.814)"/><path d="M0 0h-11.746a.85.85 0 0 0 0 1.7H0A.85.85 0 0 0 0 0" style="fill:#0099df;fill-opacity:1;fill-rule:nonzero;stroke:none" transform="translate(18.905 23.502)"/><path d="M0 0h-3.283a.85.85 0 1 0 0 1.699H0A.85.85 0 1 0 0 0" style="fill:#0099df;fill-opacity:1;fill-rule:nonzero;stroke:none" transform="translate(10.441 18.139)"/><path d="M0 0h-5.039a.85.85 0 1 0 0 1.699H0A.85.85 0 1 0 0 0" style="fill:#0099df;fill-opacity:1;fill-rule:nonzero;stroke:none" transform="translate(18.638 18.139)"/></g></svg>