<svg width="66.667" height="66.667" xmlns="http://www.w3.org/2000/svg"><defs><clipPath clipPathUnits="userSpaceOnUse" id="a"><path d="M0 50h50V0H0Z"/></clipPath></defs><g clip-path="url(#a)" transform="matrix(1.33333 0 0 -1.33333 0 66.667)"><path d="M0 0c0 .978.408 1.434 1.285 1.434S2.57.978 2.57 0v-2.274c0-.541-.167-1.446-1.285-1.446C.167-3.72 0-2.815 0-2.274Zm1.285 3.129c-1.977 0-3.158-1.17-3.158-3.129v-2.274c0-1.908 1.24-3.14 3.158-3.14 1.919 0 3.158 1.232 3.158 3.14V0c0 1.959-1.181 3.129-3.158 3.129" style="fill:#0099df;fill-opacity:1;fill-rule:nonzero;stroke:none" transform="translate(24.334 16.202)"/><path d="M0 0c.346 0 .626-.079.912-.26l.172-.103c.124-.078.24-.154.507-.154.491 0 .889.363.889.808 0 .794-1.337 1.348-2.538 1.348-1.998 0-3.099-1.112-3.099-3.129v-2.275c0-2.017 1.101-3.129 3.099-3.129 1.201 0 2.538.554 2.538 1.348 0 .445-.398.808-.889.808a.794.794 0 0 1-.506-.154l-.177-.106A1.604 1.604 0 0 0 0-5.255c-.888 0-1.284.46-1.284 1.49v2.275C-1.284-.459-.888 0 0 0" style="fill:#0099df;fill-opacity:1;fill-rule:nonzero;stroke:none" transform="translate(33.302 17.692)"/><path d="M0 0c0-.671-.61-.812-1.121-.812h-1.192V.859h1.122C-.39.859 0 .578 0 0m.313-2.267C1.321-1.89 1.872-1.09 1.872 0c0 1.599-1.128 2.554-3.018 2.554H-3.18c-.545 0-1.007-.433-1.007-.945v-6.617c0-.475.424-.877.926-.877.505 0 .948.409.948.877v2.513h.613l1.929-2.97a.916.916 0 0 1 .79-.409c.338 0 .693.219.859.531a.782.782 0 0 1-.049.836z" style="fill:#0099df;fill-opacity:1;fill-rule:nonzero;stroke:none" transform="translate(41.348 16.673)"/><path d="M0 0c0-.512-.501-.928-1.116-.928h-25.798c-.615 0-1.115.416-1.115.928v12.981c0 .512.5.928 1.115.928h25.798c.615 0 1.116-.416 1.116-.928Zm-1.116 15.515h-25.798c-1.501 0-2.722-1.136-2.722-2.534V0c0-1.397 1.221-2.533 2.722-2.533h25.798C.385-2.533 1.605-1.397 1.605 0v12.981c0 1.398-1.22 2.534-2.721 2.534" style="fill:#0099df;fill-opacity:1;fill-rule:nonzero;stroke:none" transform="translate(47.201 8.158)"/><path d="M0 0c.379-.38.672-.822.877-1.301h-6.25a4.123 4.123 0 0 0-4.119 4.118v6.251c.48-.204.923-.497 1.302-.877zm-29.915 4.844c.443 0 .803.359.803.802v1.295a2.457 2.457 0 0 0 2.455 2.455h15.559V2.817a5.732 5.732 0 0 1 5.725-5.725h6.579l.001-.006v-9.092a.803.803 0 1 1 1.606 0v9.092c0 1.53-.596 2.968-1.677 4.05l-8.191 8.191a5.681 5.681 0 0 1-4.044 1.675h-15.558a4.066 4.066 0 0 1-4.061-4.061V5.646c0-.443.36-.802.803-.802" style="fill:#0099df;fill-opacity:1;fill-rule:nonzero;stroke:none" transform="translate(39.99 38.998)"/><path d="M0 0a.802.802 0 0 1-.803-.803c0-.758-.722-1.374-1.611-1.374h-29.611c-.889 0-1.611.616-1.611 1.374v35.339c0 .757.722 1.374 1.611 1.374h15.252a.803.803 0 1 1 0 1.606h-15.252c-1.774 0-3.217-1.337-3.217-2.98V-.803c0-1.643 1.443-2.979 3.217-2.979h29.611C-.641-3.782.803-2.446.803-.803.803-.359.443 0 0 0" style="fill:#0099df;fill-opacity:1;fill-rule:nonzero;stroke:none" transform="translate(36.435 3.782)"/><path d="M0 0a.804.804 0 0 1 0 1.606h-6.95A.803.803 0 1 1-6.95 0Z" style="fill:#0099df;fill-opacity:1;fill-rule:nonzero;stroke:none" transform="translate(20.54 32.269)"/><path d="M0 0h3.267a.804.804 0 0 1 0 1.606H0A.803.803 0 1 1 0 0" style="fill:#0099df;fill-opacity:1;fill-rule:nonzero;stroke:none" transform="translate(6.881 32.269)"/><path d="M0 0a.804.804 0 0 1 0-1.606h5.238a.802.802 0 1 1 0 1.606Z" style="fill:#0099df;fill-opacity:1;fill-rule:nonzero;stroke:none" transform="translate(25.076 28.774)"/><path d="M0 0c0 .443-.36.803-.803.803h-14.754a.804.804 0 0 1 0-1.606H-.803C-.36-.803 0-.443 0 0" style="fill:#0099df;fill-opacity:1;fill-rule:nonzero;stroke:none" transform="translate(22.439 27.97)"/><path d="M0 0h-7.096a.802.802 0 1 1 0-1.605H0A.803.803 0 1 1 0 0" style="fill:#0099df;fill-opacity:1;fill-rule:nonzero;stroke:none" transform="translate(13.977 23.673)"/><path d="M0 0h-7.096a.802.802 0 1 1 0-1.606H0A.804.804 0 0 1 0 0" style="fill:#0099df;fill-opacity:1;fill-rule:nonzero;stroke:none" transform="translate(13.977 18.56)"/><path d="M0 0h-7.096a.802.802 0 1 1 0-1.605H0A.802.802 0 1 1 0 0" style="fill:#0099df;fill-opacity:1;fill-rule:nonzero;stroke:none" transform="translate(13.977 13.448)"/></g></svg>