<svg xmlns="http://www.w3.org/2000/svg" width="66.667" height="66.667"><defs><clipPath id="a" clipPathUnits="userSpaceOnUse"><path d="M0 50h50V0H0Z"/></clipPath></defs><g clip-path="url(#a)" transform="matrix(1.33333 0 0 -1.33333 0 66.667)"><path d="M0 0h-14.141a.815.815 0 1 1 0-1.63H0A.815.815 0 1 1 0 0" style="fill:#0098da;fill-opacity:1;fill-rule:nonzero;stroke:none" transform="translate(20.166 20.32)"/><path d="M0 0h-14.141a.816.816 0 1 1 0-1.631H0A.816.816 0 1 1 0 0" style="fill:#0098da;fill-opacity:1;fill-rule:nonzero;stroke:none" transform="translate(20.166 15.633)"/><path d="m0 0-5.866 5.826a10.48 10.48 0 0 1 2.007 3.609.817.817 0 0 1-1.554.499A8.83 8.83 0 0 0-7.556 6.4c-.008-.007-.019-.01-.027-.018-.008-.008-.01-.018-.018-.027a8.822 8.822 0 0 0-6.232-2.56c-4.874 0-8.841 3.967-8.841 8.841 0 4.874 3.967 8.84 8.841 8.84a8.797 8.797 0 0 0 5.012-1.557.815.815 0 1 1 .925 1.344 10.419 10.419 0 0 1-5.937 1.844c-5.773 0-10.471-4.698-10.471-10.471 0-5.775 4.698-10.471 10.471-10.471 2.571 0 4.965.924 6.814 2.507l5.871-5.83a.813.813 0 0 1 1.153.005A.817.817 0 0 1 0 0" style="fill:#0098da;fill-opacity:1;fill-rule:nonzero;stroke:none" transform="translate(49.302 2.046)"/><path d="m0 0 6.759 7.021c.414.433 1.117.44 1.548-.008a1.232 1.232 0 0 0 0-1.69h-.001L1.556-1.69l-1.96-.408zm-1.557.545-.68-3.536a.818.818 0 0 1 .801-.969c.055 0 .111.006.165.017l3.405.707a.807.807 0 0 1 .422.232l6.925 7.195c.511.53.791 1.231.791 1.977s-.281 1.447-.796 1.982c-1.021 1.062-2.872 1.062-3.893.001L-1.343.957a.824.824 0 0 1-.214-.412" style="fill:#0098da;fill-opacity:1;fill-rule:nonzero;stroke:none" transform="translate(36.917 12.557)"/><path d="M0 0a.814.814 0 0 1-.815.815H-7.29a.814.814 0 0 1 0-1.63h6.475C-.364-.815 0-.45 0 0" style="fill:#0098da;fill-opacity:1;fill-rule:nonzero;stroke:none" transform="translate(37.296 18.145)"/><path d="M0 0a.814.814 0 0 1-.814-.815c0-.452.364-.816.814-.816h3.434a.815.815 0 1 1 0 1.631Z" style="fill:#0098da;fill-opacity:1;fill-rule:nonzero;stroke:none" transform="translate(30.006 15.519)"/><path d="M0 0c.293-.293.517-.633.689-.997h-5.422a3.588 3.588 0 0 0-3.583 3.583v5.425a3.58 3.58 0 0 0 .996-.69zm-4.055-29.832h-23.322a1.901 1.901 0 0 0-1.898 1.899V6.272a2.1 2.1 0 0 0 2.097 2.097h17.231V2.586a5.22 5.22 0 0 1 5.214-5.214H1.05V-6.92a.815.815 0 1 1 1.631 0v4.384c0 .234-.037.461-.068.688.001.013.007.023.007.036 0 .036-.016.067-.02.102a5.173 5.173 0 0 1-1.446 2.863l-7.321 7.321A5.155 5.155 0 0 1-9.033 9.92c-.033.004-.064.02-.098.02-.013 0-.023-.006-.035-.007-.227.03-.452.067-.685.067H-22.86v.466c0 1.089.886 1.975 1.975 1.975h16.608c.907 0 1.759-.353 2.401-.994l7.017-7.018a3.381 3.381 0 0 0 .996-2.406v-9.558a.815.815 0 0 1 1.631 0v9.558a5.008 5.008 0 0 1-1.473 3.56L-.723 12.6a4.99 4.99 0 0 1-3.554 1.472h-16.608a3.61 3.61 0 0 1-3.607-3.606V10h-2.686a3.732 3.732 0 0 1-3.728-3.728v-34.205a3.532 3.532 0 0 1 3.529-3.528h23.322a.815.815 0 1 1 0 1.629" style="fill:#0098da;fill-opacity:1;fill-rule:nonzero;stroke:none" transform="translate(31.363 35.276)"/><path d="M0 0c0-.575-.554-1.043-1.234-1.043-.681 0-1.234.468-1.234 1.043.006.213.405.889 1.234 1.77C-.405.89-.007.214 0 0m-11.067-1.056c-.681 0-1.234.469-1.234 1.043.006.214.405.889 1.234 1.77.829-.88 1.227-1.556 1.234-1.77 0-.575-.554-1.043-1.234-1.043m5.018 7.592a.816.816 0 0 1-.816-.816V3.719l-3.949-.02c-.066-.001-.124-.024-.185-.038a.945.945 0 0 1-.732-.257c-1.004-.967-2.202-2.345-2.202-3.416 0-1.475 1.286-2.675 2.866-2.675s2.865 1.2 2.865 2.675c0 .638-.428 1.384-.983 2.088l2.32.011v-7.971h-1.557a.816.816 0 0 1 0-1.631h4.745a.816.816 0 1 1 0 1.631h-1.557v7.98l2.132.01C-3.665 1.396-4.1.643-4.1 0c0-1.475 1.286-2.674 2.866-2.674S1.631-1.475 1.631 0c0 1.072-1.196 2.449-2.2 3.416-.043.042-.097.062-.144.094a.818.818 0 0 1-.576.237h-.004l-3.941-.02V5.72c0 .45-.365.816-.815.816" style="fill:#0098da;fill-opacity:1;fill-rule:nonzero;stroke:none" transform="translate(18.451 31.867)"/><path d="M0 0h-14.141a.815.815 0 1 1 0-1.631H0A.816.816 0 0 1 0 0" style="fill:#0098da;fill-opacity:1;fill-rule:nonzero;stroke:none" transform="translate(20.166 10.957)"/></g></svg>