<svg width="66.667" height="66.667" xmlns="http://www.w3.org/2000/svg"><defs><clipPath clipPathUnits="userSpaceOnUse" id="a"><path d="M0 50h50V0H0Z"/></clipPath></defs><g clip-path="url(#a)" transform="matrix(1.33333 0 0 -1.33333 0 66.667)"><path d="M0 0a3.92 3.92 0 0 0 .804-1.179h-5.955A3.933 3.933 0 0 0-9.08 2.75v5.956a3.925 3.925 0 0 0 1.18-.804Zm6.707 5.94-7.572 7.575a5.339 5.339 0 0 1-3.795 1.571h-17.926a3.836 3.836 0 0 1-3.832-3.832v-.564h-2.96a3.967 3.967 0 0 1-3.963-3.962v-35.886a3.752 3.752 0 0 1 3.748-3.747h20.816a.82.82 0 1 1 0 1.638h-20.816c-1.164 0-2.11.946-2.11 2.109V6.728a2.327 2.327 0 0 0 2.325 2.324h18.659V2.75a5.575 5.575 0 0 1 5.568-5.568h6.303v-5.298a.82.82 0 0 1 1.637 0v5.336c0 .253-.039.498-.072.744.001.013.008.024.008.037 0 .039-.017.072-.022.109a5.512 5.512 0 0 1-1.545 3.049l-7.9 7.902a5.513 5.513 0 0 1-3.048 1.543c-.037.005-.07.022-.109.022-.014 0-.025-.007-.039-.008-.244.032-.487.072-.738.072h-14.103v.564c0 1.21.984 2.194 2.193 2.194H-4.66c.996 0 1.932-.388 2.636-1.092l7.572-7.574a3.707 3.707 0 0 0 1.095-2.64V-9.527a.819.819 0 1 1 1.636 0V2.142A5.335 5.335 0 0 1 6.707 5.94" style="fill:#0099df;fill-opacity:1;fill-rule:nonzero;stroke:none" transform="translate(34.177 34.78)"/><path d="M0 0h-13.795a.819.819 0 1 0 0 1.638H0A.82.82 0 0 0 0 0" style="fill:#0099df;fill-opacity:1;fill-rule:nonzero;stroke:none" transform="translate(20.515 15.024)"/><path d="M0 0h-13.795a.818.818 0 1 0 0 1.637H0A.819.819 0 1 0 0 0" style="fill:#0099df;fill-opacity:1;fill-rule:nonzero;stroke:none" transform="translate(20.515 9.245)"/><path d="M0 0h-.797v1.997H0c.754 0 1.121-.329 1.121-1.004C1.121.315.764 0 0 0m0 3.583h-1.587c-.522 0-.962-.404-.962-.883v-6.106c0-.446.401-.821.876-.821s.876.375.876.821v1.82H0c1.772 0 2.873.984 2.873 2.568 0 1.629-1.074 2.601-2.873 2.601" style="fill:#0099df;fill-opacity:1;fill-rule:nonzero;stroke:none" transform="translate(9.141 25.276)"/><path d="M0 0c-.467 0-.876-.373-.876-.799v-2.349h-2.058v2.349c0 .433-.401.799-.876.799s-.876-.366-.876-.799v-6.298c0-.445.393-.809.876-.809.475 0 .876.37.876.809v2.35h2.058v-2.35c0-.431.409-.809.876-.809.475 0 .875.37.875.809v6.298C.875-.373.466 0 0 0" style="fill:#0099df;fill-opacity:1;fill-rule:nonzero;stroke:none" transform="translate(17.484 28.956)"/><path d="M0 0c-.475 0-.876-.366-.876-.799v-6.307c0-.435.401-.8.876-.8s.875.365.875.8v6.307C.875-.366.475 0 0 0" style="fill:#0099df;fill-opacity:1;fill-rule:nonzero;stroke:none" transform="translate(20.388 28.956)"/><path d="M0 0c.376 1.23.667 2.48.873 3.745h3.589A7.886 7.886 0 0 0 0 0m-3.058-.369a27.33 27.33 0 0 0-1.056 4.114h3.33a27.105 27.105 0 0 0-1.07-4.114c-.2-.016-.4-.03-.604-.03-.202 0-.401.014-.6.03m-6.319 4.114h3.606c.208-1.264.5-2.516.879-3.754a7.887 7.887 0 0 0-4.485 3.754m3.921 10.966a28.735 28.735 0 0 1-.569-3.547h-3.352a7.901 7.901 0 0 0 3.921 3.547m4.2.496a26.96 26.96 0 0 0 .718-4.043h-3.846c.139 1.356.383 2.705.728 4.043.391.061.79.102 1.198.102.41 0 .81-.041 1.202-.102m5.718-4.043H1.107a28.73 28.73 0 0 1-.557 3.544 7.898 7.898 0 0 0 3.912-3.544M1.216 9.526H5.11a7.823 7.823 0 0 0 .286-2.072c0-.718-.105-1.41-.286-2.072H1.091c.104 1.006.163 2.017.161 3.035.001.37-.023.74-.036 1.109m-5.727 0h4.089c.015-.37.037-.739.036-1.11a27.136 27.136 0 0 0-.185-3.034h-3.791a26.935 26.935 0 0 0-.149 4.144m-5.801-2.072c0 .719.105 1.411.287 2.072h3.872a28.683 28.683 0 0 1 .148-4.144h-4.02a7.794 7.794 0 0 0-.287 2.072M11.233-3.943 5.055 1.674a9.478 9.478 0 0 1 1.393 2.528c.02.039.031.079.044.122.345.982.542 2.032.542 3.13 0 1.099-.197 2.15-.542 3.131-.013.042-.024.083-.044.122a9.514 9.514 0 0 1-6.925 6.027l-.004.002a9.472 9.472 0 0 1-1.977.21 9.46 9.46 0 0 1-1.975-.21l-.014-.004c-3.205-.686-5.807-2.998-6.916-6.025-.02-.039-.032-.08-.045-.122a9.438 9.438 0 0 1-.542-3.131c0-1.098.198-2.148.542-3.13.013-.043.025-.083.045-.122a9.507 9.507 0 0 1 7.436-6.114.827.827 0 0 1 .253-.041l.01.001c.396-.05.797-.085 1.206-.085.411 0 .812.035 1.21.086l.011-.002c.088 0 .174.016.256.043A9.445 9.445 0 0 1 3.946.469l6.186-5.624a.821.821 0 0 1 1.157.055.82.82 0 0 1-.056 1.157" style="fill:#0099df;fill-opacity:1;fill-rule:nonzero;stroke:none" transform="translate(37.663 5.501)"/></g></svg>