<svg width="66.667" height="66.667" xmlns="http://www.w3.org/2000/svg"><defs><clipPath clipPathUnits="userSpaceOnUse" id="a"><path d="M0 50h50V0H0Z"/></clipPath></defs><g clip-path="url(#a)" transform="matrix(1.33333 0 0 -1.33333 0 66.667)"><path d="M0 0c.18 0 .333-.152.333-.224L.192-5.211C.19-5.266.1-5.356 0-5.356c-.107 0-.192.053-.192.145L-.334-.25c0 .113.148.25.334.25m0-6.967c.962 0 1.771.764 1.802 1.706l.14 5.015C1.942.761 1.054 1.609 0 1.609c-1.072 0-1.944-.833-1.944-1.882l.141-4.961c0-.972.791-1.733 1.803-1.733" style="fill:#0099df;fill-opacity:1;fill-rule:nonzero;stroke:none" transform="translate(34.54 17.608)"/><path d="M0 0a.365.365 0 0 0-.364.365c0 .195.163.353.364.353A.371.371 0 0 0 .353.365C.353.174.185 0 0 0m0 2.328A1.97 1.97 0 0 1-1.975.365c0-1.089.886-1.974 1.975-1.974 1.064 0 1.963.903 1.963 1.974 0 1.065-.899 1.963-1.963 1.963" style="fill:#0099df;fill-opacity:1;fill-rule:nonzero;stroke:none" transform="translate(34.566 7.758)"/><path d="M0 0c.34-.339.6-.734.79-1.16h-5.854a3.867 3.867 0 0 0-3.863 3.863v5.856c.425-.19.821-.451 1.159-.79zm-5.064-2.771h6.197v-6.156a.804.804 0 1 1 1.609 0v6.194c0 .248-.039.489-.071.731.001.013.008.023.008.037 0 .038-.017.07-.022.107A5.417 5.417 0 0 1 1.14 1.139l-7.768 7.769a5.426 5.426 0 0 1-3.001 1.518c-.036.004-.067.02-.103.02-.013 0-.024-.006-.037-.007-.24.032-.48.071-.727.071h-13.867v.554a2.16 2.16 0 0 0 2.157 2.157h17.625c.979 0 1.898-.381 2.591-1.074l7.445-7.446a3.646 3.646 0 0 0 1.076-2.596v-8.629a.806.806 0 1 1 1.611 0v8.629A5.25 5.25 0 0 1 6.596 5.84l-7.447 7.447a5.241 5.241 0 0 1-3.73 1.545h-17.625a3.773 3.773 0 0 1-3.768-3.768v-.554h-2.91a3.9 3.9 0 0 1-3.896-3.895v-35.282a3.688 3.688 0 0 1 3.685-3.685h16.249a.806.806 0 1 1 0 1.61h-16.249a2.077 2.077 0 0 0-2.074 2.075V6.615a2.287 2.287 0 0 0 2.285 2.284h18.346V2.703a5.48 5.48 0 0 1 5.474-5.474" style="fill:#0099df;fill-opacity:1;fill-rule:nonzero;stroke:none" transform="translate(34.496 35.09)"/><path d="M0 0h5.969a.804.804 0 1 1 0 1.609H0A.804.804 0 1 1 0 0" style="fill:#0099df;fill-opacity:1;fill-rule:nonzero;stroke:none" transform="translate(7.5 20.657)"/><path d="M0 0h-4.062a.804.804 0 1 1 0-1.609H0A.804.804 0 1 1 0 0" style="fill:#0099df;fill-opacity:1;fill-rule:nonzero;stroke:none" transform="translate(21.064 22.267)"/><path d="M0 0h-13.564a.805.805 0 0 1 0-1.61H0A.805.805 0 0 1 0 0" style="fill:#0099df;fill-opacity:1;fill-rule:nonzero;stroke:none" transform="translate(21.064 16.672)"/><path d="M0 0a.805.805 0 0 1 0-1.61h4.341a.805.805 0 1 1 0 1.61Z" style="fill:#0099df;fill-opacity:1;fill-rule:nonzero;stroke:none" transform="translate(7.5 11.092)"/><path d="M0 0h-5.648a.805.805 0 0 1 0-1.61H0A.805.805 0 0 1 0 0" style="fill:#0099df;fill-opacity:1;fill-rule:nonzero;stroke:none" transform="translate(21.064 11.092)"/><path d="M0 0h-.001a8.142 8.142 0 0 0-5.893 2.141A8.133 8.133 0 0 0-8.547 7.82a8.138 8.138 0 0 0 2.141 5.894 8.13 8.13 0 0 0 6.052 2.661c2.05 0 4-.755 5.521-2.148A8.133 8.133 0 0 0 7.82 8.546a8.138 8.138 0 0 0-2.14-5.893A8.135 8.135 0 0 0 0 0m13.098-3.021-5.72 5.2A9.728 9.728 0 0 1 9.43 8.617a9.738 9.738 0 0 1-3.175 6.798 9.755 9.755 0 0 1-7.052 2.562 9.744 9.744 0 0 1-6.798-3.175 9.741 9.741 0 0 1-2.561-7.052A9.734 9.734 0 0 1-6.981.952 9.73 9.73 0 0 1 .07-1.609a9.718 9.718 0 0 1 6.219 2.6l5.725-5.204a.807.807 0 0 1 1.084 1.192" style="fill:#0099df;fill-opacity:1;fill-rule:nonzero;stroke:none" transform="translate(34.924 4.5)"/><path d="M0 0c.24-.201.388-.482.416-.793a1.165 1.165 0 0 0-.266-.856 1.173 1.173 0 0 0-1.649-.15L-3.041-.514l.436.777.001.001v.001l.727 1.299zm-5.818-2.162a1.683 1.683 0 0 0-2.284-.645 1.681 1.681 0 0 0-.645 2.283l1.393 2.487L-4.418.34zm.387 7.563a1.68 1.68 0 0 0 2.283.645 1.68 1.68 0 0 0 .644-2.283l-1.123-2.008-2.936 1.622Zm3.074 2.059a3.305 3.305 0 0 1-4.488-1.268L-10.16.267a3.303 3.303 0 0 1 1.267-4.488 3.299 3.299 0 0 1 4.488 1.268l.56 1 1.309-1.09a2.778 2.778 0 0 1 1.784-.646A2.787 2.787 0 0 1 2.03-.646a2.771 2.771 0 0 1-.993 1.89l-2.103 1.753c-.003.003-.008.003-.011.005a3.3 3.3 0 0 1-1.28 4.458" style="fill:#0099df;fill-opacity:1;fill-rule:nonzero;stroke:none" transform="translate(17.271 30.709)"/></g></svg>