<svg xmlns="http://www.w3.org/2000/svg" width="66.667" height="66.667"><defs><clipPath id="a" clipPathUnits="userSpaceOnUse"><path d="M0 50h50V0H0Z"/></clipPath></defs><g clip-path="url(#a)" transform="matrix(1.33333 0 0 -1.33333 0 66.667)"><path d="M0 0h.55a.793.793 0 1 1 0 1.587H0A5.343 5.343 0 0 1-5.337-3.75v-25.922A5.342 5.342 0 0 1 0-35.009h.55a.792.792 0 1 1 0 1.587H0a3.754 3.754 0 0 0-3.75 3.75v12.167h3.461a.794.794 0 0 1 0 1.588H-3.75V-3.75A3.755 3.755 0 0 0 0 0" style="fill:#0099df;fill-opacity:1;fill-rule:nonzero;stroke:none" transform="translate(36.496 41.681)"/><path d="M0 0a.188.188 0 0 0-.187-.188h-7.458A.188.188 0 0 0-7.833 0v9.207a.19.19 0 0 0 .188.188h4.202a.785.785 0 0 0 .561-.234c.027-.025.053-.049.081-.07l2.598-1.973A.796.796 0 0 0 0 6.585Zm.809 8.344-2.611 1.982a2.362 2.362 0 0 1-1.639.655h-4.204A1.776 1.776 0 0 1-9.42 9.207V0c0-.979.796-1.775 1.775-1.775h7.458c.978 0 1.774.796 1.774 1.775v6.585a2.37 2.37 0 0 1-.698 1.687.912.912 0 0 1-.08.072" style="fill:#0099df;fill-opacity:1;fill-rule:nonzero;stroke:none" transform="translate(48.413 2.792)"/><path d="M0 0h-4.901a.793.793 0 1 1 0-1.587H0A.793.793 0 0 1 0 0" style="fill:#0099df;fill-opacity:1;fill-rule:nonzero;stroke:none" transform="translate(46.948 8.79)"/><path d="M0 0h-4.901a.792.792 0 1 1 0-1.586H0A.793.793 0 1 1 0 0" style="fill:#0099df;fill-opacity:1;fill-rule:nonzero;stroke:none" transform="translate(46.948 5.945)"/><path d="M0 0a.188.188 0 0 0-.187-.187h-7.458A.188.188 0 0 0-7.833 0v9.207c0 .104.085.188.188.188h4.2a.788.788 0 0 0 .563-.234c.027-.025.053-.048.081-.07l2.599-1.973A.798.798 0 0 0 0 6.585Zm.809 8.344-2.611 1.982a2.367 2.367 0 0 1-1.642.656h-4.201A1.777 1.777 0 0 1-9.42 9.207V0c0-.979.796-1.774 1.775-1.774h7.458c.978 0 1.774.795 1.774 1.774v6.585a2.37 2.37 0 0 1-.698 1.688 1.069 1.069 0 0 1-.08.071" style="fill:#0099df;fill-opacity:1;fill-rule:nonzero;stroke:none" transform="translate(48.413 20.366)"/><path d="M0 0h-4.901a.793.793 0 1 1 0-1.587H0A.793.793 0 0 1 0 0" style="fill:#0099df;fill-opacity:1;fill-rule:nonzero;stroke:none" transform="translate(46.948 26.365)"/><path d="M0 0h-4.901a.793.793 0 1 1 0-1.587H0A.794.794 0 0 1 0 0" style="fill:#0099df;fill-opacity:1;fill-rule:nonzero;stroke:none" transform="translate(46.948 23.52)"/><path d="M0 0a.188.188 0 0 0-.187-.188h-7.458A.188.188 0 0 0-7.833 0v9.207c0 .104.085.188.188.188h4.199a.792.792 0 0 0 .564-.234c.027-.025.053-.049.081-.07l2.599-1.974A.795.795 0 0 0 0 6.585Zm.889 8.273a.871.871 0 0 1-.08.07l-2.611 1.983a2.37 2.37 0 0 1-1.644.656h-4.199A1.777 1.777 0 0 1-9.42 9.207V0c0-.979.796-1.776 1.775-1.776h7.458c.978 0 1.774.797 1.774 1.776v6.585c0 .638-.248 1.238-.698 1.688" style="fill:#0099df;fill-opacity:1;fill-rule:nonzero;stroke:none" transform="translate(48.413 38)"/><path d="M0 0h-4.901a.793.793 0 1 1 0-1.587H0A.793.793 0 1 1 0 0" style="fill:#0099df;fill-opacity:1;fill-rule:nonzero;stroke:none" transform="translate(46.948 43.999)"/><path d="M0 0h-4.901a.793.793 0 1 1 0-1.587H0A.793.793 0 1 1 0 0" style="fill:#0099df;fill-opacity:1;fill-rule:nonzero;stroke:none" transform="translate(46.948 41.155)"/><path d="M0 0c.438 0 .793.355.793.794v12.105c0 .37.568.783 1.326.783h13.14a.793.793 0 0 1 0 1.587H2.119c-1.634 0-2.912-1.041-2.912-2.37V.794C-.793.355-.438 0 0 0" style="fill:#0099df;fill-opacity:1;fill-rule:nonzero;stroke:none" transform="translate(3.958 26.09)"/><path d="M0 0c0-.646-.526-1.172-1.172-1.172h-23.584c-.647 0-1.173.526-1.173 1.172v11.774a.19.19 0 0 0 .305.15c.028-.023.056-.041.085-.06l9.697-5.831a4.716 4.716 0 0 1 5.756 0l9.695 5.831c.03.018.058.037.084.059a.193.193 0 0 0 .2.022.192.192 0 0 0 .107-.17Zm.583 13.374a1.784 1.784 0 0 1-1.83-.172l-9.699-5.833a.681.681 0 0 1-.08-.056 3.133 3.133 0 0 0-3.876 0 .681.681 0 0 1-.08.056l-9.701 5.833a1.782 1.782 0 0 1-1.83.172 1.788 1.788 0 0 1-1.003-1.599V0a2.763 2.763 0 0 1 2.76-2.759h23.584A2.763 2.763 0 0 1 1.587 0v11.775c0 .676-.394 1.304-1.004 1.599" style="fill:#0099df;fill-opacity:1;fill-rule:nonzero;stroke:none" transform="translate(27.516 11.191)"/><path d="m0 0-.321-.338-3.929 3.897.112.112zm-6.857 2.815-1.49 1.431a10.301 10.301 0 0 1 3.562 3.442l1.491-1.431a10.013 10.013 0 0 1-1.363-.949c-.022-.02-.05-.03-.07-.053-.004-.005-.004-.01-.008-.014a9.764 9.764 0 0 1-1.142-1.113c-.014-.012-.032-.016-.045-.029-.02-.021-.028-.048-.045-.07a9.457 9.457 0 0 1-.89-1.214m4.656 2.229a.852.852 0 0 1 .187.134c.279.268.438.642.438 1.026 0 .383-.159.757-.438 1.025l-1.789 1.717c-.55.529-1.497.529-2.046 0a.775.775 0 0 1-.136-.175A8.717 8.717 0 0 0-9.447 5.45a.813.813 0 0 1-.176-.127 1.43 1.43 0 0 1-.44-1.027c0-.385.16-.76.439-1.026l1.788-1.717a1.472 1.472 0 0 1 1.024-.409c.384 0 .747.146 1.021.409a.825.825 0 0 1 .143.185c.115.206.256.393.388.587l3.895-3.863c.275-.264.637-.41 1.023-.41.385 0 .748.146 1.022.41l.542.522c.28.268.441.642.441 1.027 0 .385-.161.76-.463 1.047L-2.849 4.65c.213.135.421.278.648.394" style="fill:#0099df;fill-opacity:1;fill-rule:nonzero;stroke:none" transform="translate(19.4 27.2)"/><path d="m0 0-.009.38h3.795V0Zm3.814 1.968H-.009c-.86 0-1.558-.685-1.558-1.528v-.446a.79.79 0 0 1 .029-1.581h6.883c.438 0 .793.355.793.793 0 .429-.34.773-.765.788V.44c0 .843-.699 1.528-1.559 1.528" style="fill:#0099df;fill-opacity:1;fill-rule:nonzero;stroke:none" transform="translate(10.422 25.059)"/><path d="m0 0 1.448 1.158v-11.387a.793.793 0 1 1 1.587 0V1.149L4.302.126a.79.79 0 0 1 1.116.12.793.793 0 0 1-.118 1.116L2.74 3.427c-.012.01-.028.012-.041.021-.037.027-.072.056-.114.076-.025.013-.053.017-.08.026-.029.01-.056.02-.086.027a.81.81 0 0 1-.23.019c-.016-.001-.031.001-.046-.001a.814.814 0 0 1-.244-.076c-.024-.012-.046-.026-.07-.041-.027-.017-.058-.028-.083-.049L-.992 1.24A.793.793 0 1 1 0 0" style="fill:#0099df;fill-opacity:1;fill-rule:nonzero;stroke:none" transform="translate(22.904 37.114)"/></g></svg>