<svg width="66.667" height="66.667" xmlns="http://www.w3.org/2000/svg"><defs><clipPath clipPathUnits="userSpaceOnUse" id="a"><path d="M0 50h50V0H0Z"/></clipPath></defs><g clip-path="url(#a)" transform="matrix(1.33333 0 0 -1.33333 0 66.667)"><path d="M0 0a3.98 3.98 0 0 0 .84-1.243h-6.033a3.982 3.982 0 0 0-3.978 3.977V8.77a3.99 3.99 0 0 0 1.242-.839zm-15.38-31.552h-15.271a2.155 2.155 0 0 0-2.152 2.152V6.728a2.37 2.37 0 0 0 2.367 2.366h19.689v-6.36a5.56 5.56 0 0 1 5.554-5.553h6.359v-3.623a.788.788 0 0 1 1.575 0v3.627a5.528 5.528 0 0 1-1.626 3.929l-7.929 7.931a5.517 5.517 0 0 1-3.924 1.625h-19.698a3.947 3.947 0 0 1-3.942-3.942V-29.4a3.73 3.73 0 0 1 3.727-3.727h15.271a.787.787 0 0 1 0 1.575" style="fill:#0099df;fill-opacity:1;fill-rule:nonzero;stroke:none" transform="translate(34.401 39.098)"/><path d="M0 0v1.529h2.317c.435 0 .788.353.788.788v2.317h1.53V2.317c0-.435.353-.788.788-.788H7.74V0H5.423a.788.788 0 0 1-.788-.788v-2.317h-1.53v2.317A.788.788 0 0 1 2.317 0Zm2.835-4.681h2.07c.72 0 1.305.586 1.305 1.305v1.8h1.8c.72 0 1.305.586 1.305 1.305V1.8c0 .719-.585 1.305-1.305 1.305h-1.8v1.8c0 .72-.585 1.305-1.305 1.305h-2.07c-.72 0-1.306-.585-1.306-1.305v-1.8H-.27c-.72 0-1.306-.586-1.306-1.305V-.271c0-.719.586-1.305 1.306-1.305h1.799v-1.8c0-.719.586-1.305 1.306-1.305" style="fill:#0099df;fill-opacity:1;fill-rule:nonzero;stroke:none" transform="translate(6.598 32.544)"/><path d="M0 0h-6.857a.788.788 0 1 1 0-1.574H0A.786.786 0 1 1 0 0" style="fill:#0099df;fill-opacity:1;fill-rule:nonzero;stroke:none" transform="translate(19.08 18.948)"/><path d="M0 0h-3.397a.787.787 0 1 1 0-1.574H0A.787.787 0 1 1 0 0" style="fill:#0099df;fill-opacity:1;fill-rule:nonzero;stroke:none" transform="translate(8.926 18.948)"/><path d="M0 0c0-.436.353-.787.788-.787h9.744a.787.787 0 1 1 0 1.574H.788A.787.787 0 0 1 0 0" style="fill:#0099df;fill-opacity:1;fill-rule:nonzero;stroke:none" transform="translate(4.741 13.7)"/><path d="M0 0h-13.551a.787.787 0 1 1 0-1.574H0A.786.786 0 1 1 0 0" style="fill:#0099df;fill-opacity:1;fill-rule:nonzero;stroke:none" transform="translate(19.08 23.387)"/><path d="M0 0a1.963 1.963 0 0 1-1.827 1.258 1.91 1.91 0 0 1-.527-.081 1.966 1.966 0 0 1-1.829 1.259A1.964 1.964 0 0 1-6.01 1.177a1.914 1.914 0 0 1-.526.081A1.966 1.966 0 0 1-8.501-.706v-5.298a.787.787 0 0 1 1.574 0v5.298a.39.39 0 0 0 .781 0v-4.709a.787.787 0 1 1 1.575 0V.471a.39.39 0 0 0 .779 0V-5.415a.787.787 0 1 1 1.574 0v4.709a.39.39 0 0 0 .78 0v-4.709a.787.787 0 1 1 1.575 0v3.531c0 .215.175.391.389.391.215 0 .39-.176.39-.391v-7.378a.787.787 0 1 1 1.575 0v7.378A1.967 1.967 0 0 1 .526.081C.343.081.169.048 0 0" style="fill:#0099df;fill-opacity:1;fill-rule:nonzero;stroke:none" transform="translate(39.735 21.686)"/><path d="M0 0a.432.432 0 0 0 .328-.087.788.788 0 0 1 .983 1.231A1.994 1.994 0 0 1-1.597.69c-.446-.671-.446-1.539-.039-2.145L.681-5.818a5.481 5.481 0 0 1 4.572-2.448h2.533c1.284 0 2.49.5 3.399 1.409a4.774 4.774 0 0 1 1.335 2.556.789.789 0 0 1-.639.913.795.795 0 0 1-.913-.638 3.212 3.212 0 0 0-.896-1.718 3.215 3.215 0 0 0-2.286-.946H5.253c-1.313 0-2.533.653-3.221 1.678L-.284-.65a.424.424 0 0 0-.001.467c.065.099.17.164.285.183" style="fill:#0099df;fill-opacity:1;fill-rule:nonzero;stroke:none" transform="translate(29.633 13.155)"/><path d="M0 0a.698.698 0 0 0 1.395 0A.698.698 0 0 0 0 0m2.97 0A2.275 2.275 0 0 1 .697 2.271 2.274 2.274 0 0 1-1.575 0 2.274 2.274 0 0 1 .697-2.272 2.275 2.275 0 0 1 2.97 0" style="fill:#0099df;fill-opacity:1;fill-rule:nonzero;stroke:none" transform="translate(35.423 11.083)"/><path d="M0 0c-.272.244-1.439 1.486-2.459 2.597a.787.787 0 0 1-1.147.014L-6.332-.216A.789.789 0 0 1-5.196-1.31L-3.829.109v-23.64c0-.47-.344-.852-.766-.852h-19.429c-.423 0-.767.382-.767.852V.162c0 .469.344.851.767.851h14.666a.787.787 0 0 1 0 1.576h-14.666c-1.291 0-2.341-1.089-2.341-2.427v-23.693c0-1.339 1.05-2.427 2.341-2.427h19.429c1.29 0 2.341 1.088 2.341 2.427V.052c1.396-1.494 1.493-1.5 1.819-1.506h.013A.788.788 0 0 1 0 0" style="fill:#0099df;fill-opacity:1;fill-rule:nonzero;stroke:none" transform="translate(49.611 26.19)"/></g></svg>