<svg width="66.667" height="66.667" xmlns="http://www.w3.org/2000/svg"><defs><clipPath clipPathUnits="userSpaceOnUse" id="a"><path d="M0 50h50V0H0Z"/></clipPath></defs><g clip-path="url(#a)" transform="matrix(1.33333 0 0 -1.33333 0 66.667)"><path d="M0 0h-11.959a.767.767 0 0 1 0-1.533H0A.766.766 0 1 1 0 0" style="fill:#0099df;fill-opacity:1;fill-rule:nonzero;stroke:none" transform="translate(24.67 20.93)"/><path d="M0 0a.767.767 0 0 1 0-1.535h16.195c.424 0 .766.343.766.767a.766.766 0 0 1-.766.768z" style="fill:#0099df;fill-opacity:1;fill-rule:nonzero;stroke:none" transform="translate(12.71 25.185)"/><path d="M0 0h-8.558a.767.767 0 0 1 0-1.534H0A.767.767 0 0 1 0 0" style="fill:#0099df;fill-opacity:1;fill-rule:nonzero;stroke:none" transform="translate(21.268 14.094)"/><path d="M0 0h-8.558a.767.767 0 0 1 0-1.534H0A.768.768 0 0 1 0 0" style="fill:#0099df;fill-opacity:1;fill-rule:nonzero;stroke:none" transform="translate(21.268 9.805)"/><path d="M0 0c.569.668.925 1.523.925 2.468A3.82 3.82 0 0 1-.687 5.579c2.124-.931 3.094-2.913 3.094-2.913S1.495 1.116 0 0m-8.215 2.574s.944 2.26 3.298 3.138a3.82 3.82 0 0 1-1.817-3.244c0-1.116.487-2.113 1.252-2.814-1.71 1.083-2.733 2.92-2.733 2.92m5.311-2.673a2.567 2.567 0 1 0 0 5.135 2.567 2.567 0 0 0 0-5.135m6.401 2.126.341.583-.295.607c-.081.168-2.043 4.101-6.51 4.101h-.058C-7.57 7.283-9.31 3.232-9.382 3.06l-.235-.564.296-.535c.099-.177 2.451-4.344 6.306-4.344l.061.001c3.852.044 6.347 4.231 6.451 4.409" style="fill:#0099df;fill-opacity:1;fill-rule:nonzero;stroke:none" transform="translate(13.954 39.013)"/><path d="M0 0a1.267 1.267 0 1 1 0-2.533A1.267 1.267 0 0 1 0 0" style="fill:#0099df;fill-opacity:1;fill-rule:nonzero;stroke:none" transform="translate(11.05 42.748)"/><path d="M0 0h-14.619a2.011 2.011 0 0 0-2.008 2.009v26.283a.768.768 0 0 1-1.535 0V2.009a3.547 3.547 0 0 1 3.543-3.542H0A.766.766 0 1 1 0 0" style="fill:#0099df;fill-opacity:1;fill-rule:nonzero;stroke:none" transform="translate(24.514 3.16)"/><path d="M0 0c.328-.328.58-.709.763-1.121h-5.62a3.712 3.712 0 0 0-3.708 3.708v5.617a3.716 3.716 0 0 0 1.12-.757zm-13.704 8.532h3.605V2.587a5.247 5.247 0 0 1 5.242-5.242h5.945v-6.416a.767.767 0 1 1 1.534 0v6.447c0 .239-.038.47-.068.702 0 .012.007.022.007.034 0 .034-.016.064-.021.097a5.185 5.185 0 0 1-1.454 2.875L-6.36 8.532a5.278 5.278 0 0 1-3.705 1.534h-3.639a.766.766 0 1 1 0-1.534" style="fill:#0099df;fill-opacity:1;fill-rule:nonzero;stroke:none" transform="translate(38.825 35.568)"/><path d="M0 0v8.247c0 1.026.836 1.862 1.863 1.862h14.97a1.865 1.865 0 0 0 1.863-1.862V-5.051L14.23-2.382a3.657 3.657 0 0 1-1.879.519H1.863A1.865 1.865 0 0 0 0 0m13.443-3.699 4.707-2.809a1.303 1.303 0 0 1 2.08 1.044V8.247a3.4 3.4 0 0 1-3.397 3.397H1.863a3.402 3.402 0 0 1-3.398-3.397V0a3.401 3.401 0 0 1 3.398-3.397h10.488c.384 0 .762-.104 1.092-.302" style="fill:#0099df;fill-opacity:1;fill-rule:nonzero;stroke:none" transform="translate(1.702 37.316)"/><path d="M0 0a.765.765 0 0 1-.965-.496 9.397 9.397 0 0 0-8.977-6.546c-5.198 0-9.426 4.229-9.426 9.426s4.228 9.426 9.426 9.426A9.37 9.37 0 0 0-4.6 10.15a.766.766 0 1 1 .871 1.262 10.88 10.88 0 0 1-6.213 1.932c-6.043 0-10.96-4.917-10.96-10.96 0-6.043 4.917-10.959 10.96-10.959 4.783 0 8.978 3.058 10.438 7.61A.768.768 0 0 1 0 0" style="fill:#0099df;fill-opacity:1;fill-rule:nonzero;stroke:none" transform="translate(47.497 9.615)"/><path d="m0 0-7.146-7.425-2.235-.464.459 2.379 7.153 7.433c.474.491 1.28.5 1.769-.009A1.389 1.389 0 0 0 0 0m1.098 2.985c-1.042 1.084-2.93 1.084-3.972.001l-7.312-7.594a.783.783 0 0 1-.2-.388l-.718-3.733a.767.767 0 0 1 .909-.896l3.593.747a.75.75 0 0 1 .397.219l7.31 7.595a2.89 2.89 0 0 1 .81 2.021c0 .762-.287 1.481-.817 2.028" style="fill:#0099df;fill-opacity:1;fill-rule:nonzero;stroke:none" transform="translate(47.918 15.31)"/><path d="M0 0a.766.766 0 0 1-.767.767h-6.835a.766.766 0 0 1 0-1.534h6.835C-.343-.767 0-.424 0 0" style="fill:#0099df;fill-opacity:1;fill-rule:nonzero;stroke:none" transform="translate(39.39 15.655)"/><path d="M0 0a.766.766 0 1 1 0-1.534h3.625a.766.766 0 1 1 0 1.534Z" style="fill:#0099df;fill-opacity:1;fill-rule:nonzero;stroke:none" transform="translate(31.788 13.107)"/></g></svg>