<svg xmlns="http://www.w3.org/2000/svg" width="66.667" height="66.667"><defs><clipPath id="a" clipPathUnits="userSpaceOnUse"><path d="M0 50h50V0H0Z"/></clipPath></defs><g clip-path="url(#a)" transform="matrix(1.33333 0 0 -1.33333 0 66.667)"><path d="M0 0c-.4 0-.739-.311-.739-.678v-2.746l-.495.854c-.412.713-.776 1.34-1.282 2.199A.842.842 0 0 1-3.209 0c-.432 0-.757-.303-.757-.703v-5.014c0-.373.324-.678.723-.678.4 0 .739.311.739.678V-3l1.776-3.039c.132-.209.414-.356.685-.356.437 0 .766.303.766.704v5.013C.723-.303.398 0 0 0" style="fill:#0099df;fill-opacity:1;fill-rule:nonzero;stroke:none" transform="translate(15.4 23.63)"/><path d="M0 0h-1.761v1.135h1.51c.404 0 .722.295.722.67 0 .357-.33.66-.722.66h-1.51v1.117h1.674c.41 0 .732.287.732.652 0 .368-.335.678-.732.678h-2.344c-.466 0-.792-.383-.792-.728V-.602c0-.462.339-.728.93-.728H0c.402 0 .73.305.73.678C.73-.299.396 0 0 0" style="fill:#0099df;fill-opacity:1;fill-rule:nonzero;stroke:none" transform="translate(20.154 18.643)"/><path d="M0 0c0-.375-.267-.564-.792-.564h-.844v1.16h.792C-.088.596 0 .256 0 0m1.423-3.314L.328-1.695c.733.291 1.133.886 1.133 1.695 0 .451-.164 1.926-2.271 1.926h-1.504c-.425 0-.784-.338-.784-.737v-4.896c0-.371.331-.686.723-.686.394 0 .739.321.739.686v1.822h.396L.177-4.064a.71.71 0 0 1 .614-.321c.265 0 .54.17.67.414.113.213.1.451-.038.657" style="fill:#0099df;fill-opacity:1;fill-rule:nonzero;stroke:none" transform="translate(24.436 21.629)"/><path d="M0 0h-34.796a3.513 3.513 0 0 0-3.509 3.508v25.304a3.513 3.513 0 0 0 3.509 3.509h13.871a.85.85 0 1 0 0-1.7h-13.871a1.81 1.81 0 0 1-1.808-1.809V3.508c0-.996.811-1.809 1.808-1.809H0c.997 0 1.809.813 1.809 1.809v6.971a.849.849 0 1 0 1.699 0V3.508A3.512 3.512 0 0 0 0 0" style="fill:#0099df;fill-opacity:1;fill-rule:nonzero;stroke:none" transform="translate(43.846 9.559)"/><path d="M0 0h-34.245a3.4 3.4 0 0 0-3.396 3.395v25.954a3.41 3.41 0 0 0 1.692 2.938.85.85 0 1 0 .854-1.47 1.703 1.703 0 0 1-.845-1.468V3.395c0-.936.759-1.696 1.695-1.696H0a1.7 1.7 0 0 1 1.475.858.852.852 0 0 0 1.159.32.851.851 0 0 0 .319-1.16A3.403 3.403 0 0 0 0 0" style="fill:#0099df;fill-opacity:1;fill-rule:nonzero;stroke:none" transform="translate(37.792 4.207)"/><path d="M0 0h-16.858a.85.85 0 1 0 0 1.7H0A.85.85 0 1 0 0 0" style="fill:#0099df;fill-opacity:1;fill-rule:nonzero;stroke:none" transform="translate(23.25 31.204)"/><path d="M0 0c-3.965 0-7.19-3.225-7.19-7.189 0-3.965 3.225-7.191 7.19-7.191 3.964 0 7.189 3.226 7.189 7.191C7.189-3.225 3.964 0 0 0m0-16.079c-4.902 0-8.89 3.988-8.89 8.89C-8.89-2.288-4.902 1.7 0 1.7c4.901 0 8.889-3.988 8.889-8.889 0-4.902-3.988-8.89-8.889-8.89" style="fill:#0099df;fill-opacity:1;fill-rule:nonzero;stroke:none" transform="translate(37.28 44.093)"/><path d="M0 0a.845.845 0 0 0-.601.249l-5.954 5.954a.85.85 0 0 0 1.201 1.202L.601 1.45A.849.849 0 0 0 0 0" style="fill:#0099df;fill-opacity:1;fill-rule:nonzero;stroke:none" transform="translate(48.999 24.079)"/><path d="M0 0h.817v1.667c0 .469.38.85.85.85h1.668v.816H1.667a.85.85 0 0 0-.85.851v1.667H0V4.184a.85.85 0 0 0-.85-.851h-1.667v-.816H-.85a.85.85 0 0 0 .85-.85Zm1.248-1.7H-.43c-.7 0-1.269.569-1.269 1.269V.817h-1.248a1.27 1.27 0 0 0-1.269 1.269v1.678c0 .7.57 1.27 1.269 1.27h1.248v1.247c0 .7.569 1.27 1.269 1.27h1.678c.699 0 1.269-.57 1.269-1.27V5.034h1.248c.7 0 1.269-.57 1.269-1.27V2.086c0-.7-.569-1.269-1.269-1.269H2.517V-.431c0-.7-.57-1.269-1.269-1.269" style="fill:#0099df;fill-opacity:1;fill-rule:nonzero;stroke:none" transform="translate(36.871 33.978)"/><path d="M0 0h-10.551a.85.85 0 0 0 0 1.699H0A.848.848 0 1 0 0 0" style="fill:#0099df;fill-opacity:1;fill-rule:nonzero;stroke:none" transform="translate(41.35 21.1)"/><path d="M0 0h-6.352a.848.848 0 1 0 0 1.699H0A.85.85 0 1 0 0 0" style="fill:#0099df;fill-opacity:1;fill-rule:nonzero;stroke:none" transform="translate(37.15 17.27)"/></g></svg>