<svg xmlns="http://www.w3.org/2000/svg" width="66.667" height="66.667"><defs><clipPath id="a" clipPathUnits="userSpaceOnUse"><path d="M0 50h50V0H0Z"/></clipPath></defs><g clip-path="url(#a)" transform="matrix(1.33333 0 0 -1.33333 0 66.667)"><path d="M0 0a3.124 3.124 0 0 0-.111.481C-.138.656-.162.82-.182.972a30.4 30.4 0 0 0-.07-.491A3.242 3.242 0 0 0-.364 0l-.535-1.697H.515zm-1.606-3.831a.673.673 0 0 0-.283-.342.746.746 0 0 0-.384-.124.793.793 0 0 0-.511.174.56.56 0 0 0-.217.461c0 .027.002.063.005.109a.32.32 0 0 0 .025.11L-1 2.203c.067.192.16.352.278.481.118.129.298.193.54.193.243 0 .423-.063.541-.188.118-.126.213-.288.287-.486l1.971-5.646a.298.298 0 0 0 .025-.11c.004-.046.005-.082.005-.109a.571.571 0 0 0-.207-.461.782.782 0 0 0-.924-.045.694.694 0 0 0-.283.337L.879-2.828h-2.152z" style="fill:#0099df;fill-opacity:1;fill-rule:nonzero;stroke:none" transform="translate(8.476 40.83)"/><path d="M0 0a3.124 3.124 0 0 0-.111.481C-.138.656-.162.82-.182.972a30.4 30.4 0 0 0-.07-.491A3.242 3.242 0 0 0-.364 0l-.535-1.697H.515zm-1.606-3.831a.673.673 0 0 0-.283-.342.746.746 0 0 0-.384-.124.793.793 0 0 0-.511.174.56.56 0 0 0-.217.461c0 .027.002.063.005.109a.32.32 0 0 0 .025.11L-1 2.203c.067.192.16.352.278.481.118.129.298.193.54.193.243 0 .423-.063.541-.188.118-.126.213-.288.287-.486l1.971-5.646a.298.298 0 0 0 .025-.11c.004-.046.005-.082.005-.109a.571.571 0 0 0-.207-.461.782.782 0 0 0-.924-.045.694.694 0 0 0-.283.337L.879-2.828h-2.152z" style="fill:none;stroke:#0099df;stroke-width:.18;stroke-linecap:butt;stroke-linejoin:miter;stroke-miterlimit:10;stroke-dasharray:none;stroke-opacity:1" transform="translate(8.476 40.83)"/><path d="M0 0c0 .105-.016.208-.046.308a.614.614 0 0 1-.171.268.954.954 0 0 1-.349.193c-.148.05-.337.074-.566.074h-1.071V-.804h1.132c.35 0 .616.07.798.209C-.091-.457 0-.258 0 0m1.414 0c0-.496-.124-.903-.373-1.221-.25-.317-.593-.545-1.031-.684l1.384-2.044a.592.592 0 0 0-.015-.7.815.815 0 0 0-.268-.233.678.678 0 0 0-.333-.09c-.263 0-.462.103-.596.308l-1.698 2.61h-.687v-2.273a.605.605 0 0 0-.212-.456.716.716 0 0 0-.505-.198.692.692 0 0 0-.49.193.61.61 0 0 0-.207.461v5.716c0 .192.075.359.227.501a.76.76 0 0 0 .54.214h1.759c.478 0 .877-.062 1.197-.184a2.1 2.1 0 0 0 .768-.481c.192-.199.33-.424.414-.675.084-.251.126-.506.126-.764" style="fill:#0099df;fill-opacity:1;fill-rule:nonzero;stroke:none" transform="translate(15.528 41.515)"/><path d="M0 0c0 .105-.016.208-.046.308a.614.614 0 0 1-.171.268.954.954 0 0 1-.349.193c-.148.05-.337.074-.566.074h-1.071V-.804h1.132c.35 0 .616.07.798.209C-.091-.457 0-.258 0 0Zm1.414 0c0-.496-.124-.903-.373-1.221-.25-.317-.593-.545-1.031-.684l1.384-2.044a.592.592 0 0 0-.015-.7.815.815 0 0 0-.268-.233.678.678 0 0 0-.333-.09c-.263 0-.462.103-.596.308l-1.698 2.61h-.687v-2.273a.605.605 0 0 0-.212-.456.716.716 0 0 0-.505-.198.692.692 0 0 0-.49.193.61.61 0 0 0-.207.461v5.716c0 .192.075.359.227.501a.76.76 0 0 0 .54.214h1.759c.478 0 .877-.062 1.197-.184a2.1 2.1 0 0 0 .768-.481c.192-.199.33-.424.414-.675.084-.251.126-.506.126-.764Z" style="fill:none;stroke:#0099df;stroke-width:.18;stroke-linecap:butt;stroke-linejoin:miter;stroke-miterlimit:10;stroke-dasharray:none;stroke-opacity:1" transform="translate(15.528 41.515)"/><path d="M0 0a1.943 1.943 0 0 1-1.941-1.94v-8.49c0-1.07.871-1.94 1.941-1.94h8.084c.676 0 1.341-.184 1.923-.531l4.632-2.769v13.73c0 1.069-.871 1.94-1.941 1.94zm14.854-17.371c-.285 0-.557.09-.786.26L9.22-14.218a2.213 2.213 0 0 1-1.136.315H0a3.477 3.477 0 0 0-3.474 3.473v8.49A3.477 3.477 0 0 0 0 1.533h12.698a3.478 3.478 0 0 0 3.474-3.473v-14.114c0-.503-.279-.954-.729-1.178a1.328 1.328 0 0 0-.589-.139" style="fill:#0099df;fill-opacity:1;fill-rule:nonzero;stroke:none" transform="translate(4.972 46.398)"/><path d="M0 0h-6.138a.766.766 0 1 0 0 1.533H0A.767.767 0 1 0 0 0" style="fill:#0099df;fill-opacity:1;fill-rule:nonzero;stroke:none" transform="translate(20.849 21.495)"/><path d="M0 0h-3.082a.767.767 0 0 0 0 1.533H0A.766.766 0 1 0 0 0" style="fill:#0099df;fill-opacity:1;fill-rule:nonzero;stroke:none" transform="translate(26.24 21.495)"/><path d="M0 0h-11.529a.766.766 0 0 0 0 1.533H0A.766.766 0 1 0 0 0" style="fill:#0099df;fill-opacity:1;fill-rule:nonzero;stroke:none" transform="translate(26.24 16.281)"/><path d="M0 0h-22.01a3.331 3.331 0 0 0-3.328 3.327v21.23a.766.766 0 0 0 1.533 0V3.327c0-.989.805-1.794 1.795-1.794H0A.766.766 0 1 0 0 0" style="fill:#0099df;fill-opacity:1;fill-rule:nonzero;stroke:none" transform="translate(34.366 4.938)"/><path d="M0 0a.766.766 0 0 0-.767.767v4.137c0 .905-.352 1.755-.992 2.395l-6.907 6.909a3.36 3.36 0 0 1-2.392.991h-4.923a.767.767 0 1 0 0 1.533h4.923a4.886 4.886 0 0 0 3.476-1.439l6.907-6.91A4.886 4.886 0 0 0 .767 4.904V.767A.766.766 0 0 0 0 0" style="fill:#0099df;fill-opacity:1;fill-rule:nonzero;stroke:none" transform="translate(39.954 27.33)"/><path d="M0 0h-6.171a4.923 4.923 0 0 0-4.918 4.918v6.17a.766.766 0 1 0 1.533 0v-6.17a3.39 3.39 0 0 1 3.385-3.385H0A.766.766 0 1 0 0 0" style="fill:#0099df;fill-opacity:1;fill-rule:nonzero;stroke:none" transform="translate(39.898 32.15)"/><path d="M0 0h-3.222a.766.766 0 1 0 0 1.533H0A.767.767 0 1 0 0 0" style="fill:#0099df;fill-opacity:1;fill-rule:nonzero;stroke:none" transform="translate(17.933 11.016)"/><path d="M0 0h-5.848a.766.766 0 0 0 0 1.533H0A.767.767 0 1 0 0 0" style="fill:#0099df;fill-opacity:1;fill-rule:nonzero;stroke:none" transform="translate(25.978 11.016)"/><path d="M0 0a.769.769 0 0 0-.562.244l-5.265 5.664a.768.768 0 0 0 1.123 1.045L.562 1.289A.768.768 0 0 0 0 0" style="fill:#0099df;fill-opacity:1;fill-rule:nonzero;stroke:none" transform="translate(48.254 4.661)"/><path d="M0 0a6.555 6.555 0 0 1-6.538-6.286 6.504 6.504 0 0 1 1.731-4.701 6.501 6.501 0 0 1 4.549-2.1 6.474 6.474 0 0 1 4.701 1.732 6.493 6.493 0 0 1 2.1 4.548A6.552 6.552 0 0 1 0 0m.01-14.626a8.03 8.03 0 0 0-5.943 2.598 8.031 8.031 0 0 0-2.138 5.802c.177 4.452 3.93 7.934 8.394 7.753 4.451-.178 7.929-3.943 7.753-8.394a8.031 8.031 0 0 0-2.592-5.615A8.022 8.022 0 0 0 .01-14.626" style="fill:#0099df;fill-opacity:1;fill-rule:nonzero;stroke:none" transform="translate(37.746 23.216)"/></g></svg>