<svg xmlns="http://www.w3.org/2000/svg" width="66.667" height="66.667"><defs><clipPath id="a" clipPathUnits="userSpaceOnUse"><path d="M0 50h50V0H0Z"/></clipPath></defs><g clip-path="url(#a)" transform="matrix(1.33333 0 0 -1.33333 0 66.667)"><path d="M0 0c.339-.339.599-.734.789-1.159h-5.848a3.862 3.862 0 0 0-3.858 3.858v5.849c.425-.19.82-.45 1.159-.789zm-13.776-30.704h-15.283c-1.143 0-2.072.93-2.072 2.072V6.606a2.285 2.285 0 0 0 2.282 2.282h18.324V2.699a5.472 5.472 0 0 1 5.466-5.467h6.19v-6.148a.804.804 0 1 1 1.607 0v6.186c0 .248-.038.488-.07.729 0 .013.007.024.007.037 0 .038-.017.07-.022.107a5.42 5.42 0 0 1-1.514 2.994L-6.62 8.896a5.408 5.408 0 0 1-2.998 1.516c-.035.005-.066.021-.103.021-.012 0-.023-.007-.035-.007-.241.032-.48.071-.727.071h-13.85v.553c0 1.188.967 2.154 2.155 2.154h17.603c.977 0 1.895-.381 2.587-1.072l7.436-7.437a3.639 3.639 0 0 0 1.074-2.593v-8.619a.805.805 0 0 1 1.609 0v8.619a5.244 5.244 0 0 1-1.544 3.73L-.851 13.27a5.23 5.23 0 0 1-3.724 1.543h-17.603a3.767 3.767 0 0 1-3.763-3.763v-.553h-2.908a3.896 3.896 0 0 1-3.891-3.891v-35.238c0-2.03 1.652-3.68 3.681-3.68h15.283a.804.804 0 0 1 0 1.608" style="fill:#0099df;fill-opacity:1;fill-rule:nonzero;stroke:none" transform="translate(35.522 34.998)"/><path d="M0 0a.96.96 0 0 0 .75-.28l1.211-1.211a.774.774 0 0 1 .626-.234.805.805 0 0 1 .587.32l3.891 5.189c.363.482 1.195.463 1.53.019l3.514-4.985a.802.802 0 0 1 1.121-.192c.363.256.45.757.194 1.12L9.896 4.749a2.586 2.586 0 0 1-2.059 1.029 2.588 2.588 0 0 1-2.059-1.029L2.443.302l-.555.555a2.572 2.572 0 0 1-2.003.747c-.744-.052-1.428-.426-1.917-1.083l-4.609-7.478a.807.807 0 0 1 .684-1.227h13.22a.805.805 0 0 1 0 1.609h-11.78L-.704-.384A.967.967 0 0 0 0 0" style="fill:#0099df;fill-opacity:1;fill-rule:nonzero;stroke:none" transform="translate(14.839 23.833)"/><path d="M0 0a1.234 1.234 0 0 0-2.466 0A1.234 1.234 0 0 0 0 0m-4.075 0a2.845 2.845 0 0 1 2.842-2.842A2.845 2.845 0 0 1 1.609 0a2.845 2.845 0 0 1-2.842 2.842A2.845 2.845 0 0 1-4.075 0" style="fill:#0099df;fill-opacity:1;fill-rule:nonzero;stroke:none" transform="translate(13.35 31.686)"/><path d="M0 0c-4.966 0-9.007 4.04-9.007 9.006 0 4.967 4.041 9.007 9.007 9.007 4.966 0 9.006-4.04 9.006-9.007C9.006 4.04 4.966 0 0 0m0 19.62c-5.854 0-10.614-4.761-10.614-10.614 0-5.853 4.76-10.614 10.614-10.614 5.853 0 10.614 4.761 10.614 10.614C10.614 14.859 5.853 19.62 0 19.62" style="fill:#0099df;fill-opacity:1;fill-rule:nonzero;stroke:none" transform="translate(36.605 1.797)"/><path d="M0 0h.822v-3.515c0-.385.357-.713.778-.713.422 0 .779.328.779.713V0h.82c.428 0 .789.323.789.705 0 .387-.361.713-.789.713H0c-.431 0-.777-.391-.777-.713C-.777.317-.429 0 0 0" style="fill:#0099df;fill-opacity:1;fill-rule:nonzero;stroke:none" transform="translate(32.053 13.644)"/><path d="M0 0h-3.3a.803.803 0 1 1 0-1.608H0A.803.803 0 1 1 0 0" style="fill:#0099df;fill-opacity:1;fill-rule:nonzero;stroke:none" transform="translate(40.957 14.992)"/><path d="M0 0h-3.3a.803.803 0 1 1 0-1.608H0A.803.803 0 1 1 0 0" style="fill:#0099df;fill-opacity:1;fill-rule:nonzero;stroke:none" transform="translate(40.957 11.291)"/><path d="M0 0h-8.644a.803.803 0 0 1-.803-.804c0-.445.359-.804.803-.804H0A.804.804 0 1 1 0 0" style="fill:#0099df;fill-opacity:1;fill-rule:nonzero;stroke:none" transform="translate(40.926 7.49)"/></g></svg>