<svg xmlns="http://www.w3.org/2000/svg" width="66.667" height="66.667"><defs><clipPath id="a" clipPathUnits="userSpaceOnUse"><path d="M0 50h50V0H0Z"/></clipPath></defs><g clip-path="url(#a)" transform="matrix(1.33333 0 0 -1.33333 0 66.667)"><path d="M0 0h.543a.785.785 0 0 1 0 1.57H0a5.284 5.284 0 0 1-5.279-5.279v-25.643A5.284 5.284 0 0 1 0-34.631h.543a.784.784 0 1 1 0 1.569H0a3.714 3.714 0 0 0-3.71 3.71v12.037h3.423a.784.784 0 1 1 0 1.569H-3.71v12.037A3.714 3.714 0 0 0 0 0" style="fill:#0099df;fill-opacity:1;fill-rule:nonzero;stroke:none" transform="translate(36.642 41.502)"/><path d="M0 0a.187.187 0 0 0-.187-.187h-7.375A.187.187 0 0 0-7.749 0v9.107c0 .103.084.187.187.187h4.152a.798.798 0 0 0 .558-.231.686.686 0 0 1 .081-.071l2.57-1.952A.781.781 0 0 0 0 6.514Zm.798 8.253-2.581 1.961a2.347 2.347 0 0 1-1.627.649h-4.152a1.757 1.757 0 0 1-1.756-1.756V0c0-.969.787-1.756 1.756-1.756h7.375c.969 0 1.756.787 1.756 1.756v6.514c0 .631-.245 1.223-.691 1.669a.68.68 0 0 1-.08.07" style="fill:#0099df;fill-opacity:1;fill-rule:nonzero;stroke:none" transform="translate(48.43 3.032)"/><path d="M0 0h-4.848a.784.784 0 1 1 0-1.569H0A.784.784 0 1 1 0 0" style="fill:#0099df;fill-opacity:1;fill-rule:nonzero;stroke:none" transform="translate(46.98 8.966)"/><path d="M0 0h-4.848a.784.784 0 1 1 0-1.569H0A.784.784 0 1 1 0 0" style="fill:#0099df;fill-opacity:1;fill-rule:nonzero;stroke:none" transform="translate(46.98 6.152)"/><path d="M0 0a.187.187 0 0 0-.187-.187h-7.375A.187.187 0 0 0-7.749 0v9.107c0 .103.084.186.187.186h4.152a.797.797 0 0 0 .558-.23.598.598 0 0 1 .081-.07l2.57-1.952A.786.786 0 0 0 0 6.514Zm.798 8.253-2.581 1.961a2.348 2.348 0 0 1-1.627.65h-4.152a1.758 1.758 0 0 1-1.756-1.757V0c0-.969.787-1.756 1.756-1.756h7.375c.969 0 1.756.787 1.756 1.756v6.514c0 .63-.244 1.222-.69 1.669a.783.783 0 0 1-.081.07" style="fill:#0099df;fill-opacity:1;fill-rule:nonzero;stroke:none" transform="translate(48.43 20.417)"/><path d="M0 0h-4.848a.785.785 0 0 1 0-1.57H0A.784.784 0 1 1 0 0" style="fill:#0099df;fill-opacity:1;fill-rule:nonzero;stroke:none" transform="translate(46.98 26.35)"/><path d="M0 0h-4.848a.784.784 0 1 1 0-1.569H0A.784.784 0 1 1 0 0" style="fill:#0099df;fill-opacity:1;fill-rule:nonzero;stroke:none" transform="translate(46.98 23.537)"/><path d="M0 0a.187.187 0 0 0-.187-.186h-7.375A.187.187 0 0 0-7.749 0v9.107c0 .103.084.186.187.186h4.154a.79.79 0 0 0 .555-.23.777.777 0 0 1 .082-.07l2.57-1.952A.787.787 0 0 0 0 6.514Zm.879 8.183a.783.783 0 0 1-.081.07l-2.581 1.961a2.38 2.38 0 0 1-1.624.65h-4.155a1.758 1.758 0 0 1-1.756-1.757V0c0-.968.787-1.756 1.756-1.756h7.375c.969 0 1.756.788 1.756 1.756v6.514c0 .63-.244 1.222-.69 1.669" style="fill:#0099df;fill-opacity:1;fill-rule:nonzero;stroke:none" transform="translate(48.43 37.86)"/><path d="M0 0h-4.848a.785.785 0 0 1 0-1.57H0A.784.784 0 1 1 0 0" style="fill:#0099df;fill-opacity:1;fill-rule:nonzero;stroke:none" transform="translate(46.98 43.794)"/><path d="M0 0h-4.848a.785.785 0 0 1 0-1.57H0A.784.784 0 1 1 0 0" style="fill:#0099df;fill-opacity:1;fill-rule:nonzero;stroke:none" transform="translate(46.98 40.981)"/><path d="M0 0h-6.451a1.24 1.24 0 0 0-1.238 1.237v26.262c0 .763.622 1.385 1.386 1.385H7.381c.656 0 1.298-.266 1.761-.729l5.454-5.455a2.512 2.512 0 0 0 .731-1.765v-7.641a.784.784 0 1 1 1.569 0v7.641a4.046 4.046 0 0 1-1.188 2.875l-5.456 5.455a4.033 4.033 0 0 1-2.871 1.19H-6.303a2.96 2.96 0 0 1-2.955-2.956V1.237a2.809 2.809 0 0 1 2.807-2.806H0A.784.784 0 1 1 0 0" style="fill:#0099df;fill-opacity:1;fill-rule:nonzero;stroke:none" transform="translate(9.258 10.63)"/><path d="M0 0c-3.866 0-7.012 3.145-7.012 7.011S-3.866 14.022 0 14.022a7.019 7.019 0 0 0 7.011-7.011A7.019 7.019 0 0 0 0 0m0 15.592c-4.732 0-8.582-3.849-8.582-8.581 0-4.732 3.85-8.581 8.582-8.581 4.732 0 8.581 3.849 8.581 8.581 0 4.732-3.849 8.581-8.581 8.581" style="fill:#0099df;fill-opacity:1;fill-rule:nonzero;stroke:none" transform="translate(21.168 5.413)"/><path d="M0 0a.692.692 0 0 0-.692.687c.011.149.237.577.692 1.141C.453 1.266.679.839.692.689A.694.694 0 0 0 0 0m-7.084-.01a.692.692 0 0 0-.693.688c.01.148.237.576.693 1.14.452-.562.679-.989.691-1.139a.693.693 0 0 0-.691-.689m7.61 3.569a.78.78 0 0 1-.566.246h-.004l-2.641-.015v.699a.784.784 0 1 1-1.569 0v-.708l-2.65-.014c-.05 0-.094-.02-.141-.03-.014.001-.026.009-.039.009a.987.987 0 0 1-.643-.279c-.739-.783-1.62-1.904-1.62-2.785A2.265 2.265 0 0 1-7.084-1.58 2.264 2.264 0 0 1-4.823.682c0 .469-.253 1.005-.597 1.523l1.166.007v-5.294h-.925a.784.784 0 1 1 0-1.569h3.419a.784.784 0 1 1 0 1.569h-.925v5.303l1.028.006c-.348-.522-.604-1.062-.604-1.536a2.262 2.262 0 0 1 4.522 0c0 .883-.88 2.002-1.617 2.785-.033.035-.079.053-.118.083" style="fill:#0099df;fill-opacity:1;fill-rule:nonzero;stroke:none" transform="translate(24.71 12.112)"/><path d="M0 0h-12.871a.785.785 0 0 1 0-1.57H0A.784.784 0 1 1 0 0" style="fill:#0099df;fill-opacity:1;fill-rule:nonzero;stroke:none" transform="translate(18.636 29.078)"/><path d="M0 0h-8.253a.785.785 0 0 1 0-1.57H0A.784.784 0 1 1 0 0" style="fill:#0099df;fill-opacity:1;fill-rule:nonzero;stroke:none" transform="translate(18.636 33.604)"/><path d="M0 0a1.31 1.31 0 0 1 0 2.618A1.31 1.31 0 0 1 0 0" style="fill:#0099df;fill-opacity:1;fill-rule:nonzero;stroke:none" transform="translate(6.195 31.51)"/><path d="M0 0h-5.48a.784.784 0 1 1 0-1.569H0A.784.784 0 1 1 0 0" style="fill:#0099df;fill-opacity:1;fill-rule:nonzero;stroke:none" transform="translate(11.246 19.977)"/><path d="M0 0h-8.253a.784.784 0 1 1 0-1.57H0A.785.785 0 0 1 0 0" style="fill:#0099df;fill-opacity:1;fill-rule:nonzero;stroke:none" transform="translate(18.636 24.504)"/><path d="M0 0a1.31 1.31 0 0 1 1.308-1.309 1.31 1.31 0 0 1 0 2.617A1.308 1.308 0 0 1 0 0" style="fill:#0099df;fill-opacity:1;fill-rule:nonzero;stroke:none" transform="translate(4.887 23.72)"/></g></svg>