<svg width="88.933" height="88.933" xmlns="http://www.w3.org/2000/svg"><defs><clipPath clipPathUnits="userSpaceOnUse" id="a"><path d="M0 0h66.7v66.7H0Z"/></clipPath></defs><g clip-path="url(#a)" transform="matrix(1.33333 0 0 -1.33333 0 88.933)"><path d="M0 0h-51.733c-2 0-3.734-1.6-3.734-3.733 0-.667.534-1.2 1.2-1.2.667 0 1.2.533 1.2 1.2 0 .8.667 1.333 1.334 1.333H0c1.6 0 2.933-1.333 2.933-2.933v-26.934c0-.666.534-1.2 1.2-1.2.667 0 1.2.534 1.2 1.2v26.934C5.2-2.4 2.933 0 0 0" style="fill:#0099df;fill-opacity:1;fill-rule:nonzero;stroke:none" transform="translate(61.435 66.68)"/><path d="M0 0c1.6 0 3.067 1.333 3.067 3.067 0 1.6-1.334 3.066-3.067 3.066-1.6 0-3.067-1.333-3.067-3.066C-3.067 1.333-1.6 0 0 0m0 3.733c.4 0 .667-.266.667-.666S.4 2.4 0 2.4s-.667.267-.667.667.267.666.667.666" style="fill:#0099df;fill-opacity:1;fill-rule:nonzero;stroke:none" transform="translate(25.352 50.366)"/><path d="M0 0c1.6 0 3.067 1.333 3.067 3.067 0 1.6-1.334 3.066-3.067 3.066S-3.067 4.8-3.067 3.067C-3.067 1.333-1.6 0 0 0m0 3.733c.4 0 .667-.266.667-.666S.4 2.4 0 2.4s-.667.267-.667.667.267.666.667.666" style="fill:#0099df;fill-opacity:1;fill-rule:nonzero;stroke:none" transform="translate(18.08 50.366)"/><path d="M0 0c1.6 0 3.067 1.333 3.067 3.067 0 1.6-1.334 3.066-3.067 3.066-1.6 0-3.067-1.333-3.067-3.066C-3.067 1.333-1.6 0 0 0m0 3.733c.4 0 .667-.266.667-.666S.4 2.4 0 2.4s-.667.267-.667.667.267.666.667.666" style="fill:#0099df;fill-opacity:1;fill-rule:nonzero;stroke:none" transform="translate(10.89 50.366)"/><path d="M0 0h-16.4l1.467 1.6c.4.533.4 1.2-.134 1.6-.533.4-1.2.4-1.6-.133L-19.6-.267c-.4-.4-.4-1.066 0-1.6l3.333-3.733c.267-.267.534-.4.934-.4.266 0 .533.133.8.267.533.4.533 1.2.133 1.6l-1.467 1.6H0c.667 0 1.2.533 1.2 1.2C1.2-.533.667 0 0 0" style="fill:#0099df;fill-opacity:1;fill-rule:nonzero;stroke:none" transform="translate(20.91 9.15)"/><path d="M0 0c-.4.533-1.2.533-1.6.133-.533-.4-.533-1.2-.133-1.6l1.6-1.866H-14.8a2.674 2.674 0 0 0-2.667 2.666V24.8h56V11.733c0-.666.534-1.2 1.2-1.2.667 0 1.2.534 1.2 1.2V33.6c0 2.8-2.266 4.933-4.933 4.933h-50.8c-2.8 0-4.933-2.266-4.933-4.933V-.667c0-2.8 2.266-4.933 4.933-4.933H-.267l-1.2-1.333c-.4-.534-.4-1.2.134-1.6.266-.134.533-.267.8-.267.266 0 .666.133.933.4l2.933 3.333c.4.4.4 1.067 0 1.6zm-14.8 36.267h50.667c1.466 0 2.666-1.2 2.666-2.667v-6.4h-56v6.4c0 1.467 1.2 2.667 2.667 2.667" style="fill:#0099df;fill-opacity:1;fill-rule:nonzero;stroke:none" transform="translate(19.759 22.006)"/><path d="M0 0h-28.8a5.065 5.065 0 0 1-5.067-5.067V-23.6c0-2.8 2.267-5.067 5.067-5.067H0c2.8 0 5.067 2.267 5.067 5.067v18.533C4.933-2.267 2.8 0 0 0m2.667-23.6c0-1.467-1.2-2.667-2.667-2.667h-28.8a2.675 2.675 0 0 0-2.667 2.667v18.533c0 1.467 1.2 2.667 2.667 2.667H0c1.467 0 2.667-1.2 2.667-2.667z" style="fill:#0099df;fill-opacity:1;fill-rule:nonzero;stroke:none" transform="translate(61.54 28.678)"/><path d="M0 0c-1.733-.133-3.2-.933-4.4-2.267C-5.467-3.6-6-5.2-5.867-6.933c.134-1.734.934-3.2 2.267-4.4C-2.4-12.267-.933-12.8.533-12.8h.534c1.6.267 3.2 1.067 4.266 2.267C6.4-9.2 6.933-7.6 6.8-5.867A6.299 6.299 0 0 1 0 0m.133-2.267H.4c1.733 0 3.2-1.066 3.733-2.666L-3.6-5.6c.133.667.4 1.333.8 1.733.933.934 1.867 1.467 2.933 1.6M.8-10.4c-1.067-.133-2.133.267-2.933.933-.534.4-.934 1.067-1.2 1.6L4.4-7.2c-.133-.667-.4-1.333-.8-1.733-.667-.934-1.733-1.334-2.8-1.467" style="fill:#0099df;fill-opacity:1;fill-rule:nonzero;stroke:none" transform="translate(40.086 23.37)"/><path d="M0 0c-1.6.133-3.2-.533-4-1.867l-2.267-3.066L-8.533-8c-1.334-2-.934-4.533.933-6 .667-.667 1.6-1.067 2.4-1.067 1.333 0 2.533.534 3.467 1.6L.533-10.4 2.8-7.333c1.067 1.2 1.2 2.933.667 4.4C2.933-1.2 1.6-.267 0 0m-6.4-12.267c-.933.667-1.067 1.867-.533 2.8l1.6 2.134L-2-9.733l-1.6-2.134c-.667-.933-1.867-1.066-2.8-.4m7.467 6.534-1.6-2.134-3.334 2.4 1.6 2.267c.4.533 1.067.933 1.734.933h.266c.8-.133 1.334-.533 1.734-1.2.266-.8.133-1.6-.4-2.266" style="fill:#0099df;fill-opacity:1;fill-rule:nonzero;stroke:none" transform="translate(56.263 20.291)"/><path d="M0 0c0 .667-.267 2.667-3.2 2.667h-2.133c-.534 0-1.067-.4-1.067-1.067v-6.8c0-.533.4-.933 1.067-.933.533 0 1.066.4 1.066.933v2.533h.534l2-3.066c.133-.267.533-.4.8-.4.4 0 .8.266.933.533a1.14 1.14 0 0 1 0 .933L-1.6-2.4C-.533-2 0-1.067 0 0m-2 0c0-.533-.4-.8-1.067-.8H-4.4V.8h1.067C-2.133.8-2 .4-2 0" style="fill:#0099df;fill-opacity:1;fill-rule:nonzero;stroke:none" transform="translate(15.541 39.386)"/><path d="M0 0c-.133-.133-.267-.267-.267-.4 0-.533.534-.933 1.067-.933.4 0 .667.133.8.4.267.4.667.8.933 1.2.267-.134.4-.267.4-.4.267-.267.4-.4.667-.8.133-.267.4-.4.8-.4.533 0 1.067.4 1.067.933 0 .133 0 .4-.134.533L3.867 2 5.2 3.867c.133.133.133.4.133.533 0 .533-.533.933-.933.933-.533-.266-.8-.4-.933-.666l-.8-1.2-.8 1.066c-.267.267-.4.534-.934.534-.533 0-1.066-.4-1.066-.934 0-.133 0-.4.133-.533.267-.4.667-.8.933-1.2.134-.133.267-.4.4-.533-.133-.267-.4-.534-.666-.8C.4.667.267.4 0 0" style="fill:#0099df;fill-opacity:1;fill-rule:nonzero;stroke:none" transform="translate(16.412 34.639)"/><path d="M0 0c-.667 0-1.067-.4-1.067-.933V-4.8c-.266.533-.533.933-.8 1.333C-2.4-2.533-2.933-1.733-3.6-.533c-.267.266-.533.533-.933.533C-5.2 0-5.6-.4-5.6-.933V-8c0-.533.4-.933 1.067-.933.533 0 1.066.4 1.066.933v3.867L-.933-8.4C-.8-8.667-.4-8.933 0-8.933c.533 0 .933.4.933.933v7.067C.933-.4.533 0 0 0" style="fill:#0099df;fill-opacity:1;fill-rule:nonzero;stroke:none" transform="translate(28.28 42.185)"/><path d="M0 0c1.733 0 2.8.933 2.8 2.4v1.733c0 1.467-1.067 2.4-2.8 2.4-1.733 0-2.8-.933-2.8-2.4V2.4C-2.8.933-1.733 0 0 0m.8 2.4c0-.533-.4-.667-.8-.667s-.8.134-.8.667v1.733c0 .534.4.667.8.667s.8-.133.8-.667Z" style="fill:#0099df;fill-opacity:1;fill-rule:nonzero;stroke:none" transform="translate(33.234 33.25)"/><path d="M0 0c.4 0 .667.133.8.267.133.133.267.4.267.666 0 .4-.267.934-1.2.934-.4 0-.934-.267-1.467-.534-.133.267-.4.267-.667.267-.533 0-.933-.267-.933-.8 0-.267.133-.4.133-.533.134-.134.134-.267.134-.4v-3.6c0-.534.4-.934 1.066-.934.534 0 1.067.4 1.067.934V0Z" style="fill:#0099df;fill-opacity:1;fill-rule:nonzero;stroke:none" transform="translate(40.127 37.947)"/><path d="M0 0c.533 0 .933.4.933.933v3.334C.933 5.6 0 6.533-1.6 6.533c-.667 0-1.2-.133-1.867-.533-.4.267-.933.533-1.466.533A2.56 2.56 0 0 1-6.533 6c0 .267-.267.267-.534.267A.911.911 0 0 1-8 5.333c0-.133 0-.266.267-.533V.933c0-.533.4-.933 1.066-.933.534 0 .934.4.934.933v3.6c.4.134.666.267.8.267.4 0 .533-.133.533-.8V.933C-4.4.4-4 0-3.333 0c.666 0 1.066.4 1.066.933v3.6c.267.267.534.267.8.267.4 0 .534-.267.534-.533V.933C-1.067.4-.667 0 0 0" style="fill:#0099df;fill-opacity:1;fill-rule:nonzero;stroke:none" transform="translate(49.903 33.28)"/></g></svg>