<svg xmlns="http://www.w3.org/2000/svg" xml:space="preserve" id="Слой_1" x="0" y="0" style="enable-background:new 0 0 50 50" version="1.1" viewBox="0 0 50 50"><style>.st0{fill:#0099df}</style><path d="M30.99 45.32H8.78c-.59 0-1.07-.48-1.07-1.07v-28.7h37.41v14.29a.85.85 0 1 0 1.7 0V7.83a2.77 2.77 0 0 0-2.77-2.77H8.78a2.77 2.77 0 0 0-2.77 2.77v36.42a2.77 2.77 0 0 0 2.77 2.77h22.21a.85.85 0 1 0 0-1.7zM8.78 6.76h35.27c.59 0 1.07.48 1.07 1.07v6.01H7.71V7.83c0-.59.48-1.07 1.07-1.07z" class="st0"/><path d="M4.17 42.14c-.59 0-1.07-.51-1.07-1.14V3.28c0-.63.48-1.14 1.07-1.14h35.27c.59 0 1.07.51 1.07 1.14a.85.85 0 1 0 1.7 0c0-1.57-1.24-2.84-2.77-2.84H4.17C2.64.44 1.4 1.71 1.4 3.28V41c0 1.57 1.24 2.84 2.77 2.84a.85.85 0 1 0 0-1.7zM41.49 32.37c-4.66 0-8.45 3.79-8.45 8.45s3.79 8.45 8.45 8.45 8.45-3.79 8.45-8.45-3.79-8.45-8.45-8.45zm0 15.2c-3.72 0-6.75-3.03-6.75-6.75s3.03-6.75 6.75-6.75 6.75 3.03 6.75 6.75-3.03 6.75-6.75 6.75z" class="st0"/><path d="M46.85 40.05c-.07-.14-1.7-3.41-5.41-3.41h-.05c-3.79.03-5.24 3.41-5.3 3.55l-.26.62.33.59c.08.15 2.02 3.58 5.24 3.58h.05c3.16-.04 5.13-3.25 5.35-3.62l.38-.65-.33-.66zm-5.36-1.22c1.1 0 1.98.89 1.98 1.98 0 1.1-.89 1.98-1.98 1.98s-1.98-.89-1.98-1.98c-.01-1.09.88-1.98 1.98-1.98zm-4.11 1.91s.35-.85 1.18-1.59c-.28.5-.46 1.06-.46 1.67 0 .42.09.82.23 1.19-.61-.66-.95-1.27-.95-1.27zm7.31 1.11c.11-.33.18-.67.18-1.03 0-.58-.16-1.11-.41-1.59.77.69 1.14 1.44 1.14 1.44s-.33.55-.91 1.18z" class="st0"/><path d="M41.49 41.8c.54 0 .98-.44.98-.98s-.44-.98-.98-.98-.98.44-.98.98.44.98.98.98zM12.53 12.81c1.25 0 2.27-1.02 2.27-2.27s-1.02-2.27-2.27-2.27-2.27 1.02-2.27 2.27 1.01 2.27 2.27 2.27zm0-2.85a.57.57 0 1 1 0 1.14.57.57 0 0 1 0-1.14zM18.1 12.81c1.25 0 2.27-1.02 2.27-2.27s-1.02-2.27-2.27-2.27-2.27 1.02-2.27 2.27 1.02 2.27 2.27 2.27zm0-2.85a.57.57 0 1 1 0 1.14.57.57 0 0 1 0-1.14zM23.61 12.81c1.25 0 2.27-1.02 2.27-2.27s-1.02-2.27-2.27-2.27-2.27 1.02-2.27 2.27 1.02 2.27 2.27 2.27zm0-2.85a.57.57 0 1 1 0 1.14.57.57 0 0 1 0-1.14zM36.53 29.09c.02.52.46.92.98.89.52-.02.92-.46.89-.98-.06-1.22-.29-2.43-.7-3.59a12.52 12.52 0 0 0-11.79-8.34h-.04c-4.53 0-8.71 2.46-10.91 6.42-2.12 3.81-2.09 8.45.04 12.22l-3.18 6.68a.929.929 0 0 0 1.24 1.24l6.68-3.18a12.45 12.45 0 0 0 11.42.46.94.94 0 0 0 .46-1.24.944.944 0 0 0-1.24-.46 10.613 10.613 0 0 1-10.09-.62.93.93 0 0 0-.9-.05l-4.75 2.26 2.26-4.75a.93.93 0 0 0-.05-.9c-2.04-3.27-2.14-7.4-.26-10.77a10.63 10.63 0 0 1 9.28-5.45h.03c4.5 0 8.53 2.85 10.03 7.09.35 1.01.55 2.03.6 3.07z" class="st0"/><path d="M26 22.23c-4.16 0-7.55 3.39-7.55 7.55s3.39 7.55 7.55 7.55 7.55-3.38 7.55-7.55-3.39-7.55-7.55-7.55zm5.59 6.61h-2.46a21.88 21.88 0 0 0-.41-4.04c1.5.83 2.58 2.3 2.87 4.04zM26 35.45c-.08 0-.15-.01-.23-.01-.51-1.55-.83-3.13-.96-4.72h2.38c-.13 1.61-.46 3.19-.97 4.72-.07 0-.14.01-.22.01zm.66-11.3c.38 1.54.58 3.11.6 4.7h-2.52c.02-1.57.21-3.14.6-4.7.22-.03.44-.04.66-.04.23-.01.45.01.66.04zm-3.39.66c-.26 1.34-.38 2.68-.39 4.03h-2.46a5.63 5.63 0 0 1 2.85-4.03zm-2.86 5.9h2.52c.11 1.42.34 2.83.72 4.22a5.671 5.671 0 0 1-3.24-4.22zm7.94 4.23c.38-1.38.62-2.79.73-4.22h2.52a5.718 5.718 0 0 1-3.25 4.22z" class="st0"/></svg>