<svg xmlns="http://www.w3.org/2000/svg" width="66.667" height="66.667"><defs><clipPath id="a" clipPathUnits="userSpaceOnUse"><path d="M0 50h50V0H0Z"/></clipPath></defs><g clip-path="url(#a)" transform="matrix(1.33333 0 0 -1.33333 0 66.667)"><path d="M0 0h-1.582a.867.867 0 1 1 0-1.732h.358a.86.86 0 0 1 .81-.584c.395 0 .716.27.82.632.732.161 1.323.74 1.47 1.5A1.917 1.917 0 0 1 .711 1.953l-1.605.642a.177.177 0 0 0-.108.2.178.178 0 0 0 .173.144H.754a.867.867 0 1 1 0 1.733H.396a.86.86 0 0 1-.81.584.854.854 0 0 1-.819-.632 1.912 1.912 0 0 1-1.472-1.5A1.918 1.918 0 0 1-1.54.986L.065.345A.18.18 0 0 0 0 0" style="fill:#0099df;fill-opacity:1;fill-rule:nonzero;stroke:none" transform="translate(13.673 17.86)"/><path d="M0 0h8.175a.867.867 0 0 1 0 1.734H0A.867.867 0 1 1 0 0" style="fill:#0099df;fill-opacity:1;fill-rule:nonzero;stroke:none" transform="translate(9.171 24.303)"/><path d="M0 0a.866.866 0 0 1 1.163.388l1.119 2.238c.28.56.171 1.233-.272 1.675a1.45 1.45 0 0 1-1.674.273l-1.254-.626-.255.385c-.538.809-1.876.808-2.414 0l-.258-.386-1.256.627a1.452 1.452 0 0 1-1.944-1.948L-5.947.431A.87.87 0 0 1-4.784.043a.869.869 0 0 1 .388 1.164l-.719 1.437.718-.359a1.447 1.447 0 0 1 1.856.492l.16.24.157-.24a1.455 1.455 0 0 1 1.855-.493l.722.36-.741-1.481A.867.867 0 0 1 0 0" style="fill:#0099df;fill-opacity:1;fill-rule:nonzero;stroke:none" transform="translate(15.64 26.897)"/><path d="M0 0a5.448 5.448 0 0 1 4.92-3.063h4.509A5.45 5.45 0 0 1 14.35 0c.929 1.89.709 4.1-.605 5.805l-2.149 2.492a.866.866 0 1 1-1.313-1.132l2.118-2.455a3.727 3.727 0 0 0 .393-3.944 3.728 3.728 0 0 0-3.365-2.095H4.92A3.728 3.728 0 0 0 1.556.765c-.636 1.293-.486 2.803.361 3.908l2.149 2.492a.866.866 0 1 1-1.312 1.132L.574 5.768A5.453 5.453 0 0 1 0 0" style="fill:#0099df;fill-opacity:1;fill-rule:nonzero;stroke:none" transform="translate(6.083 15.688)"/><path d="M0 0h40.931a1.846 1.846 0 0 0 1.836-1.834v-4.974H-1.819v4.987A1.83 1.83 0 0 0 0 0m20.601-33.686H.016a1.846 1.846 0 0 0-1.835 1.833v23.311h44.586v-6.621a.866.866 0 1 1 1.733 0v13.331a3.584 3.584 0 0 1-3.566 3.566H-.002a3.57 3.57 0 0 1-3.551-3.553v-30.037a3.583 3.583 0 0 1 3.566-3.563h20.588a.866.866 0 1 1 0 1.733" style="fill:#0099df;fill-opacity:1;fill-rule:nonzero;stroke:none" transform="translate(3.807 43.685)"/><path d="M0 0a.867.867 0 0 1 0-1.734h11.012a.866.866 0 1 1 0 1.734z" style="fill:#0099df;fill-opacity:1;fill-rule:nonzero;stroke:none" transform="translate(23.745 31.648)"/><path d="M0 0a.867.867 0 0 1 0-1.734h3.872a.866.866 0 1 1 0 1.734Z" style="fill:#0099df;fill-opacity:1;fill-rule:nonzero;stroke:none" transform="translate(37.414 31.648)"/><path d="M0 0a.574.574 0 1 0-.001-1.147A.574.574 0 0 0 0 0m0-2.88A2.31 2.31 0 0 1 2.307-.573 2.31 2.31 0 0 1 0 1.734 2.31 2.31 0 0 1-2.307-.573 2.31 2.31 0 0 1 0-2.88" style="fill:#0099df;fill-opacity:1;fill-rule:nonzero;stroke:none" transform="translate(7.409 40.78)"/><path d="M0 0a.574.574 0 1 0-.001-1.147A.574.574 0 0 0 0 0m0-2.88A2.31 2.31 0 0 1 2.307-.573 2.31 2.31 0 0 1 0 1.734 2.31 2.31 0 0 1-2.307-.573 2.31 2.31 0 0 1 0-2.88" style="fill:#0099df;fill-opacity:1;fill-rule:nonzero;stroke:none" transform="translate(13.05 40.78)"/><path d="M0 0a.574.574 0 1 0-.001-1.147A.574.574 0 0 0 0 0m0-2.88A2.31 2.31 0 0 1 2.307-.573 2.31 2.31 0 0 1 0 1.734 2.31 2.31 0 0 1-2.307-.573 2.31 2.31 0 0 1 0-2.88" style="fill:#0099df;fill-opacity:1;fill-rule:nonzero;stroke:none" transform="translate(18.629 40.78)"/><path d="M0 0a32.07 32.07 0 0 1 1.03 4.406h4.29C4.202 2.32 2.295.707 0 0m-3.406-.366a30.997 30.997 0 0 0-1.221 4.772h3.904A30.605 30.605 0 0 0-1.945-.362a9.38 9.38 0 0 0-1.461-.004m-4.506 1.607L-12.148-.47l1.646 3.582c.143.35.117.741-.071 1.073-.041.072-.075.148-.115.221h4.307A32.596 32.596 0 0 1-5.338-.007a9.05 9.05 0 0 0-2.197 1.01zm1.998 15.927a32.651 32.651 0 0 1-.75-4.491h-4.178a9.135 9.135 0 0 0 4.928 4.491m3.22.588c.455 0 .904-.043 1.347-.109.44-1.63.734-3.293.899-4.97h-4.478c.167 1.67.465 3.333.907 4.979.444.062.886.1 1.325.1m8.155-5.079H1.293a32.531 32.531 0 0 1-.738 4.481 9.023 9.023 0 0 0 4.906-4.481m-4.054-1.734h4.701a9.219 9.219 0 0 0 .245-3.135A8.852 8.852 0 0 0 6.03 6.14H1.262c.123 1.156.191 2.319.189 3.49 0 .438-.026.876-.044 1.313m-6.469 0h4.737c.018-.437.044-.875.043-1.313a30.721 30.721 0 0 0-.2-3.49h-4.411a30.701 30.701 0 0 0-.169 4.803m-6.593-.849c.043.288.104.57.176.849h4.68a32.375 32.375 0 0 1 .168-4.803h-4.767a9.165 9.165 0 0 0-.257 3.954m16.342 6.494c-2.47 2.304-5.828 3.307-9.196 2.753-4.533-.744-8.178-4.441-8.861-8.989-.359-2.381.046-4.727 1.164-6.797L-14.17-.718a1.286 1.286 0 0 1 .255-1.48c.258-.258.595-.39.923-.39.177 0 .349.038.508.114l4.407 1.78c2.055-1.187 4.394-1.652 6.792-1.351 4.963.624 8.901 4.7 9.365 9.692.314 3.379-.923 6.638-3.393 8.941" style="fill:#0099df;fill-opacity:1;fill-rule:nonzero;stroke:none" transform="translate(41.618 7.169)"/></g></svg>