<svg xmlns="http://www.w3.org/2000/svg" width="66.667" height="66.667"><defs><clipPath id="a" clipPathUnits="userSpaceOnUse"><path d="M0 50h50V0H0Z"/></clipPath></defs><g clip-path="url(#a)" transform="matrix(1.33333 0 0 -1.33333 0 66.667)"><path d="m0 0 6.34-5.806-.687-.659-.163-.017-5.946 6.05c.148.149.3.291.456.432m-3.889-2.084L-6.604.527a14.708 14.708 0 0 1 5.597 5.401l2.679-2.63a14.004 14.004 0 0 1-5.561-5.382m9.451-6.14c.483 0 .939.183 1.284.515l.689.66c.349.336.549.802.549 1.281 0 .479-.2.946-.569 1.3L1.378 1.086c.421.285.851.561 1.31.798l.202.143c.35.336.551.803.551 1.284 0 .48-.201.948-.55 1.281L.285 7.094c-.689.663-1.881.663-2.571 0l-.148-.19a12.998 12.998 0 0 0-5.159-4.951l-.192-.139a1.79 1.79 0 0 1-.55-1.282c0-.479.2-.946.55-1.283l2.607-2.503a1.85 1.85 0 0 1 1.283-.512c.482 0 .939.182 1.284.512l.157.203c.257.459.554.892.866 1.311l5.863-5.967a1.847 1.847 0 0 1 1.287-.517" style="fill:#0099df;fill-opacity:1;fill-rule:nonzero;stroke:none" transform="translate(15.868 24.021)"/><path d="M0 0v.207c0 .111.115.207.251.207h5.57c.137 0 .251-.096.251-.207V0Zm5.821 2.138H.251c-1.089 0-1.976-.867-1.976-1.931V0h-.251a.863.863 0 1 1 0-1.725H8.049a.863.863 0 0 1 0 1.725h-.252v.207c0 1.064-.886 1.931-1.976 1.931" style="fill:#0099df;fill-opacity:1;fill-rule:nonzero;stroke:none" transform="translate(8.555 15.612)"/><path d="M0 0h40.719a1.835 1.835 0 0 0 1.826-1.825v-4.947H-1.81v4.96A1.822 1.822 0 0 0 0 0m20.495-33.512H.016a1.837 1.837 0 0 0-1.826 1.824v23.19h44.355v-6.586a.862.862 0 1 1 1.724 0v13.262a3.564 3.564 0 0 1-3.547 3.547H-.003A3.552 3.552 0 0 1-3.535-1.81v-29.881a3.566 3.566 0 0 1 3.548-3.545h20.482a.862.862 0 0 1 0 1.724" style="fill:#0099df;fill-opacity:1;fill-rule:nonzero;stroke:none" transform="translate(3.917 43.588)"/><path d="M0 0a.861.861 0 0 1-.862.862h-10.955a.862.862 0 0 1 0-1.724H-.862C-.385-.862 0-.476 0 0" style="fill:#0099df;fill-opacity:1;fill-rule:nonzero;stroke:none" transform="translate(35.568 30.752)"/><path d="M0 0a.861.861 0 0 1 0-1.725h3.853a.863.863 0 0 1 0 1.725Z" style="fill:#0099df;fill-opacity:1;fill-rule:nonzero;stroke:none" transform="translate(37.35 31.614)"/><path d="M0 0a.57.57 0 1 0 0-1.14A.57.57 0 0 0 0 0m0-2.865A2.297 2.297 0 0 1 2.295-.57 2.297 2.297 0 0 1 0 1.725 2.297 2.297 0 0 1-2.295-.57 2.297 2.297 0 0 1 0-2.865" style="fill:#0099df;fill-opacity:1;fill-rule:nonzero;stroke:none" transform="translate(7.5 40.698)"/><path d="M0 0a.57.57 0 1 0 0-1.14A.57.57 0 0 0 0 0m0-2.865A2.297 2.297 0 0 1 2.295-.57 2.297 2.297 0 0 1 0 1.725 2.297 2.297 0 0 1-2.295-.57 2.297 2.297 0 0 1 0-2.865" style="fill:#0099df;fill-opacity:1;fill-rule:nonzero;stroke:none" transform="translate(13.113 40.698)"/><path d="M0 0a.57.57 0 1 0 0-1.14A.57.57 0 0 0 0 0m0-2.865A2.297 2.297 0 0 1 2.295-.57 2.297 2.297 0 0 1 0 1.725 2.297 2.297 0 0 1-2.295-.57 2.297 2.297 0 0 1 0-2.865" style="fill:#0099df;fill-opacity:1;fill-rule:nonzero;stroke:none" transform="translate(18.662 40.698)"/><path d="M0 0a32.043 32.043 0 0 1 1.025 4.384h4.267C4.18 2.309 2.283.704 0 0m-3.389-.363a30.99 30.99 0 0 0-1.215 4.747h3.885A30.372 30.372 0 0 0-1.936-.359a9.157 9.157 0 0 0-1.453-.004m-4.482 1.598-4.215-1.702 1.638 3.564c.141.348.117.736-.071 1.066-.041.072-.075.148-.114.221h4.285a32.672 32.672 0 0 1 1.037-4.39A9.028 9.028 0 0 0-7.496.999Zm1.987 15.845a32.788 32.788 0 0 1-.746-4.469h-4.155a9.086 9.086 0 0 0 4.901 4.469m3.203.585c.453 0 .9-.043 1.341-.108.438-1.622.73-3.277.894-4.946H-4.9c.166 1.661.462 3.317.902 4.954.441.062.881.1 1.317.1m8.114-5.054H1.286a32.387 32.387 0 0 1-.734 4.459 8.986 8.986 0 0 0 4.881-4.459M1.4 10.888h4.676a9.159 9.159 0 0 0 .244-3.12 8.861 8.861 0 0 0-.321-1.66H1.255c.122 1.15.19 2.308.188 3.473 0 .437-.026.871-.043 1.307m-6.435 0h4.711c.018-.436.044-.87.044-1.307a31.124 31.124 0 0 0-.199-3.473h-4.389a30.408 30.408 0 0 0-.167 4.78m-6.561-.846c.044.287.106.568.176.846h4.656a32.196 32.196 0 0 1 .167-4.78h-4.742a9.152 9.152 0 0 0-.257 3.934m16.259 6.46c-2.458 2.292-5.798 3.29-9.148 2.739-4.51-.74-8.136-4.417-8.817-8.943-.355-2.368.046-4.701 1.158-6.761l-1.953-4.251a1.283 1.283 0 0 1 .253-1.473c.257-.255.592-.387.919-.387.175 0 .348.038.505.114l4.385 1.77c2.044-1.18 4.371-1.643 6.757-1.344 4.936.621 8.854 4.677 9.316 9.642.312 3.362-.918 6.604-3.375 8.894" style="fill:#0099df;fill-opacity:1;fill-rule:nonzero;stroke:none" transform="translate(41.532 7.26)"/></g></svg>