<svg xmlns="http://www.w3.org/2000/svg" width="66.667" height="66.667"><defs><clipPath id="a" clipPathUnits="userSpaceOnUse"><path d="M0 50h50V0H0Z"/></clipPath></defs><g clip-path="url(#a)" transform="matrix(1.33333 0 0 -1.33333 0 66.667)"><path d="M0 0a2.277 2.277 0 0 0-1.924-1.072h-14.82c-.777 0-1.516.411-1.924 1.072a2.252 2.252 0 0 0-.1 2.201l7.413 14.82a2.245 2.245 0 0 0 2.021 1.25 2.25 2.25 0 0 0 2.023-1.25L.1 2.201V2.2A2.247 2.247 0 0 0 0 0m1.619 2.961L-5.79 17.78a3.94 3.94 0 0 1-3.544 2.191 3.934 3.934 0 0 1-3.542-2.191l-7.411-14.818a3.936 3.936 0 0 1 .173-3.856 3.938 3.938 0 0 1 3.37-1.877h14.82c1.384 0 2.644.702 3.37 1.877a3.934 3.934 0 0 1 .173 3.855" style="fill:#0099df;fill-opacity:1;fill-rule:nonzero;stroke:none" transform="translate(47.286 3.26)"/><path d="m0 0-6.7.189c-1.072 0-1.945 1.017-1.945 2.252l.124 6.856zm-25.396 10.537h15.03c.056 0 .111-.012.166-.018l-.144-8.063c0-2.187 1.634-3.966 3.619-3.966l8.16-.231c.119-.273.188-.572.188-.879v-6.158a.85.85 0 1 1 1.699 0v6.158c0 .974-.35 1.893-.987 2.589l-10.23 11.159a3.425 3.425 0 0 1-1.065.781c-.016.008-.029.019-.045.026a3.285 3.285 0 0 1-1.361.302h-15.03a.85.85 0 0 1 0-1.7" style="fill:#0099df;fill-opacity:1;fill-rule:nonzero;stroke:none" transform="translate(35.548 34.978)"/><path d="M0 0h19.89a.85.85 0 1 1 0 1.699H0A.85.85 0 1 1 0 0" style="fill:#0099df;fill-opacity:1;fill-rule:nonzero;stroke:none" transform="translate(8.63 19.01)"/><path d="M0 0h-17.196a.85.85 0 1 1 0-1.699H0A.849.849 0 1 1 0 0" style="fill:#0099df;fill-opacity:1;fill-rule:nonzero;stroke:none" transform="translate(25.827 15.333)"/><path d="M0 0a.85.85 0 1 1 0 1.699h-14.363a.85.85 0 1 1 0-1.699z" style="fill:#0099df;fill-opacity:1;fill-rule:nonzero;stroke:none" transform="translate(22.994 8.257)"/><path d="M0 0h-16.416c-.972 0-1.762.897-1.762 2.001l.024 40.151.959-.959a.85.85 0 1 1 1.202 1.203l-2.409 2.409-.01.007a.857.857 0 0 1-.591.242l-.009-.002a.841.841 0 0 1-.582-.241c-.003-.003-.007-.003-.01-.006l-2.558-2.557a.851.851 0 0 1 1.203-1.203l1.105 1.105-.024-40.149c0-2.04 1.553-3.7 3.462-3.7H0A.85.85 0 1 1 0 0" style="fill:#0099df;fill-opacity:1;fill-rule:nonzero;stroke:none" transform="translate(23.082 4.458)"/><path d="M0 0c.717 0 1.252-.384 1.252-.728s-.537-.73-1.29-.73a1.438 1.438 0 0 0-1.187.559.85.85 0 1 1-1.352-1.03A3.134 3.134 0 0 1-.85-3.066v-.294a.85.85 0 1 1 1.7 0v.314c1.226.296 2.103 1.202 2.103 2.318C2.953.633 1.656 1.7 0 1.7c-.718 0-1.255.386-1.255.731 0 .344.537.729 1.289.73a1.45 1.45 0 0 0 1.186-.558.85.85 0 0 1 1.354 1.028A3.133 3.133 0 0 1 .85 4.757v.306a.85.85 0 0 1-1.7 0V4.75c-1.227-.295-2.105-1.203-2.105-2.319C-2.955 1.068-1.657 0 0 0" style="fill:#0099df;fill-opacity:1;fill-rule:nonzero;stroke:none" transform="translate(10.735 29.233)"/><path d="M0 0a.85.85 0 0 1 0 1.7c-2.495 0-4.559-1.821-4.966-4.201h-.407a.85.85 0 0 1 0-1.701h.407C-4.559-6.582-2.495-8.404 0-8.404a.85.85 0 0 1 0 1.7c-1.553 0-2.85 1.067-3.229 2.502H-.93a.85.85 0 1 1 0 1.701h-2.299A3.347 3.347 0 0 0 0 0" style="fill:#0099df;fill-opacity:1;fill-rule:nonzero;stroke:none" transform="translate(21.877 33.486)"/><path d="M0 0a.27.27 0 0 0-.206-.006.264.264 0 0 0-.148.141l-.001.001A.268.268 0 1 0 0 0m-.919 2.052a1.982 1.982 0 0 1 .104-3.656 1.978 1.978 0 1 1-.104 3.656" style="fill:#0099df;fill-opacity:1;fill-rule:nonzero;stroke:none" transform="translate(38.063 5.27)"/><path d="M0 0c0 .068.057.125.175.125A.126.126 0 0 0 .3 0v-5.601a.125.125 0 0 0-.125-.124h-.05A.125.125 0 0 0 0-5.601Zm.125-7.324h.05c.951 0 1.724.773 1.724 1.723V0c0 .951-.773 1.725-1.774 1.725A1.727 1.727 0 0 1-1.6 0v-5.601c0-.95.774-1.723 1.725-1.723" style="fill:#0099df;fill-opacity:1;fill-rule:nonzero;stroke:none" transform="translate(37.803 15.592)"/></g></svg>