<svg width="66.667" height="66.667" xmlns="http://www.w3.org/2000/svg"><defs><clipPath clipPathUnits="userSpaceOnUse" id="a"><path d="M0 50h50V0H0Z"/></clipPath></defs><g clip-path="url(#a)" transform="matrix(1.33333 0 0 -1.33333 0 66.667)"><path d="M0 0c0 1.333-1.061 1.663-1.917 1.929a3.26 3.26 0 0 0-.623.229c-.159.074-.306.183-.306.479 0 .135 0 .546.728.546.295 0 .477-.066.645-.127l.09-.027c.115-.036.235-.074.38-.074.483 0 .744.346.744.671 0 .717-1.202.908-1.912.908-1.35 0-2.189-.741-2.189-1.932 0-1.363 1.057-1.681 1.902-1.936.277-.09.481-.165.641-.233.153-.066.294-.171.294-.485 0-.421-.272-.635-.809-.635a2.35 2.35 0 0 0-.793.153l-.049.015c-.191.071-.339.114-.487.114-.377 0-.708-.314-.708-.672 0-.784 1.502-.961 2.029-.961C-.941-2.038 0-1.219 0 0" style="fill:#0099df;fill-opacity:1;fill-rule:nonzero;stroke:none" transform="translate(14.643 22.443)"/><path d="M0 0v-2.867l-.533.917C-.957-1.218-1.33-.573-1.85.309a.856.856 0 0 1-.707.379c-.439 0-.77-.307-.77-.715v-5.167c0-.38.329-.69.735-.69.407 0 .752.316.752.69v2.836l1.847-3.16.002-.003c.135-.213.422-.363.699-.363.444 0 .779.309.779.716V0c0 .38-.33.688-.735.688C.344.688 0 .373 0 0" style="fill:#0099df;fill-opacity:1;fill-rule:nonzero;stroke:none" transform="translate(18.58 26.29)"/><path d="M0 0c0 .725.302 1.062.951 1.062S1.902.725 1.902 0v-1.734c0-.401-.124-1.073-.951-1.073-.828 0-.951.672-.951 1.073Zm-1.488 0v-1.734c0-1.472.957-2.424 2.439-2.424 1.482 0 2.439.952 2.439 2.424V0c0 1.512-.912 2.414-2.439 2.414-1.527 0-2.439-.902-2.439-2.414" style="fill:#0099df;fill-opacity:1;fill-rule:nonzero;stroke:none" transform="translate(22.271 24.564)"/><path d="M0 0c-.345 0-.595-.139-.722-.398l-1.481-2.894-1.482 2.885c-.133.262-.392.407-.73.407-.435 0-.762-.3-.762-.698V-5.9c0-.371.325-.672.727-.672.412 0 .761.308.761.672v2.523l.791-1.526c.129-.253.379-.399.686-.399.314 0 .566.146.695.398l.791 1.527V-5.9c0-.364.345-.672.752-.672.399 0 .736.308.736.672v5.202C.762-.307.427 0 0 0" style="fill:#0099df;fill-opacity:1;fill-rule:nonzero;stroke:none" transform="translate(31.527 26.977)"/><path d="M0 0h2.365c.409 0 .743.309.743.687 0 .36-.34.665-.743.665H.539v1.187h1.566c.413 0 .736.299.736.681 0 .363-.337.671-.736.671H.539v1.171h1.736c.417 0 .744.292.744.663 0 .373-.34.688-.744.688H-.143c-.474 0-.805-.39-.805-.741V.741C-.948.271-.603 0 0 0" style="fill:#0099df;fill-opacity:1;fill-rule:nonzero;stroke:none" transform="translate(34.106 20.485)"/><path d="M0 0v3.719h.487c.79 0 1.192-.361 1.192-1.072V1.142C1.679.384 1.277 0 .487 0Zm-.672 5.071c-.442 0-.815-.343-.815-.75V-.603c0-.406.373-.749.815-.749H.336c2.555 0 2.83 1.744 2.83 2.494v1.505c0 .729-.275 2.424-2.83 2.424z" style="fill:#0099df;fill-opacity:1;fill-rule:nonzero;stroke:none" transform="translate(39.231 21.837)"/><path d="M0 0h35.506c.618 0 1.122-.503 1.122-1.122V-7.61H-1.121v6.488C-1.121-.503-.619 0 0 0m20.962-34.88H0c-.619 0-1.121.504-1.121 1.122v24.524h37.749v-12.029a.81.81 0 1 1 1.623 0v20.141a2.748 2.748 0 0 1-2.745 2.746H0a2.748 2.748 0 0 1-2.745-2.746v-32.636A2.748 2.748 0 0 1 0-36.503h20.962a.81.81 0 1 1 0 1.623" style="fill:#0099df;fill-opacity:1;fill-rule:nonzero;stroke:none" transform="translate(8.606 41.645)"/><path d="M0 0c-.619 0-1.122.535-1.122 1.191v33.958c0 .656.503 1.191 1.122 1.191h35.506c.618 0 1.122-.535 1.122-1.191a.812.812 0 1 1 1.623 0c0 1.552-1.231 2.815-2.745 2.815H0c-1.514 0-2.746-1.263-2.746-2.815V1.191C-2.746-.36-1.514-1.623 0-1.623A.811.811 0 1 1 0 0" style="fill:#0099df;fill-opacity:1;fill-rule:nonzero;stroke:none" transform="translate(2.952 10.969)"/><path d="M0 0a6.647 6.647 0 0 0-6.639 6.639A6.646 6.646 0 0 0 0 13.277a6.647 6.647 0 0 0 6.639-6.638A6.647 6.647 0 0 0 0 0m0 14.9c-4.557 0-8.262-3.706-8.262-8.261 0-4.556 3.705-8.262 8.262-8.262 4.556 0 8.261 3.706 8.261 8.262C8.261 11.194 4.556 14.9 0 14.9" style="fill:#0099df;fill-opacity:1;fill-rule:nonzero;stroke:none" transform="translate(41.532 2.69)"/><path d="M0 0a.622.622 0 1 0-.001-1.243A.622.622 0 0 0 0 0m0-2.865A2.247 2.247 0 0 1 2.245-.621 2.247 2.247 0 0 1 0 1.624 2.247 2.247 0 0 1-2.245-.621 2.247 2.247 0 0 1 0-2.865" style="fill:#0099df;fill-opacity:1;fill-rule:nonzero;stroke:none" transform="translate(12.474 38.322)"/><path d="M0 0a.622.622 0 1 0-.001-1.243A.622.622 0 0 0 0 0m0-2.865A2.247 2.247 0 0 1 2.245-.621 2.247 2.247 0 0 1 0 1.624 2.247 2.247 0 0 1-2.245-.621 2.247 2.247 0 0 1 0-2.865" style="fill:#0099df;fill-opacity:1;fill-rule:nonzero;stroke:none" transform="translate(18.088 38.322)"/><path d="M0 0a.622.622 0 1 0-.001-1.243A.622.622 0 0 0 0 0m0-2.865A2.247 2.247 0 0 1 2.244-.621 2.247 2.247 0 0 1 0 1.624 2.247 2.247 0 0 1-2.244-.621 2.246 2.246 0 0 1 0-2.865" style="fill:#0099df;fill-opacity:1;fill-rule:nonzero;stroke:none" transform="translate(23.638 38.322)"/><path d="M0 0h-13.404a.811.811 0 1 1 0-1.623H0A.811.811 0 1 1 0 0" style="fill:#0099df;fill-opacity:1;fill-rule:nonzero;stroke:none" transform="translate(29.574 15.473)"/><path d="M0 0c0-.678.574-1.229 1.278-1.229.705 0 1.279.551 1.279 1.229s-.574 1.229-1.279 1.229C.574 1.229 0 .678 0 0" style="fill:#0099df;fill-opacity:1;fill-rule:nonzero;stroke:none" transform="translate(10.198 14.661)"/><path d="M0 0c-.002.003-.006.003-.008.006l-.011.011-.004.006C-.055.054-.094.066-.128.09-.145.102-.161.114-.18.125c-.03.018-.056.046-.089.06-.003.002-.009.002-.013.003C-.335.21-.39.213-.444.223-.489.23-.532.247-.578.248l-.008.001-.006-.001C-.647.248-.7.229-.756.217-.8.208-.845.206-.888.188h-.001L-.902.186C-.94.169-.972.137-1.007.115c-.014-.01-.029-.018-.043-.029-.032-.023-.069-.034-.098-.063l-.005-.006-.011-.011C-1.166.003-1.17.003-1.172 0l-2.993-3.118a.812.812 0 1 1 1.172-1.124l1.596 1.662v-5.754a.811.811 0 1 1 1.623 0v5.754l1.595-1.662a.812.812 0 1 1 1.172 1.124z" style="fill:#0099df;fill-opacity:1;fill-rule:nonzero;stroke:none" transform="translate(42.118 13.777)"/></g></svg>