<svg xmlns="http://www.w3.org/2000/svg" width="66.667" height="66.667"><defs><clipPath id="a" clipPathUnits="userSpaceOnUse"><path d="M0 50h50V0H0Z"/></clipPath></defs><g clip-path="url(#a)" transform="matrix(1.33333 0 0 -1.33333 0 66.667)"><path d="m0 0-22.972-.002a.907.907 0 1 1 0-1.815L0-1.815A.906.906 0 1 1 0 0" style="fill:#0099df;fill-opacity:1;fill-rule:nonzero;stroke:none" transform="translate(40.717 17.725)"/><path d="m0 0-13.919-.001a.907.907 0 1 1 0-1.815L0-1.815A.906.906 0 1 1 0 0" style="fill:#0099df;fill-opacity:1;fill-rule:nonzero;stroke:none" transform="translate(40.717 12.07)"/><path d="M0 0h-5.79a.908.908 0 1 1 0-1.816H0A.908.908 0 1 1 0 0" style="fill:#0099df;fill-opacity:1;fill-rule:nonzero;stroke:none" transform="translate(23.535 12.067)"/><path d="m0 0-5.663-.001a.907.907 0 1 1 0-1.815L0-1.815A.906.906 0 1 1 0 0" style="fill:#0099df;fill-opacity:1;fill-rule:nonzero;stroke:none" transform="translate(40.717 23.38)"/><path d="m0 0 13.872.001a.907.907 0 1 1 0 1.815L0 1.815A.908.908 0 1 1 0 0" style="fill:#0099df;fill-opacity:1;fill-rule:nonzero;stroke:none" transform="translate(17.745 21.563)"/><path d="M0 0h10.827c.502 0 .907.407.907.909a.907.907 0 0 1-.907.908L0 1.816A.907.907 0 0 1 0 0" style="fill:#0099df;fill-opacity:1;fill-rule:nonzero;stroke:none" transform="translate(29.863 28.731)"/><path d="m0 0 10.827.001c.502 0 .907.407.907.909a.907.907 0 0 1-.907.908L0 1.817A.907.907 0 0 1-.907.908C-.907.407-.502 0 0 0" style="fill:#0099df;fill-opacity:1;fill-rule:nonzero;stroke:none" transform="translate(29.863 34.386)"/><path d="M0 0a.907.907 0 0 1-1.112-.01l-4.847-3.822-4.836 3.821a.911.911 0 0 1-1.128-.001l-4.82-3.82-4.823 3.819a.908.908 0 0 1-1.129-.001l-3.907-3.107.011 35.605c0 1.284.864 2.327 1.928 2.327l26.875.002c1.063 0 1.928-1.043 1.928-2.326l.006-35.642Zm5.956 32.487c0 2.284-1.68 4.143-3.744 4.143l-26.875-.003c-2.065 0-3.745-1.858-3.745-4.142l-.011-37.49a.909.909 0 0 1 1.474-.711l4.816 3.832 4.822-3.818a.905.905 0 0 1 1.128 0l4.822 3.82 4.835-3.82a.905.905 0 0 1 1.125 0L-.54-1.871l5.044-3.84a.908.908 0 0 1 1.458.723z" style="fill:#0099df;fill-opacity:1;fill-rule:nonzero;stroke:none" transform="translate(40.459 6.122)"/><path d="m0 0-2.903-2.685v33.892c0 1.211.813 2.197 1.814 2.197l25.794.003c1.001 0 1.814-.986 1.816-2.198 0-.501.406-.907.907-.907h.001c.501 0 .908.407.907.909-.001 2.212-1.629 4.012-3.631 4.012l-25.794-.002c-2.002 0-3.631-1.801-3.631-4.014v-35.97a.906.906 0 0 1 .908-.907c.225 0 .446.082.617.24l4.428 4.096A.908.908 0 1 1 0 0" style="fill:#0099df;fill-opacity:1;fill-rule:nonzero;stroke:none" transform="translate(8.3 14.567)"/><path d="M0 0c.949 0 1.609-.518 1.609-.982 0-.465-.663-.983-1.65-.984-.577-.008-1.155.244-1.512.713a.908.908 0 1 1-1.446-1.1 3.639 3.639 0 0 1 2.091-1.34v-.44A.91.91 0 0 1 0-5.042a.91.91 0 0 1 .908.909v.461c1.464.32 2.518 1.381 2.518 2.69C3.426.587 1.921 1.817 0 1.817c-.951 0-1.612.518-1.612.984 0 .465.661.983 1.649.984a1.827 1.827 0 0 0 1.511-.712.908.908 0 0 1 1.446 1.099A3.638 3.638 0 0 1 .908 5.506v.447a.909.909 0 0 1-1.816 0v-.46c-1.466-.319-2.521-1.382-2.521-2.692C-3.429 1.23-1.923 0 0 0" style="fill:#0099df;fill-opacity:1;fill-rule:nonzero;stroke:none" transform="translate(22.03 30.944)"/></g></svg>