<svg width="66.667" height="66.667" xmlns="http://www.w3.org/2000/svg"><defs><clipPath clipPathUnits="userSpaceOnUse" id="a"><path d="M0 50h50V0H0Z"/></clipPath></defs><g clip-path="url(#a)" transform="matrix(1.33333 0 0 -1.33333 0 66.667)"><path d="M0 0h10.564a.811.811 0 1 1 0 1.624H0A.813.813 0 0 1 0 0" style="fill:#0099df;fill-opacity:1;fill-rule:nonzero;stroke:none" transform="translate(32.752 24.695)"/><path d="M0 0h7.363a.811.811 0 1 1 0 1.623H0A.812.812 0 1 1 0 0" style="fill:#0099df;fill-opacity:1;fill-rule:nonzero;stroke:none" transform="translate(32.752 20.439)"/><path d="M0 0a.811.811 0 0 1-.811-.812v-11.072a1.957 1.957 0 0 0-1.956-1.954h-36.205a1.956 1.956 0 0 0-1.954 1.954v23.72h16.73a.812.812 0 0 1 0 1.623h-16.73v5.762c0 1.077.877 1.954 1.954 1.954h14.433a.812.812 0 1 1 0 1.623h-14.433a3.582 3.582 0 0 1-3.577-3.577v-31.105a3.582 3.582 0 0 1 3.577-3.577h36.205a3.583 3.583 0 0 1 3.579 3.577V-.812A.811.811 0 0 1 0 0" style="fill:#0099df;fill-opacity:1;fill-rule:nonzero;stroke:none" transform="translate(47.24 21.15)"/><path d="M0 0a.808.808 0 0 1-1.106-.303 1.848 1.848 0 0 0-1.599-.931h-35.633A1.839 1.839 0 0 0-40.175.604V31.43c0 .652.351 1.261.916 1.59a.812.812 0 1 1-.816 1.403 3.475 3.475 0 0 1-1.724-2.993V.604a3.464 3.464 0 0 1 3.461-3.46h35.633c1.241 0 2.393.669 3.008 1.75A.81.81 0 0 1 0 0" style="fill:#0099df;fill-opacity:1;fill-rule:nonzero;stroke:none" transform="translate(41.836 3.932)"/><path d="M0 0c-4.176-.117-7.64 3.19-7.749 7.354a7.501 7.501 0 0 0 2.072 5.397 7.505 7.505 0 0 0 5.485 2.354c1.942 0 3.78-.731 5.194-2.074A7.499 7.499 0 0 0 7.354 7.75C7.463 3.586 4.165.11 0 0m12.878-3.997L6.864 1.71a9.139 9.139 0 0 1 2.113 6.082 9.118 9.118 0 0 1-2.857 6.417 9.158 9.158 0 0 1-6.557 2.517 9.117 9.117 0 0 1-6.417-2.857 9.113 9.113 0 0 1-2.517-6.558C-9.24 2.334-5.149-1.625-.2-1.625A9.137 9.137 0 0 1 5.726.553l6.035-5.727a.807.807 0 0 1 1.147.03.81.81 0 0 1-.03 1.147" style="fill:#0099df;fill-opacity:1;fill-rule:nonzero;stroke:none" transform="translate(36.832 32.197)"/><path d="M0 0c-.495-.006-.933.113-1.257.344-.151.107-.404.333-.412.644-.009.311.232.549.376.663.314.248.765.397 1.272.411A1.828 1.828 0 0 0 1.53 1.38a.814.814 0 0 1 1.142-.125.814.814 0 0 1 .125 1.142 3.454 3.454 0 0 1-2.08 1.242l-.013.482a.812.812 0 0 1-.811.79l-.022-.001a.811.811 0 0 1-.79-.832l.014-.508A3.537 3.537 0 0 1-2.3 2.924c-.649-.515-1.012-1.237-.992-1.979.019-.742.418-1.444 1.094-1.924.614-.437 1.394-.675 2.241-.644.958.008 1.653-.5 1.666-.985.012-.487-.648-1.047-1.649-1.075a1.832 1.832 0 0 0-1.552.682.813.813 0 0 1-1.267-1.016A3.458 3.458 0 0 1-.674-5.243l.013-.497a.81.81 0 0 1 .811-.791h.021a.811.811 0 0 1 .79.833l-.013.51c1.397.333 2.415 1.389 2.384 2.622C3.292-1.08 1.867.042 0 0" style="fill:#0099df;fill-opacity:1;fill-rule:nonzero;stroke:none" transform="translate(36.615 40.559)"/><path d="M0 0a4.7 4.7 0 0 0 4.695-4.695A4.701 4.701 0 0 0 0-9.392a4.701 4.701 0 0 0-4.695 4.697A4.7 4.7 0 0 0 0 0m0-11.014a6.325 6.325 0 0 1 6.318 6.319A6.325 6.325 0 0 1 0 1.622a6.325 6.325 0 0 1-6.318-6.317A6.326 6.326 0 0 1 0-11.014" style="fill:#0099df;fill-opacity:1;fill-rule:nonzero;stroke:none" transform="translate(23.77 20.97)"/><path d="M0 0a.995.995 0 1 1 0 1.99A.995.995 0 0 1 0 0" style="fill:#0099df;fill-opacity:1;fill-rule:nonzero;stroke:none" transform="translate(25.605 16.752)"/><path d="M0 0a.995.995 0 1 1 0 1.99A.995.995 0 0 1 0 0" style="fill:#0099df;fill-opacity:1;fill-rule:nonzero;stroke:none" transform="translate(21.934 16.752)"/><path d="M0 0c1.351 0 2.562.752 3.16 1.961a.813.813 0 0 1-1.455.721A1.889 1.889 0 0 0 0 1.623c-.729 0-1.382.405-1.706 1.059a.812.812 0 0 1-1.454-.721A3.504 3.504 0 0 1 0 0" style="fill:#0099df;fill-opacity:1;fill-rule:nonzero;stroke:none" transform="translate(23.77 12.547)"/><path d="M0 0a.813.813 0 0 1 1.624 0 6.326 6.326 0 0 1-6.319 6.318A6.326 6.326 0 0 1-11.014 0a6.325 6.325 0 0 1 6.319-6.318.811.811 0 1 1 0 1.622A4.701 4.701 0 0 0-9.39 0a4.7 4.7 0 0 0 4.695 4.695A4.7 4.7 0 0 0 0 0" style="fill:#0099df;fill-opacity:1;fill-rule:nonzero;stroke:none" transform="translate(19.84 24.044)"/><path d="M0 0a.814.814 0 0 1 1.088-.367c.402.2.566.686.367 1.089a3.393 3.393 0 0 1-3.059 1.895A3.393 3.393 0 0 1-4.662.722a.814.814 0 0 1 .368-1.089A.816.816 0 0 1-3.207 0a1.78 1.78 0 0 0 1.603.994C-.918.994-.304.613 0 0" style="fill:#0099df;fill-opacity:1;fill-rule:nonzero;stroke:none" transform="translate(16.749 21.217)"/><path d="M0 0a.997.997 0 0 1 1.991 0 .997.997 0 0 1-.995.996A.997.997 0 0 1 0 0" style="fill:#0099df;fill-opacity:1;fill-rule:nonzero;stroke:none" transform="translate(15.985 25.514)"/><path d="M0 0a.997.997 0 0 1 1.991 0 .997.997 0 0 1-.995.996A.997.997 0 0 1 0 0" style="fill:#0099df;fill-opacity:1;fill-rule:nonzero;stroke:none" transform="translate(12.313 25.514)"/></g></svg>