<svg xmlns="http://www.w3.org/2000/svg" width="66.667" height="66.667"><defs><clipPath id="a" clipPathUnits="userSpaceOnUse"><path d="M0 50h50V0H0Z"/></clipPath></defs><g clip-path="url(#a)" transform="matrix(1.33333 0 0 -1.33333 0 66.667)"><path d="M0 0v.386c1.285.289 2.209 1.225 2.209 2.38 0 1.39-1.331 2.479-3.03 2.479-.796 0-1.391.443-1.391.84 0 .395.595.838 1.424.839.509.017.998-.209 1.307-.615a.82.82 0 1 1 1.307.994A3.202 3.202 0 0 1 0 8.477v.373a.82.82 0 1 1-1.642 0v-.384c-1.287-.288-2.212-1.226-2.212-2.381 0-1.392 1.332-2.482 3.033-2.482.818 0 1.388-.441 1.388-.837 0-.396-.596-.839-1.425-.839a1.587 1.587 0 0 0-1.307.615.82.82 0 1 1-1.307-.995A3.222 3.222 0 0 1-1.642.365V0A.822.822 0 0 1 0 0" style="fill:#0098da;fill-opacity:1;fill-rule:nonzero;stroke:none" transform="translate(9.264 36.807)"/><path d="M0 0h21.773a2.659 2.659 0 0 0 2.656-2.654v-10.181a2.659 2.659 0 0 0-2.656-2.655l-20.307.007a.82.82 0 0 1-.656-.327l-2.214-2.942-1.365 2.8a.818.818 0 0 1-.737.462h-6.222a2.642 2.642 0 0 0-2.539 1.875.82.82 0 1 1-1.569-.481 4.273 4.273 0 0 1 4.108-3.036h5.708l1.727-3.546a.821.821 0 0 1 1.395-.134l2.773 3.687 19.898-.007a4.3 4.3 0 0 1 4.297 4.297v10.181a4.301 4.301 0 0 1-4.297 4.297H0A.821.821 0 0 1 0 0" style="fill:#0098da;fill-opacity:1;fill-rule:nonzero;stroke:none" transform="translate(19.007 44.71)"/><path d="M0 0a.822.822 0 0 1 0-1.642h9.104a.82.82 0 1 1 0 1.642Z" style="fill:#0098da;fill-opacity:1;fill-rule:nonzero;stroke:none" transform="translate(21.694 39.914)"/><path d="M0 0h13.226a.82.82 0 1 1 0 1.642H0A.822.822 0 0 1 0 0" style="fill:#0098da;fill-opacity:1;fill-rule:nonzero;stroke:none" transform="translate(17.572 33.932)"/><path d="M0 0a.82.82 0 1 1 0-1.642h9.104a.82.82 0 0 1 0 1.642z" style="fill:#0098da;fill-opacity:1;fill-rule:nonzero;stroke:none" transform="translate(17.572 11.344)"/><path d="M0 0a.82.82 0 0 1-.821.82h-13.226a.82.82 0 1 1 0-1.64H-.821A.82.82 0 0 1 0 0" style="fill:#0098da;fill-opacity:1;fill-rule:nonzero;stroke:none" transform="translate(31.62 14.863)"/><path d="M0 0c-.577 0-1.042-.431-1.042-.95 0-.518.465-.963 1.042-.963.579 0 1.055.445 1.055.963C1.055-.431.579 0 0 0" style="fill:#0098da;fill-opacity:1;fill-rule:nonzero;stroke:none" transform="translate(37.194 34.657)"/><path d="M0 0c.54.581.992 1.259.992 2.233 0 1.555-1.13 2.591-2.85 2.591-1.042 0-2.738-.383-2.738-1.282 0-.457.44-.753.841-.753.339 0 .515.209.778.333.315.148.716.197.993.197.854 0 1.244-.493 1.244-1.074 0-.739-.629-1.331-.993-1.702-.452-.456-.979-1.085-.979-1.714 0-.618.489-.865.878-.865.439 0 .855.309.879.79 0 .111.025.309.101.383.226.234.44.419.854.863" style="fill:#0098da;fill-opacity:1;fill-rule:nonzero;stroke:none" transform="translate(39.041 36.988)"/><path d="M0 0c.59 0 1.055.444 1.055.963 0 .518-.465.949-1.055.949-.565 0-1.042-.431-1.042-.949C-1.042.444-.565 0 0 0" style="fill:#0098da;fill-opacity:1;fill-rule:nonzero;stroke:none" transform="translate(11.365 8.418)"/><path d="M0 0c.427 0 .753.309.753.691l.126 5.195c0 .419-.389.801-.879.801-.477 0-.879-.382-.879-.801L-.754.691C-.741.32-.39 0 0 0" style="fill:#0098da;fill-opacity:1;fill-rule:nonzero;stroke:none" transform="translate(11.39 10.651)"/><path d="M0 0a6.501 6.501 0 0 0 6.494 6.494A6.5 6.5 0 0 0 12.986 0a6.5 6.5 0 0 0-6.492-6.493A6.5 6.5 0 0 0 0 0m14.629 0c0 4.486-3.65 8.136-8.135 8.136-4.487 0-8.137-3.65-8.137-8.136 0-4.486 3.65-8.136 8.137-8.136 4.485 0 8.135 3.65 8.135 8.136" style="fill:#0098da;fill-opacity:1;fill-rule:nonzero;stroke:none" transform="translate(1.948 41.232)"/><path d="M0 0a.825.825 0 0 1 .739-.461H6.96a2.65 2.65 0 0 0 2.446-1.621.827.827 0 0 1 1.076-.438c.418.178.614.66.438 1.078a4.293 4.293 0 0 1-3.96 2.623H1.252L-.474 4.726a.82.82 0 0 1-.66.458.841.841 0 0 1-.733-.324l-2.775-3.685-19.899.006a4.302 4.302 0 0 1-4.297-4.297v-10.181a4.302 4.302 0 0 1 4.297-4.297h21.909a.82.82 0 1 1 0 1.642h-21.909a2.658 2.658 0 0 0-2.654 2.655v10.181a2.658 2.658 0 0 0 2.654 2.655l20.309-.007c.257 0 .501.121.655.328l2.214 2.941z" style="fill:#0098da;fill-opacity:1;fill-rule:nonzero;stroke:none" transform="translate(33.76 20.785)"/><path d="M0 0a6.501 6.501 0 0 0-6.494 6.494A6.5 6.5 0 0 0 0 12.987a6.5 6.5 0 0 0 6.494-6.493A6.501 6.501 0 0 0 0 0m0 14.629c-4.486 0-8.135-3.65-8.135-8.135 0-4.486 3.649-8.136 8.135-8.136s8.136 3.65 8.136 8.136c0 4.485-3.65 8.135-8.136 8.135" style="fill:#0098da;fill-opacity:1;fill-rule:nonzero;stroke:none" transform="translate(41.559 2.273)"/><path d="M0 0c.105.32.177.657.177 1.013 0 .566-.157 1.091-.411 1.556A5.19 5.19 0 0 0 .885 1.161S.563.614 0 0m-7.087 1.093s.348.831 1.161 1.555a3.239 3.239 0 0 1-.454-1.635c0-.41.085-.801.224-1.163-.595.641-.931 1.243-.931 1.243m3.985 1.846a1.926 1.926 0 1 0 0-3.851 1.926 1.926 0 0 0 0 3.851m5.203-1.187c-.066.135-1.647 3.306-5.249 3.306h-.046c-3.676-.029-5.083-3.306-5.141-3.445l-.252-.603.317-.573c.079-.141 1.958-3.468 5.086-3.468h.05C-.069-2.996 1.844.123 2.052.479l.365.624z" style="fill:#0098da;fill-opacity:1;fill-rule:nonzero;stroke:none" transform="translate(44.66 7.754)"/><path d="M0 0a.951.951 0 1 1 0 1.902A.951.951 0 0 1 0 0" style="fill:#0098da;fill-opacity:1;fill-rule:nonzero;stroke:none" transform="translate(41.559 7.816)"/></g></svg>