<svg xmlns="http://www.w3.org/2000/svg" width="66.667" height="66.667"><defs><clipPath id="a" clipPathUnits="userSpaceOnUse"><path d="M0 50h50V0H0Z"/></clipPath></defs><g clip-path="url(#a)" transform="matrix(1.33333 0 0 -1.33333 0 66.667)"><path d="M0 0c.396.605.632 1.327.632 2.104 0 1.12-.486 2.12-1.25 2.826 1.77-.97 2.584-2.632 2.584-2.632S1.23 1.047 0 0m-8.423 2.208s.799 1.915 2.767 2.872a3.834 3.834 0 0 1-1.432-2.976c0-.934.347-1.781.901-2.45C-7.595.721-8.423 2.208-8.423 2.208m5.195-2.614a2.51 2.51 0 1 0 0 5.02 2.51 2.51 0 0 0 0-5.02m6.36 2.021.364.623-.315.649C3.1 3.054 1.15 6.963-3.29 6.963H-3.347c-4.52-.035-6.251-4.065-6.322-4.235l-.251-.603.316-.571c.097-.176 2.43-4.308 6.268-4.308h.061c3.831.044 6.303 4.192 6.407 4.369" style="fill:#0099df;fill-opacity:1;fill-rule:nonzero;stroke:none" transform="translate(15.174 39.65)"/><path d="M0 0a1.239 1.239 0 1 1 0-2.477A1.239 1.239 0 0 1 0 0" style="fill:#0099df;fill-opacity:1;fill-rule:nonzero;stroke:none" transform="translate(11.946 42.993)"/><path d="M0 0a.819.819 0 1 1 0-1.639h5.342a.82.82 0 0 1 0 1.639Z" style="fill:#0099df;fill-opacity:1;fill-rule:nonzero;stroke:none" transform="translate(11.946 26.69)"/><path d="M0 0a.82.82 0 1 1 0-1.639h11.271a.82.82 0 1 1 0 1.639z" style="fill:#0099df;fill-opacity:1;fill-rule:nonzero;stroke:none" transform="translate(19.859 26.69)"/><path d="M0 0h-11.304a.82.82 0 1 1 0-1.639H0A.82.82 0 0 1 0 0" style="fill:#0099df;fill-opacity:1;fill-rule:nonzero;stroke:none" transform="translate(23.25 20.784)"/><path d="M0 0h-11.304a.82.82 0 1 1 0-1.639H0A.82.82 0 1 1 0 0" style="fill:#0099df;fill-opacity:1;fill-rule:nonzero;stroke:none" transform="translate(23.25 8.86)"/><path d="M0 0h3.126a.819.819 0 1 1 0 1.639H0A.82.82 0 1 1 0 0" style="fill:#0099df;fill-opacity:1;fill-rule:nonzero;stroke:none" transform="translate(11.946 13.183)"/><path d="M0 0a.819.819 0 1 1 0 1.639h-5.441a.82.82 0 1 1 0-1.639Z" style="fill:#0099df;fill-opacity:1;fill-rule:nonzero;stroke:none" transform="translate(22.962 13.183)"/><path d="M0 0h-13.017c-1.13 0-2.049.921-2.049 2.051v26.238a.82.82 0 0 1-1.64 0V2.051a3.694 3.694 0 0 1 3.689-3.69H0A.82.82 0 0 1 0 0" style="fill:#0099df;fill-opacity:1;fill-rule:nonzero;stroke:none" transform="translate(22.427 2.118)"/><path d="M0 0c.326-.326.576-.706.763-1.112h-5.766A3.81 3.81 0 0 0-8.81 2.693v5.768A3.808 3.808 0 0 0-7.698 7.7Zm-15.083 8.814h4.633V2.693a5.452 5.452 0 0 1 5.447-5.444h6.119v-5.688a.819.819 0 1 1 1.639 0v5.746c0 .246-.039.484-.07.723 0 .014.006.025.006.038 0 .038-.016.071-.021.107a5.393 5.393 0 0 1-1.51 2.983l-7.699 7.701a5.395 5.395 0 0 1-2.984 1.509c-.037.005-.069.022-.107.022-.013 0-.024-.007-.037-.008-.239.032-.478.071-.723.071h-4.693a.82.82 0 0 1 0-1.639" style="fill:#0099df;fill-opacity:1;fill-rule:nonzero;stroke:none" transform="translate(40.266 34.644)"/><path d="M0 0v8.525c0 1.048.852 1.901 1.899 1.901h12.753a1.902 1.902 0 0 0 1.899-1.901v-13.7L11.976-2.44a3.816 3.816 0 0 1-1.958.541H1.899A1.901 1.901 0 0 0 0 0m11.134-3.847 4.865-2.903a1.378 1.378 0 0 1 1.43-.128c.47.234.762.705.762 1.23V8.525a3.543 3.543 0 0 1-3.539 3.539H1.899A3.543 3.543 0 0 1-1.64 8.525V0a3.543 3.543 0 0 1 3.539-3.538h8.119c.393 0 .778-.108 1.116-.309" style="fill:#0099df;fill-opacity:1;fill-rule:nonzero;stroke:none" transform="translate(3.67 37.456)"/><path d="M0 0c0-.486-.271-.852-.515-.852h-15.918c-.242 0-.513.366-.513.852v16.614c0 .487.271.852.513.852H-.515c.244 0 .515-.365.515-.852Zm-.515 19.104h-15.918c-1.187 0-2.153-1.117-2.153-2.49V0c0-1.373.966-2.49 2.153-2.49H-.515C.673-2.49 1.638-1.373 1.638 0v16.614c0 1.373-.965 2.49-2.153 2.49" style="fill:#0099df;fill-opacity:1;fill-rule:nonzero;stroke:none" transform="translate(46.331 2.971)"/><path d="M0 0a1.647 1.647 0 0 0-1.036.306v9.155c.314.214.669.323 1.034.303a.827.827 0 0 1 .864.771.82.82 0 0 1-.773.865 3.22 3.22 0 0 1-1.945-.511 3.23 3.23 0 0 1-1.949.511.82.82 0 0 1 .094-1.636c.358.021.718-.088 1.035-.305V.307A1.648 1.648 0 0 0-3.713 0a.81.81 0 0 1-.863-.773.82.82 0 0 1 .774-.864 3.288 3.288 0 0 1 1.946.521 3.288 3.288 0 0 1 1.945-.521A.82.82 0 0 1 0 0" style="fill:#0099df;fill-opacity:1;fill-rule:nonzero;stroke:none" transform="translate(35.782 6.79)"/><path d="M0 0a.833.833 0 1 1 0-1.666A.833.833 0 0 1 0 0" style="fill:#0099df;fill-opacity:1;fill-rule:nonzero;stroke:none" transform="translate(38.588 6.846)"/><path d="M0 0a.832.832 0 1 1-.002-1.664A.832.832 0 0 1 0 0" style="fill:#0099df;fill-opacity:1;fill-rule:nonzero;stroke:none" transform="translate(40.833 6.846)"/><path d="M0 0a.831.831 0 1 1 0-1.665A.833.833 0 0 1 0 0" style="fill:#0099df;fill-opacity:1;fill-rule:nonzero;stroke:none" transform="translate(42.962 6.846)"/></g></svg>