<svg xmlns="http://www.w3.org/2000/svg" width="66.667" height="66.667"><defs><clipPath id="a" clipPathUnits="userSpaceOnUse"><path d="M0 50h50V0H0Z"/></clipPath></defs><g clip-path="url(#a)" transform="matrix(1.33333 0 0 -1.33333 0 66.667)"><path d="M0 0a.849.849 0 0 0-.51 1.529l4.422 3.317-4.423 3.317A.851.851 0 0 0 .51 9.523l5.329-3.997a.852.852 0 0 0-.001-1.36L.509.17A.842.842 0 0 0 0 0" style="fill:#0099df;fill-opacity:1;fill-rule:nonzero;stroke:none" transform="translate(8.861 20.605)"/><path d="M0 0h-6.661a.85.85 0 0 0 0 1.7H0A.85.85 0 1 0 0 0" style="fill:#0099df;fill-opacity:1;fill-rule:nonzero;stroke:none" transform="translate(26.18 24.601)"/><path d="M0 0a3.654 3.654 0 0 0-3.65 3.65v29.822A3.654 3.654 0 0 0 0 37.122h37.513a3.654 3.654 0 0 0 3.649-3.65V14.538a.85.85 0 1 0-1.699 0v18.934c0 1.075-.875 1.95-1.95 1.95H0a1.953 1.953 0 0 1-1.95-1.95V3.65c0-1.075.875-1.951 1.95-1.951A.85.85 0 1 0 0 0" style="fill:#0099df;fill-opacity:1;fill-rule:nonzero;stroke:none" transform="translate(4.272 7.18)"/><path d="M0 0a.85.85 0 0 0-.85.85v22.701c0 1.186-.964 2.15-2.15 2.15h-38.282a.982.982 0 0 1-.981-.981.85.85 0 1 0-1.7 0 2.684 2.684 0 0 0 2.681 2.681H-3a3.854 3.854 0 0 0 3.85-3.85V.85A.85.85 0 0 0 0 0" style="fill:#0099df;fill-opacity:1;fill-rule:nonzero;stroke:none" transform="translate(49.032 21.348)"/><path d="M0 0a.508.508 0 1 1 .001-1.013A.508.508 0 0 1 0 0m0-2.714A2.21 2.21 0 0 0-2.207-.507 2.21 2.21 0 0 0 0 1.7 2.21 2.21 0 0 0 2.208-.507 2.21 2.21 0 0 0 0-2.714" style="fill:#0099df;fill-opacity:1;fill-rule:nonzero;stroke:none" transform="translate(19.184 39.55)"/><path d="M0 0a.508.508 0 1 1 .001-1.015A.508.508 0 0 1 0 0m0-2.714A2.21 2.21 0 0 0-2.208-.507 2.21 2.21 0 0 0 0 1.7 2.21 2.21 0 0 0 2.208-.507 2.21 2.21 0 0 0 0-2.714" style="fill:#0099df;fill-opacity:1;fill-rule:nonzero;stroke:none" transform="translate(13.867 39.55)"/><path d="M0 0a.508.508 0 1 1 .001-1.015A.508.508 0 0 1 0 0m0-2.714A2.21 2.21 0 0 0-2.208-.507 2.21 2.21 0 0 0 0 1.7 2.21 2.21 0 0 0 2.207-.507 2.21 2.21 0 0 0 0-2.714" style="fill:#0099df;fill-opacity:1;fill-rule:nonzero;stroke:none" transform="translate(8.609 39.55)"/><path d="M0 0h-42.304a.85.85 0 0 0 0 1.7H0A.85.85 0 1 0 0 0" style="fill:#0099df;fill-opacity:1;fill-rule:nonzero;stroke:none" transform="translate(44.253 34.225)"/><path d="M0 0a.515.515 0 0 0-.188-.4.642.642 0 0 0-.444-.167.675.675 0 0 0-.459.167.51.51 0 0 0-.192.4v3.096L-2.328 1.08A.577.577 0 0 0-2.58.818a.783.783 0 0 0-.696 0 .577.577 0 0 0-.252.262l-1.045 2.016V0a.506.506 0 0 0-.197-.4.69.69 0 0 0-.463-.167.622.622 0 0 0-.444.167.526.526 0 0 0-.179.4v5.346c0 .174.063.316.188.427a.685.685 0 0 0 .472.166c.312 0 .525-.117.641-.35l1.632-3.177 1.631 3.186a.546.546 0 0 0 .27.269.9.9 0 0 0 .362.072.668.668 0 0 0 .472-.174A.557.557 0 0 0 0 5.346Z" style="fill:#0099df;fill-opacity:1;fill-rule:nonzero;stroke:none" transform="translate(19.65 6.866)"/><path d="M0 0a.515.515 0 0 0-.188-.4.642.642 0 0 0-.444-.167.675.675 0 0 0-.459.167.51.51 0 0 0-.192.4v3.096L-2.328 1.08A.577.577 0 0 0-2.58.818a.783.783 0 0 0-.696 0 .577.577 0 0 0-.252.262l-1.045 2.016V0a.506.506 0 0 0-.197-.4.69.69 0 0 0-.463-.167.622.622 0 0 0-.444.167.526.526 0 0 0-.179.4v5.346c0 .174.063.316.188.427a.685.685 0 0 0 .472.166c.312 0 .525-.117.641-.35l1.632-3.177 1.631 3.186a.546.546 0 0 0 .27.269.9.9 0 0 0 .362.072.668.668 0 0 0 .472-.174A.557.557 0 0 0 0 5.346Z" style="fill:none;stroke:#0099df;stroke-width:.25;stroke-linecap:butt;stroke-linejoin:miter;stroke-miterlimit:10;stroke-dasharray:none;stroke-opacity:1" transform="translate(19.65 6.866)"/><path d="M0 0c0 .204-.042.348-.124.432a.8.8 0 0 1-.252.18 4.672 4.672 0 0 1-.316.121l-.353.122c-.226.066-.451.139-.673.22-.223.081-.424.19-.601.324-.177.135-.32.31-.431.523-.109.213-.164.481-.164.806 0 .581.19 1.037.573 1.367.381.33.899.495 1.553.495.134 0 .305-.011.513-.031.208-.022.411-.062.609-.122a1.61 1.61 0 0 0 .509-.248.488.488 0 0 0 .211-.409.546.546 0 0 0-.17-.396c-.113-.114-.27-.171-.472-.171a.803.803 0 0 0-.229.031l-.22.069a5.178 5.178 0 0 1-.293.089c-.11.03-.245.045-.403.045-.11 0-.219-.01-.326-.031a.742.742 0 0 1-.279-.113.622.622 0 0 1-.193-.211.665.665 0 0 1-.073-.329c0-.198.044-.339.133-.423a.96.96 0 0 1 .252-.18c.122-.06.237-.108.344-.144a16.163 16.163 0 0 0 .989-.329c.223-.081.425-.188.605-.324.18-.134.325-.307.435-.517.111-.21.165-.474.165-.792 0-.312-.058-.591-.173-.837a1.8 1.8 0 0 0-.477-.621 2.076 2.076 0 0 0-.72-.382 3.034 3.034 0 0 0-.911-.131c-.171 0-.37.015-.596.045-.226.03-.44.079-.642.148-.201.07-.372.16-.513.271a.492.492 0 0 0-.21.4c0 .144.058.275.173.392.117.116.26.175.431.175a.78.78 0 0 0 .216-.032c.076-.02.157-.046.243-.076.11-.036.239-.075.389-.117.15-.042.322-.063.518-.063.317 0 .556.066.715.198C-.08-.444 0-.252 0 0" style="fill:#0099df;fill-opacity:1;fill-rule:nonzero;stroke:none" transform="translate(23.187 8.216)"/><path d="M0 0c0 .204-.042.348-.124.432a.8.8 0 0 1-.252.18 4.672 4.672 0 0 1-.316.121l-.353.122c-.226.066-.451.139-.673.22-.223.081-.424.19-.601.324-.177.135-.32.31-.431.523-.109.213-.164.481-.164.806 0 .581.19 1.037.573 1.367.381.33.899.495 1.553.495.134 0 .305-.011.513-.031.208-.022.411-.062.609-.122a1.61 1.61 0 0 0 .509-.248.488.488 0 0 0 .211-.409.546.546 0 0 0-.17-.396c-.113-.114-.27-.171-.472-.171a.803.803 0 0 0-.229.031l-.22.069a5.178 5.178 0 0 1-.293.089c-.11.03-.245.045-.403.045-.11 0-.219-.01-.326-.031a.742.742 0 0 1-.279-.113.622.622 0 0 1-.193-.211.665.665 0 0 1-.073-.329c0-.198.044-.339.133-.423a.96.96 0 0 1 .252-.18c.122-.06.237-.108.344-.144a16.163 16.163 0 0 0 .989-.329c.223-.081.425-.188.605-.324.18-.134.325-.307.435-.517.111-.21.165-.474.165-.792 0-.312-.058-.591-.173-.837a1.8 1.8 0 0 0-.477-.621 2.076 2.076 0 0 0-.72-.382 3.034 3.034 0 0 0-.911-.131c-.171 0-.37.015-.596.045-.226.03-.44.079-.642.148-.201.07-.372.16-.513.271a.492.492 0 0 0-.21.4c0 .144.058.275.173.392.117.116.26.175.431.175a.78.78 0 0 0 .216-.032c.076-.02.157-.046.243-.076.11-.036.239-.075.389-.117.15-.042.322-.063.518-.063.317 0 .556.066.715.198C-.08-.444 0-.252 0 0Z" style="fill:none;stroke:#0099df;stroke-width:.25;stroke-linecap:butt;stroke-linejoin:miter;stroke-miterlimit:10;stroke-dasharray:none;stroke-opacity:1" transform="translate(23.187 8.216)"/><path d="M0 0a.508.508 0 0 0-.174-.392.618.618 0 0 0-.43-.157h-2.282a.631.631 0 0 0-.44.157A.508.508 0 0 0-3.5 0c0 .149.058.278.174.387a.621.621 0 0 0 .44.162h2.282c.17 0 .314-.054.43-.162A.514.514 0 0 0 0 0" style="fill:#0099df;fill-opacity:1;fill-rule:nonzero;stroke:none" transform="translate(28.538 9.08)"/><path d="M0 0a.508.508 0 0 0-.174-.392.618.618 0 0 0-.43-.157h-2.282a.631.631 0 0 0-.44.157A.508.508 0 0 0-3.5 0c0 .149.058.278.174.387a.621.621 0 0 0 .44.162h2.282c.17 0 .314-.054.43-.162A.514.514 0 0 0 0 0Z" style="fill:none;stroke:#0099df;stroke-width:.25;stroke-linecap:butt;stroke-linejoin:miter;stroke-miterlimit:10;stroke-dasharray:none;stroke-opacity:1" transform="translate(28.538 9.08)"/><path d="M0 0c0 .174-.024.334-.073.481a1.039 1.039 0 0 1-.229.387 1.054 1.054 0 0 1-.413.261 1.84 1.84 0 0 1-.632.095h-.623v-4.069h.623c.25 0 .463.035.637.104.174.069.313.162.417.279.104.117.179.254.225.409.046.157.068.324.068.505Zm1.283-1.548c0-.318-.048-.625-.142-.918a1.958 1.958 0 0 0-.472-.779 2.37 2.37 0 0 0-.861-.54c-.355-.135-.791-.202-1.311-.202h-1.035a.72.72 0 0 0-.504.193.597.597 0 0 0-.211.455v5.058c0 .174.07.325.211.454a.72.72 0 0 0 .504.193h1.035c.52 0 .956-.064 1.311-.193a2.33 2.33 0 0 0 .861-.522c.22-.219.377-.471.472-.755.094-.286.142-.584.142-.896Z" style="fill:#0099df;fill-opacity:1;fill-rule:nonzero;stroke:none" transform="translate(32.405 10.367)"/><path d="M0 0c0 .174-.024.334-.073.481a1.039 1.039 0 0 1-.229.387 1.054 1.054 0 0 1-.413.261 1.84 1.84 0 0 1-.632.095h-.623v-4.069h.623c.25 0 .463.035.637.104.174.069.313.162.417.279.104.117.179.254.225.409.046.157.068.324.068.505Zm1.283-1.548c0-.318-.048-.625-.142-.918a1.958 1.958 0 0 0-.472-.779 2.37 2.37 0 0 0-.861-.54c-.355-.135-.791-.202-1.311-.202h-1.035a.72.72 0 0 0-.504.193.597.597 0 0 0-.211.455v5.058c0 .174.07.325.211.454a.72.72 0 0 0 .504.193h1.035c.52 0 .956-.064 1.311-.193a2.33 2.33 0 0 0 .861-.522c.22-.219.377-.471.472-.755.094-.286.142-.584.142-.896Z" style="fill:none;stroke:#0099df;stroke-width:.25;stroke-linecap:butt;stroke-linejoin:miter;stroke-miterlimit:10;stroke-dasharray:none;stroke-opacity:1" transform="translate(32.405 10.367)"/><path d="M0 0a.961.961 0 0 1-.041.279.552.552 0 0 1-.155.243.845.845 0 0 1-.317.176 1.638 1.638 0 0 1-.513.068h-.971V-.729h1.026c.318 0 .559.064.724.19C-.082-.413 0-.233 0 0m1.283 0c0-.449-.113-.818-.339-1.106-.226-.289-.538-.496-.934-.622l1.255-1.853a.54.54 0 0 0-.014-.635.762.762 0 0 0-.242-.212.634.634 0 0 0-.303-.081.605.605 0 0 0-.541.28l-1.539 2.367h-.623v-2.062a.556.556 0 0 0-.192-.414.656.656 0 0 0-.459-.18.63.63 0 0 0-.445.176.552.552 0 0 0-.187.418v5.185c0 .174.068.325.206.454a.69.69 0 0 0 .49.193h1.595c.433 0 .796-.055 1.086-.166.29-.111.522-.257.696-.436a1.62 1.62 0 0 0 .376-.613c.076-.227.114-.459.114-.693" style="fill:#0099df;fill-opacity:1;fill-rule:nonzero;stroke:none" transform="translate(37.647 10.816)"/><path d="M0 0a.961.961 0 0 1-.041.279.552.552 0 0 1-.155.243.845.845 0 0 1-.317.176 1.638 1.638 0 0 1-.513.068h-.971V-.729h1.026c.318 0 .559.064.724.19C-.082-.413 0-.233 0 0Zm1.283 0c0-.449-.113-.818-.339-1.106-.226-.289-.538-.496-.934-.622l1.255-1.853a.54.54 0 0 0-.014-.635.762.762 0 0 0-.242-.212.634.634 0 0 0-.303-.081.605.605 0 0 0-.541.28l-1.539 2.367h-.623v-2.062a.556.556 0 0 0-.192-.414.656.656 0 0 0-.459-.18.63.63 0 0 0-.445.176.552.552 0 0 0-.187.418v5.185c0 .174.068.325.206.454a.69.69 0 0 0 .49.193h1.595c.433 0 .796-.055 1.086-.166.29-.111.522-.257.696-.436a1.62 1.62 0 0 0 .376-.613c.076-.227.114-.459.114-.693Z" style="fill:none;stroke:#0099df;stroke-width:.25;stroke-linecap:butt;stroke-linejoin:miter;stroke-miterlimit:10;stroke-dasharray:none;stroke-opacity:1" transform="translate(37.647 10.816)"/><path d="M0 0c0-.384.081-.69.243-.918.162-.228.447-.342.857-.342.159 0 .299.018.421.054.123.036.236.081.339.135V.333h-.476A.572.572 0 0 0 .98.499a.538.538 0 0 0-.173.4c0 .157.058.29.173.402.117.11.251.166.404.166h.999a.896.896 0 0 0 .536-.154c.144-.101.216-.26.216-.476v-1.989a.82.82 0 0 0-.193-.544 1.481 1.481 0 0 0-.495-.378 2.537 2.537 0 0 0-.669-.217 3.979 3.979 0 0 0-.723-.067c-.404 0-.752.055-1.045.167-.293.11-.536.269-.729.476a1.944 1.944 0 0 0-.427.747c-.09.291-.136.614-.136.968v1.782c0 .354.046.676.136.967.092.291.235.54.427.747.193.207.436.366.729.478.293.11.641.166 1.045.166.244 0 .479-.026.705-.077.225-.05.428-.12.604-.207.178-.086.32-.189.427-.305a.552.552 0 0 0 .16-.374.504.504 0 0 0-.17-.378.597.597 0 0 0-.434-.162.481.481 0 0 0-.23.041c-.049.026-.103.058-.165.093l-.092.055a1.874 1.874 0 0 1-.357.157 1.316 1.316 0 0 1-.403.059c-.41 0-.695-.112-.857-.338C.081 2.479 0 2.172 0 1.782Z" style="fill:#0099df;fill-opacity:1;fill-rule:nonzero;stroke:none" transform="translate(40.799 8.666)"/><path d="M0 0c0-.384.081-.69.243-.918.162-.228.447-.342.857-.342.159 0 .299.018.421.054.123.036.236.081.339.135V.333h-.476A.572.572 0 0 0 .98.499a.538.538 0 0 0-.173.4c0 .157.058.29.173.402.117.11.251.166.404.166h.999a.896.896 0 0 0 .536-.154c.144-.101.216-.26.216-.476v-1.989a.82.82 0 0 0-.193-.544 1.481 1.481 0 0 0-.495-.378 2.537 2.537 0 0 0-.669-.217 3.979 3.979 0 0 0-.723-.067c-.404 0-.752.055-1.045.167-.293.11-.536.269-.729.476a1.944 1.944 0 0 0-.427.747c-.09.291-.136.614-.136.968v1.782c0 .354.046.676.136.967.092.291.235.54.427.747.193.207.436.366.729.478.293.11.641.166 1.045.166.244 0 .479-.026.705-.077.225-.05.428-.12.604-.207.178-.086.32-.189.427-.305a.552.552 0 0 0 .16-.374.504.504 0 0 0-.17-.378.597.597 0 0 0-.434-.162.481.481 0 0 0-.23.041c-.049.026-.103.058-.165.093l-.092.055a1.874 1.874 0 0 1-.357.157 1.316 1.316 0 0 1-.403.059c-.41 0-.695-.112-.857-.338C.081 2.479 0 2.172 0 1.782Z" style="fill:none;stroke:#0099df;stroke-width:.25;stroke-linecap:butt;stroke-linejoin:miter;stroke-miterlimit:10;stroke-dasharray:none;stroke-opacity:1" transform="translate(40.799 8.666)"/><path d="M0 0c-.761 0-1.38-.619-1.38-1.38v-9.952c0-.761.619-1.38 1.38-1.38h36.46c.761 0 1.381.619 1.381 1.38v9.952c0 .761-.62 1.38-1.381 1.38Zm36.46-14.411H0a3.083 3.083 0 0 0-3.08 3.079v9.952A3.083 3.083 0 0 0 0 1.699h36.46a3.083 3.083 0 0 0 3.08-3.079v-9.952a3.083 3.083 0 0 0-3.08-3.079" style="fill:#0099df;fill-opacity:1;fill-rule:nonzero;stroke:none" transform="translate(10.437 16.148)"/></g></svg>