<svg xmlns="http://www.w3.org/2000/svg" width="66.667" height="66.667"><defs><clipPath id="a" clipPathUnits="userSpaceOnUse"><path d="M0 50h50V0H0Z"/></clipPath></defs><g clip-path="url(#a)" transform="matrix(1.33333 0 0 -1.33333 0 66.667)"><path d="M0 0c-3.851 0-6.984 3.134-6.984 6.984A6.992 6.992 0 0 0 0 13.968c3.85 0 6.982-3.133 6.982-6.984C6.982 3.134 3.85 0 0 0m0 15.759c-4.84 0-8.776-3.936-8.776-8.775 0-4.838 3.936-8.776 8.776-8.776 4.839 0 8.774 3.938 8.774 8.776 0 4.839-3.935 8.775-8.774 8.775" style="fill:#0099df;fill-opacity:1;fill-rule:nonzero;stroke:none" transform="translate(39.044 1.9)"/><path d="M0 0c.101.326.17.666.17 1.025a3.48 3.48 0 0 1-.399 1.597C.533 1.917.894 1.184.894 1.184S.569.632 0 0m-7.619 1.11s.351.836 1.167 1.593a3.473 3.473 0 0 1-.444-1.678c0-.42.086-.816.22-1.189-.603.665-.943 1.274-.943 1.274m4.256 1.972a2.057 2.057 0 1 0-.002-4.114 2.057 2.057 0 0 0 .002 4.114m5.585-1.254c-.071.145-1.768 3.548-5.635 3.548H-3.463c-3.945-.03-5.457-3.549-5.519-3.698l-.275-.659.346-.624c.085-.153 2.099-3.721 5.46-3.721h.054C-.107-3.288 1.944.057 2.168.437l.398.681z" style="fill:#0099df;fill-opacity:1;fill-rule:nonzero;stroke:none" transform="translate(42.406 7.86)"/><path d="M0 0a1.016 1.016 0 1 1 .001 2.031A1.016 1.016 0 0 1 0 0" style="fill:#0099df;fill-opacity:1;fill-rule:nonzero;stroke:none" transform="translate(39.043 7.87)"/><path d="m0 0 1.24 2.539L2.48 0Zm2.53-2.084c-.332-.318-.796-.48-1.269-.484a1.825 1.825 0 0 0-1.311.484 1.628 1.628 0 0 0-.241.291H2.77a1.622 1.622 0 0 0-.24-.291m11.463 4.401a1.774 1.774 0 0 0-1.226-.485l-.064.001h-.021a1.796 1.796 0 0 0-1.268.484 1.535 1.535 0 0 0-.24.291h3.06a1.62 1.62 0 0 0-.241-.291m-1.29 4.66 1.247-2.576h-2.493ZM6.972-7.002 6.984-7h3.426a.897.897 0 1 1 0 1.793H7.868V6.221l3.057 1.197-1.703-3.52-.004-.017c-.024-.051-.029-.11-.043-.165-.014-.06-.037-.117-.039-.177-.001-.003-.003-.007-.003-.011a3.362 3.362 0 0 1 1.039-2.505A3.584 3.584 0 0 1 12.64.04h.063c.935-.003 1.863.341 2.532.983a3.358 3.358 0 0 1 1.039 2.506c0 .004-.003.007-.003.011-.001.056-.024.11-.037.166-.014.06-.02.122-.046.176-.001.005-.001.011-.003.016l-2.278 4.705c.408.206.61.683.439 1.117a.895.895 0 0 1-1.161.508L7.868 8.146v.126a.897.897 0 0 1-1.793 0v-.828L-.657 4.808a.898.898 0 0 1-.508-1.162.888.888 0 0 1 .684-.547L-2.24-.502c-.003-.006-.002-.011-.005-.017-.026-.056-.033-.12-.047-.181-.012-.054-.034-.107-.036-.161-.001-.005-.003-.008-.003-.013a3.367 3.367 0 0 1 1.039-2.504 3.588 3.588 0 0 1 2.469-.983h.063c.977-.038 1.864.342 2.531.984a3.357 3.357 0 0 1 1.04 2.503c0 .005-.003.008-.003.013-.002.054-.024.107-.037.161-.014.061-.021.125-.047.181-.002.006-.001.011-.004.017L2.469 4.106l3.606 1.413V-5.207H3.533a.897.897 0 1 1 0-1.793h3.426l.013-.002" style="fill:#0099df;fill-opacity:1;fill-rule:nonzero;stroke:none" transform="translate(15.745 32.169)"/><path d="M0 0v19.632c0 1.136.924 2.059 2.06 2.059h23.648a2.062 2.062 0 0 0 2.061-2.059V-.219L16.983-9.44c-1.824-1.433-4.373-1.434-6.168-.022L-.038-.188C-.024-.125 0-.067 0 0m18.313-20.863H-2.798c-1.137 0-2.06.924-2.06 2.06V.313c0 .222.129.427.328.523.2.097.442.07.59-.046L9.679-10.849c2.476-1.946 5.934-1.944 8.441.022L31.682.768a.58.58 0 0 0 .944-.454v-5.932a.896.896 0 0 1 1.792 0V.314c0 .905-.526 1.744-1.341 2.137a2.4 2.4 0 0 1-2.534-.299l-.982-.84v18.32a3.857 3.857 0 0 1-3.853 3.852H2.06a3.857 3.857 0 0 1-3.853-3.852V1.312l-1.008.861a2.389 2.389 0 0 1-2.508.278A2.39 2.39 0 0 1-6.651.314v-19.117a3.858 3.858 0 0 1 3.853-3.852h21.111a.896.896 0 0 1 0 1.792" style="fill:#0099df;fill-opacity:1;fill-rule:nonzero;stroke:none" transform="translate(8.832 26.407)"/></g></svg>