<svg width="66.667" height="66.667" xmlns="http://www.w3.org/2000/svg"><defs><clipPath clipPathUnits="userSpaceOnUse" id="a"><path d="M0 50h50V0H0Z"/></clipPath></defs><g clip-path="url(#a)" transform="matrix(1.33333 0 0 -1.33333 0 66.667)"><path d="M0 0c0 4.738 3.856 8.595 8.596 8.595 4.738 0 8.594-3.857 8.594-8.595 0-4.739-3.856-8.595-8.594-8.595C3.856-8.595 0-4.739 0 0m22.059-12.328-5.758 5.719A10.112 10.112 0 0 1 18.759 0c0 5.604-4.56 10.163-10.163 10.163C2.99 10.163-1.568 5.604-1.568 0S2.99-10.164 8.596-10.164c2.516 0 4.817.925 6.594 2.445l5.763-5.723a.78.78 0 0 1 1.109.004.786.786 0 0 1-.003 1.11" style="fill:#0099df;fill-opacity:1;fill-rule:nonzero;stroke:none" transform="translate(27.378 13.802)"/><path d="M0 0c.34-.34.606-.746.798-1.184h-5.853a3.867 3.867 0 0 0-3.862 3.863v5.858a3.849 3.849 0 0 0 1.184-.803Zm-4.339-31.645h-24.637a2.085 2.085 0 0 0-2.082 2.083V6.572a2.295 2.295 0 0 0 2.292 2.292h18.281V2.679a5.437 5.437 0 0 1 5.43-5.432h6.187v-4.611a.784.784 0 1 1 1.569 0v4.632c0 1.43-.58 2.83-1.592 3.842l-7.732 7.734a5.393 5.393 0 0 1-3.838 1.59h-13.82v.568c0 1.193.97 2.164 2.164 2.164h17.544c.979 0 1.899-.382 2.592-1.074L5.43 4.68a3.651 3.651 0 0 0 1.075-2.597V-8.014a.784.784 0 0 1 1.569 0V2.083c0 1.4-.545 2.715-1.534 3.707l-7.412 7.412a5.2 5.2 0 0 1-3.701 1.533h-17.544a3.737 3.737 0 0 1-3.734-3.733v-.568h-2.915a3.866 3.866 0 0 1-3.861-3.862v-36.134a3.655 3.655 0 0 1 3.651-3.651h24.637a.784.784 0 1 1 0 1.568" style="fill:#0099df;fill-opacity:1;fill-rule:nonzero;stroke:none" transform="translate(32.959 35.133)"/><path d="M0 0c.321.025.639-.096.868-.324l1.3-1.3a.784.784 0 0 1 1.183.085l4.178 5.57c.42.559 1.363.562 1.785-.002l2.172-2.876a.788.788 0 0 1 1.1-.153.787.787 0 0 1 .153 1.1l-2.171 2.873a2.693 2.693 0 0 1-2.147 1.074c-.84 0-1.642-.401-2.147-1.074L2.638.126l-.66.659a2.676 2.676 0 0 1-2.089.78c-.776-.054-1.49-.443-1.997-1.126L-7.057-7.59a.786.786 0 0 1 .668-1.196h15.21a.783.783 0 1 1 0 1.568H-4.983L-.812-.443c.194.258.49.421.812.443" style="fill:#0099df;fill-opacity:1;fill-rule:nonzero;stroke:none" transform="translate(12.898 22.473)"/><path d="M0 0a1.404 1.404 0 0 0 2.806 0c0-.773-.629-1.403-1.403-1.403S0-.773 0 0m4.376 0a2.977 2.977 0 0 1-2.973 2.973A2.976 2.976 0 0 1-1.569 0a2.975 2.975 0 0 1 2.972-2.972A2.976 2.976 0 0 1 4.376 0" style="fill:#0099df;fill-opacity:1;fill-rule:nonzero;stroke:none" transform="translate(8.58 30.827)"/><path d="m0 0-2.173.061v2.111l.061.061 2.173-.061zm0 3.802h-2.112a1.63 1.63 0 0 1-1.629-1.63V.061a1.63 1.63 0 0 1 1.629-1.629H0c.898 0 1.629.73 1.629 1.629v2.111c0 .899-.731 1.63-1.629 1.63" style="fill:#0099df;fill-opacity:1;fill-rule:nonzero;stroke:none" transform="translate(33.861 10.278)"/><path d="m0 0-2.173.061v2.111l.061.061 2.173-.061zm0 3.802h-2.112a1.63 1.63 0 0 1-1.629-1.63V.061c0-.899.73-1.629 1.629-1.629H0c.898 0 1.629.73 1.629 1.629v2.111c0 .899-.731 1.63-1.629 1.63" style="fill:#0099df;fill-opacity:1;fill-rule:nonzero;stroke:none" transform="translate(40.197 10.278)"/><path d="M0 0v2.111l.061.062 2.172-.062-.06-2.172Zm3.802 0v2.111c0 .9-.731 1.63-1.629 1.63H.061c-.9 0-1.629-.73-1.629-1.63V0A1.63 1.63 0 0 1 .061-1.629h2.112c.898 0 1.629.731 1.629 1.629" style="fill:#0099df;fill-opacity:1;fill-rule:nonzero;stroke:none" transform="translate(34.856 16.338)"/></g></svg>