<svg width="66.667" height="66.667" xmlns="http://www.w3.org/2000/svg"><defs><clipPath clipPathUnits="userSpaceOnUse" id="a"><path d="M0 50h50V0H0Z"/></clipPath></defs><g clip-path="url(#a)" transform="matrix(1.33333 0 0 -1.33333 0 66.667)"><path d="M0 0a3.855 3.855 0 0 0 1.18-.801l7.776-7.777c.344-.345.61-.747.801-1.18h-5.88A3.882 3.882 0 0 0 0-5.88Zm3.877-11.348h6.215v-6.173a.794.794 0 0 1 1.589 0v6.2a5.43 5.43 0 0 1-1.601 3.867L2.304.323a5.424 5.424 0 0 1-3.863 1.6H-15.45v.566c0 1.197.973 2.17 2.17 2.17H4.362a3.65 3.65 0 0 0 2.6-1.078l7.454-7.454a3.658 3.658 0 0 0 1.079-2.606V-17.57a.794.794 0 1 1 1.589 0v11.091c0 1.41-.547 2.734-1.544 3.731L8.087 4.706a5.234 5.234 0 0 1-3.725 1.543H-13.28a3.765 3.765 0 0 1-3.76-3.76v-.566h-2.924a3.893 3.893 0 0 1-3.889-3.888V-37.28a3.681 3.681 0 0 1 3.678-3.677h19.057a.794.794 0 1 1 0 1.59h-19.057a2.09 2.09 0 0 0-2.088 2.087v35.315A2.301 2.301 0 0 0-19.964.333H-1.59V-5.88a5.474 5.474 0 0 1 5.467-5.468" style="fill:#0099df;fill-opacity:1;fill-rule:nonzero;stroke:none" transform="translate(24.666 43.714)"/><path d="M0 0a.798.798 0 0 1-.714-.063A9.44 9.44 0 0 0-11.6.594a9.44 9.44 0 0 0-2.984 10.487 9.437 9.437 0 0 0 8.891 6.29h.034A9.416 9.416 0 0 0 2.333 2.983a.792.792 0 0 1-.051-.745L4-1.59Zm6.253-2.728-2.352 5.24a11.007 11.007 0 0 1 .054 10.796 11.007 11.007 0 0 1-9.648 5.653 11.032 11.032 0 0 1-10.391-7.35A11.035 11.035 0 0 1-12.595-.646 11.032 11.032 0 0 1-.224-1.622l5.458-2.17a.796.796 0 0 1 .869.189.795.795 0 0 1 .15.875" style="fill:#0099df;fill-opacity:1;fill-rule:nonzero;stroke:none" transform="translate(42.863 3.885)"/><path d="M0 0a1.16 1.16 0 1 1 1.16-1.16C1.16-.521.64 0 0 0" style="fill:#0099df;fill-opacity:1;fill-rule:nonzero;stroke:none" transform="translate(37.188 8.972)"/><path d="M0 0a3.72 3.72 0 0 1-3.715-3.715.795.795 0 1 1 1.589 0A2.13 2.13 0 0 0 0-1.589a2.13 2.13 0 0 0 2.127-2.126A2.13 2.13 0 0 0 0-5.842a.793.793 0 1 1 0-1.589 3.72 3.72 0 0 1 3.716 3.716A3.72 3.72 0 0 1 0 0" style="fill:#0099df;fill-opacity:1;fill-rule:nonzero;stroke:none" transform="translate(37.188 17.003)"/><path d="M0 0a.795.795 0 0 1-.795.794h-16.292a.795.795 0 1 1 0-1.589H-.795C-.356-.795 0-.439 0 0" style="fill:#0099df;fill-opacity:1;fill-rule:nonzero;stroke:none" transform="translate(23.055 14.655)"/><path d="M0 0a.794.794 0 1 1 0-1.589h8.938a.795.795 0 0 1 0 1.589Z" style="fill:#0099df;fill-opacity:1;fill-rule:nonzero;stroke:none" transform="translate(5.968 10.894)"/><path d="M14.626 31.535h1.953V20.404h-1.953Zm-5.819-5.871h1.954v-5.26H8.807Zm14.598-3.092c.439 0 .796.356.796.795v5.538c0 .709-.631 1.285-1.407 1.285h-2.445c-.775 0-1.407-.576-1.407-1.285v-8.501h-.773v11.437c0 .708-.621 1.284-1.385 1.284h-2.363c-.763 0-1.385-.576-1.385-1.284V20.404h-.686v5.566c0 .708-.621 1.284-1.385 1.284H8.603c-.765 0-1.387-.576-1.387-1.284v-5.566H5.968a.794.794 0 1 1 0-1.589H22.26a.794.794 0 1 1 0 1.589h-1.727V28.6h2.077v-5.233c0-.439.357-.795.795-.795" style="fill:#0099df;fill-opacity:1;fill-rule:nonzero;stroke:none"/></g></svg>