<svg width="50" height="51" fill="none" xmlns="http://www.w3.org/2000/svg"><g clip-path="url(#a)" stroke="#FF8A00" stroke-width="2.2" stroke-linecap="round" stroke-linejoin="round"><path d="M11.873 10.736H9.55a2.32 2.32 0 0 0-2.323 2.323v3.015M36.142 42.825h2.323a2.32 2.32 0 0 0 2.323-2.324v-3.015"/><path d="M21.848 4.439H6.505a5.413 5.413 0 0 0-5.417 5.417v34.63a5.413 5.413 0 0 0 5.417 5.417h34.64a5.413 5.413 0 0 0 5.417-5.418v-16.32"/><path d="M36.527 17.735a3.025 3.025 0 1 0 0-6.05 3.025 3.025 0 0 0 0 6.05Z"/><path d="m39.097 3.005.89 2.926a2.01 2.01 0 0 0 2.372 1.374l2.966-.692A2.717 2.717 0 0 1 48.261 7.9a2.686 2.686 0 0 1-.366 3.183l-2.076 2.244a2.015 2.015 0 0 0 0 2.748l2.076 2.244c.811.87.96 2.155.366 3.183a2.69 2.69 0 0 1-2.936 1.285l-2.966-.692a2.024 2.024 0 0 0-2.372 1.374l-.89 2.927a2.681 2.681 0 0 1-5.14 0l-.89-2.936a2.02 2.02 0 0 0-2.372-1.375l-2.966.692a2.697 2.697 0 0 1-2.57-4.468l2.076-2.244a2.015 2.015 0 0 0 0-2.748l-2.076-2.244a2.702 2.702 0 0 1-.366-3.183 2.69 2.69 0 0 1 2.936-1.285l2.966.692a2.01 2.01 0 0 0 2.372-1.375l.89-2.926a2.681 2.681 0 0 1 2.57-1.908 2.69 2.69 0 0 1 2.57 1.918ZM19.702 27.59a1.772 1.772 0 0 0-1.375-.642 1.8 1.8 0 0 0-1.799 1.8c0 .988.81 1.799 1.8 1.799h8.116M21.936 30.556v10.647"/><path d="M20.019 17.883a11.712 11.712 0 0 0-9.53 8.7 11.709 11.709 0 0 0 7.098 13.79v4.903h8.521v-4.903a11.718 11.718 0 0 0 7.059-7.899"/></g><defs><clipPath id="a"><path fill="#fff" d="M0 0h49.715v51H0z"/></clipPath></defs></svg>