<svg width="66.667" height="66.667" xmlns="http://www.w3.org/2000/svg"><defs><clipPath clipPathUnits="userSpaceOnUse" id="a"><path d="M0 50h50V0H0Z"/></clipPath></defs><g clip-path="url(#a)" transform="matrix(1.33333 0 0 -1.33333 0 66.667)"><path d="M0 0h-.561a5.457 5.457 0 0 0-5.451 5.451v26.451a5.458 5.458 0 0 0 5.451 5.452H0a.815.815 0 0 0 0-1.632h-.561a3.824 3.824 0 0 1-3.82-3.82V5.451a3.825 3.825 0 0 1 3.82-3.82H0A.814.814 0 0 0 .815.815.814.814 0 0 0 0 0" style="fill:#0099df;fill-opacity:1;fill-rule:nonzero;stroke:none" transform="translate(36.717 6.293)"/><path d="M0 0h-4.34a.815.815 0 1 0 0 1.631H0A.815.815 0 1 0 0 0" style="fill:#0099df;fill-opacity:1;fill-rule:nonzero;stroke:none" transform="translate(35.86 24.154)"/><path d="M0 0a.186.186 0 0 1-.187-.187V-9.58c0-.104.083-.187.187-.187h7.607c.104 0 .187.083.187.187v6.719c0 .202-.073.39-.205.539L4.938-.31a.854.854 0 0 0-.084.074.81.81 0 0 1-.568.236h-.002Zm7.607-11.397H0A1.819 1.819 0 0 0-1.817-9.58v9.393A1.82 1.82 0 0 0 0 1.631h4.287c.619 0 1.227-.243 1.678-.671l2.662-2.022a.664.664 0 0 0 .084-.074 2.42 2.42 0 0 0 .714-1.725V-9.58a1.82 1.82 0 0 0-1.818-1.817" style="fill:#0099df;fill-opacity:1;fill-rule:nonzero;stroke:none" transform="translate(40.517 11.92)"/><path d="M0 0a.186.186 0 0 1-.187-.186v-9.395c0-.102.083-.186.187-.186h7.607c.104 0 .187.084.187.186v6.72c0 .201-.073.39-.205.538L4.938-.31a.845.845 0 0 0-.084.073.8.8 0 0 1-.572.237Zm7.607-11.398H0a1.819 1.819 0 0 0-1.817 1.817v9.395A1.82 1.82 0 0 0 0 1.632h4.282c.632 0 1.227-.238 1.683-.673l2.662-2.022a.587.587 0 0 0 .084-.073 2.42 2.42 0 0 0 .714-1.725v-6.72a1.82 1.82 0 0 0-1.818-1.817" style="fill:#0099df;fill-opacity:1;fill-rule:nonzero;stroke:none" transform="translate(40.517 29.853)"/><path d="M0 0a.186.186 0 0 1-.187-.186V-9.58c0-.103.083-.186.187-.186h7.607c.104 0 .187.083.187.186v6.719a.806.806 0 0 1-.205.539L4.938-.309a.733.733 0 0 0-.084.073.8.8 0 0 1-.57.236h-.001Zm7.607-11.398H0A1.82 1.82 0 0 0-1.817-9.58v9.394A1.82 1.82 0 0 0 0 1.632h4.285c.63 0 1.224-.238 1.68-.672l2.662-2.022a.657.657 0 0 0 .084-.073 2.422 2.422 0 0 0 .714-1.726V-9.58a1.82 1.82 0 0 0-1.818-1.818" style="fill:#0099df;fill-opacity:1;fill-rule:nonzero;stroke:none" transform="translate(40.517 47.846)"/><path d="M0 0h-5.563C-7.48.056-8.986 1.742-8.942 3.758l-.001 26.567c-.043 1.998 1.462 3.684 3.356 3.74l14.093.001a3.25 3.25 0 0 0 2.431-1.138l4.904-5.595a3.945 3.945 0 0 0 .954-2.605v-9.849a.816.816 0 0 0-1.631 0v9.851a2.313 2.313 0 0 1-.552 1.53l-4.905 5.596a1.62 1.62 0 0 1-1.206.579H-5.563c-.978-.03-1.772-.969-1.749-2.093l.001-26.602c-.024-1.141.77-2.079 1.772-2.109H0A.816.816 0 0 0 0 0" style="fill:#0099df;fill-opacity:1;fill-rule:nonzero;stroke:none" transform="translate(9.002 7.832)"/><path d="M0 0a.815.815 0 0 0-.816.815v7.67a.816.816 0 1 0 1.632 0V.815A.815.815 0 0 0 0 0" style="fill:#0099df;fill-opacity:1;fill-rule:nonzero;stroke:none" transform="translate(20.762 7.186)"/><path d="M0 0h-3.33a.815.815 0 1 0 0 1.631H0A.816.816 0 0 0 0 0" style="fill:#0099df;fill-opacity:1;fill-rule:nonzero;stroke:none" transform="translate(22.427 6.72)"/><path d="M0 0a.815.815 0 0 0-.004 1.631l6.681.037h.005A.816.816 0 0 0 6.687.037L.005 0Z" style="fill:#0099df;fill-opacity:1;fill-rule:nonzero;stroke:none" transform="translate(17.42 13.389)"/><path d="M0 0a.043.043 0 0 0-.006-.007L0 0m-.528-.608c-.377-.475-.607-.871-.623-1.033a.622.622 0 0 1 1.245.003c-.016.141-.221.525-.622 1.03m0-3.278a2.256 2.256 0 0 0-2.254 2.253c0 .88.865 1.98 1.592 2.749.154.163.438.286.662.286a.913.913 0 0 0 .666-.291C.861.346 1.726-.756 1.726-1.633A2.256 2.256 0 0 0-.528-3.886" style="fill:#0099df;fill-opacity:1;fill-rule:nonzero;stroke:none" transform="translate(17.769 13.597)"/><path d="M0 0c-.404-.51-.61-.896-.624-1.033a.623.623 0 0 1 1.246.003C.606-.886.403-.508 0 0m0-3.278a2.256 2.256 0 0 0-2.254 2.254c0 .7.535 1.625 1.59 2.747.154.164.439.287.664.287h.002c.25 0 .492-.106.664-.29C1.719.6 2.254-.324 2.254-1.024A2.256 2.256 0 0 0 0-3.278" style="fill:#0099df;fill-opacity:1;fill-rule:nonzero;stroke:none" transform="translate(24.141 12.999)"/><path d="M0 0a6.721 6.721 0 0 1-6.713-6.715c0-3.702 3.011-6.715 6.713-6.715a6.723 6.723 0 0 1 6.715 6.715A6.723 6.723 0 0 1 0 0m0-15.061c-4.602 0-8.345 3.745-8.345 8.346 0 4.602 3.743 8.346 8.345 8.346s8.346-3.744 8.346-8.346c0-4.601-3.744-8.346-8.346-8.346" style="fill:#0099df;fill-opacity:1;fill-rule:nonzero;stroke:none" transform="translate(20.69 18.318)"/><path d="M0 0c-.287 0-.575.092-.818.281l-1.321 1.031a.816.816 0 0 0 1.005 1.286l1.084-.847 1.858 2.375a.815.815 0 1 0 1.286-1.004L1.053.511A1.339 1.339 0 0 0 0 0" style="fill:#0099df;fill-opacity:1;fill-rule:nonzero;stroke:none" transform="translate(43.913 39.783)"/><path d="M0 0c-.296 0-.582.099-.819.284l-1.319 1.028a.817.817 0 0 0 1.005 1.287l1.084-.847 1.858 2.375a.816.816 0 0 0 1.286-1.004L1.054.513A1.323 1.323 0 0 0 0 0" style="fill:#0099df;fill-opacity:1;fill-rule:nonzero;stroke:none" transform="translate(43.912 3.856)"/><path d="M0 0h-3.63a.815.815 0 1 0 0 1.631H0A.815.815 0 0 0 0 0" style="fill:#0099df;fill-opacity:1;fill-rule:nonzero;stroke:none" transform="translate(46.136 23.194)"/><path d="M0 0h-11.321a.816.816 0 0 0 0 1.632H0A.817.817 0 0 0 0 0" style="fill:#0099df;fill-opacity:1;fill-rule:nonzero;stroke:none" transform="translate(20.56 30.505)"/><path d="M0 0h-11.321a.816.816 0 0 0 0 1.632H0A.817.817 0 0 0 0 0" style="fill:#0099df;fill-opacity:1;fill-rule:nonzero;stroke:none" transform="translate(20.56 24.99)"/><path d="M0 0c-.681 0-1.236.535-1.236 1.192 0 .657.555 1.192 1.236 1.192.682 0 1.236-.535 1.236-1.192C1.236.535.682 0 0 0" style="fill:#0099df;fill-opacity:1;fill-rule:nonzero;stroke:none" transform="translate(5.012 30.129)"/><path d="M0 0c-.681 0-1.236.535-1.236 1.192 0 .657.555 1.192 1.236 1.192.682 0 1.236-.535 1.236-1.192C1.236.535.682 0 0 0" style="fill:#0099df;fill-opacity:1;fill-rule:nonzero;stroke:none" transform="translate(5.012 24.614)"/><path d="M0 0h-4.646a.815.815 0 1 0 0 1.631H0A.816.816 0 1 0 0 0" style="fill:#0099df;fill-opacity:1;fill-rule:nonzero;stroke:none" transform="translate(13.884 19.465)"/><path d="M0 0c-.681 0-1.236.534-1.236 1.191 0 .658.555 1.192 1.236 1.192.682 0 1.236-.534 1.236-1.192C1.236.534.682 0 0 0" style="fill:#0099df;fill-opacity:1;fill-rule:nonzero;stroke:none" transform="translate(5.012 19.089)"/></g></svg>