<svg xmlns="http://www.w3.org/2000/svg" width="66.667" height="66.667"><defs><clipPath id="a" clipPathUnits="userSpaceOnUse"><path d="M0 50h50V0H0Z"/></clipPath></defs><g clip-path="url(#a)" transform="matrix(1.33333 0 0 -1.33333 0 66.667)"><path d="M0 0a1.622 1.622 0 0 0-1.121-.442h-.076c-.443.004-.858.151-1.161.443a1.46 1.46 0 0 0-.236.292h2.83A1.466 1.466 0 0 0 0 0m-.024 1.882h-2.309l1.154 2.386zm-12.679-3.984 1.149 2.353 1.149-2.353zm2.328-1.88a1.62 1.62 0 0 0-1.12-.444h-.078a1.654 1.654 0 0 0-1.16.444 1.432 1.432 0 0 0-.236.292h2.829a1.462 1.462 0 0 0-.235-.292M1.999 1.274c-.012.05-.017.101-.038.146-.002.005-.001.011-.003.016L-.11 5.708a.788.788 0 0 1 .402.999.795.795 0 0 1-1.029.45l-4.835-1.893v.138a.795.795 0 0 1-1.59 0v-.761l-6.103-2.39a.787.787 0 0 1 .178-1.518l-1.602-3.28-.004-.015c-.023-.048-.028-.103-.041-.157-.012-.049-.031-.096-.033-.146 0-.004-.003-.007-.003-.011-.022-.84.32-1.662.937-2.254a3.23 3.23 0 0 1 2.222-.885h.115a3.23 3.23 0 0 1 2.222.885c.616.592.957 1.414.935 2.254l-.002.011c-.002.05-.022.097-.034.146-.012.054-.018.109-.041.157-.001.005-.001.011-.003.015l-2.045 4.188 3.302 1.293v-9.747h-2.317a.795.795 0 0 1 0-1.589h3.103l.009-.002.009.002h3.104a.794.794 0 1 1 0 1.589h-2.318v10.37l2.817 1.103-1.56-3.224-.004-.016c-.021-.045-.025-.096-.038-.146-.013-.052-.033-.104-.035-.156l-.002-.01a3.025 3.025 0 0 1 .935-2.253 3.225 3.225 0 0 1 2.225-.887h.112c.828 0 1.634.32 2.223.886.616.59.957 1.413.935 2.254l-.002.01c-.002.052-.022.104-.035.156" style="fill:#0099df;fill-opacity:1;fill-rule:nonzero;stroke:none" transform="translate(18.164 23.382)"/><path d="M0 0v-5.771c0-.331.306-.622.691-.622.375 0 .692.291.692.622V0c0 .33-.317.621-.692.621C.306.621 0 .33 0 0" style="fill:#0099df;fill-opacity:1;fill-rule:nonzero;stroke:none" transform="translate(26.835 15.504)"/><path d="M0 0v-1.669c0-.766-.365-1.396-1.452-1.396h-.671v4.384h.671C-.386 1.319 0 .737 0 0m-2.734 2.552c-.416 0-.771-.321-.771-.699v-5.452c0-.378.355-.698.771-.698h1.114c2.242 0 3.002 1.261 3.002 2.628V0c0 1.349-.771 2.552-3.002 2.552z" style="fill:#0099df;fill-opacity:1;fill-rule:nonzero;stroke:none" transform="translate(32.927 13.496)"/><path d="M0 0c.346 0 .563-.078.75-.146.168-.048.307-.106.484-.106.435 0 .692.29.692.61 0 .728-1.403.873-1.985.873-1.402 0-2.291-.756-2.291-2.007 0-1.408 1.047-1.727 2.015-2.018.267-.088.513-.175.72-.262.178-.078.405-.223.405-.66 0-.533-.346-.834-1.026-.834-.425 0-.742.116-.979.194-.186.068-.345.117-.492.117-.365 0-.652-.302-.652-.613 0-.677 1.381-.93 2.112-.93 1.412 0 2.458.776 2.458 2.124 0 1.378-1.056 1.708-2.024 2.009a3.739 3.739 0 0 0-.71.261c-.167.078-.414.224-.414.65C-.937-.165-.483 0 0 0" style="fill:#0099df;fill-opacity:1;fill-rule:nonzero;stroke:none" transform="translate(37.28 14.894)"/><path d="M0 0h38.792a2.077 2.077 0 0 0 2.068-2.063v-4.669H-2.049v4.68A2.061 2.061 0 0 0 0 0m15.073-31.99H.017a2.077 2.077 0 0 0-2.066 2.066v21.602H40.86v-4.274a.795.795 0 1 1 1.589 0v10.535a3.669 3.669 0 0 1-3.655 3.65H-.002a3.656 3.656 0 0 1-3.637-3.638v-27.877a3.671 3.671 0 0 1 3.653-3.653h15.059a.795.795 0 0 1 0 1.589" style="fill:#0099df;fill-opacity:1;fill-rule:nonzero;stroke:none" transform="translate(3.856 43.145)"/><path d="M0 0a.794.794 0 0 1-.795-.794v-6.183a.14.14 0 0 0-.141-.14h-21.042a.14.14 0 0 0-.14.14V6.376a.14.14 0 0 0 .14.141h11.21a.793.793 0 1 1 0 1.588h-11.21c-.953 0-1.73-.775-1.73-1.729V-6.977c0-.954.777-1.729 1.73-1.729H-.936c.955 0 1.73.775 1.73 1.729v6.183C.794-.354.438 0 0 0" style="fill:#0099df;fill-opacity:1;fill-rule:nonzero;stroke:none" transform="translate(45.563 13.972)"/><path d="M0 0h2.789a.794.794 0 0 1 0 1.59H0A.796.796 0 0 1 0 0" style="fill:#0099df;fill-opacity:1;fill-rule:nonzero;stroke:none" transform="translate(32.007 25.528)"/><path d="M0 0h6.747a.795.795 0 0 1 0 1.59H0A.796.796 0 0 1 0 0" style="fill:#0099df;fill-opacity:1;fill-rule:nonzero;stroke:none" transform="translate(23.11 25.528)"/><path d="M0 0a.794.794 0 0 1-.794.795h-6.685a.794.794 0 1 1 0-1.589h6.685C-.354-.794 0-.438 0 0" style="fill:#0099df;fill-opacity:1;fill-rule:nonzero;stroke:none" transform="translate(35.59 30.355)"/><path d="M0 0h2.681a.795.795 0 1 1 0 1.589H0A.795.795 0 0 1 0 0" style="fill:#0099df;fill-opacity:1;fill-rule:nonzero;stroke:none" transform="translate(23.11 29.561)"/><path d="m0 0-2.211-2.211-.826.824A.794.794 0 0 1-4.16-2.51l1.388-1.386a.79.79 0 0 1 1.123 0l2.772 2.773a.792.792 0 0 1 0 1.123A.792.792 0 0 1 0 0" style="fill:#0099df;fill-opacity:1;fill-rule:nonzero;stroke:none" transform="translate(45.361 23.824)"/><path d="M0 0a4.357 4.357 0 0 0-4.351 4.351A4.356 4.356 0 0 0 0 8.701a4.356 4.356 0 0 0 4.351-4.35A4.357 4.357 0 0 0 0 0m0 10.29a5.946 5.946 0 0 1-5.939-5.939A5.947 5.947 0 0 1 0-1.589a5.946 5.946 0 0 1 5.939 5.94A5.945 5.945 0 0 1 0 10.29" style="fill:#0099df;fill-opacity:1;fill-rule:nonzero;stroke:none" transform="translate(43.843 17.525)"/><path d="M0 0a.658.658 0 0 0 0-1.315A.658.658 0 0 0 0 0m0-2.904A2.25 2.25 0 0 1 2.247-.658 2.249 2.249 0 0 1 0 1.589 2.25 2.25 0 0 1-2.247-.658 2.25 2.25 0 0 1 0-2.904" style="fill:#0099df;fill-opacity:1;fill-rule:nonzero;stroke:none" transform="translate(7.557 40.206)"/><path d="M0 0a.659.659 0 0 0 0-1.315A.658.658 0 0 0 0 0m0-2.904A2.25 2.25 0 0 1 2.247-.658 2.249 2.249 0 0 1 0 1.589 2.249 2.249 0 0 1-2.247-.658 2.25 2.25 0 0 1 0-2.904" style="fill:#0099df;fill-opacity:1;fill-rule:nonzero;stroke:none" transform="translate(13.155 40.206)"/><path d="M0 0a.658.658 0 0 0 0-1.315A.658.658 0 0 0 0 0m0-2.904A2.25 2.25 0 0 1 2.247-.658 2.249 2.249 0 0 1 0 1.589 2.249 2.249 0 0 1-2.247-.658 2.25 2.25 0 0 1 0-2.904" style="fill:#0099df;fill-opacity:1;fill-rule:nonzero;stroke:none" transform="translate(18.595 40.206)"/></g></svg>