<?xml version="1.0" encoding="utf-8"?>
<!-- Generator: Adobe Illustrator 26.1.0, SVG Export Plug-In . SVG Version: 6.00 Build 0)  -->
<svg version="1.1" id="Слой_1" xmlns="http://www.w3.org/2000/svg" xmlns:xlink="http://www.w3.org/1999/xlink" x="0px" y="0px"
	 viewBox="0 0 50 50" style="enable-background:new 0 0 50 50;" xml:space="preserve">
<style type="text/css">
	.st0{fill:none;stroke:#0098DA;stroke-width:1.5;stroke-linecap:round;stroke-linejoin:round;}
	.st1{fill:none;stroke:#0098DA;stroke-width:1.7;stroke-linecap:round;stroke-linejoin:round;}
</style>
<g id="Programming-Apps-Websites__x2F__Plugins_x2F_Modules__x2F__module-phone-puzzle_1_">
	<g id="Group_30_1_">
		<g id="module-phone-puzzle_1_">
			<path id="Shape_161_1_" class="st0" d="M15.39,33.46c-0.39-0.34-0.55-0.88-0.43-1.38c0.12-0.5,0.52-0.9,1.02-1.02
				c0.5-0.12,1.03,0.04,1.38,0.43c0.14,0.14,0.25,0.3,0.32,0.48c0.04,0.11,0.14,0.19,0.26,0.22c0.12,0.03,0.24-0.01,0.32-0.09
				l1.09-1.09c0.27-0.28,0.27-0.72-0.01-1l-1.14-1.14c0.24-0.06,0.45-0.18,0.63-0.36c0.53-0.56,0.52-1.44-0.03-1.99
				c-0.55-0.55-1.43-0.56-1.99-0.03c-0.17,0.17-0.3,0.39-0.36,0.63L15.32,26c-0.27-0.28-0.72-0.28-1-0.01L13.31,27
				c-0.07,0.07-0.11,0.18-0.1,0.28c0.01,0.11,0.07,0.2,0.16,0.26c0.08,0.05,0.15,0.11,0.22,0.18c0.39,0.34,0.55,0.88,0.43,1.38
				C13.9,29.61,13.5,30,13,30.12c-0.5,0.12-1.03-0.04-1.38-0.43c-0.07-0.07-0.13-0.14-0.18-0.22c-0.06-0.09-0.15-0.15-0.26-0.16
				c-0.1-0.01-0.21,0.02-0.28,0.1l-1.01,1.01c-0.27,0.28-0.27,0.72,0.01,1l4.02,4.02c0.27,0.28,0.72,0.28,1,0.01L16,34.37
				c0.08-0.08,0.12-0.2,0.09-0.32c-0.03-0.12-0.11-0.21-0.22-0.26C15.7,33.71,15.53,33.6,15.39,33.46z"/>
		</g>
	</g>
</g>
<g>
	<g id="Programming-Apps-Websites__x2F__Programming__x2F__programming-browser-1_2_">
		<g id="Group_2_">
			<g id="programming-browser-1_2_">
				<path id="Shape_2_" class="st1" d="M7.65,10.16V7.37c0-1.5,1.31-2.71,2.92-2.71h34.88c1.6,0,2.9,1.21,2.91,2.7v27.33
					c0,0.86-0.44,1.63-1.11,2.13"/>
			</g>
		</g>
	</g>
</g>
<path class="st1" d="M8.51,14.32c0,0.68-0.55,1.22-1.22,1.22s-1.22-0.55-1.22-1.22c0-0.68,0.55-1.22,1.22-1.22
	S8.51,13.64,8.51,14.32z"/>
<path class="st1" d="M14.13,14.32c0,0.68-0.55,1.22-1.22,1.22c-0.68,0-1.22-0.55-1.22-1.22c0-0.68,0.55-1.22,1.22-1.22
	C13.58,13.09,14.13,13.64,14.13,14.32z"/>
<path class="st1" d="M19.76,14.32c0,0.68-0.55,1.22-1.22,1.22c-0.68,0-1.22-0.55-1.22-1.22c0-0.68,0.55-1.22,1.22-1.22
	C19.21,13.09,19.76,13.64,19.76,14.32z"/>
<g id="shield-lock_4_">
	<path id="Shape_387_4_" class="st0" d="M30.11,33.26v5.86c0,3.79,2.34,7.19,5.88,8.56l0.8,0.31c0.53,0.21,1.12,0.21,1.66,0
		l0.8-0.31c3.54-1.36,5.88-4.76,5.88-8.56v-5.86c0-0.45-0.26-0.86-0.67-1.05c-2.16-0.94-4.49-1.42-6.84-1.39
		c-2.35-0.02-4.68,0.45-6.84,1.39C30.37,32.4,30.1,32.81,30.11,33.26z"/>
	<path id="Rectangle-path_25_4_" class="st0" d="M34.15,38.9c0-0.64,0.52-1.16,1.15-1.16h4.62c0.64,0,1.15,0.52,1.15,1.16v3.46
		c0,0.64-0.52,1.15-1.15,1.15H35.3c-0.64,0-1.15-0.52-1.15-1.15V38.9z"/>
	<path id="Shape_388_4_" class="st0" d="M37.61,34.28L37.61,34.28c-1.28,0-2.31,1.03-2.31,2.31v1.15h4.62v-1.15
		C39.92,35.32,38.89,34.28,37.61,34.28z"/>
	<path id="Shape_389_4_" class="st0" d="M37.61,40.37c0.16,0,0.29,0.13,0.29,0.29s-0.13,0.29-0.29,0.29c-0.16,0-0.29-0.13-0.29-0.29
		S37.45,40.37,37.61,40.37"/>
</g>
<g>
	<g>
		<polyline class="st1" points="12.02,38.67 6.21,38.67 6.21,32.86 		"/>
		<polyline class="st1" points="6.21,28.23 6.21,22.41 12.09,22.41 		"/>
	</g>
	<g>
		<polyline class="st1" points="17.58,38.67 23.38,38.67 23.38,32.86 		"/>
		<polyline class="st1" points="23.38,28.23 23.38,22.41 17.51,22.41 		"/>
	</g>
</g>
<line class="st0" x1="28.5" y1="22.38" x2="37.95" y2="22.38"/>
<line class="st0" x1="28.5" y1="26.03" x2="37.95" y2="26.03"/>
<g id="Programming-Apps-Websites__x2F__Apps__x2F__app-window-lock">
	<g id="Group_201">
		<g id="app-window-lock">
			<path id="Shape_1068" class="st1" d="M42.63,27.65V13.06c0-1.38-1.12-2.49-2.49-2.49H4.33c-1.38,0-2.49,1.12-2.49,2.49v27.43
				c0,1.38,1.12,2.49,2.49,2.49h24.13"/>
			<path id="Shape_1069" class="st1" d="M1.84,18.05h40.57"/>
		</g>
	</g>
</g>
</svg>
