<svg width="66.667" height="66.667" xmlns="http://www.w3.org/2000/svg"><defs><clipPath clipPathUnits="userSpaceOnUse" id="a"><path d="M0 50h50V0H0Z"/></clipPath></defs><g clip-path="url(#a)" transform="matrix(1.33333 0 0 -1.33333 0 66.667)"><path d="M0 0c-1.266 0-1.715 1.132-1.715 2.101v30.667a1.91 1.91 0 0 0 1.907 1.907l38.139-.001a1.91 1.91 0 0 0 1.907-1.907V19.5a.788.788 0 0 1 1.575 0v13.267a3.486 3.486 0 0 1-3.482 3.482L.192 36.25a3.486 3.486 0 0 1-3.482-3.482V2.101c0-2.164 1.353-3.675 3.29-3.675A.787.787 0 1 1 0 0" style="fill:#0099df;fill-opacity:1;fill-rule:nonzero;stroke:none" transform="translate(3.897 9.274)"/><path d="M0 0h-36.845a2.554 2.554 0 0 1-2.55-2.55.788.788 0 0 1 1.575 0c0 .537.437.975.975.975H0a2.103 2.103 0 0 0 2.101-2.1v-15.536a.787.787 0 1 1 1.574 0v15.536A3.679 3.679 0 0 1 0 0" style="fill:#0099df;fill-opacity:1;fill-rule:nonzero;stroke:none" transform="translate(45.718 49.803)"/><path d="M0 0a.477.477 0 0 0 0-.953A.477.477 0 0 0 0 0m0-2.527c1.13 0 2.049.92 2.049 2.05 0 1.131-.919 2.05-2.049 2.05S-2.05.654-2.05-.477c0-1.13.92-2.05 2.05-2.05" style="fill:#0099df;fill-opacity:1;fill-rule:nonzero;stroke:none" transform="translate(22.169 20.725)"/><path d="M0 0a.477.477 0 0 0 0-.953A.477.477 0 0 0 0 0m0-2.527c1.13 0 2.05.92 2.05 2.05 0 1.131-.92 2.05-2.05 2.05a2.052 2.052 0 0 1-2.051-2.05c0-1.13.92-2.05 2.051-2.05" style="fill:#0099df;fill-opacity:1;fill-rule:nonzero;stroke:none" transform="translate(17.22 20.725)"/><path d="M0 0a.477.477 0 1 0-.003-.953A.477.477 0 0 0 0 0m0-2.527c1.13 0 2.05.92 2.05 2.05 0 1.131-.92 2.05-2.05 2.05a2.052 2.052 0 0 1-2.051-2.05c0-1.13.92-2.05 2.051-2.05" style="fill:#0099df;fill-opacity:1;fill-rule:nonzero;stroke:none" transform="translate(12.328 20.725)"/><path d="M0 0c-.359 0-.62-.144-.753-.414L-2.328-3.49-3.903-.423c-.139.273-.41.423-.764.423-.452 0-.793-.312-.793-.726v-5.499c0-.385.339-.698.756-.698.431 0 .795.319.795.698v2.709l.855-1.651c.135-.263.396-.414.716-.414.327 0 .592.151.725.413l.856 1.652v-2.709c0-.379.36-.698.785-.698.415 0 .766.319.766.698v5.499C.794-.318.446 0 0 0" style="fill:#0099df;fill-opacity:1;fill-rule:nonzero;stroke:none" transform="translate(16.44 11.795)"/><path d="M0 0h-1.939v1.277h1.665c.43 0 .766.311.766.707 0 .38-.351.701-.766.701h-1.665v1.257h1.844c.435 0 .776.304.776.691 0 .388-.355.717-.776.717h-2.554c-.496 0-.842-.408-.842-.773V-.635c0-.491.362-.772.993-.772H0c.428 0 .775.321.775.716C.775-.316.42 0 0 0" style="fill:#0099df;fill-opacity:1;fill-rule:nonzero;stroke:none" transform="translate(21.666 6.362)"/><path d="M0 0v3.953h.525c.843 0 1.269-.385 1.269-1.143V1.218C1.794.41 1.368 0 .525 0Zm.365 5.358H-.701c-.461 0-.85-.358-.85-.781V-.626c0-.423.389-.781.85-.781H.365c2.691 0 2.981 1.835 2.981 2.625V2.81c0 1.62-1.087 2.548-2.981 2.548" style="fill:#0099df;fill-opacity:1;fill-rule:nonzero;stroke:none" transform="translate(24.575 6.362)"/><path d="M0 0v3.953h.524c.844 0 1.271-.385 1.271-1.143V1.218C1.795.41 1.368 0 .524 0Zm.364 5.358H-.701c-.461 0-.85-.358-.85-.781V-.626c0-.423.389-.781.85-.781H.364c2.692 0 2.982 1.835 2.982 2.625V2.81c0 1.62-1.086 2.548-2.982 2.548" style="fill:#0099df;fill-opacity:1;fill-rule:nonzero;stroke:none" transform="translate(30.177 6.362)"/><path d="M0 0c0-.524-.48-.635-.884-.635h-.94V.67h.884C0 .67 0 .166 0 0m.305-1.838C1.109-1.527 1.551-.88 1.551 0c0 1.301-.917 2.077-2.454 2.077h-1.64c-.451 0-.832-.358-.832-.781v-5.334c0-.393.351-.725.766-.725.418 0 .785.339.785.725v2.005h.463L.188-4.417a.758.758 0 0 1 .653-.337c.281 0 .574.18.712.439a.66.66 0 0 1-.04.695z" style="fill:#0099df;fill-opacity:1;fill-rule:nonzero;stroke:none" transform="translate(37.602 9.635)"/><path d="M0 0a2.81 2.81 0 0 1 .06-.224l.434-1.432H-.511L-.06-.225c.023.073.042.147.06.225m.883 1.905c-.125.349-.326.706-.883.706-.562 0-.762-.378-.873-.707l-1.836-5.26a.862.862 0 0 1-.037-.248c0-.404.342-.708.795-.708.27 0 .618.191.731.511l.284.859H.907l.304-.86c.116-.319.473-.51.75-.51.461 0 .794.297.794.708a.872.872 0 0 1-.034.242z" style="fill:#0099df;fill-opacity:1;fill-rule:nonzero;stroke:none" transform="translate(42.472 9.184)"/><path d="M0 0h2.67c.435 0 .788.353.788.788v2.67h1.883V.788c0-.435.353-.788.787-.788h2.671v-1.883H6.128a.788.788 0 0 1-.787-.788v-2.67H3.458v2.67a.788.788 0 0 1-.788.788H0zm1.883-3.458v-2.094c0-.752.612-1.364 1.364-1.364h2.305c.752 0 1.364.612 1.364 1.364v2.094H9.01c.752 0 1.364.612 1.364 1.364V.211c0 .752-.612 1.364-1.364 1.364H6.916v2.094c0 .752-.612 1.364-1.364 1.364H3.247a1.366 1.366 0 0 1-1.364-1.364V1.575H-.211A1.366 1.366 0 0 1-1.575.211v-2.305c0-.752.612-1.364 1.364-1.364z" style="fill:#0099df;fill-opacity:1;fill-rule:nonzero;stroke:none" transform="translate(7.457 35.385)"/><path d="M0 0a.788.788 0 0 1-.787.788h-16.886a.788.788 0 0 1 0-1.575H-.787C-.353-.787 0-.435 0 0" style="fill:#0099df;fill-opacity:1;fill-rule:nonzero;stroke:none" transform="translate(40.045 36.242)"/><path d="M0 0a.787.787 0 0 1 0-1.575h12.549a.787.787 0 0 1 0 1.575z" style="fill:#0099df;fill-opacity:1;fill-rule:nonzero;stroke:none" transform="translate(22.372 33.433)"/><path d="M0 0h-37.712c-.598 0-1.083.487-1.083 1.084v12.583l39.879-.001V1.084C1.084.487.597 0 0 0m-37.712 21.8H0c.597 0 1.084-.487 1.084-1.083V15.24l-39.879.001v5.476c0 .596.485 1.083 1.083 1.083M0 23.338h-37.712a2.624 2.624 0 0 1-2.622-2.621V1.084a2.624 2.624 0 0 1 2.622-2.621H0a2.624 2.624 0 0 1 2.621 2.621v19.633A2.624 2.624 0 0 1 0 23.338" style="fill:#0099df;fill-opacity:1;fill-rule:nonzero;stroke:none" transform="translate(46.753 1.734)"/></g></svg>