<svg width="66.667" height="66.667" xmlns="http://www.w3.org/2000/svg"><defs><clipPath clipPathUnits="userSpaceOnUse" id="a"><path d="M0 50h50V0H0Z"/></clipPath></defs><g clip-path="url(#a)" transform="matrix(1.33333 0 0 -1.33333 0 66.667)"><path d="M0 0h-16.898a3.835 3.835 0 0 0-3.831 3.831v36.69a4.055 4.055 0 0 0 4.05 4.05H2.443c1.52 0 2.949-.591 4.023-1.666l8.078-8.079A5.663 5.663 0 0 0 16.21 30.8v-7.426a.838.838 0 1 0-1.674 0V30.8a3.993 3.993 0 0 1-1.178 2.842L5.28 41.721a3.983 3.983 0 0 1-2.837 1.175h-19.122a2.38 2.38 0 0 1-2.376-2.375V3.831a2.16 2.16 0 0 1 2.157-2.157H0A.837.837 0 1 0 0 0" style="fill:#0099df;fill-opacity:1;fill-rule:nonzero;stroke:none" transform="translate(23.518 .846)"/><path d="M0 0h-7.215a5.699 5.699 0 0 0-5.692 5.692v7.215a.838.838 0 1 0 1.675 0V5.692a4.022 4.022 0 0 1 4.017-4.017H0A.837.837 0 1 0 0 0" style="fill:#0099df;fill-opacity:1;fill-rule:nonzero;stroke:none" transform="translate(38.824 31.606)"/><path d="M0 0a.837.837 0 0 0-.837.837v9.96a3.793 3.793 0 0 1-1.118 2.699l-7.742 7.744a3.79 3.79 0 0 1-2.695 1.116H-30.72a2.245 2.245 0 0 1-2.243-2.243v-.957a.838.838 0 1 0-1.675 0v.957a3.923 3.923 0 0 0 3.918 3.918h18.328a5.447 5.447 0 0 0 3.878-1.607L-.77 14.68a5.454 5.454 0 0 0 1.607-3.883V.837A.837.837 0 0 0 0 0" style="fill:#0099df;fill-opacity:1;fill-rule:nonzero;stroke:none" transform="translate(44.504 25.88)"/><path d="M0 0c-4.697 0-8.52-3.822-8.52-8.52 0-4.697 3.823-8.518 8.52-8.518 4.696 0 8.52 3.821 8.52 8.518C8.52-3.822 4.696 0 0 0m0-18.712c-5.621 0-10.193 4.572-10.193 10.192C-10.193-2.898-5.621 1.674 0 1.674c5.62 0 10.193-4.572 10.193-10.194 0-5.62-4.573-10.192-10.193-10.192" style="fill:#0099df;fill-opacity:1;fill-rule:nonzero;stroke:none" transform="translate(37.019 18.8)"/><path d="M0 0v-2.212a.22.22 0 0 1 .147-.05H21.33c.092 0 .143.045.15.06L21.479.007c-.006.005-.057.05-.149.05H.147C.062.057.012.018 0 0m21.33-3.937H.147c-1.004 0-1.822.773-1.822 1.725V.007c0 .951.818 1.725 1.822 1.725H21.33c1.006 0 1.822-.774 1.822-1.725v-2.219c0-.952-.816-1.725-1.822-1.725" style="fill:#0099df;fill-opacity:1;fill-rule:nonzero;stroke:none" transform="translate(10.026 26.938)"/><path d="M0 0h-14.286a.837.837 0 1 0 0 1.674H0A.837.837 0 1 0 0 0" style="fill:#0099df;fill-opacity:1;fill-rule:nonzero;stroke:none" transform="translate(24.46 17.27)"/><path d="M0 0h-12.315a.837.837 0 1 0 0 1.674H0A.837.837 0 1 0 0 0" style="fill:#0099df;fill-opacity:1;fill-rule:nonzero;stroke:none" transform="translate(22.489 12.208)"/><path d="M0 0h-12.314a.838.838 0 1 0 0 1.675H0A.838.838 0 0 0 0 0" style="fill:#0099df;fill-opacity:1;fill-rule:nonzero;stroke:none" transform="translate(22.488 7.286)"/><path d="M0 0h1.82v2.658c0 .463.374.837.837.837h2.658v1.82H2.657a.837.837 0 0 0-.837.838v2.659H0V6.153a.838.838 0 0 0-.838-.838h-2.658v-1.82h2.658A.837.837 0 0 0 0 2.658Zm2.075-1.674H-.256a1.42 1.42 0 0 0-1.419 1.42v2.075H-3.75A1.42 1.42 0 0 0-5.17 3.24v2.33c0 .784.637 1.42 1.42 1.42h2.075v2.075c0 .784.636 1.42 1.419 1.42h2.331a1.42 1.42 0 0 0 1.419-1.42V6.99h2.075a1.42 1.42 0 0 0 1.42-1.42V3.24a1.42 1.42 0 0 0-1.42-1.419H3.494V-.254a1.42 1.42 0 0 0-1.419-1.42" style="fill:#0099df;fill-opacity:1;fill-rule:nonzero;stroke:none" transform="translate(36.108 5.876)"/></g></svg>