<svg xmlns="http://www.w3.org/2000/svg" width="66.667" height="66.667"><defs><clipPath id="a" clipPathUnits="userSpaceOnUse"><path d="M0 50h50V0H0Z"/></clipPath></defs><g clip-path="url(#a)" transform="matrix(1.33333 0 0 -1.33333 0 66.667)"><path d="M0 0a3.85 3.85 0 0 1 .648 2.139 3.849 3.849 0 0 1-1.297 2.87c1.817-.972 2.652-2.676 2.652-2.676S1.252 1.059 0 0m-8.45 2.243s.815 1.95 2.822 2.906c-.888-.71-1.468-1.788-1.468-3.01 0-.954.361-1.818.935-2.493C-7.602.72-8.45 2.243-8.45 2.243m5.226-2.63a2.526 2.526 0 1 0 .002 5.052 2.526 2.526 0 0 0-.002-5.052m6.752 2.661-.314.647c-.081.168-2.039 4.095-6.5 4.095h-.005l-.052-.001c-4.54-.035-6.279-4.081-6.35-4.254l-.25-.601.315-.569c.098-.177 2.441-4.329 6.296-4.329h.008l.053.001c3.848.043 6.333 4.213 6.436 4.39z" style="fill:#0099df;fill-opacity:1;fill-rule:nonzero;stroke:none" transform="translate(39.382 11.477)"/><path d="M0 0a1.248 1.248 0 1 1 .002-2.496A1.248 1.248 0 0 1 0 0" style="fill:#0099df;fill-opacity:1;fill-rule:nonzero;stroke:none" transform="translate(36.158 14.863)"/><path d="M0 0a.827.827 0 0 1 .861.771.816.816 0 0 1-.77.861 3.405 3.405 0 0 1-2.076-.561 3.456 3.456 0 0 1-2.076.561A.818.818 0 1 1-3.968 0c.411.024.813-.105 1.167-.354v-5.71a1.844 1.844 0 0 0-1.168-.356.833.833 0 0 1-.861-.772.818.818 0 0 1 .772-.861 3.455 3.455 0 0 1 2.074.563 3.458 3.458 0 0 1 2.075-.563.817.817 0 1 1-.09 1.633 1.825 1.825 0 0 0-1.167.356v5.711C-.815-.104-.418.026 0 0" style="fill:#0099df;fill-opacity:1;fill-rule:nonzero;stroke:none" transform="translate(10.332 32.405)"/><path d="M0 0a.889.889 0 1 1-1.778 0A.889.889 0 0 1 0 0" style="fill:#0099df;fill-opacity:1;fill-rule:nonzero;stroke:none" transform="translate(14.407 25.21)"/><path d="M0 0a.889.889 0 1 1 0 1.778A.889.889 0 0 1 0 0" style="fill:#0099df;fill-opacity:1;fill-rule:nonzero;stroke:none" transform="translate(15.915 24.322)"/><path d="M0 0a.889.889 0 1 1-1.778 0A.889.889 0 0 1 0 0" style="fill:#0099df;fill-opacity:1;fill-rule:nonzero;stroke:none" transform="translate(19.155 25.21)"/><path d="M0 0h7.978a.816.816 0 1 1 0 1.634H0A.817.817 0 1 1 0 0" style="fill:#0099df;fill-opacity:1;fill-rule:nonzero;stroke:none" transform="translate(6.317 18.464)"/><path d="M0 0h-4.686a.817.817 0 1 1 0-1.634H0A.817.817 0 1 1 0 0" style="fill:#0099df;fill-opacity:1;fill-rule:nonzero;stroke:none" transform="translate(21.962 20.098)"/><path d="M0 0h-15.645a.817.817 0 1 1 0-1.635H0A.817.817 0 1 1 0 0" style="fill:#0099df;fill-opacity:1;fill-rule:nonzero;stroke:none" transform="translate(21.962 14.535)"/><path d="M0 0c0 4.585 3.73 8.315 8.315 8.315 4.585 0 8.316-3.73 8.316-8.315 0-4.585-3.731-8.315-8.316-8.315C3.73-8.315 0-4.585 0 0m21.462-11.967-5.57 5.533A9.9 9.9 0 0 1 18.266 0c0 5.486-4.463 9.949-9.951 9.949-5.486 0-9.949-4.463-9.949-9.949s4.463-9.949 9.949-9.949c2.447 0 4.686.89 6.42 2.36l5.576-5.539a.817.817 0 0 1 1.151 1.161" style="fill:#0099df;fill-opacity:1;fill-rule:nonzero;stroke:none" transform="translate(27.843 13.616)"/><path d="M0 0c.333-.334.589-.723.778-1.14H-5.06a3.857 3.857 0 0 0-3.853 3.852v5.84a3.843 3.843 0 0 0 1.142-.779zm-4.34-31.754h-24.762a2.065 2.065 0 0 0-2.063 2.063V6.626A2.276 2.276 0 0 0-28.891 8.9h18.343V2.712A5.495 5.495 0 0 1-5.06-2.775h6.189v-4.606a.816.816 0 1 1 1.634 0v4.655c0 .248-.039.489-.072.731.001.013.008.024.008.037 0 .038-.016.071-.022.107a5.444 5.444 0 0 1-1.521 3.007l-7.772 7.773a5.434 5.434 0 0 1-3.011 1.522c-.036.005-.067.021-.103.021-.013 0-.023-.007-.036-.008-.241.032-.48.071-.727.071h-13.862v.543c0 1.183.963 2.146 2.146 2.146h17.633c.975 0 1.894-.38 2.584-1.07l7.449-7.451a3.637 3.637 0 0 0 1.072-2.589V-8.034a.817.817 0 1 1 1.635 0V2.114a5.258 5.258 0 0 1-1.551 3.745L-.836 13.31a5.254 5.254 0 0 1-3.74 1.549h-17.633a3.785 3.785 0 0 1-3.781-3.781v-.543h-2.901A3.913 3.913 0 0 1-32.8 6.626v-36.317a3.702 3.702 0 0 1 3.698-3.698H-4.34a.817.817 0 1 1 0 1.635" style="fill:#0099df;fill-opacity:1;fill-rule:nonzero;stroke:none" transform="translate(33.254 34.89)"/><path d="M0 0a.817.817 0 1 1 0-1.634h5.007a.817.817 0 1 1 0 1.634Z" style="fill:#0099df;fill-opacity:1;fill-rule:nonzero;stroke:none" transform="translate(6.317 8.986)"/><path d="M0 0h-7.607a.817.817 0 1 1 0-1.634H0A.817.817 0 1 1 0 0" style="fill:#0099df;fill-opacity:1;fill-rule:nonzero;stroke:none" transform="translate(21.962 8.986)"/></g></svg>