<svg xmlns="http://www.w3.org/2000/svg" width="66.667" height="66.667"><defs><clipPath id="a" clipPathUnits="userSpaceOnUse"><path d="M0 50h50V0H0Z"/></clipPath></defs><g clip-path="url(#a)" transform="matrix(1.33333 0 0 -1.33333 0 66.667)"><path d="M0 0c-.413 0-.741-.312-.741-.665v-6.037c0-.405.371-.717.794-.717h2.986c.402 0 .721.291.721.665 0 .363-.339.645-.721.645H.741v5.444C.741-.312.402 0 0 0" style="fill:#0099df;fill-opacity:1;fill-rule:nonzero;stroke:none" transform="translate(8.13 31.485)"/><path d="M0 0c-.466 0-.826-.321-.826-.727 0-.395.36-.727.826-.727.466 0 .826.322.826.727C.826-.332.466 0 0 0" style="fill:#0099df;fill-opacity:1;fill-rule:nonzero;stroke:none" transform="translate(13.496 31.485)"/><path d="M0 0c-.413 0-.73-.291-.73-.634v-4.095c0-.363.317-.643.73-.643s.73.28.73.643v4.095C.73-.291.413 0 0 0" style="fill:#0099df;fill-opacity:1;fill-rule:nonzero;stroke:none" transform="translate(13.496 29.366)"/><path d="M0 0c-.466 0-.73-.28-.73-.634v-4.032c0-1.413.423-2.203 2.065-2.203.529 0 1.017.084 1.017.686 0 .384-.202.561-.87.561-.02 0-.084-.01-.179-.01-.508 0-.573.27-.573 1.039v1.569h.785c.391 0 .699.259.699.613 0 .353-.308.624-.699.624H.73v1.153C.73-.291.466 0 0 0" style="fill:#0099df;fill-opacity:1;fill-rule:nonzero;stroke:none" transform="translate(16.364 30.893)"/><path d="M0 0c.339 0 .614-.083.879-.249l.105-.063c.138-.083.212-.156.456-.156.403 0 .699.291.699.624 0 .603-1.07 1.112-2.192 1.112-1.853 0-2.7-1.081-2.7-2.722v-2.058c0-1.642.847-2.722 2.7-2.722 1.122 0 2.192.508 2.192 1.111 0 .333-.296.624-.699.624-.244 0-.318-.073-.456-.156l-.105-.063A1.58 1.58 0 0 0 0-4.967c-.953 0-1.271.562-1.271 1.455v2.058C-1.271-.561-.953 0 0 0" style="fill:#0099df;fill-opacity:1;fill-rule:nonzero;stroke:none" transform="translate(21.848 30.218)"/><path d="M0 0c0 .426.286.696.837.696.551 0 .837-.27.837-.696v-1.559c0-.436-.286-.707-.837-.707-.551 0-.837.271-.837.707Zm.837-3.491c1.504 0 2.298.841 2.298 1.932v1.548c0 1.091-.794 1.933-2.298 1.933S-1.461 1.08-1.461-.011v-1.548c0-1.091.794-1.932 2.298-1.932" style="fill:#0099df;fill-opacity:1;fill-rule:nonzero;stroke:none" transform="translate(26.176 27.485)"/><path d="M0 0c.444 0 .667.187.837.634l1.45 3.937a.552.552 0 0 1 .022.177c0 .374-.339.624-.72.624-.286 0-.594-.177-.689-.447L.35 3.189C.18 2.629.116 2.047 0 1.475c-.116.572-.18 1.154-.36 1.714l-.582 1.747c-.096.269-.392.446-.678.446-.382 0-.72-.249-.72-.623 0-.052 0-.104.021-.177L-.848.612C-.688.187-.466 0 0 0" style="fill:#0099df;fill-opacity:1;fill-rule:nonzero;stroke:none" transform="translate(32.263 23.994)"/><path d="M0 0c-.414 0-.731-.291-.731-.634v-4.095c0-.363.317-.643.731-.643.412 0 .73.28.73.643v4.095C.73-.291.412 0 0 0" style="fill:#0099df;fill-opacity:1;fill-rule:nonzero;stroke:none" transform="translate(36.18 29.366)"/><path d="M0 0c-.466 0-.827-.321-.827-.727 0-.395.361-.727.827-.727.465 0 .826.322.826.727C.826-.332.465 0 0 0" style="fill:#0099df;fill-opacity:1;fill-rule:nonzero;stroke:none" transform="translate(36.18 31.485)"/><path d="M0 0c-.455 0-.689.291-.689.831v1.174c0 .644.191.967.71.967.18 0 .444-.042.774-.135V.415c0-.061.01-.124.02-.197C.486.072.223 0 0 0m1.526 6.37c-.467 0-.731-.281-.731-.635V3.959c-.383.156-.606.197-.934.197-1.513 0-2.011-.914-2.011-2.151V.831c0-1.216.711-2.036 1.937-2.036.541 0 .975.176 1.495.457.158-.229.371-.396.635-.396.328 0 .689.219.689.634 0 .146-.043.25-.148.354-.139.135-.202.208-.202.364v5.527c0 .344-.265.635-.73.635" style="fill:#0099df;fill-opacity:1;fill-rule:nonzero;stroke:none" transform="translate(40.265 25.199)"/><path d="M0 0h4.731a.85.85 0 1 1 0 1.699H0A.85.85 0 1 1 0 0" style="fill:#0099df;fill-opacity:1;fill-rule:nonzero;stroke:none" transform="translate(6.065 7.132)"/><path d="M0 0h4.731a.85.85 0 1 1 0 1.699H0A.85.85 0 1 1 0 0" style="fill:#0099df;fill-opacity:1;fill-rule:nonzero;stroke:none" transform="translate(6.065 4.502)"/><path d="M0 0h4.731a.85.85 0 1 1 0 1.699H0A.85.85 0 1 1 0 0" style="fill:#0099df;fill-opacity:1;fill-rule:nonzero;stroke:none" transform="translate(22.509 7.132)"/><path d="M0 0h4.731a.85.85 0 1 1 0 1.699H0A.85.85 0 1 1 0 0" style="fill:#0099df;fill-opacity:1;fill-rule:nonzero;stroke:none" transform="translate(22.509 4.502)"/><path d="M0 0a.098.098 0 0 0-.098-.098h-9.113A.099.099 0 0 0-9.31 0v6.357c0 .059.049.108.107.108h9.097A.108.108 0 0 0 0 6.357Zm-16.514 6.357V0a.098.098 0 0 0-.098-.098h-9.113a.098.098 0 0 0-.098.098v6.357c0 .059.048.108.107.108h9.095a.108.108 0 0 0 .107-.108m-16.444 0V0a.097.097 0 0 0-.097-.098h-9.113a.098.098 0 0 0-.098.098v6.357c0 .059.048.108.107.108h9.095a.107.107 0 0 0 .106-.108M-.106 8.164h-1.17a5.24 5.24 0 0 1-5.233 5.212h-28.925a5.24 5.24 0 0 1-5.234-5.212h-1.491c-.997 0-1.807-.81-1.807-1.807V0a1.8 1.8 0 0 1 1.798-1.797h9.113A1.8 1.8 0 0 1-31.257 0v6.357c0 .997-.811 1.807-1.807 1.807h-5.904a3.539 3.539 0 0 0 3.534 3.513h13.577V8.42a.81.81 0 0 1 .052-.256h-3.911c-.996 0-1.807-.81-1.807-1.807V0a1.8 1.8 0 0 1 1.798-1.797h9.113A1.8 1.8 0 0 1-14.814 0v6.357c0 .997-.811 1.807-1.807 1.807h-3.587a.838.838 0 0 1 .051.256v3.257h13.648a3.538 3.538 0 0 0 3.533-3.513h-6.227c-.996 0-1.807-.81-1.807-1.807V0a1.8 1.8 0 0 1 1.799-1.797h9.113c.992 0 1.797.806 1.797 1.797v6.357c0 .997-.809 1.807-1.805 1.807" style="fill:#0099df;fill-opacity:1;fill-rule:nonzero;stroke:none" transform="translate(46.042 3.426)"/><path d="M0 0h-4.731a.85.85 0 1 1 0-1.699H0A.85.85 0 1 1 0 0" style="fill:#0099df;fill-opacity:1;fill-rule:nonzero;stroke:none" transform="translate(43.753 8.83)"/><path d="M0 0h-4.731a.85.85 0 1 1 0-1.699H0A.85.85 0 1 1 0 0" style="fill:#0099df;fill-opacity:1;fill-rule:nonzero;stroke:none" transform="translate(43.753 6.201)"/><path d="M0 0v6.34c0 .64.521 1.162 1.161 1.162h41.108c.641 0 1.162-.522 1.162-1.162V0Zm42.269 9.201H1.161A2.864 2.864 0 0 1-1.7 6.34v-25.861a2.864 2.864 0 0 1 2.861-2.862.85.85 0 1 1 0 1.699c-.64 0-1.161.522-1.161 1.163v17.822h43.431v-17.822c0-.641-.521-1.163-1.162-1.163a.848.848 0 1 1 0-1.699 2.864 2.864 0 0 1 2.861 2.862V6.34a2.864 2.864 0 0 1-2.861 2.861" style="fill:#0099df;fill-opacity:1;fill-rule:nonzero;stroke:none" transform="translate(3.285 39.17)"/><path d="M0 0a.642.642 0 1 0 .001 1.283A.642.642 0 0 0 0 0m0 2.981A2.343 2.343 0 0 1-2.341.641c0-1.29 1.05-2.34 2.341-2.34A2.343 2.343 0 0 1 2.341.641c0 1.291-1.05 2.34-2.341 2.34" style="fill:#0099df;fill-opacity:1;fill-rule:nonzero;stroke:none" transform="translate(8.365 42.037)"/><path d="M0 0a.642.642 0 1 0 .001 1.283A.642.642 0 0 0 0 0m0 2.981A2.343 2.343 0 0 1-2.341.641c0-1.29 1.05-2.34 2.341-2.34A2.343 2.343 0 0 1 2.341.641c0 1.291-1.05 2.34-2.341 2.34" style="fill:#0099df;fill-opacity:1;fill-rule:nonzero;stroke:none" transform="translate(14.206 42.037)"/><path d="M0 0a.641.641 0 1 0 .003 1.283A.641.641 0 0 0 0 0m0 2.981A2.342 2.342 0 0 1-2.34.641c0-1.29 1.049-2.34 2.34-2.34A2.343 2.343 0 0 1 2.341.641c0 1.291-1.05 2.34-2.341 2.34" style="fill:#0099df;fill-opacity:1;fill-rule:nonzero;stroke:none" transform="translate(19.98 42.037)"/></g></svg>