<svg xmlns="http://www.w3.org/2000/svg" width="66.667" height="66.667"><defs><clipPath id="a" clipPathUnits="userSpaceOnUse"><path d="M0 50h50V0H0Z"/></clipPath></defs><g clip-path="url(#a)" transform="matrix(1.33333 0 0 -1.33333 0 66.667)"><path d="M0 0h.554a.8.8 0 0 1 0 1.6H0a5.385 5.385 0 0 1-5.379-5.379v-26.123A5.384 5.384 0 0 1 0-35.281h.554a.799.799 0 1 1 0 1.598H0a3.785 3.785 0 0 0-3.779 3.781v12.261h3.487a.8.8 0 0 1 0 1.6h-3.487v12.262A3.783 3.783 0 0 0 0 0" style="fill:#0099df;fill-opacity:1;fill-rule:nonzero;stroke:none" transform="translate(36.39 41.81)"/><path d="M0 0a.191.191 0 0 0-.19-.19h-7.515a.191.191 0 0 0-.19.19v9.277a.19.19 0 0 0 .19.191h4.23a.8.8 0 0 0 .57-.237.783.783 0 0 1 .081-.07l2.618-1.988A.803.803 0 0 0 0 6.636Zm.812 8.407-2.629 1.998a2.393 2.393 0 0 1-1.658.662h-4.23a1.79 1.79 0 0 1-1.788-1.79V0a1.79 1.79 0 0 1 1.788-1.789H-.19c.986 0 1.789.802 1.789 1.789v6.636c0 .642-.25 1.246-.705 1.7a.624.624 0 0 1-.082.071" style="fill:#0099df;fill-opacity:1;fill-rule:nonzero;stroke:none" transform="translate(48.401 2.62)"/><path d="M0 0h-4.939a.798.798 0 1 1 0-1.599H0A.8.8 0 1 1 0 0" style="fill:#0099df;fill-opacity:1;fill-rule:nonzero;stroke:none" transform="translate(46.923 8.664)"/><path d="M0 0h-4.939a.798.798 0 1 1 0-1.599H0A.8.8 0 1 1 0 0" style="fill:#0099df;fill-opacity:1;fill-rule:nonzero;stroke:none" transform="translate(46.923 5.799)"/><path d="M0 0a.19.19 0 0 0-.19-.188h-7.515a.19.19 0 0 0-.19.188v9.279c0 .105.086.19.19.19h4.23a.8.8 0 0 0 .57-.237.783.783 0 0 1 .081-.07l2.619-1.989A.802.802 0 0 0 0 6.637Zm.812 8.409-2.629 1.997a2.398 2.398 0 0 1-1.658.662h-4.23a1.79 1.79 0 0 1-1.788-1.789V0a1.79 1.79 0 0 1 1.788-1.788H-.19c.986 0 1.789.803 1.789 1.788v6.637c0 .643-.25 1.247-.705 1.701a.803.803 0 0 1-.082.071" style="fill:#0099df;fill-opacity:1;fill-rule:nonzero;stroke:none" transform="translate(48.401 20.33)"/><path d="M0 0h-4.939a.799.799 0 1 1 0-1.6H0A.8.8 0 1 1 0 0" style="fill:#0099df;fill-opacity:1;fill-rule:nonzero;stroke:none" transform="translate(46.923 26.375)"/><path d="M0 0h-4.939a.799.799 0 1 1 0-1.599H0A.8.8 0 1 1 0 0" style="fill:#0099df;fill-opacity:1;fill-rule:nonzero;stroke:none" transform="translate(46.923 23.509)"/><path d="M0 0a.19.19 0 0 0-.19-.189h-7.515a.19.19 0 0 0-.19.189v9.278c0 .105.086.19.19.19h4.231a.801.801 0 0 0 .569-.236.791.791 0 0 1 .081-.071l2.619-1.989A.8.8 0 0 0 0 6.636Zm.894 8.337a.803.803 0 0 1-.082.071l-2.629 1.998a2.391 2.391 0 0 1-1.656.662h-4.232a1.791 1.791 0 0 1-1.788-1.79V0a1.79 1.79 0 0 1 1.788-1.789H-.19c.986 0 1.789.803 1.789 1.789v6.636c0 .643-.25 1.247-.705 1.701" style="fill:#0099df;fill-opacity:1;fill-rule:nonzero;stroke:none" transform="translate(48.401 38.102)"/><path d="M0 0h-4.939a.799.799 0 1 1 0-1.6H0A.8.8 0 0 1 0 0" style="fill:#0099df;fill-opacity:1;fill-rule:nonzero;stroke:none" transform="translate(46.923 44.147)"/><path d="M0 0h-4.939a.799.799 0 1 1 0-1.6H0A.8.8 0 1 1 0 0" style="fill:#0099df;fill-opacity:1;fill-rule:nonzero;stroke:none" transform="translate(46.923 41.28)"/><path d="M0 0h-8.455c-.695 0-1.26.565-1.26 1.26v26.755c0 .777.632 1.411 1.411 1.411h13.94a2.52 2.52 0 0 0 1.794-.743l5.557-5.558a2.56 2.56 0 0 0 .744-1.797v-7.785a.8.8 0 0 1 1.6 0v7.785a4.17 4.17 0 0 1-1.212 2.927l-5.557 5.559a4.113 4.113 0 0 1-2.926 1.212h-13.94a3.015 3.015 0 0 1-3.011-3.011V1.26a2.862 2.862 0 0 1 2.86-2.859H0A.8.8 0 0 1 0 0" style="fill:#0099df;fill-opacity:1;fill-rule:nonzero;stroke:none" transform="translate(11.315 10.36)"/><path d="M0 0c.317 0 .595.256.605.56l.086 3.534c0 .34-.323.638-.691.638-.375 0-.691-.292-.691-.64l.086-3.53C-.605.247-.339 0 0 0" style="fill:#0099df;fill-opacity:1;fill-rule:nonzero;stroke:none" transform="translate(22.171 11.64)"/><path d="M0 0c-.447 0-.811-.331-.811-.739 0-.411.364-.746.811-.746.435 0 .802.341.802.746C.802-.339.435 0 0 0" style="fill:#0099df;fill-opacity:1;fill-rule:nonzero;stroke:none" transform="translate(22.189 10.866)"/><path d="M0 0a.931.931 0 0 0-.796-.442h-8.265A.93.93 0 0 0-9.856 0a.928.928 0 0 0-.04.911l4.131 8.264c.16.319.481.517.837.517a.932.932 0 0 0 .837-.517L.04.911.041.91A.929.929 0 0 0 0 0m-2.661 9.891a2.522 2.522 0 0 1-2.267 1.401A2.52 2.52 0 0 1-7.195 9.89l-4.132-8.263a2.515 2.515 0 0 1 .11-2.467 2.517 2.517 0 0 1 2.156-1.202h8.265c.886 0 1.692.449 2.157 1.202.465.753.507 1.675.111 2.466z" style="fill:#0099df;fill-opacity:1;fill-rule:nonzero;stroke:none" transform="translate(27.112 8.85)"/><path d="M0 0a.797.797 0 0 1-1.13-.024l-2.084-2.172-2.09 2.178a.798.798 0 1 1-1.154-1.106l2.292-2.393c.248-.256.595-.405.952-.405s.703.149.951.406L.023-1.131A.799.799 0 0 1 0 0" style="fill:#0099df;fill-opacity:1;fill-rule:nonzero;stroke:none" transform="translate(16.538 21.321)"/><path d="M0 0a.797.797 0 0 1 1.042.441 4.732 4.732 0 0 1-.154 3.888 4.727 4.727 0 0 1-7.567 1.228l-.519-.519-.517.515a4.736 4.736 0 0 1-4.098 1.322 4.734 4.734 0 0 1-3.47-2.55 4.75 4.75 0 0 1-.226-3.691.8.8 0 0 1 1.508.535 3.14 3.14 0 0 0 .149 2.44 3.136 3.136 0 0 0 2.295 1.688 3.133 3.133 0 0 0 2.712-.877l1.083-1.079a.798.798 0 0 1 1.13.001l1.084 1.083a3.131 3.131 0 0 0 2.711.875A3.132 3.132 0 0 0-.542 3.613c.4-.802.438-1.74.101-2.571A.8.8 0 0 1 0 0" style="fill:#0099df;fill-opacity:1;fill-rule:nonzero;stroke:none" transform="translate(20.52 25.45)"/><path d="M0 0h4.51c.405 0 .768.224.948.585l.586 1.171.778-2.592c.136-.418.507-.704.946-.731l.062-.001c.41 0 .793.243.972.636L9.496.687l.219-.328a.8.8 0 0 1 .665-.355h5.19a.799.799 0 1 1 0 1.599h-4.761l-.538.805a1.06 1.06 0 0 1-1.853-.174L7.92 1.07l-.731 2.434a1.066 1.066 0 0 1-.929.767 1.064 1.064 0 0 1-1.04-.585L4.177 1.6H0A.801.801 0 0 1 0 0" style="fill:#0099df;fill-opacity:1;fill-rule:nonzero;stroke:none" transform="translate(5.538 22.878)"/></g></svg>