<svg width="60" height="51" fill="none" xmlns="http://www.w3.org/2000/svg"><g clip-path="url(#a)" stroke="#FF8A00" stroke-width="2.5" stroke-linecap="round" stroke-linejoin="round"><path d="M22.62 39.455h-8.842c-5.328 0-10.06-3.387-11.748-8.436a12.368 12.368 0 0 1 4.301-13.816 12.384 12.384 0 0 1 14.463-.292C22.659 7.028 31.882.291 41.854 1.548 51.837 2.79 59.12 11.583 58.484 21.63"/><path d="M42.78 34.216c7.078 0 12.825-2.297 12.825-5.126s-5.747-5.125-12.826-5.125c-7.079 0-12.826 2.296-12.826 5.125 0 2.83 5.747 5.126 12.826 5.126Z"/><path d="M29.953 29.078v7.7c0 2.83 5.747 5.126 12.826 5.126 7.08 0 12.826-2.297 12.826-5.126v-7.7"/><path d="M29.953 36.778v7.701c0 2.83 5.747 5.126 12.826 5.126 7.08 0 12.826-2.297 12.826-5.126v-7.7"/></g><defs><clipPath id="a"><path fill="#fff" d="M0 0h59.931v51H0z"/></clipPath></defs></svg>