<?xml version="1.0" encoding="UTF-8" standalone="no"?>
<!-- Created with Inkscape (http://www.inkscape.org/) -->

<svg
   version="1.1"
   id="svg25"
   width="66.666664"
   height="66.666664"
   viewBox="0 0 66.666664 66.666664"
   sodipodi:docname="OPIOID.svg"
   inkscape:version="1.2 (dc2aeda, 2022-05-15)"
   xmlns:inkscape="http://www.inkscape.org/namespaces/inkscape"
   xmlns:sodipodi="http://sodipodi.sourceforge.net/DTD/sodipodi-0.dtd"
   xmlns="http://www.w3.org/2000/svg"
   xmlns:svg="http://www.w3.org/2000/svg">
  <defs
     id="defs29">
    <clipPath
       clipPathUnits="userSpaceOnUse"
       id="clipPath41">
      <path
         d="M 0,50 H 50 V 0 H 0 Z"
         id="path39" />
    </clipPath>
  </defs>
  <sodipodi:namedview
     id="namedview27"
     pagecolor="#ffffff"
     bordercolor="#000000"
     borderopacity="0.25"
     inkscape:showpageshadow="2"
     inkscape:pageopacity="0.0"
     inkscape:pagecheckerboard="0"
     inkscape:deskcolor="#d1d1d1"
     showgrid="false"
     inkscape:zoom="3.5400001"
     inkscape:cx="33.192089"
     inkscape:cy="33.333332"
     inkscape:window-width="1663"
     inkscape:window-height="456"
     inkscape:window-x="0"
     inkscape:window-y="25"
     inkscape:window-maximized="0"
     inkscape:current-layer="g33">
    <inkscape:page
       x="0"
       y="0"
       id="page31"
       width="66.666664"
       height="66.666664" />
  </sodipodi:namedview>
  <g
     id="g33"
     inkscape:groupmode="layer"
     inkscape:label="Page 1"
     transform="matrix(1.3333333,0,0,-1.3333333,0,66.666667)">
    <g
       id="g35">
      <g
         id="g37"
         clip-path="url(#clipPath41)">
        <g
           id="g43"
           transform="translate(38.3594,25.9448)">
          <path
             d="m 0,0 h -13.615 c -0.43,0 -0.779,-0.349 -0.779,-0.78 0,-0.43 0.349,-0.779 0.779,-0.779 H 0 c 0.432,0 0.779,0.349 0.779,0.779 C 0.779,-0.349 0.432,0 0,0"
             style="fill:#0099df;fill-opacity:1;fill-rule:nonzero;stroke:none"
             id="path45" />
        </g>
        <g
           id="g47"
           transform="translate(38.3594,21.373)">
          <path
             d="m 0,0 h -7.615 c -0.431,0 -0.78,-0.349 -0.78,-0.779 0,-0.431 0.349,-0.78 0.78,-0.78 H 0 c 0.432,0 0.779,0.349 0.779,0.78 C 0.779,-0.349 0.432,0 0,0"
             style="fill:#0099df;fill-opacity:1;fill-rule:nonzero;stroke:none"
             id="path49" />
        </g>
        <g
           id="g51"
           transform="translate(47.2676,46.8638)">
          <path
             d="m 0,0 h -35.324 c -1.491,0 -2.703,-1.244 -2.703,-2.772 0,-0.431 0.349,-0.78 0.779,-0.78 0.43,0 0.78,0.349 0.78,0.78 0,0.668 0.513,1.213 1.144,1.213 H 0 c 0.631,0 1.144,-0.545 1.144,-1.213 v -29.301 c 0,-0.669 -0.513,-1.214 -1.144,-1.214 -0.431,0 -0.779,-0.348 -0.779,-0.779 0,-0.431 0.348,-0.779 0.779,-0.779 1.49,0 2.702,1.243 2.702,2.772 V -2.772 C 2.702,-1.244 1.49,0 0,0"
             style="fill:#0099df;fill-opacity:1;fill-rule:nonzero;stroke:none"
             id="path53" />
        </g>
        <g
           id="g55"
           transform="translate(4.147,32.4448)">
          <path
             d="M 0,0 V 6.23 C 0,6.824 0.483,7.307 1.077,7.307 H 37 c 0.594,0 1.078,-0.483 1.078,-1.077 V 0 Z M 37,8.866 H 1.077 c -1.454,0 -2.636,-1.183 -2.636,-2.636 V -6.116 c 0,-0.43 0.349,-0.78 0.779,-0.78 0.43,0 0.78,0.35 0.78,0.78 v 4.557 h 38.078 v -20.113 c 0,-0.669 -0.514,-1.214 -1.145,-1.214 H 26.525 c -0.431,0 -0.779,-0.348 -0.779,-0.779 0,-0.431 0.348,-0.779 0.779,-0.779 h 10.408 c 1.49,0 2.703,1.243 2.703,2.772 V 6.23 c 0,1.453 -1.182,2.636 -2.636,2.636"
             style="fill:#0099df;fill-opacity:1;fill-rule:nonzero;stroke:none"
             id="path57" />
        </g>
        <g
           id="g59"
           transform="translate(25.6997,35.3042)">
          <path
             d="m 0,0 c -0.364,0 -0.66,0.296 -0.66,0.661 0,0.363 0.296,0.66 0.66,0.66 0.365,0 0.661,-0.297 0.661,-0.66 C 0.661,0.296 0.365,0 0,0 m 0,2.88 c -1.224,0 -2.219,-0.996 -2.219,-2.219 0,-1.224 0.995,-2.22 2.219,-2.22 1.224,0 2.219,0.996 2.219,2.22 C 2.219,1.884 1.224,2.88 0,2.88"
             style="fill:#0099df;fill-opacity:1;fill-rule:nonzero;stroke:none"
             id="path61" />
        </g>
        <g
           id="g63"
           transform="translate(31.3418,35.3042)">
          <path
             d="m 0,0 c -0.364,0 -0.661,0.296 -0.661,0.661 0,0.363 0.297,0.66 0.661,0.66 0.364,0 0.661,-0.297 0.661,-0.66 C 0.661,0.296 0.364,0 0,0 m 0,2.88 c -1.225,0 -2.22,-0.996 -2.22,-2.219 0,-1.224 0.995,-2.22 2.22,-2.22 1.224,0 2.219,0.996 2.219,2.22 C 2.219,1.884 1.224,2.88 0,2.88"
             style="fill:#0099df;fill-opacity:1;fill-rule:nonzero;stroke:none"
             id="path65" />
        </g>
        <g
           id="g67"
           transform="translate(36.9199,35.3042)">
          <path
             d="m 0,0 c -0.363,0 -0.66,0.296 -0.66,0.661 0,0.363 0.297,0.66 0.66,0.66 0.364,0 0.661,-0.297 0.661,-0.66 C 0.661,0.296 0.364,0 0,0 m 0,2.88 c -1.224,0 -2.219,-0.996 -2.219,-2.219 0,-1.224 0.995,-2.22 2.219,-2.22 1.224,0 2.219,0.996 2.219,2.22 C 2.219,1.884 1.224,2.88 0,2.88"
             style="fill:#0099df;fill-opacity:1;fill-rule:nonzero;stroke:none"
             id="path69" />
        </g>
        <g
           id="g71"
           transform="translate(15.6675,20.083)">
          <path
             d="m 0,0 c 0,-1.105 -0.271,-2.216 -0.784,-3.209 -0.182,-0.354 -0.069,-0.788 0.263,-1.007 0.332,-0.219 0.776,-0.154 1.03,0.154 0.011,0.011 1.099,1.324 1.741,1.935 C 3.607,-0.8 5.358,0.061 7.254,0.346 7.178,-0.098 7.064,-0.534 6.915,-0.961 6.772,-1.367 6.987,-1.812 7.393,-1.954 7.8,-2.101 8.244,-1.883 8.386,-1.477 8.686,-0.622 8.864,0.269 8.915,1.172 8.928,1.393 8.846,1.608 8.69,1.766 8.534,1.923 8.325,2.014 8.098,1.994 5.641,1.871 3.327,0.929 1.532,-0.664 1.55,-0.443 1.559,-0.222 1.56,0 1.557,2.558 0.414,4.993 -1.579,6.68 -1.868,6.926 -2.293,6.927 -2.584,6.682 -4.837,4.787 -5.931,2.06 -5.709,-0.655 c -1.797,1.59 -4.105,2.526 -6.554,2.649 -0.228,0.018 -0.436,-0.072 -0.592,-0.228 -0.156,-0.158 -0.238,-0.373 -0.226,-0.594 0.142,-2.496 1.236,-4.828 3.082,-6.576 -2.072,-0.165 -4.021,-1.086 -5.427,-2.584 -0.282,-0.3 -0.282,-0.768 0,-1.068 1.553,-1.654 3.769,-2.604 6.161,-2.604 h 0.023 c 0.212,0.022 0.422,0.048 0.632,0.079 -0.755,-0.995 -1.138,-2.222 -1.064,-3.472 0.023,-0.395 0.34,-0.711 0.736,-0.732 0.105,-0.006 0.209,-0.009 0.314,-0.009 1.185,0 2.351,0.362 3.313,1.036 0.353,0.246 0.439,0.733 0.193,1.085 -0.247,0.353 -0.733,0.442 -1.086,0.192 -0.554,-0.387 -1.203,-0.633 -1.878,-0.72 0.124,0.806 0.519,1.563 1.138,2.15 0.451,0.435 1.418,1.336 1.418,1.337 0.271,0.252 0.326,0.659 0.134,0.976 -0.192,0.315 -0.583,0.45 -0.928,0.328 -0.992,-0.356 -2.03,-0.591 -3.002,-0.695 h -0.007 c -1.624,0 -3.187,0.57 -4.396,1.584 1.209,1.014 2.771,1.584 4.385,1.584 h 0.003 c 0.69,-0.01 1.372,-0.124 2.025,-0.336 0.388,-0.125 0.805,0.067 0.961,0.442 0.156,0.375 -0.003,0.808 -0.365,0.993 -0.78,0.4 -1.498,0.902 -2.138,1.496 -1.369,1.269 -2.261,2.907 -2.566,4.688 1.897,-0.285 3.645,-1.143 4.988,-2.456 0.664,-0.689 1.293,-1.418 1.87,-2.168 0.25,-0.325 0.707,-0.402 1.047,-0.176 0.341,0.225 0.451,0.675 0.251,1.031 C -4.832,-0.62 -4.333,2.76 -2.085,5.025 -0.754,3.671 -0.001,1.874 0,0"
             style="fill:#0099df;fill-opacity:1;fill-rule:nonzero;stroke:none"
             id="path73" />
        </g>
        <g
           id="g75"
           transform="translate(20.5986,12.8291)">
          <path
             d="m 0,0 c -0.462,0 -0.854,-0.361 -0.854,-0.792 l 0.106,-3.453 c 0,-0.39 0.329,-0.695 0.748,-0.695 0.393,0 0.736,0.316 0.749,0.692 l 0.105,3.459 C 0.854,-0.369 0.455,0 0,0"
             style="fill:#0099df;fill-opacity:1;fill-rule:nonzero;stroke:none"
             id="path77" />
        </g>
        <g
           id="g79"
           transform="translate(20.6162,7.2295)">
          <path
             d="m 0,0 c -0.455,0 -0.825,-0.337 -0.825,-0.751 0,-0.419 0.37,-0.76 0.825,-0.76 0.442,0 0.816,0.348 0.816,0.76 C 0.816,-0.344 0.442,0 0,0"
             style="fill:#0099df;fill-opacity:1;fill-rule:nonzero;stroke:none"
             id="path81" />
        </g>
        <g
           id="g83"
           transform="translate(25.6528,5.1621)">
          <path
             d="m 0,0 c -0.178,-0.289 -0.498,-0.468 -0.837,-0.468 h -0.001 -8.407 -0.001 c -0.343,0 -0.655,0.175 -0.837,0.468 -0.178,0.287 -0.194,0.654 -0.042,0.958 l 4.203,8.405 c 0.168,0.336 0.505,0.545 0.881,0.545 0.375,0 0.713,-0.209 0.881,-0.545 L 0.043,0.958 c 0,-0.001 0,-0.001 0,-0.001 C 0.195,0.654 0.178,0.288 0,0 m -2.766,10.061 c -0.434,0.867 -1.305,1.405 -2.275,1.405 -0.97,0 -1.842,-0.538 -2.275,-1.405 l -4.203,-8.406 c -0.392,-0.781 -0.35,-1.73 0.111,-2.475 0.467,-0.755 1.275,-1.206 2.16,-1.206 h 0.004 8.405 0.004 c 0.873,0 1.702,0.462 2.161,1.206 0.461,0.746 0.503,1.694 0.111,2.475 z"
             style="fill:#0099df;fill-opacity:1;fill-rule:nonzero;stroke:none"
             id="path85" />
        </g>
      </g>
    </g>
  </g>
</svg>
