<svg width="66.667" height="66.667" xmlns="http://www.w3.org/2000/svg"><defs><clipPath clipPathUnits="userSpaceOnUse" id="a"><path d="M0 50h50V0H0Z"/></clipPath></defs><g clip-path="url(#a)" transform="matrix(1.33333 0 0 -1.33333 0 66.667)"><path d="M0 0h17.052c.323 0 .585-.319.585-.711v-8.645c0-.393-.262-.712-.585-.712H-.054V.011C-.035.01-.019 0 0 0m30.588-2.217c.344-.344.609-.744.798-1.177h-5.787A3.819 3.819 0 0 0 21.785.421v5.787a3.804 3.804 0 0 0 1.176-.796Zm-4.282-31.221h-24.3c-1.136 0-2.06.924-2.06 2.06v19.774h17.106c1.17 0 2.121 1.008 2.121 2.248v8.645c0 1.239-.951 2.248-2.121 2.248H0c-.019 0-.035-.01-.054-.012v2.737a2.27 2.27 0 0 0 2.267 2.266h18.036V.421c0-2.95 2.4-5.351 5.35-5.351h6.108v-5.458a.768.768 0 1 1 1.536 0v5.472c0 1.43-.558 2.774-1.568 3.786l-7.627 7.628a5.31 5.31 0 0 1-3.781 1.566H6.629v.567c0 1.18.96 2.14 2.141 2.14h17.304c.954 0 1.887-.386 2.56-1.061l7.311-7.311a3.608 3.608 0 0 0 1.062-2.565v-11.766a.767.767 0 1 1 1.535 0V-.166a5.13 5.13 0 0 1-1.511 3.651l-7.31 7.312a5.192 5.192 0 0 1-3.647 1.51H8.77a3.681 3.681 0 0 1-3.677-3.676v-.567h-2.88A3.807 3.807 0 0 1-1.59 4.262v-35.64a3.6 3.6 0 0 1 3.596-3.596h24.3a.768.768 0 1 1 0 1.536" style="fill:#0099df;fill-opacity:1;fill-rule:nonzero;stroke:none" transform="translate(3.293 36.6)"/><path d="M0 0h-.601v1.537H0c.178 0 .324-.022.436-.067a.659.659 0 0 0 .253-.17.55.55 0 0 0 .123-.238C.834.966.846.866.846.764.846.5.777.305.641.185.501.062.286 0 0 0m-1.269-3.268a.65.65 0 0 1 .472.191c.13.128.196.277.196.445v1.402H0c.325 0 .625.044.89.132.268.089.5.217.691.383.193.167.344.379.447.628.102.248.155.531.155.843 0 .261-.039.513-.115.749a1.714 1.714 0 0 1-.378.646c-.172.187-.4.338-.676.449-.275.111-.616.167-1.014.167h-1.203a.73.73 0 0 1-.515-.202.642.642 0 0 1-.219-.482v-4.715c0-.174.068-.326.202-.451a.666.666 0 0 1 .466-.185" style="fill:#0099df;fill-opacity:1;fill-rule:nonzero;stroke:none" transform="translate(7.325 31.773)"/><path d="M0 0h-.461v3.509H0c.212 0 .391-.027.531-.079a.846.846 0 0 0 .331-.213.869.869 0 0 0 .185-.317c.04-.125.06-.262.06-.409V1.083c0-.154-.019-.299-.057-.432A.882.882 0 0 0 .869.315.88.88 0 0 0 .533.087 1.461 1.461 0 0 0 0 0m-1.064-1.23h.924c.473 0 .879.064 1.205.191.329.127.6.3.804.513.206.214.355.465.444.746.087.276.131.567.131.863v1.408c0 .293-.044.577-.131.844-.09.273-.239.517-.445.726a2.172 2.172 0 0 1-.804.497c-.325.12-.73.181-1.204.181h-.924a.73.73 0 0 1-.515-.201.642.642 0 0 1-.219-.483v-4.6c0-.185.074-.348.218-.484a.734.734 0 0 1 .516-.201" style="fill:#0099df;fill-opacity:1;fill-rule:nonzero;stroke:none" transform="translate(12.26 29.81)"/><path d="M0 0c.183 0 .341.061.47.181a.576.576 0 0 1 .198.438v1.828H2.12c.182 0 .339.059.466.177a.584.584 0 0 1 .194.442.553.553 0 0 1-.21.441.683.683 0 0 1-.45.17H.668v1.135h1.607c.181 0 .338.056.467.167.134.113.201.26.201.436a.59.59 0 0 1-.197.441.658.658 0 0 1-.471.186H.057a.696.696 0 0 1-.518-.212.654.654 0 0 1-.207-.464V.619c0-.17.066-.317.198-.438A.668.668 0 0 1 0 0" style="fill:#0099df;fill-opacity:1;fill-rule:nonzero;stroke:none" transform="translate(16.402 28.506)"/><path d="M20.322 14.412h-5.811v3.83h5.811zm0-5.366h-5.811v3.831h5.811zm-12.825.127v3.704h5.478V9.046H7.577c-.033 0-.08.05-.08.127m.08 9.069h5.398v-3.83H7.497v3.704c0 .077.047.126.08.126m15.958 0a.768.768 0 0 1 0 1.536H7.577c-.891 0-1.617-.745-1.617-1.662V9.173c0-.917.726-1.662 1.617-1.662h15.824a.767.767 0 1 1 0 1.535h-1.543v3.831h1.443a.768.768 0 0 1 0 1.535h-1.443v3.83z" style="fill:#0099df;fill-opacity:1;fill-rule:nonzero;stroke:none"/><path d="M0 0c0 4.519 3.677 8.194 8.195 8.194 4.519 0 8.195-3.675 8.195-8.194 0-4.519-3.676-8.195-8.195-8.195C3.677-8.195 0-4.519 0 0m21.072-11.768-5.489 5.453A9.684 9.684 0 0 1 17.925 0c0 5.366-4.364 9.73-9.73 9.73-5.366 0-9.731-4.364-9.731-9.73 0-5.365 4.365-9.73 9.731-9.73 2.404 0 4.602.88 6.301 2.33l5.494-5.458a.764.764 0 0 1 1.086.004.768.768 0 0 1-.004 1.086" style="fill:#0099df;fill-opacity:1;fill-rule:nonzero;stroke:none" transform="translate(26.483 14.66)"/></g></svg>