<svg width="66.667" height="66.667" xmlns="http://www.w3.org/2000/svg"><defs><clipPath clipPathUnits="userSpaceOnUse" id="a"><path d="M0 50h50V0H0Z"/></clipPath></defs><g clip-path="url(#a)" transform="matrix(1.33333 0 0 -1.33333 0 66.667)"><path d="M0 0h16.856c.319 0 .579-.315.579-.703V-9.25c0-.388-.26-.703-.579-.703H-.054V.011C-.035.01-.019 0 0 0m30.239-2.191c.34-.34.602-.737.788-1.165h-5.721A3.776 3.776 0 0 0 21.535.416v5.721a3.771 3.771 0 0 0 1.164-.787Zm-7.807-30.866H1.983a2.04 2.04 0 0 0-2.037 2.036v19.549h16.91c1.157 0 2.098.997 2.098 2.222v8.547c0 1.225-.941 2.222-2.098 2.222H0c-.019 0-.035-.01-.054-.011v2.705a2.243 2.243 0 0 0 2.241 2.24h17.83V.416a5.296 5.296 0 0 1 5.289-5.291h6.038v-6.288a.759.759 0 1 1 1.518 0v6.303c0 1.414-.55 2.743-1.549 3.742l-7.54 7.541a5.251 5.251 0 0 1-3.738 1.549H6.553v.56c0 1.167.949 2.115 2.116 2.115h17.107c.957 0 1.855-.372 2.531-1.048l7.226-7.227a3.567 3.567 0 0 0 1.05-2.536v-11.632a.76.76 0 0 1 1.519 0V-.164c0 1.363-.53 2.644-1.494 3.609l-7.228 7.228a5.06 5.06 0 0 1-3.604 1.493H8.669a3.638 3.638 0 0 1-3.634-3.634v-.56H2.187a3.764 3.764 0 0 1-3.759-3.759v-35.234a3.558 3.558 0 0 1 3.555-3.553h20.449a.758.758 0 1 1 0 1.517" style="fill:#0099df;fill-opacity:1;fill-rule:nonzero;stroke:none" transform="translate(4.79 36.723)"/><path d="M0 0c-5.222 0-9.47 4.248-9.47 9.47 0 5.221 4.248 9.469 9.47 9.469s9.469-4.248 9.469-9.469C9.469 4.248 5.222 0 0 0m0 20.457c-6.059 0-10.987-4.929-10.987-10.987C-10.987 3.411-6.059-1.518 0-1.518S10.987 3.411 10.987 9.47c0 6.058-4.928 10.987-10.987 10.987" style="fill:#0099df;fill-opacity:1;fill-rule:nonzero;stroke:none" transform="translate(37.475 2.592)"/><path d="M0 0h-.594v1.52H0c.176 0 .32-.023.431-.067a.636.636 0 0 0 .25-.168.538.538 0 0 0 .121-.236C.825.955.836.856.836.755.836.495.769.302.634.183.496.062.283 0 0 0m-1.254-3.23c.182 0 .338.063.466.188a.6.6 0 0 1 .194.44v1.386H0c.321 0 .618.044.879.13.266.088.495.215.683.379.192.165.341.374.443.621.101.245.153.525.153.834 0 .257-.039.506-.114.74-.077.24-.202.454-.373.639a1.83 1.83 0 0 1-.669.443c-.271.11-.608.165-1.002.165h-1.189a.721.721 0 0 1-.509-.199.634.634 0 0 1-.217-.477v-4.661c0-.172.067-.322.2-.446a.66.66 0 0 1 .461-.182" style="fill:#0099df;fill-opacity:1;fill-rule:nonzero;stroke:none" transform="translate(8.774 31.952)"/><path d="M0 0h-.456v3.469H0c.21 0 .387-.027.525-.078a.85.85 0 0 0 .328-.211.854.854 0 0 0 .182-.313c.04-.123.06-.26.06-.405V1.071c0-.153-.019-.297-.056-.427a.884.884 0 0 0-.18-.332.85.85 0 0 0-.332-.226A1.429 1.429 0 0 0 0 0m-1.052-1.216h.914c.468 0 .868.064 1.191.189.325.126.593.297.795.507.203.212.351.46.439.738.086.272.13.56.13.853v1.391c0 .289-.044.571-.131.835a1.823 1.823 0 0 1-.439.717 2.154 2.154 0 0 1-.795.492c-.321.119-.721.179-1.19.179h-.914a.721.721 0 0 1-.509-.199.637.637 0 0 1-.216-.478V-.539c0-.183.073-.344.216-.478a.721.721 0 0 1 .509-.199" style="fill:#0099df;fill-opacity:1;fill-rule:nonzero;stroke:none" transform="translate(13.654 30.01)"/><path d="M0 0c.181 0 .336.06.464.178.13.12.196.266.196.433v1.807h1.436c.18 0 .335.06.46.175a.573.573 0 0 1 .192.438c0 .175-.07.321-.207.436a.68.68 0 0 1-.445.168H.66v1.122h1.589c.179 0 .334.055.462.164a.546.546 0 0 1 .199.432.584.584 0 0 1-.195.436.656.656 0 0 1-.466.184H.056a.69.69 0 0 1-.512-.21.649.649 0 0 1-.205-.459V.611c0-.167.066-.313.196-.432A.66.66 0 0 1 0 0" style="fill:#0099df;fill-opacity:1;fill-rule:nonzero;stroke:none" transform="translate(17.748 28.722)"/><path d="M21.623 14.788h-5.745v3.787h5.745zm0-5.304h-5.745v3.786h5.745zm-12.679.124v3.663h5.415V9.484H9.023c-.032 0-.079.049-.079.124m.079 8.967h5.336v-3.787H8.944v3.662c0 .076.047.125.079.125m15.777 0a.76.76 0 0 1 0 1.519H9.023c-.88 0-1.598-.738-1.598-1.644V9.608c0-.906.718-1.642 1.598-1.642h15.644a.76.76 0 0 1 0 1.518h-1.525v3.787h1.426a.759.759 0 1 1 0 1.517h-1.426v3.787z" style="fill:#0099df;fill-opacity:1;fill-rule:nonzero;stroke:none"/><path d="M0 0c-.002.002-.005.002-.007.005a.1.1 0 0 0-.011.01C-.02.017-.02.02-.022.021-.05.048-.085.06-.116.081c-.018.013-.036.026-.056.037-.027.017-.05.041-.079.054l-.014.004c-.047.019-.098.021-.148.031C-.456.215-.497.23-.54.23l-.008.002-.007-.001C-.607.23-.658.213-.71.201-.75.192-.791.191-.83.176-.834.174-.84.175-.845.173-.879.158-.906.129-.938.108a.376.376 0 0 1-.047-.03c-.029-.021-.063-.031-.089-.057l-.005-.006-.01-.01C-1.091.002-1.094.002-1.096 0l-2.799-2.915A.759.759 0 1 1-2.8-3.968l1.493 1.555v-5.381a.758.758 0 1 1 1.518 0v5.381l1.492-1.555a.76.76 0 0 1 1.096 1.053z" style="fill:#0099df;fill-opacity:1;fill-rule:nonzero;stroke:none" transform="translate(38.023 16.222)"/></g></svg>