<svg width="66.667" height="66.667" xmlns="http://www.w3.org/2000/svg"><defs><clipPath clipPathUnits="userSpaceOnUse" id="a"><path d="M0 50h50V0H0Z"/></clipPath></defs><g clip-path="url(#a)" transform="matrix(1.33333 0 0 -1.33333 0 66.667)"><path d="M0 0h-41.033c-2.42 0-4.389-1.979-4.389-4.412v-13.086c0-2.432 1.969-4.412 4.389-4.412h2.012a.764.764 0 0 1 0 1.526h-2.012c-1.579 0-2.863 1.295-2.863 2.886v13.086c0 1.592 1.284 2.886 2.863 2.886H0c1.579 0 2.864-1.294 2.864-2.886v-13.086c0-1.591-1.285-2.886-2.864-2.886h-1.327a.762.762 0 0 1 0-1.526H0c2.421 0 4.39 1.98 4.39 4.412v13.086C4.39-1.979 2.421 0 0 0" style="fill:#0099df;fill-opacity:1;fill-rule:nonzero;stroke:none" transform="translate(45.517 39.265)"/><path d="M0 0a.763.763 0 0 1 0 1.526h-31.505a.764.764 0 1 1 0-1.526z" style="fill:#0099df;fill-opacity:1;fill-rule:nonzero;stroke:none" transform="translate(44.283 30.629)"/><path d="M0 0a.747.747 0 1 0 .001 1.493A.747.747 0 0 0 0 0m0 3.018A2.273 2.273 0 0 1-2.271.746 2.273 2.273 0 0 1 0-1.526 2.275 2.275 0 0 1 2.272.746 2.275 2.275 0 0 1 0 3.018" style="fill:#0099df;fill-opacity:1;fill-rule:nonzero;stroke:none" transform="translate(7.366 30.646)"/><path d="M0 0c0-.753-.612-1.365-1.365-1.365h-13.734c-.753 0-1.366.612-1.366 1.365v10.801l2.747-1.415a3.1 3.1 0 0 1 1.594-.441h10.759C-.612 8.945 0 8.333 0 7.581Zm-1.365 10.471h-10.759c-.285 0-.566.078-.853.247l-3.166 1.635a1.214 1.214 0 0 1-1.186.067 1.19 1.19 0 0 1-.66-1.07V0a2.894 2.894 0 0 1 2.89-2.891h13.734A2.894 2.894 0 0 1 1.525 0v7.581a2.893 2.893 0 0 1-2.89 2.89" style="fill:#0099df;fill-opacity:1;fill-rule:nonzero;stroke:none" transform="translate(47.15 4.69)"/><path d="M0 0h-11.226c-.806 0-1.463.656-1.463 1.464v17.102l25.88-.076.022-3.344a.752.752 0 0 1 .769-.756.76.76 0 0 1 .757.767l-.029 4.101c-.006.754-.006.754-5.041.768l-23.119.068h-.002a.762.762 0 0 1-.763-.763V1.464a2.992 2.992 0 0 1 2.989-2.989H0A.763.763 0 1 1 0 0" style="fill:#0099df;fill-opacity:1;fill-rule:nonzero;stroke:none" transform="translate(24.738 3.426)"/><path d="M0 0h.006a.764.764 0 0 1 .757.77L.735 3.941c0 .767.657 1.39 1.463 1.39h22.975c.808 0 1.464-.623 1.464-1.39V.685a.764.764 0 0 1 1.526 0v3.256c0 1.608-1.341 2.916-2.99 2.916H2.198C.55 6.857-.791 5.549-.791 3.935L-.763.756A.763.763 0 0 1 0 0" style="fill:#0099df;fill-opacity:1;fill-rule:nonzero;stroke:none" transform="translate(11.314 41.343)"/><path d="M0 0h-8.444a.764.764 0 0 1 0-1.525H0A.763.763 0 0 1 0 0" style="fill:#0099df;fill-opacity:1;fill-rule:nonzero;stroke:none" transform="translate(24.752 16.696)"/><path d="M0 0h-8.444a.763.763 0 1 1 0-1.525H0A.762.762 0 1 1 0 0" style="fill:#0099df;fill-opacity:1;fill-rule:nonzero;stroke:none" transform="translate(24.752 11.565)"/><path d="M0 0c.195.421.312.885.312 1.378 0 .749-.262 1.434-.686 1.987 1.099-.787 1.605-1.831 1.605-1.831S.777.762 0 0m-7.192 1.462s.498 1.181 1.683 1.998a3.256 3.256 0 0 1-.763-2.082c0-.585.166-1.126.434-1.603-.86.799-1.354 1.687-1.354 1.687M-2.98-.657a2.036 2.036 0 1 0 0 4.071 2.036 2.036 0 0 0 0-4.071m-.05 6.136H-3.078c-3.771-.029-5.215-3.391-5.275-3.534l-.233-.56.294-.532c.081-.146 2.019-3.577 5.225-3.577H-3.018C.181-2.688 2.23.753 2.316.899l.339.58-.293.604C2.295 2.222.67 5.479-3.03 5.479" style="fill:#0099df;fill-opacity:1;fill-rule:nonzero;stroke:none" transform="translate(41.898 7.045)"/><path d="M0 0a1.005 1.005 0 1 1 0-2.01A1.005 1.005 0 0 1 0 0" style="fill:#0099df;fill-opacity:1;fill-rule:nonzero;stroke:none" transform="translate(38.918 9.428)"/></g></svg>