<svg width="66.667" height="66.667" xmlns="http://www.w3.org/2000/svg"><defs><clipPath clipPathUnits="userSpaceOnUse" id="a"><path d="M0 50h50V0H0Z"/></clipPath></defs><g clip-path="url(#a)" transform="matrix(1.33333 0 0 -1.33333 0 66.667)"><path d="m0 0-.005.004-.013.012-.003.005c-.025.024-.056.033-.082.052-.034.026-.067.052-.106.072-.014.007-.025.021-.04.027l-.017.005c-.045.017-.092.019-.14.029-.044.009-.087.025-.133.025l-.008.002-.009-.002c-.045 0-.087-.016-.131-.025C-.735.197-.783.195-.829.177L-.845.172C-.856.167-.864.157-.874.152c-.043-.02-.08-.05-.118-.079-.026-.019-.057-.028-.081-.052l-.004-.005a.154.154 0 0 1-.012-.013L-1.094 0l-2.731-2.846a.76.76 0 0 1 1.094-1.05l1.425 1.485v-5.206a.759.759 0 0 1 1.517 0v5.206l1.426-1.485a.758.758 0 1 1 1.094 1.05z" style="fill:#0099df;fill-opacity:1;fill-rule:nonzero;stroke:none" transform="translate(23.066 17.788)"/><path d="M0 0a.759.759 0 0 1-.759.759h-4.317a1.97 1.97 0 0 0-1.969 1.969v29.367a1.97 1.97 0 0 0 1.969 1.969h23.829a1.97 1.97 0 0 0 1.969-1.969V15.364a.76.76 0 0 1 1.519 0v16.731a3.491 3.491 0 0 1-3.488 3.487H-5.076a3.49 3.49 0 0 1-3.486-3.487V2.728A3.49 3.49 0 0 1-5.076-.76h4.317A.76.76 0 0 1 0 0" style="fill:#0099df;fill-opacity:1;fill-rule:nonzero;stroke:none" transform="translate(10.266 12.068)"/><path d="M0 0h-10.172a.76.76 0 0 1 0-1.518H0a1.97 1.97 0 0 0 1.969-1.968v-29.368A1.97 1.97 0 0 0 0-34.823h-7.272a.76.76 0 0 1 0-1.518H0a3.49 3.49 0 0 1 3.486 3.487v29.368A3.49 3.49 0 0 1 0 0" style="fill:#0099df;fill-opacity:1;fill-rule:nonzero;stroke:none" transform="translate(45.402 38.702)"/><path d="M0 0c0 .542.442.984.984.984h15.823A.985.985 0 0 0 17.791 0v-2.73a.985.985 0 0 0-.984-.984H.984A.986.986 0 0 0 0-2.73Zm.984-5.231h15.823a2.505 2.505 0 0 1 2.502 2.501V0a2.505 2.505 0 0 1-2.502 2.501H.984A2.504 2.504 0 0 1-1.517 0v-2.73A2.504 2.504 0 0 1 .984-5.231" style="fill:#0099df;fill-opacity:1;fill-rule:nonzero;stroke:none" transform="translate(7.624 40.624)"/><path d="M0 0c0 .419-.34.758-.759.758h-19.649a.758.758 0 1 1 0-1.517H-.759A.76.76 0 0 1 0 0" style="fill:#0099df;fill-opacity:1;fill-rule:nonzero;stroke:none" transform="translate(27.274 32.243)"/><path d="M0 0a.759.759 0 1 1 0-1.518h11.979a.759.759 0 1 1 0 1.518z" style="fill:#0099df;fill-opacity:1;fill-rule:nonzero;stroke:none" transform="translate(6.866 29.579)"/><path d="M0 0a2.293 2.293 0 0 0-2.291-2.291A2.293 2.293 0 0 0-4.582 0a2.293 2.293 0 0 0 2.754 2.245v-.001A2.296 2.296 0 0 0 0 0m-5.983.892c-.037.005-.069.021-.106.021h-10.739a3.812 3.812 0 0 1-2.927 2.819v8.451a3.802 3.802 0 0 1 3.022 3.456h10.661a3.802 3.802 0 0 1 3.021-3.456V3.762c0-.011.006-.019.006-.03A3.81 3.81 0 0 1-5.983.892m-12.26-1.197a2.296 2.296 0 0 0-2.271-1.986A2.293 2.293 0 0 0-22.805 0a2.293 2.293 0 0 0 2.291 2.291 2.294 2.294 0 0 0 2.271-2.596m-4.562 16.219a2.293 2.293 0 0 0 2.291 2.291 2.294 2.294 0 0 0 2.292-2.291 2.293 2.293 0 0 0-4.583 0m20.514 2.291A2.293 2.293 0 0 0 0 15.914a2.292 2.292 0 0 0-4.582 0 2.293 2.293 0 0 0 2.291 2.291m.759-6.022a3.814 3.814 0 0 1 3.05 3.731 3.813 3.813 0 0 1-3.809 3.809c-1.663 0-3.065-1.077-3.584-2.566h-11.056c-.518 1.489-1.92 2.566-3.583 2.566a3.812 3.812 0 0 1-3.808-3.809 3.813 3.813 0 0 1 3.05-3.731V3.732A3.813 3.813 0 0 1-24.322 0a3.812 3.812 0 0 1 3.808-3.809 3.813 3.813 0 0 1 3.753 3.204h10.672c.018 0 .032.008.049.009.288-1.816 1.853-3.213 3.749-3.213 2.1 0 3.809 1.708 3.809 3.809a3.818 3.818 0 0 1-3.041 3.73l-.015.002c0 .01.006.019.006.03z" style="fill:#0099df;fill-opacity:1;fill-rule:nonzero;stroke:none" transform="translate(34.056 5.27)"/><path d="M0 0h-6.93a.758.758 0 0 1 0-1.518H0A2.505 2.505 0 0 1 2.502.984v2.73A2.505 2.505 0 0 1 0 6.216h-6.93a.758.758 0 0 1 0-1.518H0a.984.984 0 0 0 .983-.984V.984A.984.984 0 0 0 0 0" style="fill:#0099df;fill-opacity:1;fill-rule:nonzero;stroke:none" transform="translate(42.16 27.424)"/><path d="M0 0h-5.708a.76.76 0 0 1 0-1.519H0A.76.76 0 0 1 0 0" style="fill:#0099df;fill-opacity:1;fill-rule:nonzero;stroke:none" transform="translate(43.903 23.517)"/><path d="M0 0h-5.708a.76.76 0 0 1 0-1.518H0A.76.76 0 0 1 0 0" style="fill:#0099df;fill-opacity:1;fill-rule:nonzero;stroke:none" transform="translate(43.903 20.093)"/></g></svg>