<svg xmlns="http://www.w3.org/2000/svg" width="66.667" height="66.667"><defs><clipPath id="a" clipPathUnits="userSpaceOnUse"><path d="M0 50h50V0H0Z"/></clipPath></defs><g clip-path="url(#a)" transform="matrix(1.33333 0 0 -1.33333 0 66.667)"><path d="M0 0c-.359 0-.67-.278-.67-.602v-3.502c-.868 1.491-1.35 2.335-2.189 3.762A.79.79 0 0 1-3.501 0c-.397 0-.689-.268-.689-.63v-5.467c0-.324.283-.603.651-.603.359 0 .67.279.67.603v3.466L-.68-6.376c.123-.194.388-.324.633-.324.415 0 .698.288.698.63v5.468C.651-.278.368 0 0 0" style="fill:#0099df;fill-opacity:1;fill-rule:nonzero;stroke:none" transform="translate(10.43 29.762)"/><path d="M0 0c-.359 0-.67-.278-.67-.602v-3.502c-.868 1.491-1.35 2.335-2.189 3.762A.79.79 0 0 1-3.501 0c-.397 0-.689-.268-.689-.63v-5.467c0-.324.283-.603.651-.603.359 0 .67.279.67.603v3.466L-.68-6.376c.123-.194.388-.324.633-.324.415 0 .698.288.698.63v5.468C.651-.278.368 0 0 0Z" style="fill:none;stroke:#0099df;stroke-width:.25;stroke-linecap:butt;stroke-linejoin:miter;stroke-miterlimit:10;stroke-dasharray:none;stroke-opacity:1" transform="translate(10.43 29.762)"/><path d="M0 0h-2.057v1.511h1.784c.368 0 .651.26.651.593 0 .333-.321.584-.651.584h-1.784v1.491h1.963c.358 0 .66.242.66.575 0 .324-.302.602-.66.602h-2.558c-.415 0-.726-.333-.726-.657V-.518c0-.502.415-.659.878-.659H0c.359 0 .661.27.661.603C.661-.259.349 0 0 0" style="fill:#0099df;fill-opacity:1;fill-rule:nonzero;stroke:none" transform="translate(15.726 24.323)"/><path d="M0 0h-2.057v1.511h1.784c.368 0 .651.26.651.593 0 .333-.321.584-.651.584h-1.784v1.491h1.963c.358 0 .66.242.66.575 0 .324-.302.602-.66.602h-2.558c-.415 0-.726-.333-.726-.657V-.518c0-.502.415-.659.878-.659H0c.359 0 .661.27.661.603C.661-.259.349 0 0 0Z" style="fill:none;stroke:#0099df;stroke-width:.25;stroke-linecap:butt;stroke-linejoin:miter;stroke-miterlimit:10;stroke-dasharray:none;stroke-opacity:1" transform="translate(15.726 24.323)"/><path d="M0 0h-1.057v1.537h1C.802 1.537 1 1.139 1 .751 1 .268.651 0 0 0m2.303-2.939L1.01-1.029c.811.259 1.311.861 1.311 1.78 0 .972-.566 1.964-2.34 1.964h-1.642c-.387 0-.717-.306-.717-.668V-3.29c0-.333.302-.612.651-.612.358 0 .67.288.67.612v2.122h.642L1.17-3.605a.646.646 0 0 1 .557-.288c.424 0 .887.493.576.954" style="fill:#0099df;fill-opacity:1;fill-rule:nonzero;stroke:none" transform="translate(19.644 26.964)"/><path d="M0 0h-1.057v1.537h1C.802 1.537 1 1.139 1 .751 1 .268.651 0 0 0Zm2.303-2.939L1.01-1.029c.811.259 1.311.861 1.311 1.78 0 .972-.566 1.964-2.34 1.964h-1.642c-.387 0-.717-.306-.717-.668V-3.29c0-.333.302-.612.651-.612.358 0 .67.288.67.612v2.122h.642L1.17-3.605a.646.646 0 0 1 .557-.288c.424 0 .887.493.576.954z" style="fill:none;stroke:#0099df;stroke-width:.25;stroke-linecap:butt;stroke-linejoin:miter;stroke-miterlimit:10;stroke-dasharray:none;stroke-opacity:1" transform="translate(19.644 26.964)"/><path d="M0 0h-7.793a.788.788 0 1 0 0 1.576H0A.788.788 0 0 0 0 0" style="fill:#0099df;fill-opacity:1;fill-rule:nonzero;stroke:none" transform="translate(21.459 15.943)"/><path d="M0 0a.79.79 0 0 0-.557.23l-1.618 1.617A.788.788 0 0 0-1.06 2.963L0 1.902l2.251 2.25a.788.788 0 0 0 1.114-1.115L.557.23A.79.79 0 0 0 0 0" style="fill:#0099df;fill-opacity:1;fill-rule:nonzero;stroke:none" transform="translate(7.263 14.64)"/><path d="M0 0h-7.792a.788.788 0 1 0 0 1.575H0A.787.787 0 1 0 0 0" style="fill:#0099df;fill-opacity:1;fill-rule:nonzero;stroke:none" transform="translate(21.458 9.451)"/><path d="M0 0a.781.781 0 0 0-.557.231l-1.618 1.618A.788.788 0 1 0-1.06 2.963L0 1.902l2.251 2.25a.787.787 0 1 0 1.114-1.113L.557.231A.783.783 0 0 0 0 0" style="fill:#0099df;fill-opacity:1;fill-rule:nonzero;stroke:none" transform="translate(7.263 8.048)"/><path d="M0 0c.502.649.812 1.453.812 2.335 0 1.232-.594 2.319-1.499 3.023C1.321 4.411 2.235 2.53 2.235 2.53S1.394 1.095 0 0m-8.293 2.44s.875 2.08 3.031 3.008a3.832 3.832 0 0 1-1.609-3.113A3.82 3.82 0 0 1-5.8-.313C-7.365.771-8.293 2.44-8.293 2.44m5.264-2.649a2.544 2.544 0 1 0 0 5.088 2.544 2.544 0 0 0 0-5.088m6.431 3.306c-.081.167-2.038 4.091-6.494 4.091l-.057-.001c-4.534-.034-6.271-4.076-6.342-4.248l-.242-.579.304-.549c.098-.177 2.443-4.33 6.291-4.33h.007l.053.001c3.844.043 6.329 4.215 6.433 4.393l.35.598z" style="fill:#0099df;fill-opacity:1;fill-rule:nonzero;stroke:none" transform="translate(39.266 11.201)"/><path d="M0 0a1.391 1.391 0 1 1 0-2.783A1.391 1.391 0 0 1 0 0" style="fill:#0099df;fill-opacity:1;fill-rule:nonzero;stroke:none" transform="translate(36.237 14.926)"/><path d="M0 0a3.9 3.9 0 0 0 1.208-.818l7.827-7.828a3.9 3.9 0 0 0 .818-1.208H3.915A3.92 3.92 0 0 0 0-5.939Zm15.646-2.795L8.144 4.708a5.258 5.258 0 0 1-3.742 1.55h-17.757a3.777 3.777 0 0 1-3.773-3.773v-.581h-2.956a3.907 3.907 0 0 1-3.902-3.902v-36.574a3.692 3.692 0 0 1 3.689-3.688H4.64a.787.787 0 1 1 0 1.575h-24.937a2.116 2.116 0 0 0-2.113 2.113v36.574A2.328 2.328 0 0 0-20.084.328h18.508v-6.267a5.498 5.498 0 0 1 5.491-5.492h6.267v-4.673a.788.788 0 0 1 1.576 0v4.688a5.464 5.464 0 0 1-1.608 3.885L2.323.296a5.448 5.448 0 0 1-3.88 1.608h-13.995v.581a2.2 2.2 0 0 0 2.197 2.197H4.402c.993 0 1.926-.387 2.628-1.089l7.501-7.502a3.699 3.699 0 0 0 1.09-2.633v-10.219a.79.79 0 0 1 1.576 0v10.219a5.266 5.266 0 0 1-1.551 3.747" style="fill:#0099df;fill-opacity:1;fill-rule:nonzero;stroke:none" transform="translate(24.302 43.63)"/><path d="M0 0c0 4.637 3.772 8.409 8.409 8.409 4.637 0 8.41-3.772 8.41-8.409 0-4.637-3.773-8.41-8.41-8.41C3.772-8.41 0-4.637 0 0m21.624-12.076-5.633 5.595A9.939 9.939 0 0 1 18.394 0c0 5.506-4.479 9.984-9.985 9.984-5.506 0-9.985-4.478-9.985-9.984s4.479-9.985 9.985-9.985c2.466 0 4.723.903 6.467 2.39l5.638-5.6a.788.788 0 1 1 1.11 1.119" style="fill:#0099df;fill-opacity:1;fill-rule:nonzero;stroke:none" transform="translate(27.828 13.536)"/></g></svg>