<svg xmlns="http://www.w3.org/2000/svg" width="66.667" height="66.667"><defs><clipPath id="a" clipPathUnits="userSpaceOnUse"><path d="M0 50h50V0H0Z"/></clipPath></defs><g clip-path="url(#a)" transform="matrix(1.33333 0 0 -1.33333 0 66.667)"><path d="M0 0a1.768 1.768 0 0 1-1.766-1.766v-22.9c0-.974.792-1.766 1.766-1.766h18.587c.974 0 1.767.792 1.767 1.766v22.9c0 .974-.793 1.766-1.767 1.766Zm18.587-27.972H0a3.31 3.31 0 0 0-3.306 3.306v22.9A3.31 3.31 0 0 0 0 1.54h18.587a3.309 3.309 0 0 0 3.306-3.306v-22.9a3.309 3.309 0 0 0-3.306-3.306" style="fill:#0099df;fill-opacity:1;fill-rule:nonzero;stroke:none" transform="translate(15.706 47.35)"/><path d="M0 0a.97.97 0 1 1 .002-1.942A.97.97 0 0 1 0 0m0-3.481A2.514 2.514 0 0 0-2.511-.97 2.514 2.514 0 0 0 0 1.54 2.514 2.514 0 0 0 2.511-.97 2.514 2.514 0 0 0 0-3.481" style="fill:#0099df;fill-opacity:1;fill-rule:nonzero;stroke:none" transform="translate(22.182 36.322)"/><path d="M0 0a1.941 1.941 0 0 1-1.939-1.939A1.94 1.94 0 0 1 0-3.877a1.94 1.94 0 0 1 1.939 1.938C1.939-.87 1.069 0 0 0m0-5.417a3.483 3.483 0 0 0-3.479 3.478A3.483 3.483 0 0 0 0 1.54a3.482 3.482 0 0 0 3.478-3.479A3.482 3.482 0 0 0 0-5.417" style="fill:#0099df;fill-opacity:1;fill-rule:nonzero;stroke:none" transform="translate(25.381 44.198)"/><path d="M0 0h-1.671c-1.346 0-2.441 1.039-2.441 2.317v4.054a.77.77 0 1 0 1.54 0V2.317c0-.428.404-.778.901-.778H0A.769.769 0 1 0 0 0" style="fill:#0099df;fill-opacity:1;fill-rule:nonzero;stroke:none" transform="translate(26.217 22.53)"/><path d="M0 0h-1.671a.77.77 0 1 0 0 1.539H0c.496 0 .901.35.901.778v4.054a.769.769 0 1 0 1.539 0V2.317C2.44 1.039 1.346 0 0 0" style="fill:#0099df;fill-opacity:1;fill-rule:nonzero;stroke:none" transform="translate(26.437 22.53)"/><path d="M0 0a.77.77 0 1 0 0 1.539c.287 0 .52.234.52.521v4.593c0 1.283-1.153 2.326-2.571 2.326h-1.672a.77.77 0 0 0 0 1.54h1.672c2.267 0 4.11-1.734 4.11-3.866V2.06C2.059.924 1.136 0 0 0" style="fill:#0099df;fill-opacity:1;fill-rule:nonzero;stroke:none" transform="translate(28.268 28.254)"/><path d="M0 0c-1.136 0-2.06.924-2.06 2.06v1.298a.77.77 0 0 0 1.54 0V2.06c0-.287.233-.521.52-.521A.77.77 0 1 0 0 0" style="fill:#0099df;fill-opacity:1;fill-rule:nonzero;stroke:none" transform="translate(22.827 28.131)"/><path d="M0 0a.778.778 0 0 1-.777-.777.778.778 0 0 1 1.554 0A.778.778 0 0 1 0 0m0-3.092A2.319 2.319 0 0 0-2.317-.777 2.32 2.32 0 0 0 0 1.54a2.317 2.317 0 0 0 0-4.632" style="fill:#0099df;fill-opacity:1;fill-rule:nonzero;stroke:none" transform="translate(25.381 32.06)"/><path d="M0 0a.77.77 0 0 0-.77.77v.487a3.263 3.263 0 0 1-3.259 3.26h-26.509a3.263 3.263 0 0 1-3.26-3.26V.77a.77.77 0 1 0-1.54 0v.487a4.804 4.804 0 0 0 4.8 4.799h26.509A4.804 4.804 0 0 0 .77 1.257V.77A.77.77 0 0 0 0 0" style="fill:#0099df;fill-opacity:1;fill-rule:nonzero;stroke:none" transform="translate(42.398 11.857)"/><path d="M0 0a.77.77 0 0 0-.77.77v3.773a.77.77 0 0 0 1.54 0V.77A.77.77 0 0 0 0 0" style="fill:#0099df;fill-opacity:1;fill-rule:nonzero;stroke:none" transform="translate(25.114 12.601)"/><path d="M0 0c-.06 0-.11-.05-.11-.11v-5.84c0-.056.045-.102.101-.102h8.372c.056 0 .102.046.102.102v5.84a.11.11 0 0 1-.11.11Zm8.363-7.591H-.009c-.905 0-1.64.736-1.64 1.641v5.84c0 .91.74 1.649 1.649 1.649h8.355A1.65 1.65 0 0 0 10.004-.11v-5.84c0-.905-.736-1.641-1.641-1.641" style="fill:#0099df;fill-opacity:1;fill-rule:nonzero;stroke:none" transform="translate(37.98 9.912)"/><path d="M0 0h-4.347a.77.77 0 1 0 0 1.539H0A.769.769 0 1 0 0 0" style="fill:#0099df;fill-opacity:1;fill-rule:nonzero;stroke:none" transform="translate(44.331 7.378)"/><path d="M0 0h-4.347a.77.77 0 1 0 0 1.539H0A.769.769 0 1 0 0 0" style="fill:#0099df;fill-opacity:1;fill-rule:nonzero;stroke:none" transform="translate(44.331 4.962)"/><path d="M0 0a.11.11 0 0 1-.109-.11v-5.84c0-.056.045-.102.101-.102h8.372c.055 0 .101.046.101.102v5.84a.11.11 0 0 1-.109.11Zm8.364-7.591H-.008c-.905 0-1.641.736-1.641 1.641v5.84c0 .91.74 1.649 1.649 1.649h8.356A1.65 1.65 0 0 0 10.005-.11v-5.84c0-.905-.736-1.641-1.641-1.641" style="fill:#0099df;fill-opacity:1;fill-rule:nonzero;stroke:none" transform="translate(20.382 9.912)"/><path d="M0 0c-.289 0-.58.093-.824.284l-1.464 1.142A.77.77 0 0 0-1.34 2.64l1.308-1.021 2.143 2.74a.77.77 0 1 0 1.213-.949L1.061.516A1.343 1.343 0 0 0 0 0" style="fill:#0099df;fill-opacity:1;fill-rule:nonzero;stroke:none" transform="translate(24.375 4.56)"/><path d="M0 0a.11.11 0 0 1-.109-.11v-5.84c0-.056.045-.102.101-.102h8.372c.055 0 .101.046.101.102v5.84a.11.11 0 0 1-.11.11Zm8.364-7.591H-.008c-.905 0-1.641.736-1.641 1.641v5.84c0 .91.74 1.649 1.649 1.649h8.355c.91 0 1.65-.739 1.65-1.649v-5.84c0-.905-.736-1.641-1.641-1.641" style="fill:#0099df;fill-opacity:1;fill-rule:nonzero;stroke:none" transform="translate(3.664 9.912)"/><path d="M0 0h-4.347a.77.77 0 1 0 0 1.539H0A.77.77 0 1 0 0 0" style="fill:#0099df;fill-opacity:1;fill-rule:nonzero;stroke:none" transform="translate(10.015 7.378)"/><path d="M0 0h-4.347a.77.77 0 1 0 0 1.539H0A.77.77 0 1 0 0 0" style="fill:#0099df;fill-opacity:1;fill-rule:nonzero;stroke:none" transform="translate(10.015 4.962)"/></g></svg>