<svg xmlns="http://www.w3.org/2000/svg" width="66.667" height="66.667"><defs><clipPath id="a" clipPathUnits="userSpaceOnUse"><path d="M0 50h50V0H0Z"/></clipPath></defs><g clip-path="url(#a)" transform="matrix(1.33333 0 0 -1.33333 0 66.667)"><path d="M0 0a3.069 3.069 0 0 0-3.065 3.064A3.069 3.069 0 0 0 0 6.129a3.067 3.067 0 0 0 3.064-3.065A3.067 3.067 0 0 0 0 0m-13.413-3.938a4.592 4.592 0 0 1-3.729 1.922 4.593 4.593 0 0 1-3.728-1.922l-9.253 5.342c.202.517.322 1.074.322 1.66 0 2.312-1.715 4.212-3.935 4.541v10.973c2.22.329 3.935 2.23 3.935 4.541 0 .597-.122 1.163-.33 1.687a.754.754 0 0 1 .28.09l9.154 5.285c.846-1.036 2.117-1.712 3.555-1.712 1.439 0 2.709.676 3.555 1.712l9.308-5.373a4.59 4.59 0 0 1-.33-1.689c0-2.354 1.781-4.28 4.062-4.554V7.618c-2.281-.274-4.062-2.199-4.062-4.554 0-.609.125-1.189.34-1.722zm-3.729-5.75a3.067 3.067 0 0 0-3.064 3.064 3.067 3.067 0 0 0 3.064 3.064 3.068 3.068 0 0 0 3.065-3.064 3.068 3.068 0 0 0-3.065-3.064M-34.41 0a3.067 3.067 0 0 0-3.064 3.064 3.067 3.067 0 0 0 3.064 3.065 3.067 3.067 0 0 0 3.064-3.065A3.067 3.067 0 0 0-34.41 0m-3.064 23.119a3.067 3.067 0 0 0 3.064 3.064 3.067 3.067 0 0 0 3.064-3.064 3.067 3.067 0 0 0-3.064-3.064 3.067 3.067 0 0 0-3.064 3.064m20.332 13.024a3.068 3.068 0 0 0 3.065-3.064 3.069 3.069 0 0 0-3.065-3.065 3.068 3.068 0 0 0-3.064 3.065 3.067 3.067 0 0 0 3.064 3.064M0 26.183a3.067 3.067 0 0 0 3.064-3.064A3.067 3.067 0 0 0 0 20.055a3.068 3.068 0 0 0-3.065 3.064A3.068 3.068 0 0 0 0 26.183M.998 7.558v11.067a4.612 4.612 0 0 1 3.611 4.494A4.614 4.614 0 0 1 0 27.728c-1.389 0-2.621-.63-3.467-1.605l-9.354 5.4c.175.489.288 1.007.288 1.556a4.614 4.614 0 0 1-4.609 4.609 4.615 4.615 0 0 1-4.609-4.609c0-.549.113-1.067.289-1.556l-9.161-5.289a.756.756 0 0 1-.235-.214c-.846 1.034-2.115 1.708-3.552 1.708a4.615 4.615 0 0 1-4.609-4.609 4.612 4.612 0 0 1 3.738-4.521V7.585a4.612 4.612 0 0 1-3.738-4.521 4.613 4.613 0 0 1 4.609-4.608c1.399 0 2.639.64 3.486 1.627l9.38-5.415a4.536 4.536 0 0 1-.207-1.292 4.613 4.613 0 0 1 4.609-4.608 4.613 4.613 0 0 1 4.609 4.608c0 .451-.085.879-.206 1.291L-3.444.033C-2.6-.926-1.376-1.544 0-1.544a4.613 4.613 0 0 1 4.609 4.608A4.61 4.61 0 0 1 .998 7.558" style="fill:#0099df;fill-opacity:1;fill-rule:nonzero;stroke:none" transform="translate(42.205 11.773)"/><path d="M0 0c0-.372-.2-.719-.522-.905l-3.751-2.167a1.054 1.054 0 0 0-1.047 0L-9.072-.905A1.047 1.047 0 0 0-9.595 0v4.332c0 .372.2.72.523.905l3.752 2.167c.323.186.722.185 1.046 0l3.752-2.167C-.2 5.052 0 4.704 0 4.332Zm.25 6.575-3.753 2.167a2.596 2.596 0 0 1-2.589 0l-3.752-2.167a2.594 2.594 0 0 1-1.296-2.243V0a2.6 2.6 0 0 1 1.295-2.244h.001l3.753-2.166a2.59 2.59 0 0 1 2.588 0L.251-2.244A2.602 2.602 0 0 1 1.545 0v4.332c0 .924-.496 1.783-1.295 2.243" style="fill:#0099df;fill-opacity:1;fill-rule:nonzero;stroke:none" transform="translate(33.008 18.092)"/><path d="M0 0h-1.216a.77.77 0 0 1-.771-.772v-1.142h-.445v1.142A.77.77 0 0 1-3.203 0h-1.215v.369h1.215c.427 0 .771.346.771.773v1.141h.445V1.142c0-.427.344-.773.771-.773H0zm.274 1.913h-.717v.664c0 .69-.57 1.251-1.27 1.251h-.993c-.7 0-1.27-.561-1.27-1.251v-.664h-.717A1.26 1.26 0 0 1-5.962.663v-.957c0-.689.568-1.25 1.269-1.25h.717v-.664c0-.689.57-1.25 1.27-1.25h.993c.7 0 1.27.561 1.27 1.25v.664h.717c.701 0 1.27.561 1.27 1.25v.957c0 .69-.569 1.25-1.27 1.25" style="fill:#0099df;fill-opacity:1;fill-rule:nonzero;stroke:none" transform="translate(30.42 20.073)"/><path d="M0 0a2.21 2.21 0 0 0 2.207 2.207A2.21 2.21 0 0 0 4.414 0a2.21 2.21 0 0 0-2.207-2.207A2.21 2.21 0 0 0 0 0m5.326-5.219a.772.772 0 0 1-.346 1.036 6.181 6.181 0 0 1-1.817.57C4.767-3.188 5.959-1.736 5.959 0a3.756 3.756 0 0 1-3.752 3.752A3.756 3.756 0 0 1-1.545 0c0-1.727 1.179-3.17 2.77-3.605a6.068 6.068 0 0 1-4.786-3.981c-.206-.586-.301-1.24-.301-2.056v-.741a.772.772 0 1 1 1.545 0v.741c0 .637.067 1.127.214 1.544a4.525 4.525 0 0 0 4.276 3.022l.036-.001c.722-.017 1.438-.167 2.081-.487a.771.771 0 0 1 1.036.345" style="fill:#0099df;fill-opacity:1;fill-rule:nonzero;stroke:none" transform="translate(17.719 31.305)"/><path d="M0 0a1.54 1.54 0 0 0 1.539-1.538 1.54 1.54 0 0 0-3.078 0A1.54 1.54 0 0 0 0 0m-2.359-6.342a3.143 3.143 0 0 0 4.706 0 .773.773 0 1 1 1.157 1.024 4.68 4.68 0 0 1-1.765 1.237A3.08 3.08 0 0 1 0 1.545a3.086 3.086 0 0 1-3.083-3.083c0-1.053.532-1.983 1.34-2.54a4.693 4.693 0 0 1-1.774-1.24.772.772 0 0 1 1.158-1.024" style="fill:#0099df;fill-opacity:1;fill-rule:nonzero;stroke:none" transform="translate(28.105 34.54)"/></g></svg>