<svg width="51" height="44" fill="none" xmlns="http://www.w3.org/2000/svg"><g clip-path="url(#a)" stroke="#FF8A00" stroke-width="2.5" stroke-linecap="round" stroke-linejoin="round"><path d="M2.2 12.07H48M9.72 7.1a1.741 1.741 0 0 1-3.48 0 1.741 1.741 0 0 1 3.48 0ZM17.069 7.1a1.741 1.741 0 0 1-3.48 0 1.741 1.741 0 0 1 3.48 0ZM24.42 7.1a1.741 1.741 0 0 1-3.48 0 1.741 1.741 0 0 1 3.48 0Z"/><path d="M44.22 1.1H5.98A4.88 4.88 0 0 0 1.1 5.98v31.24a4.88 4.88 0 0 0 4.88 4.88h38.24a4.88 4.88 0 0 0 4.88-4.88V5.98a4.88 4.88 0 0 0-4.88-4.88Z"/><path d="m32.51 21.46 4.75 5.61-4.75 5.61M17.69 21.46l-4.75 5.61 4.75 5.61M26.04 21.46l-1.87 11.22"/></g><defs><clipPath id="a"><path fill="#fff" d="M0 0h50.2v43.2H0z"/></clipPath></defs></svg>