<svg xmlns="http://www.w3.org/2000/svg" width="66.667" height="66.667"><defs><clipPath id="a" clipPathUnits="userSpaceOnUse"><path d="M0 50h50V0H0Z"/></clipPath></defs><g clip-path="url(#a)" transform="matrix(1.33333 0 0 -1.33333 0 66.667)"><path d="M0 0h-13.649v5.624H.226V.226A.227.227 0 0 0 0 0m-22.942.226v5.398h7.683V0h-7.458a.226.226 0 0 0-.225.226m.225 17.794H0a.227.227 0 0 0 .226-.226v-3.327h-23.168v3.327c0 .124.101.226.225.226m9.068-5.162H.226V7.233h-13.875zm-9.293 0h7.683V7.233h-7.683zM0 19.628h-22.717a1.836 1.836 0 0 1-1.834-1.834V.226c0-1.011.823-1.834 1.834-1.834H0c1.012 0 1.834.823 1.834 1.834v17.568A1.836 1.836 0 0 1 0 19.628" style="fill:#0099df;fill-opacity:1;fill-rule:nonzero;stroke:none" transform="translate(46.68 1.788)"/><path d="M0 0c.339-.339.6-.734.789-1.16h-5.85A3.865 3.865 0 0 0-8.92 2.7v5.851c.425-.19.819-.45 1.158-.789zm-17.568-30.715H-29.07c-1.143 0-2.073.93-2.073 2.072V6.608a2.286 2.286 0 0 0 2.284 2.283h18.33V2.7a5.475 5.475 0 0 1 5.468-5.469h6.192v-6.15a.805.805 0 0 1 1.609 0v6.188c0 .248-.039.488-.071.73 0 .013.007.023.007.037 0 .038-.017.07-.022.106a5.42 5.42 0 0 1-1.515 2.996L-6.623 8.9a5.401 5.401 0 0 1-2.999 1.516c-.035.005-.066.021-.103.021-.012 0-.023-.007-.035-.007-.241.032-.481.07-.727.07h-13.855v.555c0 1.187.967 2.154 2.155 2.154h17.609c.978 0 1.898-.381 2.59-1.072l7.437-7.44a3.642 3.642 0 0 0 1.075-2.594v-8.622a.805.805 0 0 1 1.609 0v8.622a5.241 5.241 0 0 1-1.545 3.731l-7.439 7.441a5.242 5.242 0 0 1-3.727 1.543h-17.609a3.767 3.767 0 0 1-3.764-3.763V10.5h-2.908a3.897 3.897 0 0 1-3.893-3.892v-35.251c0-2.03 1.652-3.68 3.682-3.68h11.502a.804.804 0 1 1 0 1.608" style="fill:#0099df;fill-opacity:1;fill-rule:nonzero;stroke:none" transform="translate(34.238 35.002)"/><path d="M0 0a.804.804 0 1 1 1.32.919L-.893 4.095a2.588 2.588 0 0 1-2.06 1.03 2.587 2.587 0 0 1-2.059-1.03L-8.349-.354l-.555.556a2.579 2.579 0 0 1-2.004.747c-.744-.053-1.428-.426-1.918-1.084l-4.61-7.48a.806.806 0 0 1 .685-1.227h9.063a.805.805 0 0 1 0 1.609h-7.623l3.814 6.193a.967.967 0 0 0 1.455.103l1.211-1.21a.77.77 0 0 1 .626-.234.807.807 0 0 1 .587.319l3.893 5.191c.363.483 1.198.46 1.528.023z" style="fill:#0099df;fill-opacity:1;fill-rule:nonzero;stroke:none" transform="translate(24.34 24.488)"/><path d="M0 0c0-.68-.553-1.234-1.233-1.234A1.234 1.234 0 1 0 0 0m-4.077 0a2.847 2.847 0 0 1 2.844-2.843A2.846 2.846 0 0 1 1.609 0a2.846 2.846 0 0 1-2.842 2.843A2.847 2.847 0 0 1-4.077 0" style="fill:#0099df;fill-opacity:1;fill-rule:nonzero;stroke:none" transform="translate(12.06 31.689)"/></g></svg>