<svg width="66.667" height="66.667" xmlns="http://www.w3.org/2000/svg"><defs><clipPath clipPathUnits="userSpaceOnUse" id="a"><path d="M0 50h50V0H0Z"/></clipPath></defs><g clip-path="url(#a)" transform="matrix(1.33333 0 0 -1.33333 0 66.667)"><path d="M0 0v-1.557" style="fill:none;stroke:#ff8200;stroke-width:1.7;stroke-linecap:round;stroke-linejoin:round;stroke-miterlimit:4;stroke-dasharray:none;stroke-opacity:1" transform="translate(31.14 47.64)"/><path d="M0 0v-16.153a2.76 2.76 0 0 0-2.759-2.759h-31.734a2.758 2.758 0 0 0-2.758 2.759V0" style="fill:none;stroke:#ff8200;stroke-width:1.7;stroke-linecap:round;stroke-linejoin:round;stroke-miterlimit:4;stroke-dasharray:none;stroke-opacity:1" transform="translate(43.589 33.956)"/><path d="M0 0h-42.762a2.758 2.758 0 0 0-2.468 3.991c1.716 3.44 3.661 9.899 8.312 9.805h31.074c5.342-.002 6.509-6.191 8.313-9.805A2.757 2.757 0 0 0 0 0Z" style="fill:none;stroke:#ff8200;stroke-width:1.7;stroke-linecap:round;stroke-linejoin:round;stroke-miterlimit:4;stroke-dasharray:none;stroke-opacity:1" transform="translate(46.344 1.248)"/><path d="M0 0h5.097" style="fill:none;stroke:#ff8200;stroke-width:1.7;stroke-linecap:round;stroke-linejoin:round;stroke-miterlimit:4;stroke-dasharray:none;stroke-opacity:1" transform="translate(22.415 6.767)"/><path d="M0 0c-.621 1.957-4.639 4.235-11.581 4.548a1.765 1.765 0 0 0-1.655 1.774V22.03a1.764 1.764 0 0 0 1.891 1.764c3.118-.161 5.616-.723 7.466-1.471M0 0c.621 1.956 4.64 4.235 11.581 4.548a1.765 1.765 0 0 1 1.655 1.773v9.423" style="fill:none;stroke:#ff8200;stroke-width:1.7;stroke-linecap:round;stroke-linejoin:round;stroke-miterlimit:4;stroke-dasharray:none;stroke-opacity:1" transform="translate(24.963 21.756)"/><path d="M0 0a21.341 21.341 0 0 1-5.293 1.411" style="fill:none;stroke:#ff8200;stroke-width:1.7;stroke-linecap:round;stroke-linejoin:round;stroke-miterlimit:4;stroke-dasharray:none;stroke-opacity:1" transform="translate(20.885 38.085)"/><path d="M0 0a21.532 21.532 0 0 1-5.342 1.411" style="fill:none;stroke:#ff8200;stroke-width:1.7;stroke-linecap:round;stroke-linejoin:round;stroke-miterlimit:4;stroke-dasharray:none;stroke-opacity:1" transform="translate(20.885 32.592)"/><path d="M0 0v-12.481" style="fill:none;stroke:#ff8200;stroke-width:1.7;stroke-linecap:round;stroke-linejoin:round;stroke-miterlimit:4;stroke-dasharray:none;stroke-opacity:1" transform="translate(24.963 34.237)"/><path d="m0 0 1.102-1.102" style="fill:none;stroke:#ff8200;stroke-width:1.7;stroke-linecap:round;stroke-linejoin:round;stroke-miterlimit:4;stroke-dasharray:none;stroke-opacity:1" transform="translate(26.145 45.98)"/><path d="m0 0-1.102-1.102" style="fill:none;stroke:#ff8200;stroke-width:1.7;stroke-linecap:round;stroke-linejoin:round;stroke-miterlimit:4;stroke-dasharray:none;stroke-opacity:1" transform="translate(36.135 45.98)"/><path d="M0 0v-1.765" style="fill:none;stroke:#ff8200;stroke-width:1.7;stroke-linecap:round;stroke-linejoin:round;stroke-miterlimit:4;stroke-dasharray:none;stroke-opacity:1" transform="translate(31.14 34.11)"/><path d="M0 0a3.53 3.53 0 1 1-5.295-3.04v-2.254h3.53v2.254A3.515 3.515 0 0 1 0 0Z" style="fill:none;stroke:#ff8200;stroke-width:1.7;stroke-linecap:round;stroke-linejoin:round;stroke-miterlimit:4;stroke-dasharray:none;stroke-opacity:1" transform="translate(34.67 39.403)"/></g></svg>