<svg xmlns="http://www.w3.org/2000/svg" width="66.667" height="66.667"><defs><clipPath id="a" clipPathUnits="userSpaceOnUse"><path d="M0 50h50V0H0Z"/></clipPath></defs><g clip-path="url(#a)" transform="matrix(1.33333 0 0 -1.33333 0 66.667)"><path d="M0 0h.554a.8.8 0 1 1 0 1.6H0a5.384 5.384 0 0 1-5.378-5.379v-26.125A5.384 5.384 0 0 1 0-35.282h.554a.8.8 0 1 1 0 1.6H0a3.783 3.783 0 0 0-3.779 3.778v12.263h3.488a.8.8 0 0 1 0 1.599h-3.488v12.263A3.784 3.784 0 0 0 0 0" style="fill:#0099df;fill-opacity:1;fill-rule:nonzero;stroke:none" transform="translate(36.39 41.811)"/><path d="M0 0a.191.191 0 0 0-.189-.19h-7.515a.191.191 0 0 0-.191.19v9.278c0 .105.086.191.191.191h4.229a.805.805 0 0 0 .571-.237.678.678 0 0 1 .081-.07l2.618-1.989A.8.8 0 0 0 0 6.637Zm.813 8.408-2.629 1.998a2.397 2.397 0 0 1-1.659.661h-4.229a1.79 1.79 0 0 1-1.789-1.789V0c0-.986.802-1.789 1.789-1.789h7.515c.985 0 1.788.803 1.788 1.789v6.637c0 .641-.25 1.247-.704 1.699a.63.63 0 0 1-.082.072" style="fill:#0099df;fill-opacity:1;fill-rule:nonzero;stroke:none" transform="translate(48.401 2.62)"/><path d="M0 0h-4.939a.799.799 0 1 1 0-1.599H0A.8.8 0 1 1 0 0" style="fill:#0099df;fill-opacity:1;fill-rule:nonzero;stroke:none" transform="translate(46.924 8.663)"/><path d="M0 0h-4.939a.799.799 0 1 1 0-1.599H0A.8.8 0 1 1 0 0" style="fill:#0099df;fill-opacity:1;fill-rule:nonzero;stroke:none" transform="translate(46.924 5.798)"/><path d="M0 0a.191.191 0 0 0-.189-.19h-7.515a.191.191 0 0 0-.191.19v9.278a.19.19 0 0 0 .191.189H-3.473a.799.799 0 0 0 .569-.235.678.678 0 0 1 .081-.07l2.618-1.989A.803.803 0 0 0 0 6.636Zm.813 8.408-2.629 1.998a2.392 2.392 0 0 1-1.656.661h-4.232a1.79 1.79 0 0 1-1.789-1.789V0a1.79 1.79 0 0 1 1.789-1.789h7.515A1.79 1.79 0 0 1 1.599 0v6.636c0 .643-.25 1.247-.704 1.7a.63.63 0 0 1-.082.072" style="fill:#0099df;fill-opacity:1;fill-rule:nonzero;stroke:none" transform="translate(48.401 20.331)"/><path d="M0 0h-4.939a.8.8 0 1 1 0-1.6H0A.8.8 0 0 1 0 0" style="fill:#0099df;fill-opacity:1;fill-rule:nonzero;stroke:none" transform="translate(46.924 26.375)"/><path d="M0 0h-4.939a.8.8 0 1 1 0-1.6H0A.8.8 0 1 1 0 0" style="fill:#0099df;fill-opacity:1;fill-rule:nonzero;stroke:none" transform="translate(46.924 23.51)"/><path d="M0 0a.19.19 0 0 0-.189-.19h-7.515a.19.19 0 0 0-.191.19v9.278c0 .105.086.19.191.19h4.229a.804.804 0 0 0 .571-.236.678.678 0 0 1 .081-.07l2.619-1.99A.802.802 0 0 0 0 6.636Zm.895 8.337a.803.803 0 0 1-.082.071l-2.629 1.998a2.398 2.398 0 0 1-1.659.662h-4.229a1.791 1.791 0 0 1-1.789-1.79V0c0-.987.802-1.79 1.789-1.79h7.515c.985 0 1.788.803 1.788 1.79v6.636c0 .643-.25 1.248-.704 1.701" style="fill:#0099df;fill-opacity:1;fill-rule:nonzero;stroke:none" transform="translate(48.401 38.102)"/><path d="M0 0h-4.939a.8.8 0 1 1 0-1.6H0A.8.8 0 0 1 0 0" style="fill:#0099df;fill-opacity:1;fill-rule:nonzero;stroke:none" transform="translate(46.924 44.147)"/><path d="M0 0h-4.939a.8.8 0 1 1 0-1.6H0A.8.8 0 1 1 0 0" style="fill:#0099df;fill-opacity:1;fill-rule:nonzero;stroke:none" transform="translate(46.924 41.281)"/><path d="M0 0h-8.455c-.695 0-1.26.565-1.26 1.261v26.754c0 .778.633 1.411 1.411 1.411H5.637c.677 0 1.314-.264 1.794-.743l5.557-5.558c.48-.48.744-1.119.744-1.797v-7.785a.8.8 0 0 1 1.6 0v7.785c0 1.106-.43 2.146-1.212 2.928l-5.558 5.558a4.11 4.11 0 0 1-2.925 1.212H-8.304a3.015 3.015 0 0 1-3.011-3.011V1.261A2.864 2.864 0 0 1-8.455-1.6H0A.8.8 0 1 1 0 0" style="fill:#0099df;fill-opacity:1;fill-rule:nonzero;stroke:none" transform="translate(11.315 10.36)"/><path d="M0 0c.318 0 .595.256.605.561l.086 3.534c0 .34-.323.637-.691.637-.375 0-.691-.292-.691-.639L-.605.562C-.605.248-.339 0 0 0" style="fill:#0099df;fill-opacity:1;fill-rule:nonzero;stroke:none" transform="translate(22.171 11.639)"/><path d="M0 0c-.447 0-.811-.331-.811-.739 0-.412.364-.746.811-.746.435 0 .802.341.802.746C.802-.339.435 0 0 0" style="fill:#0099df;fill-opacity:1;fill-rule:nonzero;stroke:none" transform="translate(22.189 10.866)"/><path d="M0 0a.941.941 0 0 0-.796-.444h-8.265a.93.93 0 0 0-.795.443.93.93 0 0 0-.041.911l4.132 8.264c.161.319.48.517.837.517a.932.932 0 0 0 .837-.517L.041.91A.929.929 0 0 0 0 0m1.472 1.625L-2.66 9.889a2.52 2.52 0 0 1-2.268 1.401 2.52 2.52 0 0 1-2.267-1.401l-4.133-8.264a2.518 2.518 0 0 1 .111-2.467 2.519 2.519 0 0 1 2.156-1.201h8.265c.871 0 1.697.46 2.157 1.201.465.753.506 1.676.112 2.467z" style="fill:#0099df;fill-opacity:1;fill-rule:nonzero;stroke:none" transform="translate(27.112 8.85)"/><path d="M0 0c.442 0 .8.357.8.799v1.223a7.138 7.138 0 0 1 1.549 7.647 7.145 7.145 0 0 1-6.687 4.56h-.008c-5 0-6.439-3.824-7.963-7.872a141.27 141.27 0 0 0-.437-1.15 1.319 1.319 0 0 1 .143-1.214 1.319 1.319 0 0 1 1.081-.569h.495V2.18A2.849 2.849 0 0 1-8.181-.666h.223v-2.149a.799.799 0 1 1 1.599 0V.134a.8.8 0 0 1-.8.8h-1.022c-.687 0-1.246.559-1.246 1.246v2.044a.8.8 0 0 1-.8.8h-.876c.099.259.196.516.291.77 1.494 3.968 2.573 6.834 6.467 6.834h.006A5.552 5.552 0 0 0 .86 9.084 5.553 5.553 0 0 0-.543 2.946.798.798 0 0 1-.8 2.359V.799A.8.8 0 0 1 0 0" style="fill:#0099df;fill-opacity:1;fill-rule:nonzero;stroke:none" transform="translate(18.025 19.84)"/><path d="m0 0-4.721 2.469a2.773 2.773 0 0 0 3.28.523A2.77 2.77 0 0 0 0 0m1.434-.83A4.368 4.368 0 0 1-.7 4.41a4.373 4.373 0 0 1-5.523-1.239 1.311 1.311 0 0 1 .44-1.951l.001-.001 5.361-2.804a1.302 1.302 0 0 1 1.104-.053c.357.147.63.44.751.808" style="fill:#0099df;fill-opacity:1;fill-rule:nonzero;stroke:none" transform="translate(16.665 26.603)"/></g></svg>