<svg width="56" height="51" fill="none" xmlns="http://www.w3.org/2000/svg"><g clip-path="url(#a)" stroke="#FF8A00" stroke-width="2.2" stroke-linecap="round" stroke-linejoin="round"><path d="M36.647 49.767H18.94l1.776-7.732h14.168l1.776 7.732h-.013ZM13.626 49.767h28.336M1.233 35.229h53.121M1.233 7.805a6.578 6.578 0 0 1 6.573-6.572h39.976a6.57 6.57 0 0 1 6.572 6.572v27.646a6.57 6.57 0 0 1-6.572 6.572H7.806a6.57 6.57 0 0 1-6.573-6.572V7.805Z"/><path d="M11.652 12.528a2.779 2.779 0 0 0 2.775-2.774 2.779 2.779 0 0 0-2.775-2.775 2.779 2.779 0 0 0-2.774 2.775 2.779 2.779 0 0 0 2.774 2.774ZM13.896 11.381l2.38 1.727M11.652 29.791a2.779 2.779 0 0 0 2.775-2.774 2.779 2.779 0 0 0-2.775-2.775 2.779 2.779 0 0 0-2.774 2.775 2.779 2.779 0 0 0 2.774 2.774ZM13.896 25.389l2.38-1.726M43.935 12.528a2.779 2.779 0 0 1-2.775-2.774 2.779 2.779 0 0 1 2.775-2.775 2.779 2.779 0 0 1 2.774 2.775 2.779 2.779 0 0 1-2.774 2.774ZM41.69 11.381l-2.38 1.727M43.935 29.791a2.779 2.779 0 0 1-2.775-2.774 2.779 2.779 0 0 1 2.775-2.775 2.779 2.779 0 0 1 2.774 2.775 2.779 2.779 0 0 1-2.774 2.774ZM41.69 25.389l-2.38-1.726M34.242 16.289h-3.958v-3.958a.795.795 0 0 0-.79-.79h-3.168a.795.795 0 0 0-.79.79v3.958h-3.958a.795.795 0 0 0-.789.79v3.168c0 .432.358.79.79.79h3.957v3.957c0 .432.358.79.79.79h3.169c.431 0 .789-.358.789-.79v-3.958h3.958c.431 0 .79-.357.79-.789v-3.169a.795.795 0 0 0-.79-.789Z"/></g><defs><clipPath id="a"><path fill="#fff" d="M0 0h55.587v51H0z"/></clipPath></defs></svg>