<svg width="24" height="24" viewBox="0 0 24 24" fill="none" xmlns="http://www.w3.org/2000/svg">
<mask id="path-1-outside-1_1702_1788" maskUnits="userSpaceOnUse" x="0" y="0" width="24" height="24" fill="black">
<rect fill="white" width="24" height="24"/>
<path fill-rule="evenodd" clip-rule="evenodd" d="M6.28244 6.21343C6.28244 6.43743 6.46822 6.61982 6.69678 6.61982C6.92452 6.61982 7.1103 6.43743 7.1103 6.21343C7.1103 5.98943 6.92452 5.80704 6.69678 5.80704C6.46822 5.80704 6.28244 5.98943 6.28244 6.21343ZM8.73993 10.2002C8.73993 9.97978 8.55741 9.80018 8.33252 9.80018C8.10763 9.80018 7.92511 9.97978 7.92511 10.2002C7.92511 10.4206 8.10763 10.6002 8.33252 10.6002C8.55741 10.6002 8.73993 10.4206 8.73993 10.2002ZM8.73993 17.8001C8.73993 17.5797 8.55741 17.4001 8.33252 17.4001C8.10763 17.4001 7.92511 17.5797 7.92511 17.8001C7.92511 18.0205 8.10763 18.2001 8.33252 18.2001C8.55741 18.2001 8.73993 18.0205 8.73993 17.8001ZM4.66585 12.6001C4.66585 12.8205 4.84837 13.0001 5.07326 13.0001C5.29815 13.0001 5.48067 12.8205 5.48067 12.6001C5.48067 12.3797 5.29815 12.2001 5.07326 12.2001C4.84837 12.2001 4.66585 12.3797 4.66585 12.6001ZM1.81482 13.9089L3.86692 12.7529C3.8604 12.7025 3.85104 12.6525 3.85104 12.6001C3.85104 11.9386 4.39941 11.4002 5.07326 11.4002C5.74752 11.4002 6.29548 11.9386 6.29548 12.6001C6.29548 13.2617 5.74752 13.8001 5.07326 13.8001C4.74774 13.8001 4.45359 13.6725 4.23441 13.4685L2.26867 14.5757L4.03315 15.4421C4.17126 15.5101 4.25844 15.6485 4.25844 15.8001V19.1765L9.15507 22.1348L11.5914 20.768V18.2001H9.47978C9.31111 18.6645 8.86296 19.0001 8.33252 19.0001C7.65867 19.0001 7.1103 18.4617 7.1103 17.8001C7.1103 17.1381 7.65867 16.6001 8.33252 16.6001C8.86296 16.6001 9.31111 16.9353 9.47978 17.4001H11.5914V11.8002C11.5914 11.6598 11.6667 11.5294 11.7894 11.457L13.8268 10.257L14.246 10.943L12.4062 12.0266V13.2029L14.851 15.0493V13.4001C14.851 13.2785 14.9073 13.1633 15.0038 13.0877L16.8881 11.6078V9.61418L14.6253 8.133C14.5117 8.0586 14.4436 7.93381 14.4436 7.80021V5.40024H15.2584V7.58621L17.291 8.91619L19.3325 7.58541V4.42985L17.2955 3.26347V6.60022H16.4807V2.79668L14.8498 1.86269L12.407 3.24627L12.4066 8.2002C12.4066 8.3438 12.3284 8.4762 12.2013 8.5474L9.53844 10.0414C9.54578 10.0938 9.55474 10.1458 9.55474 10.2002C9.55474 10.8618 9.00678 11.4002 8.33252 11.4002C7.65867 11.4002 7.1103 10.8618 7.1103 10.2002C7.1103 9.53858 7.65867 9.00019 8.33252 9.00019C8.656 9.00019 8.94852 9.12619 9.1673 9.32819L11.5918 7.96781L11.5922 3.24707L9.16281 1.87069L4.66585 4.81425V5.80023H5.54218C5.71411 5.33784 6.16674 5.00705 6.69678 5.00705C7.3743 5.00705 7.92511 5.54824 7.92511 6.21343C7.92511 6.87862 7.3743 7.41981 6.69678 7.41981C6.15656 7.41981 5.697 7.07622 5.53241 6.60022H4.66585V7.80021C4.66585 7.94381 4.58763 8.0762 4.46052 8.1474L1.81482 9.63218V13.9089ZM14.8437 22.1348L16.1283 21.3588L13.7995 19.7256L14.2729 19.0745L16.8816 20.9036L19.7399 19.1765V16.0265L17.9009 14.9429L18.3201 14.2569L20.1653 15.3441L22.1844 14.3529L22.1848 12.047L19.9652 10.9578L20.3294 10.2422L22.1848 11.1526L22.1844 9.63218L19.7558 8.2698L17.7029 9.60778V11.5922L19.9652 13.0669L19.5146 13.7333L17.3134 12.2981L15.6659 13.5921V15.6649L17.544 17.0829L17.0474 17.7169L12.4062 14.2121V20.7676L14.8437 22.1348ZM1.20533 9.05299L3.85104 7.56821V4.60025C3.85104 4.46625 3.91908 4.34146 4.03274 4.26746L8.92163 1.0675C9.05037 0.983501 9.21659 0.977901 9.35104 1.0539L11.9984 2.55388L14.6473 1.0539C14.7744 0.981901 14.9305 0.981901 15.0564 1.0547L19.9453 3.85466C20.0707 3.92626 20.1473 4.05786 20.1473 4.20026V7.56821L22.7939 9.05299C22.921 9.12379 22.9992 9.25659 22.9992 9.40019V9.56698C22.9996 9.57538 23 9.58338 23 9.59178V13.9453C23 13.9533 22.9996 13.9613 22.9992 13.9689V14.6001C22.9992 14.7517 22.912 14.8901 22.7739 14.9577L20.5547 16.0473V19.4C20.5547 19.5388 20.4818 19.6676 20.3612 19.7404L15.0649 22.9404C14.9993 22.98 14.9252 23 14.851 23C14.7814 23 14.7117 22.9824 14.649 22.9472L11.9988 21.4608L9.34941 22.9472C9.22107 23.0196 9.06137 23.0168 8.93385 22.9404L3.63755 19.7404C3.51696 19.6676 3.44363 19.5388 3.44363 19.4V16.0473L1.2253 14.9577C1.08719 14.8901 1 14.7517 1 14.6001V9.40019C1 9.25659 1.07863 9.12419 1.20533 9.05299Z"/>
</mask>
<path fill-rule="evenodd" clip-rule="evenodd" d="M6.28244 6.21343C6.28244 6.43743 6.46822 6.61982 6.69678 6.61982C6.92452 6.61982 7.1103 6.43743 7.1103 6.21343C7.1103 5.98943 6.92452 5.80704 6.69678 5.80704C6.46822 5.80704 6.28244 5.98943 6.28244 6.21343ZM8.73993 10.2002C8.73993 9.97978 8.55741 9.80018 8.33252 9.80018C8.10763 9.80018 7.92511 9.97978 7.92511 10.2002C7.92511 10.4206 8.10763 10.6002 8.33252 10.6002C8.55741 10.6002 8.73993 10.4206 8.73993 10.2002ZM8.73993 17.8001C8.73993 17.5797 8.55741 17.4001 8.33252 17.4001C8.10763 17.4001 7.92511 17.5797 7.92511 17.8001C7.92511 18.0205 8.10763 18.2001 8.33252 18.2001C8.55741 18.2001 8.73993 18.0205 8.73993 17.8001ZM4.66585 12.6001C4.66585 12.8205 4.84837 13.0001 5.07326 13.0001C5.29815 13.0001 5.48067 12.8205 5.48067 12.6001C5.48067 12.3797 5.29815 12.2001 5.07326 12.2001C4.84837 12.2001 4.66585 12.3797 4.66585 12.6001ZM1.81482 13.9089L3.86692 12.7529C3.8604 12.7025 3.85104 12.6525 3.85104 12.6001C3.85104 11.9386 4.39941 11.4002 5.07326 11.4002C5.74752 11.4002 6.29548 11.9386 6.29548 12.6001C6.29548 13.2617 5.74752 13.8001 5.07326 13.8001C4.74774 13.8001 4.45359 13.6725 4.23441 13.4685L2.26867 14.5757L4.03315 15.4421C4.17126 15.5101 4.25844 15.6485 4.25844 15.8001V19.1765L9.15507 22.1348L11.5914 20.768V18.2001H9.47978C9.31111 18.6645 8.86296 19.0001 8.33252 19.0001C7.65867 19.0001 7.1103 18.4617 7.1103 17.8001C7.1103 17.1381 7.65867 16.6001 8.33252 16.6001C8.86296 16.6001 9.31111 16.9353 9.47978 17.4001H11.5914V11.8002C11.5914 11.6598 11.6667 11.5294 11.7894 11.457L13.8268 10.257L14.246 10.943L12.4062 12.0266V13.2029L14.851 15.0493V13.4001C14.851 13.2785 14.9073 13.1633 15.0038 13.0877L16.8881 11.6078V9.61418L14.6253 8.133C14.5117 8.0586 14.4436 7.93381 14.4436 7.80021V5.40024H15.2584V7.58621L17.291 8.91619L19.3325 7.58541V4.42985L17.2955 3.26347V6.60022H16.4807V2.79668L14.8498 1.86269L12.407 3.24627L12.4066 8.2002C12.4066 8.3438 12.3284 8.4762 12.2013 8.5474L9.53844 10.0414C9.54578 10.0938 9.55474 10.1458 9.55474 10.2002C9.55474 10.8618 9.00678 11.4002 8.33252 11.4002C7.65867 11.4002 7.1103 10.8618 7.1103 10.2002C7.1103 9.53858 7.65867 9.00019 8.33252 9.00019C8.656 9.00019 8.94852 9.12619 9.1673 9.32819L11.5918 7.96781L11.5922 3.24707L9.16281 1.87069L4.66585 4.81425V5.80023H5.54218C5.71411 5.33784 6.16674 5.00705 6.69678 5.00705C7.3743 5.00705 7.92511 5.54824 7.92511 6.21343C7.92511 6.87862 7.3743 7.41981 6.69678 7.41981C6.15656 7.41981 5.697 7.07622 5.53241 6.60022H4.66585V7.80021C4.66585 7.94381 4.58763 8.0762 4.46052 8.1474L1.81482 9.63218V13.9089ZM14.8437 22.1348L16.1283 21.3588L13.7995 19.7256L14.2729 19.0745L16.8816 20.9036L19.7399 19.1765V16.0265L17.9009 14.9429L18.3201 14.2569L20.1653 15.3441L22.1844 14.3529L22.1848 12.047L19.9652 10.9578L20.3294 10.2422L22.1848 11.1526L22.1844 9.63218L19.7558 8.2698L17.7029 9.60778V11.5922L19.9652 13.0669L19.5146 13.7333L17.3134 12.2981L15.6659 13.5921V15.6649L17.544 17.0829L17.0474 17.7169L12.4062 14.2121V20.7676L14.8437 22.1348ZM1.20533 9.05299L3.85104 7.56821V4.60025C3.85104 4.46625 3.91908 4.34146 4.03274 4.26746L8.92163 1.0675C9.05037 0.983501 9.21659 0.977901 9.35104 1.0539L11.9984 2.55388L14.6473 1.0539C14.7744 0.981901 14.9305 0.981901 15.0564 1.0547L19.9453 3.85466C20.0707 3.92626 20.1473 4.05786 20.1473 4.20026V7.56821L22.7939 9.05299C22.921 9.12379 22.9992 9.25659 22.9992 9.40019V9.56698C22.9996 9.57538 23 9.58338 23 9.59178V13.9453C23 13.9533 22.9996 13.9613 22.9992 13.9689V14.6001C22.9992 14.7517 22.912 14.8901 22.7739 14.9577L20.5547 16.0473V19.4C20.5547 19.5388 20.4818 19.6676 20.3612 19.7404L15.0649 22.9404C14.9993 22.98 14.9252 23 14.851 23C14.7814 23 14.7117 22.9824 14.649 22.9472L11.9988 21.4608L9.34941 22.9472C9.22107 23.0196 9.06137 23.0168 8.93385 22.9404L3.63755 19.7404C3.51696 19.6676 3.44363 19.5388 3.44363 19.4V16.0473L1.2253 14.9577C1.08719 14.8901 1 14.7517 1 14.6001V9.40019C1 9.25659 1.07863 9.12419 1.20533 9.05299Z" fill="#6956E5"/>
<path fill-rule="evenodd" clip-rule="evenodd" d="M6.28244 6.21343C6.28244 6.43743 6.46822 6.61982 6.69678 6.61982C6.92452 6.61982 7.1103 6.43743 7.1103 6.21343C7.1103 5.98943 6.92452 5.80704 6.69678 5.80704C6.46822 5.80704 6.28244 5.98943 6.28244 6.21343ZM8.73993 10.2002C8.73993 9.97978 8.55741 9.80018 8.33252 9.80018C8.10763 9.80018 7.92511 9.97978 7.92511 10.2002C7.92511 10.4206 8.10763 10.6002 8.33252 10.6002C8.55741 10.6002 8.73993 10.4206 8.73993 10.2002ZM8.73993 17.8001C8.73993 17.5797 8.55741 17.4001 8.33252 17.4001C8.10763 17.4001 7.92511 17.5797 7.92511 17.8001C7.92511 18.0205 8.10763 18.2001 8.33252 18.2001C8.55741 18.2001 8.73993 18.0205 8.73993 17.8001ZM4.66585 12.6001C4.66585 12.8205 4.84837 13.0001 5.07326 13.0001C5.29815 13.0001 5.48067 12.8205 5.48067 12.6001C5.48067 12.3797 5.29815 12.2001 5.07326 12.2001C4.84837 12.2001 4.66585 12.3797 4.66585 12.6001ZM1.81482 13.9089L3.86692 12.7529C3.8604 12.7025 3.85104 12.6525 3.85104 12.6001C3.85104 11.9386 4.39941 11.4002 5.07326 11.4002C5.74752 11.4002 6.29548 11.9386 6.29548 12.6001C6.29548 13.2617 5.74752 13.8001 5.07326 13.8001C4.74774 13.8001 4.45359 13.6725 4.23441 13.4685L2.26867 14.5757L4.03315 15.4421C4.17126 15.5101 4.25844 15.6485 4.25844 15.8001V19.1765L9.15507 22.1348L11.5914 20.768V18.2001H9.47978C9.31111 18.6645 8.86296 19.0001 8.33252 19.0001C7.65867 19.0001 7.1103 18.4617 7.1103 17.8001C7.1103 17.1381 7.65867 16.6001 8.33252 16.6001C8.86296 16.6001 9.31111 16.9353 9.47978 17.4001H11.5914V11.8002C11.5914 11.6598 11.6667 11.5294 11.7894 11.457L13.8268 10.257L14.246 10.943L12.4062 12.0266V13.2029L14.851 15.0493V13.4001C14.851 13.2785 14.9073 13.1633 15.0038 13.0877L16.8881 11.6078V9.61418L14.6253 8.133C14.5117 8.0586 14.4436 7.93381 14.4436 7.80021V5.40024H15.2584V7.58621L17.291 8.91619L19.3325 7.58541V4.42985L17.2955 3.26347V6.60022H16.4807V2.79668L14.8498 1.86269L12.407 3.24627L12.4066 8.2002C12.4066 8.3438 12.3284 8.4762 12.2013 8.5474L9.53844 10.0414C9.54578 10.0938 9.55474 10.1458 9.55474 10.2002C9.55474 10.8618 9.00678 11.4002 8.33252 11.4002C7.65867 11.4002 7.1103 10.8618 7.1103 10.2002C7.1103 9.53858 7.65867 9.00019 8.33252 9.00019C8.656 9.00019 8.94852 9.12619 9.1673 9.32819L11.5918 7.96781L11.5922 3.24707L9.16281 1.87069L4.66585 4.81425V5.80023H5.54218C5.71411 5.33784 6.16674 5.00705 6.69678 5.00705C7.3743 5.00705 7.92511 5.54824 7.92511 6.21343C7.92511 6.87862 7.3743 7.41981 6.69678 7.41981C6.15656 7.41981 5.697 7.07622 5.53241 6.60022H4.66585V7.80021C4.66585 7.94381 4.58763 8.0762 4.46052 8.1474L1.81482 9.63218V13.9089ZM14.8437 22.1348L16.1283 21.3588L13.7995 19.7256L14.2729 19.0745L16.8816 20.9036L19.7399 19.1765V16.0265L17.9009 14.9429L18.3201 14.2569L20.1653 15.3441L22.1844 14.3529L22.1848 12.047L19.9652 10.9578L20.3294 10.2422L22.1848 11.1526L22.1844 9.63218L19.7558 8.2698L17.7029 9.60778V11.5922L19.9652 13.0669L19.5146 13.7333L17.3134 12.2981L15.6659 13.5921V15.6649L17.544 17.0829L17.0474 17.7169L12.4062 14.2121V20.7676L14.8437 22.1348ZM1.20533 9.05299L3.85104 7.56821V4.60025C3.85104 4.46625 3.91908 4.34146 4.03274 4.26746L8.92163 1.0675C9.05037 0.983501 9.21659 0.977901 9.35104 1.0539L11.9984 2.55388L14.6473 1.0539C14.7744 0.981901 14.9305 0.981901 15.0564 1.0547L19.9453 3.85466C20.0707 3.92626 20.1473 4.05786 20.1473 4.20026V7.56821L22.7939 9.05299C22.921 9.12379 22.9992 9.25659 22.9992 9.40019V9.56698C22.9996 9.57538 23 9.58338 23 9.59178V13.9453C23 13.9533 22.9996 13.9613 22.9992 13.9689V14.6001C22.9992 14.7517 22.912 14.8901 22.7739 14.9577L20.5547 16.0473V19.4C20.5547 19.5388 20.4818 19.6676 20.3612 19.7404L15.0649 22.9404C14.9993 22.98 14.9252 23 14.851 23C14.7814 23 14.7117 22.9824 14.649 22.9472L11.9988 21.4608L9.34941 22.9472C9.22107 23.0196 9.06137 23.0168 8.93385 22.9404L3.63755 19.7404C3.51696 19.6676 3.44363 19.5388 3.44363 19.4V16.0473L1.2253 14.9577C1.08719 14.8901 1 14.7517 1 14.6001V9.40019C1 9.25659 1.07863 9.12419 1.20533 9.05299Z" stroke="#6956E5" stroke-width="0.4" mask="url(#path-1-outside-1_1702_1788)"/>
</svg>
