<svg width="66.667" height="66.667" xmlns="http://www.w3.org/2000/svg"><defs><clipPath clipPathUnits="userSpaceOnUse" id="a"><path d="M0 50h50V0H0Z"/></clipPath></defs><g clip-path="url(#a)" transform="matrix(1.33333 0 0 -1.33333 0 66.667)"><path d="M0 0c0-.435.351-.786.786-.786h12.943a.785.785 0 1 1 0 1.572H.786A.785.785 0 0 1 0 0" style="fill:#0099df;fill-opacity:1;fill-rule:nonzero;stroke:none" transform="translate(24.598 22.718)"/><path d="M0 0h-7.24a.785.785 0 1 1 0-1.571H0A.785.785 0 1 1 0 0" style="fill:#0099df;fill-opacity:1;fill-rule:nonzero;stroke:none" transform="translate(38.326 18.915)"/><path d="M0 0a.786.786 0 0 1 0 1.573h-9.091a.785.785 0 0 1 0-1.573Z" style="fill:#0099df;fill-opacity:1;fill-rule:nonzero;stroke:none" transform="translate(38.326 26.439)"/><path d="M0 0h-35.476c-1.489 0-2.701-1.243-2.701-2.77a.787.787 0 1 1 1.573 0c0 .66.506 1.197 1.128 1.197H0c1.018 0 1.728-1.112 1.728-2.11v-30.993c0-.659-.507-1.196-1.128-1.196a.786.786 0 1 1 0-1.572c1.488 0 2.7 1.242 2.7 2.768v30.993C3.3-1.905 1.974 0 0 0" style="fill:#0099df;fill-opacity:1;fill-rule:nonzero;stroke:none" transform="translate(46.665 48.55)"/><path d="M0 0v5.278c0 .599.487 1.086 1.086 1.086h35.78c.599 0 1.087-.487 1.087-1.086V0Zm36.866 7.937H1.086a2.662 2.662 0 0 1-2.659-2.659v-8.755a.786.786 0 0 1 1.573 0v1.904h37.953v-24.073c0-.675-.519-1.225-1.155-1.225H25.373a.786.786 0 1 1 0-1.572h11.425c1.503 0 2.727 1.255 2.727 2.797V5.278a2.662 2.662 0 0 1-2.659 2.659" style="fill:#0099df;fill-opacity:1;fill-rule:nonzero;stroke:none" transform="translate(4.736 35.494)"/><path d="M0 0a.44.44 0 0 0-.44.439A.44.44 0 1 0 0 0m0 2.451A2.016 2.016 0 0 1-2.013.439c0-1.109.904-2.012 2.013-2.012S2.011-.67 2.011.439A2.014 2.014 0 0 1 0 2.451" style="fill:#0099df;fill-opacity:1;fill-rule:nonzero;stroke:none" transform="translate(28.016 38.13)"/><path d="M0 0a.44.44 0 0 0-.439.439A.44.44 0 1 0 0 0m0 2.451A2.015 2.015 0 0 1-2.012.439c0-1.109.903-2.012 2.012-2.012 1.11 0 2.012.903 2.012 2.012A2.014 2.014 0 0 1 0 2.451" style="fill:#0099df;fill-opacity:1;fill-rule:nonzero;stroke:none" transform="translate(32.816 38.13)"/><path d="M0 0a.44.44 0 0 0-.44.439.44.44 0 0 0 .879 0A.44.44 0 0 0 0 0m0 2.451A2.015 2.015 0 0 1-2.012.439c0-1.109.903-2.012 2.012-2.012S2.012-.67 2.012.439A2.015 2.015 0 0 1 0 2.451" style="fill:#0099df;fill-opacity:1;fill-rule:nonzero;stroke:none" transform="translate(37.565 38.13)"/><path d="M0 0c-.523 0-.966-.408-.966-.896l.12-3.906c0-.44.372-.785.846-.785.444 0 .832.358.847.782L.966-.893C.966-.418.515 0 0 0" style="fill:#0099df;fill-opacity:1;fill-rule:nonzero;stroke:none" transform="translate(20.713 12.317)"/><path d="M0 0c-.514 0-.933-.381-.933-.85 0-.473.419-.858.933-.858.5 0 .922.393.922.858C.922-.389.5 0 0 0" style="fill:#0099df;fill-opacity:1;fill-rule:nonzero;stroke:none" transform="translate(20.733 5.984)"/><path d="M0 0a1.205 1.205 0 0 0-1.03-.573h-9.505c-.417 0-.811.219-1.029.572-.222.36-.242.8-.052 1.179l4.753 9.504a1.2 1.2 0 0 0 1.081.669 1.2 1.2 0 0 0 1.081-.669L.053 1.178v-.001A1.204 1.204 0 0 0 0 0m-3.294 11.385a2.766 2.766 0 0 1-2.488 1.538 2.765 2.765 0 0 1-2.488-1.538l-4.753-9.504a2.764 2.764 0 0 1 .121-2.708 2.765 2.765 0 0 1 2.367-1.319h9.505c.971 0 1.856.493 2.368 1.32.51.827.555 1.839.12 2.707z" style="fill:#0099df;fill-opacity:1;fill-rule:nonzero;stroke:none" transform="translate(26.51 3.596)"/><path d="M0 0H-6.556c-.44 0-.798.329-.798.735v3.4H.799v-3.4C.799.329.44 0 0 0m-7.132 12.787 2.706 2.597a.788.788 0 0 1 .242.567l.002 2.059h1.81v-2.059c0-.214.088-.419.243-.567l2.705-2.596a.704.704 0 0 0 .223-.509v-1.305h-8.153v1.304c0 .191.079.371.222.509m4.76 8.491v-1.695H-4.18l.002 1.669h.84c.005 0 .009.003.014.003zM-7.354 9.401H.799V5.707h-8.153zm6.555 6.886v4.991c0 .852-.708 1.547-1.578 1.547H-4.178c-.871 0-1.579-.695-1.579-1.547v-4.991l-2.465-2.366a2.299 2.299 0 0 1-.705-1.642V.735c0-1.273 1.064-2.307 2.371-2.307H0c1.308 0 2.372 1.034 2.372 2.307v11.544c0 .613-.258 1.211-.706 1.643z" style="fill:#0099df;fill-opacity:1;fill-rule:nonzero;stroke:none" transform="translate(8.962 6.269)"/><path d="M0 0c-1.028-.475-1.412-1.169-1.552-1.667-.335-1.183.36-2.275.44-2.396a.786.786 0 1 1 1.31.871c-.081.121-.359.665-.237 1.098.028.098.112.395.699.666C2.133-.746 2.623.089 2.774.67c.164.631.029 1.272-.393 1.853A.787.787 0 0 1 1.108 1.6c.187-.258.172-.428.144-.534C1.208.9 1 .462 0 0" style="fill:#0099df;fill-opacity:1;fill-rule:nonzero;stroke:none" transform="translate(18.019 26.992)"/><path d="m0 0-.022-3.434h-1.019l.012 3.436zm-1.854-11.775c.434 0 .785.349.787.783l.021 5.986h1.014l-.005-.744a.786.786 0 0 1 .781-.791h.005c.432 0 .784.349.787.78L1.574.152c.001.378-.145.735-.413 1.003a1.408 1.408 0 0 1-1.001.417l-1.343.003A1.42 1.42 0 0 1-2.601.162l-.039-11.149a.784.784 0 0 1 .784-.788z" style="fill:#0099df;fill-opacity:1;fill-rule:nonzero;stroke:none" transform="translate(15.34 20.676)"/></g></svg>