<svg xmlns="http://www.w3.org/2000/svg" width="66.667" height="66.667"><defs><clipPath id="a" clipPathUnits="userSpaceOnUse"><path d="M0 50h50V0H0Z"/></clipPath></defs><g clip-path="url(#a)" transform="matrix(1.33333 0 0 -1.33333 0 66.667)"><path d="M0 0a.788.788 0 0 1-.417-.116l-2.118-1.217a.642.642 0 0 1-.331-.588c0-.451.364-.608.685-.608.245 0 .428.094.631.219l.844.505v-5.101c0-.357.331-.672.749-.672.406 0 .749.315.749.672v6.202C.792-.304.449 0 0 0" style="fill:#0099df;fill-opacity:1;fill-rule:nonzero;stroke:none" transform="translate(8.733 29.804)"/><path d="M0 0c0 .671.278 1.144.984 1.144.705 0 .983-.473.983-1.144v-2.959c0-.6-.342-1.009-.983-1.009-.642 0-.984.409-.984 1.009Zm.984-5.259c1.593 0 2.47 1.018 2.47 2.3v2.886c0 1.385-.749 2.497-2.47 2.497-1.722 0-2.471-1.112-2.471-2.497v-2.886c0-1.282.878-2.3 2.471-2.3" style="fill:#0099df;fill-opacity:1;fill-rule:nonzero;stroke:none" transform="translate(12.86 27.474)"/><path d="M0 0c-.417 0-.749-.315-.749-.672v-6.234c0-.367.332-.683.749-.683.407 0 .749.316.749.683v2.14l.192.21 2.075-2.728a.745.745 0 0 1 .62-.305.73.73 0 0 1 .727.703.534.534 0 0 1-.117.359L1.903-3.484l2.129 2.36c.171.19.181.295.181.452 0 .368-.417.672-.737.672a.854.854 0 0 1-.61-.304L.749-2.666v1.994C.749-.315.407 0 0 0" style="fill:#0099df;fill-opacity:1;fill-rule:nonzero;stroke:none" transform="translate(18.098 29.804)"/><path d="M0 0c0-.436.353-.788.788-.788h4.48a.788.788 0 1 1 0 1.575H.788A.787.787 0 0 1 0 0" style="fill:#0099df;fill-opacity:1;fill-rule:nonzero;stroke:none" transform="translate(6.215 17.904)"/><path d="M0 0h-11.139a.787.787 0 1 1 0-1.575H0A.787.787 0 1 1 0 0" style="fill:#0099df;fill-opacity:1;fill-rule:nonzero;stroke:none" transform="translate(25.476 18.691)"/><path d="M0 0h-18.473a.788.788 0 0 1 0-1.575H0A.787.787 0 1 1 0 0" style="fill:#0099df;fill-opacity:1;fill-rule:nonzero;stroke:none" transform="translate(25.476 13.26)"/><path d="M0 0c.364-.364.65-.798.851-1.268h-6.104a4.029 4.029 0 0 0-4.025 4.025v6.109a4.014 4.014 0 0 0 1.268-.855Zm1.271-31.567a.791.791 0 0 1-1.088-.245 2.173 2.173 0 0 0-1.846-1.019l-28.368.009a2.185 2.185 0 0 0-2.182 2.182V6.791a2.401 2.401 0 0 0 2.4 2.398h18.959V2.757a5.607 5.607 0 0 1 5.601-5.601H1.18l.001-.004v-7.237a.788.788 0 1 1 1.575 0v7.237a5.643 5.643 0 0 1-1.641 3.962l-8.011 8.012a5.557 5.557 0 0 1-3.957 1.639h-14.341v.614a2.27 2.27 0 0 0 2.266 2.266h18.174a3.79 3.79 0 0 0 2.701-1.119l7.678-7.678a3.804 3.804 0 0 0 1.121-2.707v-12.866a.787.787 0 1 1 1.575 0V2.141A5.374 5.374 0 0 1 6.74 5.962l-7.677 7.679a5.366 5.366 0 0 1-3.817 1.58h-18.174a3.846 3.846 0 0 1-3.842-3.842v-.614h-3.043a3.98 3.98 0 0 1-3.976-3.974V-30.64a3.761 3.761 0 0 1 3.757-3.757l28.369-.009c1.297 0 2.485.655 3.179 1.752a.79.79 0 0 1-.245 1.087" style="fill:#0099df;fill-opacity:1;fill-rule:nonzero;stroke:none" transform="translate(34.803 34.592)"/><path d="M0 0a.788.788 0 0 1 0-1.575h11.201a.787.787 0 1 1 0 1.575z" style="fill:#0099df;fill-opacity:1;fill-rule:nonzero;stroke:none" transform="translate(7.003 7.843)"/><path d="M0 0h-4.536a.788.788 0 0 1 0-1.575H0A.787.787 0 0 1 0 0" style="fill:#0099df;fill-opacity:1;fill-rule:nonzero;stroke:none" transform="translate(25.476 7.843)"/><path d="M0 0a6.413 6.413 0 0 0 6.405 6.406A6.414 6.414 0 0 0 12.812 0a6.415 6.415 0 0 0-6.407-6.407A6.414 6.414 0 0 0 0 0m17.517-9.731-4.841 4.809A7.942 7.942 0 0 1 14.387 0c0 4.4-3.581 7.981-7.982 7.981-4.4 0-7.981-3.581-7.981-7.981 0-4.401 3.581-7.982 7.981-7.982a7.94 7.94 0 0 1 5.18 1.921l4.822-4.789a.787.787 0 0 1 1.114.004.79.79 0 0 1-.004 1.115" style="fill:#0099df;fill-opacity:1;fill-rule:nonzero;stroke:none" transform="translate(31.236 13.112)"/></g></svg>