<svg xmlns="http://www.w3.org/2000/svg" width="66.667" height="66.667"><defs><clipPath id="a" clipPathUnits="userSpaceOnUse"><path d="M0 50h50V0H0Z"/></clipPath></defs><g clip-path="url(#a)" transform="matrix(1.33333 0 0 -1.33333 0 66.667)"><path d="M0 0h-22.097c-.666 0-1.207.542-1.207 1.208v39.815c0 .666.541 1.208 1.207 1.208h35.278a1.21 1.21 0 0 0 1.208-1.208V18.057a.89.89 0 1 1 1.783 0v22.966a2.996 2.996 0 0 1-2.991 2.993h-35.278a2.996 2.996 0 0 1-2.992-2.993V1.208a2.995 2.995 0 0 1 2.992-2.992H0A.892.892 0 1 1 0 0" style="fill:#0098da;fill-opacity:1;fill-rule:nonzero;stroke:none" transform="translate(26.65 5.513)"/><path d="M0 0v-8.121a.893.893 0 0 1 1.785 0V0A.892.892 0 0 1 0 0" style="fill:#0098da;fill-opacity:1;fill-rule:nonzero;stroke:none" transform="translate(10.419 36.875)"/><path d="M0 0v-4.206a.893.893 0 0 1 1.785 0V0A.893.893 0 0 1 0 0" style="fill:#0098da;fill-opacity:1;fill-rule:nonzero;stroke:none" transform="translate(6.827 34.917)"/><path d="M0 0v-4.206a.893.893 0 0 1 1.785 0V0A.893.893 0 0 1 0 0" style="fill:#0098da;fill-opacity:1;fill-rule:nonzero;stroke:none" transform="translate(13.953 34.917)"/><path d="M0 0v-8.121a.892.892 0 1 1 1.784 0V0A.892.892 0 1 1 0 0" style="fill:#0098da;fill-opacity:1;fill-rule:nonzero;stroke:none" transform="translate(32.24 36.875)"/><path d="M0 0v-4.206a.892.892 0 1 1 1.783 0V0A.892.892 0 1 1 0 0" style="fill:#0098da;fill-opacity:1;fill-rule:nonzero;stroke:none" transform="translate(28.648 34.917)"/><path d="M0 0v-4.206a.892.892 0 1 1 1.783 0V0A.892.892 0 1 1 0 0" style="fill:#0098da;fill-opacity:1;fill-rule:nonzero;stroke:none" transform="translate(35.773 34.917)"/><path d="M0 0v-8.631a3.346 3.346 0 0 0-3.342-3.342 3.346 3.346 0 0 0-3.342 3.342V0a3.346 3.346 0 0 0 3.342 3.342A3.346 3.346 0 0 0 0 0m-8.469 0v-8.631a5.133 5.133 0 0 1 5.127-5.126 5.132 5.132 0 0 1 5.127 5.126V0c0 2.827-2.3 5.127-5.127 5.127A5.133 5.133 0 0 1-8.469 0" style="fill:#0098da;fill-opacity:1;fill-rule:nonzero;stroke:none" transform="translate(25.586 36.433)"/><path d="M0 0a.892.892 0 0 1-.892-.893 6.41 6.41 0 0 0-6.402-6.402 6.41 6.41 0 0 0-6.403 6.402.893.893 0 0 1-1.784 0c0-4.212 3.198-7.689 7.294-8.136v-2.732h-3.137a.892.892 0 0 1 0-1.784h8.058a.892.892 0 1 1 0 1.784h-3.136v2.732C-2.307-8.582.892-5.105.892-.893A.892.892 0 0 1 0 0" style="fill:#0098da;fill-opacity:1;fill-rule:nonzero;stroke:none" transform="translate(29.54 28.392)"/><path d="M0 0c-4.403 0-7.985 3.582-7.985 7.984 0 4.403 3.582 7.985 7.985 7.985 4.401 0 7.983-3.582 7.983-7.985C7.983 3.582 4.401 0 0 0m0 17.753c-5.388 0-9.77-4.382-9.77-9.769 0-5.386 4.382-9.768 9.77-9.768 5.386 0 9.768 4.382 9.768 9.768 0 5.387-4.382 9.769-9.768 9.769" style="fill:#0098da;fill-opacity:1;fill-rule:nonzero;stroke:none" transform="translate(38.67 2.256)"/><path d="m0 0-4.3-5.729a.213.213 0 0 0-.156-.087.24.24 0 0 0-.171.061l-2.218 2.22a.892.892 0 1 1-1.263-1.261l2.221-2.223a2.012 2.012 0 0 1 1.556-.577c.58.04 1.112.331 1.46.796l4.298 5.73A.891.891 0 1 1 0 0" style="fill:#0098da;fill-opacity:1;fill-rule:nonzero;stroke:none" transform="translate(41.913 13.355)"/></g></svg>