<svg width="66.667" height="66.667" xmlns="http://www.w3.org/2000/svg"><defs><clipPath clipPathUnits="userSpaceOnUse" id="a"><path d="M0 50h50V0H0Z"/></clipPath></defs><g clip-path="url(#a)" transform="matrix(1.33333 0 0 -1.33333 0 66.667)"><path d="M0 0v6.089a4.005 4.005 0 0 0 1.253-.847l8-8.001c.367-.366.649-.792.847-1.254H4.013A4.018 4.018 0 0 0 0 0m10.43-5.603v-4.787a.795.795 0 1 1 1.589 0v4.792a5.567 5.567 0 0 1-1.642 3.963L2.378 6.366a5.563 5.563 0 0 1-3.959 1.64h-18.936a3.982 3.982 0 0 1-3.978-3.978v-36.447a3.765 3.765 0 0 1 3.761-3.76h1.646a.795.795 0 1 1 0 1.589h-1.646a2.174 2.174 0 0 0-2.171 2.171V4.028a2.39 2.39 0 0 0 2.388 2.388h18.928V0a5.61 5.61 0 0 1 5.602-5.603z" style="fill:#0099df;fill-opacity:1;fill-rule:nonzero;stroke:none" transform="translate(25.596 41.87)"/><path d="M0 0h-6.08a.794.794 0 0 1 0-1.589H0A.795.795 0 0 1 0 0" style="fill:#0099df;fill-opacity:1;fill-rule:nonzero;stroke:none" transform="translate(43.232 17.116)"/><path d="M0 0h2.778a.794.794 0 1 1 0 1.589H0A.794.794 0 1 1 0 0" style="fill:#0099df;fill-opacity:1;fill-rule:nonzero;stroke:none" transform="translate(31.364 15.527)"/><path d="M0 0h-11.868a.794.794 0 1 1 0-1.589H0A.795.795 0 0 1 0 0" style="fill:#0099df;fill-opacity:1;fill-rule:nonzero;stroke:none" transform="translate(43.232 21.924)"/><path d="M0 0h-11.868a.794.794 0 1 1 0-1.589H0A.795.795 0 0 1 0 0" style="fill:#0099df;fill-opacity:1;fill-rule:nonzero;stroke:none" transform="translate(43.232 12.427)"/><path d="M0 0h-3.04a.794.794 0 1 1 0-1.589H0A.795.795 0 1 1 0 0" style="fill:#0099df;fill-opacity:1;fill-rule:nonzero;stroke:none" transform="translate(43.232 7.588)"/><path d="M0 0h-5.855a.794.794 0 1 1 0-1.589H0A.795.795 0 0 1 0 0" style="fill:#0099df;fill-opacity:1;fill-rule:nonzero;stroke:none" transform="translate(37.22 7.588)"/><path d="M0 0c0-.369-.373-.671-.832-.671H-19.19c-.459 0-.832.302-.832.671v23.152c0 .37.373.671.832.671H-.832c.459 0 .832-.301.832-.671Zm-.832 25.413H-19.19c-1.335 0-2.421-1.014-2.421-2.261V0c0-1.246 1.086-2.26 2.421-2.26H-.832C.503-2.26 1.589-1.246 1.589 0v23.152c0 1.247-1.086 2.261-2.421 2.261" style="fill:#0099df;fill-opacity:1;fill-rule:nonzero;stroke:none" transform="translate(47.31 2.385)"/><path d="M0 0c-.145.223-.413.349-.681.363a.793.793 0 0 1-.782-.806c.005-.356.009-.475 1.782-1.956h-5.06A2.649 2.649 0 0 0-7.387.246v1.622a.794.794 0 1 1-1.589 0V.246a4.239 4.239 0 0 1 4.235-4.234H.266l-1.425-1.403A.793.793 0 1 1-.044-6.522l2.956 2.909a.791.791 0 0 1-.054 1.18C1.643-1.439.28-.289 0 0" style="fill:#0099df;fill-opacity:1;fill-rule:nonzero;stroke:none" transform="translate(19.01 9.562)"/><path d="M0 0h-2.206v7.79c0 .256.12.414.154.431l1.884.002C-.121 8.204 0 8.046 0 7.79Zm-9.797 12.694c0 .258.121.415.154.432l1.884.002c.047-.019.168-.176.168-.434V0h-2.206Zm9.643-2.883h-1.898c-.978 0-1.744-.889-1.744-2.021V0h-2.206v12.694c0 1.134-.766 2.022-1.743 2.022h-1.898c-.978 0-1.744-.888-1.744-2.022V0h-2.094v17.6a.796.796 0 0 1-1.59 0V-.795c0-.439.356-.794.795-.794H.794c.44 0 .795.355.795.794V7.79c0 1.114-.781 2.021-1.743 2.021" style="fill:#0099df;fill-opacity:1;fill-rule:nonzero;stroke:none" transform="translate(21.607 18.912)"/></g></svg>