<svg width="66.667" height="66.667" xmlns="http://www.w3.org/2000/svg"><defs><clipPath clipPathUnits="userSpaceOnUse" id="a"><path d="M0 50h50V0H0Z"/></clipPath></defs><g clip-path="url(#a)" transform="matrix(1.33333 0 0 -1.33333 0 66.667)"><path d="M0 0c.159.22.416.352.689.352h17.623A.85.85 0 0 0 19-.001a.837.837 0 0 0 .13-.726l-2.213-5.625c-.006-.012-.01-.026-.015-.04a.852.852 0 0 0-.805-.582H2.905c-.367 0-.692.234-.822.622L-.116-.766A.85.85 0 0 0 0 0m11.481-46.382H-8.25a2.514 2.514 0 0 0-2.511 2.512v36.516A2.513 2.513 0 0 0-8.25-4.843h8.001l.811-2.06a2.467 2.467 0 0 1 2.343-1.689h13.192a2.47 2.47 0 0 1 2.334 1.667l.818 2.082h8.003a2.514 2.514 0 0 0 2.511-2.511v-12.901a.808.808 0 1 1 1.617 0v12.901a4.133 4.133 0 0 1-4.128 4.129h-7.366l.765 1.945a2.472 2.472 0 0 1-.339 2.225c-.463.644-1.203 1.007-2.002 1.025H.688a2.468 2.468 0 0 1-2-1.024 2.489 2.489 0 0 1-.325-2.265l.751-1.906H-8.25a4.133 4.133 0 0 1-4.129-4.129V-43.87a4.133 4.133 0 0 1 4.129-4.129h19.731a.808.808 0 1 1 0 1.617" style="fill:#0099df;fill-opacity:1;fill-rule:nonzero;stroke:none" transform="translate(13.038 48.015)"/><path d="M0 0a.81.81 0 0 1-.809-.809v-28.217a2.473 2.473 0 0 1 2.469-2.47h11.449a.81.81 0 0 1 0 1.619H1.66a.85.85 0 0 0-.85.851V-.809A.81.81 0 0 1 0 0" style="fill:#0099df;fill-opacity:1;fill-rule:nonzero;stroke:none" transform="translate(8.102 38.15)"/><path d="M0 0v-9.56a.809.809 0 1 1 1.618 0V0A.809.809 0 1 1 0 0" style="fill:#0099df;fill-opacity:1;fill-rule:nonzero;stroke:none" transform="translate(36.16 37.34)"/><path d="M0 0c-5.564 0-10.091 4.526-10.091 10.091 0 5.564 4.527 10.091 10.091 10.091 5.564 0 10.091-4.527 10.091-10.091C10.091 4.526 5.564 0 0 0m0 21.799c-6.456 0-11.708-5.252-11.708-11.708C-11.708 3.634-6.456-1.617 0-1.617c6.457 0 11.709 5.251 11.709 11.708 0 6.456-5.252 11.708-11.709 11.708" style="fill:#0099df;fill-opacity:1;fill-rule:nonzero;stroke:none" transform="translate(37.633 1.633)"/><path d="M0 0a.81.81 0 0 1 0-1.619h8.732a.809.809 0 1 1 0 1.619Z" style="fill:#0099df;fill-opacity:1;fill-rule:nonzero;stroke:none" transform="translate(22.844 32.366)"/><path d="M0 0a.81.81 0 0 1 0-1.619h5.488a.81.81 0 0 1 0 1.619Z" style="fill:#0099df;fill-opacity:1;fill-rule:nonzero;stroke:none" transform="translate(13.496 32.366)"/><path d="M0 0a.81.81 0 0 1-.81.81h-12.181a.81.81 0 0 1 0-1.619H-.81A.81.81 0 0 1 0 0" style="fill:#0099df;fill-opacity:1;fill-rule:nonzero;stroke:none" transform="translate(26.487 25.68)"/><path d="M0 0a.808.808 0 1 1 0 1.617h-2.903a.809.809 0 1 1 0-1.617Z" style="fill:#0099df;fill-opacity:1;fill-rule:nonzero;stroke:none" transform="translate(22.097 18.988)"/><path d="M0 0h-2.709a.81.81 0 0 1 0-1.617H0A.809.809 0 1 1 0 0" style="fill:#0099df;fill-opacity:1;fill-rule:nonzero;stroke:none" transform="translate(16.205 20.605)"/><path d="M0 0a.81.81 0 0 1 .809-.809h7.713a.81.81 0 0 1 0 1.619H.809A.81.81 0 0 1 0 0" style="fill:#0099df;fill-opacity:1;fill-rule:nonzero;stroke:none" transform="translate(12.687 13.894)"/><path d="M0 0h-2.709a.808.808 0 0 1-.809-.809v-2.709h-1.899v2.709A.807.807 0 0 1-6.226 0h-2.708v1.899h2.708c.448 0 .809.362.809.809v2.708h1.899V2.708c0-.447.362-.809.809-.809H0Zm.222 3.517H-1.9v2.122c0 .769-.625 1.395-1.396 1.395H-5.64a1.397 1.397 0 0 1-1.394-1.395V3.517h-2.122c-.77 0-1.396-.626-1.396-1.395V-.223c0-.769.626-1.394 1.396-1.394h2.122v-2.122c0-.77.626-1.396 1.394-1.396h2.344c.771 0 1.396.626 1.396 1.396v2.122H.222c.769 0 1.395.625 1.395 1.394v2.345c0 .769-.626 1.395-1.395 1.395" style="fill:#0099df;fill-opacity:1;fill-rule:nonzero;stroke:none" transform="translate(42.1 10.774)"/></g></svg>