<svg width="66.667" height="66.667" xmlns="http://www.w3.org/2000/svg"><defs><clipPath clipPathUnits="userSpaceOnUse" id="a"><path d="M0 50h50V0H0Z"/></clipPath></defs><g clip-path="url(#a)" transform="matrix(1.33333 0 0 -1.33333 0 66.667)"><path d="M0 0h-1.243c-.376 0-.718-.312-.718-.703 0-.393.342-.706.718-.706h.594v-1.745a1.946 1.946 0 0 0-.947-.237c-1.026 0-1.368.605-1.368 1.568V.393c0 .962.342 1.568 1.368 1.568.365 0 .661-.102.947-.269l.114-.068c.147-.09.227-.167.49-.167.433 0 .753.313.753.671 0 .649-1.152 1.197-2.361 1.197-1.996 0-2.908-1.163-2.908-2.932v-2.216c0-1.769.912-2.932 2.908-2.932 1.174 0 2.588.446 2.588 1.499v2.474C.935-.244.525 0 0 0" style="fill:#0099df;fill-opacity:1;fill-rule:nonzero;stroke:none" transform="translate(24.298 16.93)"/><path d="M0 0c0-.886-.422-1.613-1.677-1.613h-.775v5.059h.775C-.444 3.446 0 2.775 0 1.924Zm-1.87 4.868h-1.289c-.479 0-.89-.37-.89-.806v-6.291c0-.437.411-.806.89-.806h1.289C.718-3.035 1.597-1.579 1.597 0v1.924c0 1.556-.891 2.944-3.467 2.944" style="fill:#0099df;fill-opacity:1;fill-rule:nonzero;stroke:none" transform="translate(30.605 15.299)"/><path d="M0 0h-.971v2.361H0c1.071 0 1.311-.604 1.311-1.185C1.311.369.854 0 0 0m0 3.781h-1.677c-.479 0-.89-.368-.89-.803V-3.47c0-.403.377-.74.798-.74.434 0 .798.348.798.74v2.048H0c1.767 0 2.907.929 2.907 2.585 0 1.366-.763 2.618-2.907 2.618" style="fill:#0099df;fill-opacity:1;fill-rule:nonzero;stroke:none" transform="translate(36.012 16.373)"/><path d="M0 0h-1.277v1.859h1.209c1.038 0 1.277-.482 1.277-.952C1.209.326.787 0 0 0m1.221-1.241C2.2-.929 2.806-.201 2.806.907c0 1.176-.685 2.372-2.829 2.372h-1.985c-.467 0-.866-.368-.866-.803v-6.448c0-.403.365-.74.787-.74.433 0 .81.348.81.74v2.563h.775l1.916-2.945a.78.78 0 0 1 .673-.345c.513 0 1.072.592.696 1.152z" style="fill:#0099df;fill-opacity:1;fill-rule:nonzero;stroke:none" transform="translate(42.933 16.875)"/><path d="M0 0c0-.499-.489-.904-1.089-.904h-28.887c-.599 0-1.087.405-1.087.904v12.657c0 .499.488.905 1.087.905h28.887c.6 0 1.089-.406 1.089-.905zm-1.089 15.128h-28.887c-1.463 0-2.654-1.108-2.654-2.471V0c0-1.363 1.191-2.471 2.654-2.471h28.887C.375-2.471 1.565-1.363 1.565 0v12.657c0 1.363-1.19 2.471-2.654 2.471" style="fill:#0099df;fill-opacity:1;fill-rule:nonzero;stroke:none" transform="translate(48.435 9.714)"/><path d="M0 0a4.036 4.036 0 0 0 1.295-.872l8.072-8.072c.378-.378.671-.818.872-1.297H4.066A4.072 4.072 0 0 0 0-6.173Zm11.343-37.765a.783.783 0 0 1-.783-.783 2.432 2.432 0 0 0-2.429-2.428h-29.032a2.212 2.212 0 0 0-2.209 2.209v36.658A2.43 2.43 0 0 0-20.682.318H-1.566v-6.491a5.639 5.639 0 0 1 5.632-5.634h6.493l.001-.014v-3.006a.783.783 0 1 1 1.566 0v3.006a5.595 5.595 0 0 1-1.651 3.985L2.404.236a5.591 5.591 0 0 1-3.98 1.649h-14.461v.63a2.297 2.297 0 0 0 2.294 2.294H4.568a3.836 3.836 0 0 0 2.731-1.131l7.736-7.738a3.844 3.844 0 0 0 1.133-2.734v-8.033a.784.784 0 0 1 1.566 0v8.033a5.4 5.4 0 0 1-1.591 3.842L8.407 4.786a5.39 5.39 0 0 1-3.839 1.589h-18.311a3.865 3.865 0 0 1-3.861-3.86v-.63h-3.078a4 4 0 0 1-3.995-3.994v-36.658a3.78 3.78 0 0 1 3.776-3.775H8.131a4 4 0 0 1 3.995 3.994.784.784 0 0 1-.783.783" style="fill:#0099df;fill-opacity:1;fill-rule:nonzero;stroke:none" transform="translate(24.677 43.084)"/><path d="M0 0h-7.08a.783.783 0 1 1 0-1.565H0A.782.782 0 1 1 0 0" style="fill:#0099df;fill-opacity:1;fill-rule:nonzero;stroke:none" transform="translate(11.84 22.152)"/><path d="M0 0h-7.08a.783.783 0 1 1 0-1.565H0A.782.782 0 1 1 0 0" style="fill:#0099df;fill-opacity:1;fill-rule:nonzero;stroke:none" transform="translate(11.84 16.831)"/><path d="M0 0h-7.08a.783.783 0 1 1 0-1.565H0A.782.782 0 1 1 0 0" style="fill:#0099df;fill-opacity:1;fill-rule:nonzero;stroke:none" transform="translate(11.84 11.497)"/><path d="M0 0a.783.783 0 0 1-1.108 0l-1.88-1.879L-4.868 0a.783.783 0 0 1-1.108-1.107l1.88-1.88-1.88-1.88a.785.785 0 0 1 .555-1.338c.2 0 .4.077.553.23l1.88 1.88 1.88-1.88a.78.78 0 0 1 1.108 0 .783.783 0 0 1 0 1.108l-1.88 1.88L0-1.107A.782.782 0 0 1 0 0" style="fill:#0099df;fill-opacity:1;fill-rule:nonzero;stroke:none" transform="translate(14.065 33.383)"/><path d="M0 0a.784.784 0 0 1 0-1.567h1.593a.784.784 0 0 1 0 1.567Z" style="fill:#0099df;fill-opacity:1;fill-rule:nonzero;stroke:none" transform="translate(15.925 31.18)"/><path d="M0 0h1.593a.784.784 0 0 1 0 1.567H0A.784.784 0 0 1 0 0" style="fill:#0099df;fill-opacity:1;fill-rule:nonzero;stroke:none" transform="translate(4.76 29.612)"/></g></svg>