<svg width="66.667" height="66.667" xmlns="http://www.w3.org/2000/svg"><defs><clipPath clipPathUnits="userSpaceOnUse" id="a"><path d="M0 50h50V0H0Z"/></clipPath></defs><g clip-path="url(#a)" transform="matrix(1.33333 0 0 -1.33333 0 66.667)"><path d="M0 0c0-4.497-2.82-8.602-7.017-10.216l-1.023-.394a2.175 2.175 0 0 0-1.57 0l-1.024.394C-14.83-8.602-17.65-4.497-17.65 0v7.495a.693.693 0 0 0 .394.632 20.457 20.457 0 0 0 8.243 1.719l.196-.001A20.193 20.193 0 0 0-.406 8.133.7.7 0 0 0 0 7.49Zm.219 9.532a22.18 22.18 0 0 1-9.036 1.846 22.244 22.244 0 0 1-9.064-1.852 2.232 2.232 0 0 1-1.302-2.037V0c0-5.126 3.215-9.807 7.999-11.647l1.025-.394a3.724 3.724 0 0 1 2.668 0l1.024.394C-1.683-9.807 1.532-5.126 1.532 0v7.485A2.239 2.239 0 0 1 .219 9.532" style="fill:#0099df;fill-opacity:1;fill-rule:nonzero;stroke:none" transform="translate(48.468 37.728)"/><path d="m0 0-5.548-5.556-1.74 1.747a.766.766 0 0 1-1.087-1.082l1.742-1.748a1.522 1.522 0 0 1 1.081-.446c.391 0 .782.148 1.08.446l5.555 5.555A.765.765 0 1 1 0 0" style="fill:#0099df;fill-opacity:1;fill-rule:nonzero;stroke:none" transform="translate(43.691 41.238)"/><path d="M0 0a.766.766 0 0 1-.767-.766v-12.773a2.146 2.146 0 0 0-2.143-2.144h-34.916a2.146 2.146 0 0 0-2.143 2.144v25.42h19.282a.767.767 0 0 1 0 1.534h-19.282v5.052c0 1.182.961 2.143 2.143 2.143h16.964a.767.767 0 0 1 0 1.534h-16.964a3.681 3.681 0 0 1-3.676-3.677v-32.006a3.68 3.68 0 0 1 3.676-3.676H-2.91a3.68 3.68 0 0 1 3.676 3.676V-.766A.766.766 0 0 1 0 0" style="fill:#0099df;fill-opacity:1;fill-rule:nonzero;stroke:none" transform="translate(45.602 22.217)"/><path d="M0 0a.95.95 0 1 0 1.902-.002A.95.95 0 0 0 0 0m3.434 0A2.486 2.486 0 0 1 .95 2.483 2.486 2.486 0 0 1-1.533 0 2.486 2.486 0 0 1 .95-2.483 2.486 2.486 0 0 1 3.434 0" style="fill:#0099df;fill-opacity:1;fill-rule:nonzero;stroke:none" transform="translate(15.802 25.959)"/><path d="m0 0 3.635 5.203a.602.602 0 0 0 .492.257h.008a.604.604 0 0 0 .493-.268l6.274-9.462h-19l3.851 5.778a.612.612 0 0 0 .409.262.614.614 0 0 0 .469-.126l2.263-1.805A.766.766 0 0 1 0 0m-2.413 2.842a2.156 2.156 0 0 1-1.661.441 2.137 2.137 0 0 1-1.447-.925L-9.94-4.27h-2.368a.766.766 0 1 1 0-1.532h24.635l.004-.001c.089 0 .179.023.267.055.025.01.046.021.069.032.028.015.058.023.085.041.023.015.036.038.056.055a.8.8 0 0 1 .106.104.798.798 0 0 1 .135.251.789.789 0 0 1 .033.159c.001.024.013.045.013.07 0 .023-.011.043-.012.066a.794.794 0 0 1-.09.296c-.011.02-.013.042-.026.061L5.905 6.039a2.129 2.129 0 0 1-1.752.953 2.122 2.122 0 0 1-1.774-.911L-.789 1.547Z" style="fill:#0099df;fill-opacity:1;fill-rule:nonzero;stroke:none" transform="translate(24.449 16.623)"/><path d="M0 0a1.954 1.954 0 0 0-1.306-.5H-37.92a1.958 1.958 0 0 0-1.955 1.957v31.674c0 .525.205 1.017.576 1.387a.767.767 0 0 1-1.08 1.087 3.463 3.463 0 0 1-1.029-2.474V1.457a3.492 3.492 0 0 1 3.488-3.488h36.614c.862 0 1.689.315 2.329.89A.765.765 0 1 1 0 0" style="fill:#0099df;fill-opacity:1;fill-rule:nonzero;stroke:none" transform="translate(41.408 2.925)"/></g></svg>