<svg width="66.667" height="66.667" xmlns="http://www.w3.org/2000/svg"><defs><clipPath clipPathUnits="userSpaceOnUse" id="a"><path d="M0 50h50V0H0Z"/></clipPath></defs><g clip-path="url(#a)" transform="matrix(1.33333 0 0 -1.33333 0 66.667)"><path d="M0 0c0-.502-.279-.79-.767-.79-.486 0-.766.288-.766.79v2.733c0 .616.251.916.766.916.516 0 .767-.3.767-.916Zm-.767-2.266c1.449 0 2.421.911 2.421 2.266v2.666C1.654 4.2.75 5.115-.767 5.115c-1.515 0-2.421-.915-2.421-2.449V0c0-1.355.973-2.266 2.421-2.266" style="fill:#0099df;fill-opacity:1;fill-rule:nonzero;stroke:none" transform="translate(9.526 30.62)"/><path d="M0 0c.451 0 .832.349.832.762v5.73c0 .444-.383.791-.872.791a.861.861 0 0 1-.455-.126l-1.953-1.124a.735.735 0 0 1-.378-.666c0-.486.388-.704.773-.704.271 0 .466.107.656.224l.565.338V.762C-.832.349-.451 0 0 0" style="fill:#0099df;fill-opacity:1;fill-rule:nonzero;stroke:none" transform="translate(15.68 28.365)"/><path d="M0 0c.451 0 .832.349.832.762v5.73c0 .444-.383.791-.872.791a.861.861 0 0 1-.455-.126l-1.954-1.124a.734.734 0 0 1-.377-.666c0-.486.388-.704.773-.704.271 0 .465.107.656.224l.564.338V.762C-.833.349-.451 0 0 0" style="fill:#0099df;fill-opacity:1;fill-rule:nonzero;stroke:none" transform="translate(21.999 28.365)"/><path d="M0 0c0-.502-.279-.789-.767-.789-.486 0-.766.287-.766.789v2.733c0 .617.251.916.766.916.516 0 .767-.299.767-.916Zm-3.188 0c0-1.355.973-2.265 2.421-2.265 1.449 0 2.421.91 2.421 2.265v2.667C1.654 4.2.75 5.115-.767 5.115c-1.515 0-2.421-.915-2.421-2.448z" style="fill:#0099df;fill-opacity:1;fill-rule:nonzero;stroke:none" transform="translate(9.526 20.924)"/><path d="M0 0c.271 0 .465.106.655.224l.566.338v-4.463c0-.413.381-.762.832-.762.451 0 .832.349.832.762v5.73c0 .443-.383.791-.872.791a.859.859 0 0 1-.455-.126L-.396 1.37A.735.735 0 0 1-.773.704C-.773.218-.385 0 0 0" style="fill:#0099df;fill-opacity:1;fill-rule:nonzero;stroke:none" transform="translate(13.628 23.332)"/><path d="M0 0c0-.502-.28-.789-.767-.789s-.766.287-.766.789v2.733c0 .617.251.916.766.916.516 0 .767-.299.767-.916Zm-3.188 0c0-1.355.973-2.265 2.421-2.265 1.449 0 2.421.91 2.421 2.265v2.667c0 1.533-.905 2.448-2.421 2.448-1.516 0-2.421-.915-2.421-2.448z" style="fill:#0099df;fill-opacity:1;fill-rule:nonzero;stroke:none" transform="translate(22.164 20.924)"/><path d="M0 0c.451 0 .833.349.833.762v5.73c0 .444-.384.791-.872.791a.859.859 0 0 1-.455-.126l-1.954-1.124a.734.734 0 0 1-.377-.666c0-.486.388-.704.772-.704.272 0 .465.107.656.224l.565.338V.762C-.832.349-.451 0 0 0" style="fill:#0099df;fill-opacity:1;fill-rule:nonzero;stroke:none" transform="translate(28.317 18.669)"/><path d="M0 0a.515.515 0 0 0-.516-.516h-11.848A.516.516 0 0 0-12.88 0v9.216c0 .283.231.514.516.514H-.516A.515.515 0 0 0 0 9.216Zm-10.247 13.823A3.812 3.812 0 0 0-6.44 17.63a3.812 3.812 0 0 0 3.807-3.807v-2.49h-7.614zm9.731-2.49h-.515v2.49a5.415 5.415 0 0 1-5.409 5.41 5.415 5.415 0 0 1-5.409-5.41v-2.49h-.515a2.12 2.12 0 0 1-2.118-2.117V0a2.12 2.12 0 0 1 2.118-2.118H-.516c1.168 0 2.119.95 2.119 2.118v9.216a2.12 2.12 0 0 1-2.119 2.117" style="fill:#0099df;fill-opacity:1;fill-rule:nonzero;stroke:none" transform="translate(47.679 9.05)"/><path d="M0 0a.802.802 0 0 1-.801-.802v-2.633a.8.8 0 0 1 1.603 0v2.633A.802.802 0 0 1 0 0" style="fill:#0099df;fill-opacity:1;fill-rule:nonzero;stroke:none" transform="translate(41.238 15.775)"/><path d="M0 0c.444-.445.78-.967 1.007-1.534h-6.891a4.548 4.548 0 0 0-4.544 4.543v6.887a4.522 4.522 0 0 0 1.534-1.001zm2.133-33.273a.8.8 0 0 1-.801-.802 2.499 2.499 0 0 0-2.496-2.496h-33.204a2.5 2.5 0 0 0-2.496 2.496V7.488a2.74 2.74 0 0 0 2.738 2.737h22.023c.025 0 .048-.007.073-.008V3.009a6.153 6.153 0 0 1 6.146-6.146h7.208c.001-.027.008-.051.008-.078v-4.306a.8.8 0 1 1 1.603 0v4.306c0 1.642-.64 3.186-1.8 4.348l-8.895 8.895a6.176 6.176 0 0 1-4.343 1.8h-22.023a4.344 4.344 0 0 1-4.34-4.34v-41.563a4.102 4.102 0 0 1 4.098-4.097h33.204a4.102 4.102 0 0 1 4.099 4.097.801.801 0 0 1-.802.802" style="fill:#0099df;fill-opacity:1;fill-rule:nonzero;stroke:none" transform="translate(39.185 38.172)"/><path d="M0 0a.802.802 0 0 1-.802.801h-17.347a.801.801 0 0 1 0-1.603H-.802C-.359-.802 0-.443 0 0" style="fill:#0099df;fill-opacity:1;fill-rule:nonzero;stroke:none" transform="translate(25.39 12.943)"/><path d="M0 0a.8.8 0 1 1 0-1.602h12.845a.801.801 0 0 1 0 1.602z" style="fill:#0099df;fill-opacity:1;fill-rule:nonzero;stroke:none" transform="translate(7.24 8.54)"/></g></svg>