<svg xmlns="http://www.w3.org/2000/svg" width="66.667" height="66.667"><defs><clipPath id="a" clipPathUnits="userSpaceOnUse"><path d="M0 50h50V0H0Z"/></clipPath></defs><g clip-path="url(#a)" transform="matrix(1.33333 0 0 -1.33333 0 66.667)"><path d="M0 0v-1.697h-2.547a.85.85 0 0 1-.85-.85v-2.548h-1.697v2.548a.85.85 0 0 1-.85.85h-2.547V0h2.547c.469 0 .85.38.85.85v2.547h1.697V.85c0-.47.381-.85.85-.85Zm-3.113 5.097h-2.265a1.417 1.417 0 0 1-1.416-1.416V1.699h-1.981A1.417 1.417 0 0 1-10.191.284V-1.98c0-.782.635-1.416 1.416-1.416h1.981v-1.982c0-.781.635-1.416 1.416-1.416h2.265c.781 0 1.416.635 1.416 1.416v1.982H.284c.781 0 1.416.634 1.416 1.416V.284c0 .78-.635 1.415-1.416 1.415h-1.981v1.982c0 .781-.635 1.416-1.416 1.416" style="fill:#0099df;fill-opacity:1;fill-rule:nonzero;stroke:none" transform="translate(15.53 32.18)"/><path d="M0 0h7.831a.85.85 0 1 1 0 1.699H0A.85.85 0 1 1 0 0" style="fill:#0099df;fill-opacity:1;fill-rule:nonzero;stroke:none" transform="translate(6.188 18.853)"/><path d="M0 0h-4.599a.85.85 0 1 1 0-1.699H0A.85.85 0 1 1 0 0" style="fill:#0099df;fill-opacity:1;fill-rule:nonzero;stroke:none" transform="translate(21.546 20.552)"/><path d="M0 0h-15.357a.85.85 0 1 1 0-1.699H0A.85.85 0 1 1 0 0" style="fill:#0099df;fill-opacity:1;fill-rule:nonzero;stroke:none" transform="translate(21.546 15.093)"/><path d="M0 0a30.044 30.044 0 0 0-1.177 4.599h3.756A29.544 29.544 0 0 0 1.388 0a8.399 8.399 0 0 0-.695-.035A8.35 8.35 0 0 0 0 0m-6.96 4.599h4.064c.233-1.426.566-2.84.998-4.237A8.693 8.693 0 0 0-6.96 4.599m4.435 12.038a31.577 31.577 0 0 1-.647-4.006h-3.789a8.696 8.696 0 0 0 4.436 4.006m4.572.51a29.58 29.58 0 0 0 .8-4.516h-4.314c.152 1.515.422 3.022.808 4.517.442.07.891.117 1.352.117a8.51 8.51 0 0 0 1.354-.118m6.301-4.516H4.555a31.308 31.308 0 0 1-.636 4.003 8.696 8.696 0 0 0 4.429-4.003m-.001-8.032A8.688 8.688 0 0 0 3.314.373c.428 1.388.755 2.799.986 4.226Zm-3.68 6.333h4.352a8.604 8.604 0 0 0 .324-2.317 8.61 8.61 0 0 0-.324-2.317H4.527c.118 1.117.184 2.24.182 3.371.001.422-.025.842-.042 1.263m-6.267 0h4.567c.018-.421.043-.841.042-1.263A29.804 29.804 0 0 0 2.8 6.298h-4.237a29.519 29.519 0 0 0-.163 4.634m-6.356-2.317c0 .804.119 1.578.324 2.317h4.328a31.32 31.32 0 0 1 .162-4.634h-4.489a8.61 8.61 0 0 0-.325 2.317M14.367-3.832 8.573 1.923a10.354 10.354 0 0 1 1.831 3.15.69.69 0 0 1 .047.127c.376 1.071.591 2.217.591 3.415a10.277 10.277 0 0 1-.638 3.541c-1.45 3.965-5.25 6.808-9.711 6.808-.739 0-1.46-.081-2.156-.23l-.018-.005c-3.494-.75-6.328-3.27-7.537-6.571-.022-.042-.035-.087-.049-.133a10.272 10.272 0 0 1-.589-3.41c0-1.196.214-2.341.589-3.41.014-.047.027-.092.049-.135A10.367 10.367 0 0 1-.903-1.599a.875.875 0 0 1 .264-.044l.012.002c.433-.055.872-.093 1.32-.093.449 0 .889.038 1.323.094.005 0 .009-.003.014-.003.092 0 .181.017.267.046 1.915.3 3.658 1.118 5.074 2.319l5.799-5.761a.847.847 0 0 1 1.202.005.85.85 0 0 1-.005 1.202" style="fill:#0099df;fill-opacity:1;fill-rule:nonzero;stroke:none" transform="translate(34.996 5.628)"/><path d="M0 0a3.7 3.7 0 0 0 .715-1.038h-5.648a3.739 3.739 0 0 0-3.734 3.735V8.35a3.727 3.727 0 0 0 1.038-.718zm-4.226-31.089h-24.307a1.98 1.98 0 0 0-1.978 1.979V6.539c0 1.204.98 2.185 2.185 2.185h17.959V2.697a5.44 5.44 0 0 1 5.434-5.434h6.027v-4.474a.85.85 0 1 1 1.7 0v4.569c0 .241-.039.476-.071.712.001.015.008.028.008.042 0 .044-.018.082-.024.124a5.463 5.463 0 0 1-1.505 2.966l-7.629 7.632a5.382 5.382 0 0 1-2.988 1.506c-.035.004-.066.02-.102.02-.013 0-.023-.006-.036-.006-.236.03-.471.069-.714.069h-13.559v.486c0 1.135.924 2.059 2.059 2.059h17.309c.946 0 1.835-.368 2.503-1.036l7.312-7.314A3.523 3.523 0 0 0 6.396 2.11v-9.962a.85.85 0 0 1 1.7 0V2.11a5.208 5.208 0 0 1-1.537 3.709l-7.311 7.314a5.21 5.21 0 0 1-3.706 1.534h-17.309a3.763 3.763 0 0 1-3.759-3.758v-.486h-2.8a3.889 3.889 0 0 1-3.885-3.884V-29.11a3.682 3.682 0 0 1 3.678-3.678h24.307a.85.85 0 1 1 0 1.699" style="fill:#0099df;fill-opacity:1;fill-rule:nonzero;stroke:none" transform="translate(32.596 34.99)"/><path d="M0 0a.85.85 0 1 1 0-1.699h4.916a.85.85 0 1 1 0 1.699z" style="fill:#0099df;fill-opacity:1;fill-rule:nonzero;stroke:none" transform="translate(6.188 9.645)"/><path d="M0 0h-7.467a.85.85 0 1 1 0-1.699H0A.85.85 0 1 1 0 0" style="fill:#0099df;fill-opacity:1;fill-rule:nonzero;stroke:none" transform="translate(21.546 9.645)"/></g></svg>