<svg xmlns="http://www.w3.org/2000/svg" width="66.667" height="66.667"><defs><clipPath id="a" clipPathUnits="userSpaceOnUse"><path d="M0 50h50V0H0Z"/></clipPath></defs><g clip-path="url(#a)" transform="matrix(1.33333 0 0 -1.33333 0 66.667)"><path d="m0 0-2.475-2.475-1.108 1.107a.778.778 0 0 1-1.099-1.098l1.657-1.657a.772.772 0 0 1 1.099 0l3.025 3.025A.776.776 0 1 1 0 0" style="fill:#0099df;fill-opacity:1;fill-rule:nonzero;stroke:none" transform="translate(30.021 22.29)"/><path d="M0 0a3.087 3.087 0 0 0-3.083 3.083c0 1.7 1.383 3.084 3.083 3.084 1.7 0 3.083-1.384 3.083-3.084A3.087 3.087 0 0 0 0 0m-13.494-3.961a4.627 4.627 0 0 1-3.752 1.935 4.627 4.627 0 0 1-3.752-1.935l-9.307 5.374c.202.52.323 1.08.323 1.67 0 2.325-1.725 4.237-3.959 4.568V18.69c2.234.332 3.959 2.245 3.959 4.57 0 .6-.123 1.17-.331 1.697a.772.772 0 0 1 .281.091l9.21 5.317c.851-1.042 2.129-1.721 3.576-1.721s2.725.679 3.577 1.721l9.364-5.406a4.6 4.6 0 0 1-.333-1.699c0-2.368 1.792-4.306 4.088-4.582V7.664c-2.296-.275-4.088-2.212-4.088-4.581 0-.613.126-1.196.344-1.732zm-3.752-5.786a3.086 3.086 0 0 0-3.083 3.083c0 1.7 1.383 3.084 3.083 3.084 1.7 0 3.083-1.384 3.083-3.084 0-1.7-1.383-3.083-3.083-3.083M-34.62 0a3.087 3.087 0 0 0-3.082 3.083c0 1.7 1.383 3.084 3.082 3.084a3.088 3.088 0 0 0 3.084-3.084A3.087 3.087 0 0 0-34.62 0m-3.082 23.26c0 1.7 1.383 3.083 3.082 3.083a3.087 3.087 0 0 0 3.084-3.083c0-1.7-1.383-3.084-3.084-3.084a3.087 3.087 0 0 0-3.082 3.084m20.456 13.103c1.7 0 3.083-1.383 3.083-3.083 0-1.7-1.383-3.083-3.083-3.083a3.086 3.086 0 0 0-3.083 3.083c0 1.7 1.383 3.083 3.083 3.083M0 26.343c1.7 0 3.083-1.383 3.083-3.083 0-1.7-1.383-3.084-3.083-3.084a3.087 3.087 0 0 0-3.083 3.084c0 1.7 1.383 3.083 3.083 3.083M1.004 7.604v11.134a4.64 4.64 0 0 1 3.633 4.522A4.64 4.64 0 0 1 0 27.896c-1.397 0-2.638-.633-3.488-1.614l-9.411 5.433a4.6 4.6 0 0 1 .291 1.565 4.643 4.643 0 0 1-4.638 4.637 4.642 4.642 0 0 1-4.637-4.637c0-.551.113-1.074.291-1.565l-9.217-5.321a.767.767 0 0 1-.237-.215c-.851 1.04-2.128 1.717-3.574 1.717a4.642 4.642 0 0 1-4.637-4.636 4.641 4.641 0 0 1 3.761-4.549V7.632a4.641 4.641 0 0 1-3.761-4.549 4.643 4.643 0 0 1 4.637-4.637c1.409 0 2.657.645 3.508 1.638l9.437-5.449a4.579 4.579 0 0 1-.208-1.299 4.641 4.641 0 0 1 4.637-4.637 4.642 4.642 0 0 1 4.638 4.637c0 .454-.086.884-.208 1.299l9.35 5.399C-2.615-.932-1.385-1.554 0-1.554a4.641 4.641 0 0 1 4.637 4.637 4.639 4.639 0 0 1-3.633 4.521" style="fill:#0099df;fill-opacity:1;fill-rule:nonzero;stroke:none" transform="translate(42.31 11.692)"/><path d="M0 0c0-.374-.201-.723-.525-.91l-3.776-2.179a1.056 1.056 0 0 0-1.052 0L-9.127-.91a1.052 1.052 0 0 0-.526.91v4.359c0 .374.201.723.526.911l3.774 2.179a1.05 1.05 0 0 0 1.052 0L-.526 5.27c.325-.188.526-.537.526-.911Zm.251 6.616-3.775 2.18a2.616 2.616 0 0 1-2.605 0l-3.776-2.18a2.615 2.615 0 0 1-1.303-2.257V0c0-.928.5-1.793 1.303-2.257h.001l3.775-2.179a2.608 2.608 0 0 1 2.606 0L.252-2.257A2.613 2.613 0 0 1 1.555 0v4.359c0 .928-.499 1.793-1.304 2.257" style="fill:#0099df;fill-opacity:1;fill-rule:nonzero;stroke:none" transform="translate(33.056 18.05)"/><path d="M0 0c0 1.225.996 2.221 2.22 2.221A2.223 2.223 0 0 0 4.441 0 2.223 2.223 0 0 0 2.22-2.221C.996-2.221 0-1.225 0 0m5.358-5.25a.777.777 0 0 1-.348 1.043 6.226 6.226 0 0 1-1.827.572C4.797-3.207 5.996-1.747 5.996 0A3.779 3.779 0 0 1 2.22 3.774 3.778 3.778 0 0 1-1.554 0c0-1.737 1.185-3.188 2.785-3.627a6.102 6.102 0 0 1-4.814-4.005c-.207-.59-.303-1.247-.303-2.069v-.745a.777.777 0 1 1 1.554 0v.745c0 .641.069 1.135.216 1.554a4.553 4.553 0 0 0 4.302 3.041h.051a4.66 4.66 0 0 0 2.078-.492.777.777 0 0 1 1.043.348" style="fill:#0099df;fill-opacity:1;fill-rule:nonzero;stroke:none" transform="translate(17.675 31.343)"/><path d="M0 0a1.55 1.55 0 0 0 0-3.097A1.55 1.55 0 0 0 0 0m-2.374-6.382A3.165 3.165 0 0 0-.006-5.314c.904 0 1.767-.39 2.368-1.068a.774.774 0 0 1 1.096-.066.776.776 0 0 1 .067 1.097 4.716 4.716 0 0 1-1.776 1.245 3.097 3.097 0 0 1 1.353 2.558A3.105 3.105 0 0 1 0 1.554a3.106 3.106 0 0 1-3.103-3.102 3.1 3.1 0 0 1 1.35-2.556 4.692 4.692 0 0 1-1.785-1.247.777.777 0 0 1 1.164-1.031" style="fill:#0099df;fill-opacity:1;fill-rule:nonzero;stroke:none" transform="translate(28.125 34.6)"/></g></svg>