<svg xmlns="http://www.w3.org/2000/svg" width="66.667" height="66.667"><defs><clipPath id="a" clipPathUnits="userSpaceOnUse"><path d="M0 50h50V0H0Z"/></clipPath></defs><g clip-path="url(#a)" transform="matrix(1.33333 0 0 -1.33333 0 66.667)"><path d="M0 0h-14.738a.849.849 0 1 1 0-1.699H0A.85.85 0 0 1 0 0" style="fill:#0098da;fill-opacity:1;fill-rule:nonzero;stroke:none" transform="translate(20.926 19.404)"/><path d="M0 0h-14.738a.85.85 0 1 1 0-1.699H0A.85.85 0 1 1 0 0" style="fill:#0098da;fill-opacity:1;fill-rule:nonzero;stroke:none" transform="translate(20.926 14.52)"/><path d="M0 0c0 4.77 3.881 8.65 8.65 8.65 4.77 0 8.65-3.88 8.65-8.65 0-4.77-3.88-8.648-8.65-8.648C3.881-8.648 0-4.77 0 0m22.324-12.324-5.735 5.697A10.296 10.296 0 0 1 18.999 0c0 5.707-4.643 10.35-10.349 10.35C2.943 10.35-1.699 5.707-1.699 0c0-5.705 4.642-10.348 10.349-10.348 2.576 0 4.929.952 6.742 2.514l5.735-5.697a.847.847 0 0 1 1.202.006.85.85 0 0 1-.005 1.201" style="fill:#0098da;fill-opacity:1;fill-rule:nonzero;stroke:none" transform="translate(27.04 14.12)"/><path d="M0 0a3.72 3.72 0 0 0 .715-1.038h-5.648a3.739 3.739 0 0 0-3.734 3.734V8.35a3.713 3.713 0 0 0 1.038-.72zm-4.227-31.09h-24.306c-1.09 0-1.977.889-1.977 1.979V6.538c0 1.205.98 2.185 2.185 2.185h17.959V2.696a5.44 5.44 0 0 1 5.433-5.434h6.028v-4.473a.85.85 0 1 1 1.699 0v4.569c0 .244-.038.479-.069.717 0 .013.006.024.006.037 0 .037-.016.07-.021.106a5.384 5.384 0 0 1-1.508 2.984l-7.629 7.631a5.38 5.38 0 0 1-2.99 1.507c-.035.005-.064.02-.1.02-.012 0-.022-.006-.034-.006-.237.031-.472.069-.716.069h-13.559v.485c0 1.135.924 2.059 2.059 2.059h17.309c.945 0 1.835-.368 2.503-1.037l7.311-7.313a3.521 3.521 0 0 0 1.04-2.508v-9.961a.85.85 0 1 1 1.7 0v9.961a5.217 5.217 0 0 1-1.536 3.71l-7.313 7.313a5.204 5.204 0 0 1-3.705 1.535h-17.309a3.764 3.764 0 0 1-3.759-3.759v-.485h-2.799a3.89 3.89 0 0 1-3.885-3.885v-35.649a3.681 3.681 0 0 1 3.677-3.678h24.306a.85.85 0 1 1 0 1.699" style="fill:#0098da;fill-opacity:1;fill-rule:nonzero;stroke:none" transform="translate(32.596 34.99)"/><path d="M0 0c0-.6-.577-1.087-1.286-1.087-.71 0-1.286.487-1.286 1.087.007.223.421.927 1.286 1.845C-.422.928-.007.223 0 0m-11.534-1.1c-.71 0-1.286.488-1.286 1.087.007.222.422.927 1.286 1.845.864-.918 1.279-1.623 1.286-1.845 0-.6-.577-1.087-1.286-1.087m5.229 7.912a.85.85 0 0 1-.85-.851V3.876l-4.116-.021c-.069-.001-.131-.024-.195-.041a.987.987 0 0 1-.761-.266c-1.046-1.008-2.294-2.444-2.294-3.561 0-1.537 1.34-2.787 2.987-2.787 1.646 0 2.986 1.25 2.986 2.787 0 .664-.446 1.442-1.025 2.177l2.418.012v-8.309h-1.623a.85.85 0 0 1 0-1.7h4.946a.85.85 0 0 1 0 1.7h-1.623v8.317l2.222.011C-3.819 1.457-4.272.672-4.272 0c0-1.537 1.339-2.788 2.986-2.788C.36-2.788 1.7-1.537 1.7 0 1.7 1.117.453 2.552-.592 3.56c-.045.043-.101.064-.152.098a.844.844 0 0 1-.599.247h-.005l-4.107-.021v2.077a.85.85 0 0 1-.85.851" style="fill:#0098da;fill-opacity:1;fill-rule:nonzero;stroke:none" transform="translate(19.139 31.438)"/><path d="M0 0h-14.738a.849.849 0 1 1 0-1.699H0A.85.85 0 0 1 0 0" style="fill:#0098da;fill-opacity:1;fill-rule:nonzero;stroke:none" transform="translate(20.926 9.645)"/><path d="M0 0c.25.426.535.494.766.494h.046C1.362.473 1.926.305 1.94-.789 1.956-1.955 1.254-3.584.175-4.73-.495-3.145-.605-1.029 0 0m9.127-5.924a.856.856 0 0 1-1.207.069c-.215-.192-.563-.379-1.008-.543a.228.228 0 0 0-.287.115l-.856 1.804a.856.856 0 0 1-.771.487h-.002a.852.852 0 0 1-.77-.485C3.73-5.504 2.837-6.672 2.383-6.693c-.512-.036-.909.195-1.241.498C2.715-4.693 3.673-2.445 3.65-.768 3.627 1.002 2.564 2.139.877 2.203c-.996.016-1.822-.439-2.352-1.336-.938-1.597-.801-4.517.253-6.656a3.13 3.13 0 0 0-1.151-.313.856.856 0 0 1-.799-.908.86.86 0 0 1 .908-.799 4.88 4.88 0 0 1 2.011.59c.729-.775 1.607-1.187 2.555-1.187.055 0 .111.002.167.004.988.048 1.843.914 2.441 1.744l.17-.36a1.932 1.932 0 0 1 2.425-.986c.652.242 1.175.535 1.554.873a.855.855 0 0 1 .068 1.207" style="fill:#0098da;fill-opacity:1;fill-rule:nonzero;stroke:none" transform="translate(33.02 17.596)"/></g></svg>