<svg width="66.667" height="66.667" xmlns="http://www.w3.org/2000/svg"><defs><clipPath clipPathUnits="userSpaceOnUse" id="a"><path d="M0 50h50V0H0Z"/></clipPath></defs><g clip-path="url(#a)" transform="matrix(1.33333 0 0 -1.33333 0 66.667)"><path d="M0 0c-.799-.016-1.429.209-1.864.655-1.142 1.174-1.05 3.833-.974 5.969.01.306.021.603.027.885a.258.258 0 0 0 .256.255h39.057a.259.259 0 0 0 .186-.078.247.247 0 0 0 .07-.186l-.02-.487c-.092-2.21-.215-5.187 1.195-7.013Zm45.53 36.296c-.01 3.605-.019 6.64-.015 8.538a2.83 2.83 0 0 1-.833 2.019c-.54.541-1.26.839-2.028.839H5.683a2.862 2.862 0 0 1-2.859-2.859V13.087a.782.782 0 0 1 1.565 0v31.746c0 .713.58 1.294 1.294 1.294h36.971a1.287 1.287 0 0 0 1.296-1.29c-.005-1.9.005-4.937.016-8.545.034-11.541.098-33.023-.301-34.523C43.347.592 42.579.222 41.362.001c-.882.012-1.543.259-2.019.756-1.244 1.297-1.127 4.125-1.041 6.191l.02.494c.018.499-.162.971-.508 1.329-.346.36-.813.557-1.312.557H-2.555a1.812 1.812 0 0 1-1.82-1.782c-.007-.277-.017-.567-.027-.867-.085-2.433-.192-5.462 1.416-7.115.729-.749 1.722-1.128 2.947-1.128H41.435c.049 0 .097.005.144.014 1.461.257 3.028.808 3.597 2.91.419 1.556.407 17.413.354 34.936" style="fill:#0099df;fill-opacity:1;fill-rule:nonzero;stroke:none" transform="translate(4.443 1.937)"/><path d="M21.129 36.255h-6.623v4.207h6.623zm-6.623-1.565h6.623v-4.207h-6.623zm-.782-5.771h8.188c.431 0 .782.351.782.782v11.544a.782.782 0 0 1-.782.782h-8.188a.783.783 0 0 1-.783-.782V29.701c0-.431.351-.782.783-.782M36.155 23.147h6.623v-4.208h-6.623zm6.623 1.565h-6.623v4.207h6.623zm.783 5.772h-8.188a.783.783 0 0 1-.782-.783V18.158c0-.432.35-.782.782-.782h8.188c.432 0 .782.35.782.782v11.543c0 .432-.35.783-.782.783" style="fill:#0099df;fill-opacity:1;fill-rule:nonzero;stroke:none"/><path d="M0 0h16.943a.783.783 0 1 1 0 1.565H0A.783.783 0 1 1 0 0" style="fill:#0099df;fill-opacity:1;fill-rule:nonzero;stroke:none" transform="translate(26.617 40.462)"/><path d="M0 0h16.943a.783.783 0 1 1 0 1.565H0A.783.783 0 1 1 0 0" style="fill:#0099df;fill-opacity:1;fill-rule:nonzero;stroke:none" transform="translate(26.617 34.693)"/><path d="M0 0h16.943a.782.782 0 1 1 0 1.564H0A.783.783 0 1 1 0 0" style="fill:#0099df;fill-opacity:1;fill-rule:nonzero;stroke:none" transform="translate(13.724 23.145)"/><path d="M0 0h16.943a.782.782 0 1 1 0 1.563H0A.782.782 0 1 1 0 0" style="fill:#0099df;fill-opacity:1;fill-rule:nonzero;stroke:none" transform="translate(13.724 17.376)"/><path d="M0 0h4.384a.782.782 0 0 1 0 1.565H0A.783.783 0 1 1 0 0" style="fill:#0099df;fill-opacity:1;fill-rule:nonzero;stroke:none" transform="translate(26.617 28.919)"/></g></svg>