<svg xmlns="http://www.w3.org/2000/svg" width="66.667" height="66.667"><defs><clipPath id="a" clipPathUnits="userSpaceOnUse"><path d="M0 50h50V0H0Z"/></clipPath></defs><g clip-path="url(#a)" transform="matrix(1.33333 0 0 -1.33333 0 66.667)"><path d="M0 0a.85.85 0 0 0-.85.85v17.897a.85.85 0 0 0 1.7 0V.85A.85.85 0 0 0 0 0" style="fill:#0099df;fill-opacity:1;fill-rule:nonzero;stroke:none" transform="translate(24.48 9.342)"/><path d="M0 0a.85.85 0 0 0-.764.477l-2.752 5.634L-6.268.477a.851.851 0 0 0-1.527.746l3.516 7.199a.849.849 0 0 0 1.527 0L.763 1.223A.85.85 0 0 0 0 0" style="fill:#0099df;fill-opacity:1;fill-rule:nonzero;stroke:none" transform="translate(20.462 15.188)"/><path d="M0 0c.028 0 .056-.002.084 0a2.67 2.67 0 0 1 1.839.729c.279.267.487.593.611.947h-5.069a2.41 2.41 0 0 1 .612-.947A2.68 2.68 0 0 1-.021 0zm.083-1.699h-.166A4.372 4.372 0 0 0-3.1-.498a4.086 4.086 0 0 0-1.266 3.047.85.85 0 0 0 .85.826h7.031a.85.85 0 0 0 .85-.826A4.092 4.092 0 0 0 3.1-.498 4.372 4.372 0 0 0 .083-1.699" style="fill:#0099df;fill-opacity:1;fill-rule:nonzero;stroke:none" transform="translate(16.946 13.512)"/><path d="M0 0a.85.85 0 0 0-.765 1.221L2.75 8.486c.285.587 1.247.587 1.53 0l3.517-7.265A.85.85 0 0 0 6.268.48L3.516 6.165.767.48A.855.855 0 0 0 0 0" style="fill:#0099df;fill-opacity:1;fill-rule:nonzero;stroke:none" transform="translate(28.497 20.975)"/><path d="M0 0c.029-.002.057-.002.085-.002.687 0 1.354.264 1.84.729.279.269.487.595.611.949h-5.07c.124-.354.332-.68.611-.949C-1.424.248-.753 0-.021 0Zm.084-1.701c-.057.002-.11 0-.168 0A4.382 4.382 0 0 0-3.1-.5a4.092 4.092 0 0 0-1.264 3.049.848.848 0 0 0 .849.826h7.032a.849.849 0 0 0 .849-.826A4.096 4.096 0 0 0 3.102-.5 4.387 4.387 0 0 0 .084-1.701" style="fill:#0099df;fill-opacity:1;fill-rule:nonzero;stroke:none" transform="translate(32.013 19.297)"/><path d="M0 0a.852.852 0 0 0-.31 1.643l18.193 7.125a.848.848 0 0 0 1.1-.482.849.849 0 0 0-.481-1.101L.31.061A.827.827 0 0 0 0 0" style="fill:#0099df;fill-opacity:1;fill-rule:nonzero;stroke:none" transform="translate(14.883 21.586)"/><path d="M0 0h-7.04a.85.85 0 0 0 0 1.699H0A.848.848 0 1 0 0 0" style="fill:#0099df;fill-opacity:1;fill-rule:nonzero;stroke:none" transform="translate(27.999 9.344)"/><path d="M0 0h-22.209a2.772 2.772 0 0 0-2.77 2.77v36.416a2.773 2.773 0 0 0 2.77 2.771h35.266a2.773 2.773 0 0 0 2.769-2.771V17.18a.85.85 0 1 0-1.699 0v22.006c0 .59-.481 1.07-1.07 1.07h-35.266c-.59 0-1.07-.48-1.07-1.07V2.77c0-.59.48-1.071 1.07-1.071H0A.85.85 0 1 0 0 0" style="fill:#0099df;fill-opacity:1;fill-rule:nonzero;stroke:none" transform="translate(30.327 2.832)"/><path d="M0 0c-1.528 0-2.771 1.273-2.771 2.838v37.728c0 1.566 1.243 2.84 2.771 2.84h35.266c1.527 0 2.769-1.274 2.769-2.84a.85.85 0 1 0-1.699 0c0 .629-.481 1.14-1.07 1.14H0c-.59 0-1.07-.511-1.07-1.14V2.838c0-.627.48-1.139 1.07-1.139A.85.85 0 0 0 0 0" style="fill:#0099df;fill-opacity:1;fill-rule:nonzero;stroke:none" transform="translate(3.502 6.008)"/><path d="M0 0a6.756 6.756 0 0 1-6.749-6.748A6.756 6.756 0 0 1 0-13.498a6.756 6.756 0 0 1 6.749 6.75A6.756 6.756 0 0 1 0 0m0-15.197c-4.658 0-8.448 3.791-8.448 8.449 0 4.658 3.79 8.447 8.448 8.447S8.448-2.09 8.448-6.748c0-4.658-3.79-8.449-8.448-8.449" style="fill:#0099df;fill-opacity:1;fill-rule:nonzero;stroke:none" transform="translate(40.82 15.783)"/><path d="M0 0h-.005l-.042-.001c-3.79-.028-5.241-3.407-5.301-3.551l-.26-.625.328-.592c.081-.146 2.017-3.576 5.244-3.576h.051c3.161.036 5.132 3.251 5.347 3.617l.378.647-.327.673C5.346-3.27 3.715 0 0 0m0-1.4c2.882 0 4.154-2.62 4.154-2.62S2.459-6.917 0-6.944l-.036-.001c-2.439 0-4.02 2.854-4.02 2.854S-2.944-1.423-.036-1.4H0" style="fill:#0099df;fill-opacity:1;fill-rule:nonzero;stroke:none" transform="translate(40.772 13.207)"/><path d="M0 0a3.388 3.388 0 0 1-3.383-3.384A3.387 3.387 0 0 1 0-6.767a3.388 3.388 0 0 1 3.384 3.383A3.388 3.388 0 0 1 0 0m0-1.4a1.983 1.983 0 1 0 0-3.966A1.983 1.983 0 0 0 0-1.4" style="fill:#0099df;fill-opacity:1;fill-rule:nonzero;stroke:none" transform="translate(40.82 12.418)"/><path d="M0 0a.98.98 0 1 0-1.958 0A.98.98 0 0 0 0 0" style="fill:#0099df;fill-opacity:1;fill-rule:nonzero;stroke:none" transform="translate(41.8 9.034)"/><path d="M0 0a.574.574 0 1 1 .001-1.147A.574.574 0 0 1 0 0m0-2.846A2.275 2.275 0 0 0-2.273-.573 2.276 2.276 0 0 0 0 1.7 2.276 2.276 0 0 0 2.273-.573 2.275 2.275 0 0 0 0-2.846" style="fill:#0099df;fill-opacity:1;fill-rule:nonzero;stroke:none" transform="translate(11.86 39.888)"/><path d="M0 0a.574.574 0 1 1 .001-1.147A.574.574 0 0 1 0 0m0-2.846A2.275 2.275 0 0 0-2.273-.573 2.276 2.276 0 0 0 0 1.7 2.276 2.276 0 0 0 2.273-.573 2.275 2.275 0 0 0 0-2.846" style="fill:#0099df;fill-opacity:1;fill-rule:nonzero;stroke:none" transform="translate(17.435 39.888)"/><path d="M0 0a.574.574 0 1 1 .001-1.147A.574.574 0 0 1 0 0m0-2.846A2.275 2.275 0 0 0-2.273-.573 2.276 2.276 0 0 0 0 1.7 2.276 2.276 0 0 0 2.273-.573 2.275 2.275 0 0 0 0-2.846" style="fill:#0099df;fill-opacity:1;fill-rule:nonzero;stroke:none" transform="translate(22.948 39.888)"/><path d="M0 0h-38.258a.85.85 0 0 0 0 1.7H0A.85.85 0 1 0 0 0" style="fill:#0099df;fill-opacity:1;fill-rule:nonzero;stroke:none" transform="translate(44.804 34.305)"/></g></svg>