<svg xmlns="http://www.w3.org/2000/svg" width="66.667" height="66.667"><defs><clipPath id="a" clipPathUnits="userSpaceOnUse"><path d="M0 50h50V0H0Z"/></clipPath></defs><g clip-path="url(#a)" transform="matrix(1.33333 0 0 -1.33333 0 66.667)"><path d="M0 0h35.669c.598 0 1.084-.485 1.084-1.082v-6.083H-1.083v6.083C-1.083-.485-.597 0 0 0m22.464-39H0c-.597 0-1.083.486-1.083 1.083v29.033h37.836V-23.34a.859.859 0 1 1 1.719 0v22.258a2.805 2.805 0 0 1-2.803 2.802H0a2.806 2.806 0 0 1-2.803-2.802v-36.835A2.805 2.805 0 0 1 0-40.718h22.464a.86.86 0 1 1 0 1.718" style="fill:#0099df;fill-opacity:1;fill-rule:nonzero;stroke:none" transform="translate(7.924 43.295)"/><path d="M0 0c-.597 0-1.083.518-1.083 1.153v38.16c0 .636.486 1.153 1.083 1.153h35.67c.598 0 1.084-.517 1.084-1.153a.859.859 0 1 1 1.719 0c0 1.584-1.257 2.873-2.803 2.873H0c-1.545 0-2.802-1.289-2.802-2.873V1.153c0-1.584 1.257-2.872 2.802-2.872A.86.86 0 1 1 0 0" style="fill:#0099df;fill-opacity:1;fill-rule:nonzero;stroke:none" transform="translate(3.255 7.508)"/><path d="M0 0a6.834 6.834 0 0 0-6.826 6.827A6.832 6.832 0 0 0 0 13.653a6.833 6.833 0 0 0 6.827-6.826A6.835 6.835 0 0 0 0 0m0 15.372c-4.712 0-8.545-3.833-8.545-8.545S-4.712-1.719 0-1.719s8.546 3.834 8.546 8.546S4.712 15.372 0 15.372" style="fill:#0099df;fill-opacity:1;fill-rule:nonzero;stroke:none" transform="translate(41.002 2.024)"/><path d="M0 0c.107.332.181.678.181 1.044 0 .584-.161 1.125-.42 1.606C.541 1.948.91 1.199.91 1.199S.58.636 0 0m-7.394 1.127s.357.856 1.195 1.608a3.378 3.378 0 0 1-.465-1.691c0-.424.087-.825.228-1.199a7.597 7.597 0 0 0-.958 1.282m4.152 1.924a2.007 2.007 0 1 0-.001-4.013 2.007 2.007 0 0 0 .001 4.013m5.426-1.234c-.069.141-1.718 3.448-5.475 3.448h-.048c-3.834-.03-5.302-3.448-5.362-3.593l-.264-.632.332-.599c.082-.148 2.041-3.617 5.305-3.617h.052C-.08-3.14 1.915.112 2.132.483l.383.654z" style="fill:#0099df;fill-opacity:1;fill-rule:nonzero;stroke:none" transform="translate(44.244 7.807)"/><path d="M0 0a.99.99 0 1 1 0 1.98A.99.99 0 0 1 0 0" style="fill:#0099df;fill-opacity:1;fill-rule:nonzero;stroke:none" transform="translate(41.002 7.86)"/><path d="M0 0a6.555 6.555 0 0 0-6.547 6.547A6.554 6.554 0 0 0 0 13.093a6.555 6.555 0 0 0 6.547-6.546A6.556 6.556 0 0 0 0 0m8.266 6.547c0 4.557-3.708 8.266-8.266 8.266-4.559 0-8.267-3.709-8.267-8.266 0-4.558 3.708-8.266 8.267-8.266 4.558 0 8.266 3.708 8.266 8.266" style="fill:#0099df;fill-opacity:1;fill-rule:nonzero;stroke:none" transform="translate(27.865 16.623)"/><path d="M0 0a.86.86 0 0 1 .86.859v.653a2.183 2.183 0 0 1 .478 4.182L-.7 6.51a.463.463 0 0 0-.292.431.86.86 0 1 1-1.719 0c0-.898.539-1.695 1.373-2.027l2.036-.815a.466.466 0 0 0-.173-.898h-2.006a.86.86 0 1 1 0-1.719h.621V.859A.86.86 0 0 1 0 0" style="fill:#0099df;fill-opacity:1;fill-rule:nonzero;stroke:none" transform="translate(20.459 10.46)"/><path d="M0 0a8.292 8.292 0 0 1-4.925-8.71 8.287 8.287 0 0 1 8.185-7.149 8.3 8.3 0 0 1 7.6 5.001.86.86 0 1 1-1.581.679 6.57 6.57 0 0 0-6.897-3.901 6.564 6.564 0 0 0-5.603 5.602A6.563 6.563 0 0 0 .68-1.58.86.86 0 0 1 0 0" style="fill:#0099df;fill-opacity:1;fill-rule:nonzero;stroke:none" transform="translate(17.186 23.35)"/><path d="m0 0-2.037.815a.466.466 0 0 0 .173.897H.145a.86.86 0 0 1 0 1.72h-.623v.621a.86.86 0 1 1-1.718 0v-.651a2.186 2.186 0 0 1-1.812-1.741A2.187 2.187 0 0 1-2.677-.78l2.037-.816a.466.466 0 0 0-.172-.897h-2.007a.86.86 0 0 1 0-1.719h.623v-.622c0-.476.384-.859.859-.859s.859.383.859.859v.651c.897.14 1.632.827 1.81 1.741A2.19 2.19 0 0 1 0 0" style="fill:#0099df;fill-opacity:1;fill-rule:nonzero;stroke:none" transform="translate(29.202 23.56)"/><path d="M0 0a.58.58 0 1 0-.002-1.16A.58.58 0 0 0 0 0m0-2.879A2.301 2.301 0 0 1 2.299-.58c0 1.268-1.031 2.3-2.299 2.3a2.303 2.303 0 0 1-2.3-2.3A2.302 2.302 0 0 1 0-2.879" style="fill:#0099df;fill-opacity:1;fill-rule:nonzero;stroke:none" transform="translate(11.709 40.06)"/><path d="M0 0c.319 0 .58-.26.58-.58a.58.58 0 0 0-1.16 0c0 .32.26.58.58.58m0-2.879A2.301 2.301 0 0 1 2.299-.58c0 1.268-1.031 2.3-2.299 2.3a2.302 2.302 0 0 1-2.299-2.3A2.301 2.301 0 0 1 0-2.879" style="fill:#0099df;fill-opacity:1;fill-rule:nonzero;stroke:none" transform="translate(17.348 40.06)"/><path d="M0 0a.58.58 0 1 0 0-1.16A.58.58 0 0 0 0 0m0-2.879A2.301 2.301 0 0 1 2.299-.58c0 1.268-1.031 2.3-2.299 2.3a2.302 2.302 0 0 1-2.299-2.3A2.301 2.301 0 0 1 0-2.879" style="fill:#0099df;fill-opacity:1;fill-rule:nonzero;stroke:none" transform="translate(22.924 40.06)"/></g></svg>