<svg xmlns="http://www.w3.org/2000/svg" width="66.667" height="66.667"><defs><clipPath id="a" clipPathUnits="userSpaceOnUse"><path d="M0 50h50V0H0Z"/></clipPath></defs><g clip-path="url(#a)" transform="matrix(1.33333 0 0 -1.33333 0 66.667)"><path d="M0 0a.768.768 0 0 1-.768-.768 1.32 1.32 0 0 0-1.319-1.319h-29.966c-1.17 0-2.121.953-2.121 2.123v26.426a.77.77 0 0 1-1.536 0V.036a3.662 3.662 0 0 1 3.657-3.658h29.966A2.858 2.858 0 0 1 .768-.768.767.767 0 0 1 0 0" style="fill:#0098da;fill-opacity:1;fill-rule:nonzero;stroke:none" transform="translate(40.643 4.48)"/><path d="M0 0c.355-.356.63-.77.823-1.219H-5.08a3.896 3.896 0 0 0-3.892 3.891v5.9a3.867 3.867 0 0 0 1.219-.818zm-15.23 8.893h4.723V2.672A5.434 5.434 0 0 1-5.08-2.755h6.222v-2.811a.767.767 0 1 1 1.535 0v2.813c0 1.45-.565 2.814-1.59 3.839l-7.754 7.755a5.46 5.46 0 0 1-3.834 1.588H-15.23a.768.768 0 1 1 0-1.536" style="fill:#0098da;fill-opacity:1;fill-rule:nonzero;stroke:none" transform="translate(38.735 35.25)"/><path d="M0 0v8.586c0 1.087.884 1.971 1.97 1.971h12.844a1.973 1.973 0 0 0 1.971-1.971V-5.313l-4.696 2.806a3.784 3.784 0 0 1-1.943.536H1.97C.884-1.971 0-1.087 0 0m11.3-3.825 4.904-2.927a1.322 1.322 0 0 1 1.383-.123c.453.227.734.681.734 1.187V8.586a3.51 3.51 0 0 1-3.507 3.507H1.97a3.511 3.511 0 0 1-3.507-3.507V0A3.511 3.511 0 0 1 1.97-3.507h8.176c.407 0 .806-.11 1.154-.318" style="fill:#0098da;fill-opacity:1;fill-rule:nonzero;stroke:none" transform="translate(2.772 37.05)"/><path d="M0 0a.768.768 0 0 1-.768-.768v-.438c-1.248-.281-2.173-1.218-2.173-2.339C-2.941-4.889-1.622-5.98 0-5.98c.826 0 1.402-.474 1.402-.899 0-.426-.578-.899-1.437-.899-.528-.013-1 .216-1.311.634a.767.767 0 1 1-1.232-.918 3.115 3.115 0 0 1 1.81-1.176v-.418a.768.768 0 0 1 1.536 0v.438c1.247.283 2.17 1.219 2.17 2.339C2.938-5.537 1.62-4.445 0-4.445c-.828 0-1.405.474-1.405.9 0 .425.577.899 1.436.899.509.018 1-.216 1.31-.633a.768.768 0 1 1 1.233.915A3.083 3.083 0 0 1 .768-1.185v.417A.768.768 0 0 1 0 0" style="fill:#0098da;fill-opacity:1;fill-rule:nonzero;stroke:none" transform="translate(12.694 26.507)"/><path d="M0 0c0 1.541-1.12 2.568-2.826 2.568-1.033 0-2.714-.38-2.714-1.272 0-.452.436-.746.834-.746.336 0 .511.208.772.33.311.147.71.196.983.196.847 0 1.233-.489 1.233-1.065 0-.733-.622-1.32-.983-1.687-.448-.452-.971-1.076-.971-1.7 0-.612.485-.856.871-.856.436 0 .847.306.871.783 0 .11.026.306.1.379.224.232.436.416.847.856C-.448-1.64 0-.966 0 0" style="fill:#0098da;fill-opacity:1;fill-rule:nonzero;stroke:none" transform="translate(14.102 43.363)"/><path d="M0 0c-.573 0-1.033-.428-1.033-.942s.46-.954 1.033-.954 1.046.44 1.046.954S.573 0 0 0" style="fill:#0098da;fill-opacity:1;fill-rule:nonzero;stroke:none" transform="translate(11.29 38.838)"/><path d="M0 0h-14.522a.768.768 0 1 1 0-1.535H0A.767.767 0 1 1 0 0" style="fill:#0098da;fill-opacity:1;fill-rule:nonzero;stroke:none" transform="translate(25.044 13.64)"/><path d="M0 0h-14.522a.768.768 0 1 1 0-1.535H0A.767.767 0 1 1 0 0" style="fill:#0098da;fill-opacity:1;fill-rule:nonzero;stroke:none" transform="translate(25.044 9.525)"/><path d="M0 0h-6.356a.769.769 0 1 1 0-1.536H0A.768.768 0 1 1 0 0" style="fill:#0098da;fill-opacity:1;fill-rule:nonzero;stroke:none" transform="translate(25.044 23.808)"/><path d="M0 0h-6.356a.768.768 0 1 1 0-1.535H0A.767.767 0 1 1 0 0" style="fill:#0098da;fill-opacity:1;fill-rule:nonzero;stroke:none" transform="translate(25.044 20.005)"/><path d="M0 0c-.22.214-1.097 1.208-1.857 2.09a.765.765 0 0 1-1.151.015L-5.087-.187a.767.767 0 1 1 1.139-1.031l.74.815v-16.43c0-.266-.188-.483-.418-.483h-14.116c-.231 0-.418.217-.418.483V.138c0 .266.187.482.418.482H-7.26a.768.768 0 0 1 0 1.536h-10.482c-1.077 0-1.954-.906-1.954-2.018v-16.971c0-1.113.877-2.018 1.954-2.018h14.116c1.077 0 1.953.905 1.953 2.018V-.46c.819-.915.927-.932 1.22-.937a.775.775 0 0 1 .779.757A.768.768 0 0 1 0 0" style="fill:#0098da;fill-opacity:1;fill-rule:nonzero;stroke:none" transform="translate(48.438 25.01)"/><path d="M0 0c0-.049-.031-.079-.054-.079h-2.054c-.023 0-.054.03-.054.079v2.117c0 .049.031.079.054.079h2.054c.023 0 .054-.03.054-.079Zm-.054 3.731h-2.054c-.876 0-1.589-.723-1.589-1.614V0c0-.891.713-1.614 1.589-1.614h2.054c.877 0 1.59.723 1.59 1.614v2.117c0 .891-.713 1.614-1.59 1.614" style="fill:#0098da;fill-opacity:1;fill-rule:nonzero;stroke:none" transform="translate(35.753 11.158)"/><path d="M0 0c0 .033.006.061.014.079h2.649A.224.224 0 0 0 2.677 0v-2.117a.224.224 0 0 0-.014-.079H.014A.203.203 0 0 0 0-2.117Zm2.741-3.732c.812 0 1.471.724 1.471 1.615V0c0 .89-.659 1.615-1.471 1.615H-.065c-.811 0-1.47-.725-1.47-1.615v-2.117c0-.891.659-1.615 1.47-1.615z" style="fill:#0098da;fill-opacity:1;fill-rule:nonzero;stroke:none" transform="translate(36.416 22.167)"/><path d="M0 0c0-.049-.032-.079-.054-.079h-2.055c-.022 0-.054.03-.054.079v2.117c0 .049.032.079.054.079h2.055c.022 0 .054-.03.054-.079Zm-2.109 3.731c-.876 0-1.589-.723-1.589-1.614V0c0-.891.713-1.614 1.589-1.614h2.055c.876 0 1.589.723 1.589 1.614v2.117c0 .891-.713 1.614-1.589 1.614z" style="fill:#0098da;fill-opacity:1;fill-rule:nonzero;stroke:none" transform="translate(41.918 11.158)"/><path d="M0 0a.768.768 0 1 1 0-1.535h3.548v-.502a.767.767 0 1 1 1.535 0v.502H8.63c.425 0 .767.343.767.767A.766.766 0 0 1 8.63 0Z" style="fill:#0098da;fill-opacity:1;fill-rule:nonzero;stroke:none" transform="translate(33.44 17.43)"/></g></svg>