<svg xmlns="http://www.w3.org/2000/svg" width="66.667" height="66.667"><defs><clipPath id="a" clipPathUnits="userSpaceOnUse"><path d="M0 50h50V0H0Z"/></clipPath></defs><g clip-path="url(#a)" transform="matrix(1.33333 0 0 -1.33333 0 66.667)"><path d="M0 0c.333-.333.589-.722.776-1.14h-5.767a3.81 3.81 0 0 0-3.805 3.805v5.761a3.888 3.888 0 0 0 1.167-.795zm15.983-8.959-2.457 2.457a.795.795 0 0 1-1.124 0L9.795-9.11a.794.794 0 1 1 1.124-1.125l1.303 1.302v-21.322c0-1.369-2.045-2.657-3.63-2.657H-6.641a2.659 2.659 0 0 0-2.654 2.657v18.895a2.658 2.658 0 0 0 2.654 2.655H4.684A2.68 2.68 0 0 1 7.36-6.027v9.286a4.811 4.811 0 0 1-1.437 3.434l-7.31 6.67a4.779 4.779 0 0 1-3.405 1.411h-14.735a3.694 3.694 0 0 1-3.69-3.691v-.722h-5.249a3.845 3.845 0 0 1-3.842-3.841v-36.749a3.637 3.637 0 0 1 3.634-3.634h15.806a.795.795 0 0 1 0 1.59h-15.806a2.046 2.046 0 0 0-2.043 2.044V6.52a2.253 2.253 0 0 0 2.251 2.251h18.079V2.665a5.402 5.402 0 0 1 5.396-5.396h6.105v-1.898a.795.795 0 0 1 1.591 0v1.937c0 .243-.039.48-.07.717.001.014.008.025.008.039 0 .04-.017.074-.023.113a5.348 5.348 0 0 1-1.495 2.948l-7.629 7.631a5.448 5.448 0 0 1-3.876 1.605h-11.246v.722c0 1.158.941 2.1 2.099 2.1h14.735c.862 0 1.672-.335 2.306-.97l7.31-6.67c.61-.61.946-1.421.946-2.284v-9.286c0-.599-.488-1.087-1.086-1.087H-6.641a4.252 4.252 0 0 1-4.246-4.246v-18.895a4.251 4.251 0 0 1 4.246-4.246H8.592c2.364 0 5.22 1.893 5.22 4.246v21.218l1.047-1.047a.795.795 0 1 1 1.124 1.125" style="fill:#0098da;fill-opacity:1;fill-rule:nonzero;stroke:none" transform="translate(33.046 34.864)"/><path d="M0 0h-11.641a.795.795 0 1 1 0-1.59H0A.796.796 0 1 1 0 0" style="fill:#0098da;fill-opacity:1;fill-rule:nonzero;stroke:none" transform="translate(18.422 16.143)"/><path d="M0 0h-1.949a.794.794 0 1 1 0-1.59H0A.796.796 0 1 1 0 0" style="fill:#0098da;fill-opacity:1;fill-rule:nonzero;stroke:none" transform="translate(18.422 10.744)"/><path d="M0 0a.794.794 0 1 1 0-1.59h6.38a.795.795 0 0 1 0 1.59Z" style="fill:#0098da;fill-opacity:1;fill-rule:nonzero;stroke:none" transform="translate(6.78 10.744)"/><path d="M0 0h-5.675a.794.794 0 1 1 0-1.59H0A.796.796 0 1 1 0 0" style="fill:#0098da;fill-opacity:1;fill-rule:nonzero;stroke:none" transform="translate(18.422 21.541)"/><path d="M0 0a.794.794 0 1 1 0-1.59h2.849a.796.796 0 1 1 0 1.59Z" style="fill:#0098da;fill-opacity:1;fill-rule:nonzero;stroke:none" transform="translate(6.78 21.541)"/><path d="M0 0v-1.588h-2.383a.796.796 0 0 1-.796-.795v-2.384h-1.588v2.384a.795.795 0 0 1-.795.795h-2.383V0h2.383c.439 0 .795.356.795.795v2.384h1.588V.795c0-.439.357-.795.796-.795Zm-2.913 4.77h-2.119a1.327 1.327 0 0 1-1.325-1.326V1.591h-1.854A1.327 1.327 0 0 1-9.537.266v-2.12c0-.73.595-1.325 1.326-1.325h1.854v-1.854c0-.73.594-1.325 1.325-1.325h2.119c.731 0 1.325.595 1.325 1.325v1.854H.266c.731 0 1.325.595 1.325 1.325v2.12c0 .73-.594 1.325-1.325 1.325h-1.854v1.853c0 .731-.594 1.326-1.325 1.326" style="fill:#0098da;fill-opacity:1;fill-rule:nonzero;stroke:none" transform="translate(15.483 33.259)"/><path d="M0 0a1.42 1.42 0 1 0-1.42-1.419C-1.42-.637-.782 0 0 0m-.793-5.639c1.43.383 2.728-.09 3.383-1.231a.797.797 0 0 1 1.086-.294.797.797 0 0 1 .294 1.086 4.218 4.218 0 0 1-2.61 1.991 3 3 0 0 1 1.648 2.668c0 1.66-1.35 3.01-3.008 3.01-1.66 0-3.01-1.35-3.01-3.01 0-1.199.711-2.228 1.729-2.711A4.671 4.671 0 0 1-4.67-8.613v-1.661c0-.44.356-.795.795-.795h.94l.483-4.819a.794.794 0 0 1 .791-.716H1.66c.406 0 .746.305.791.708l.238 2.148a.796.796 0 0 1-1.581.176l-.16-1.442H-.94l-.483 4.82a.795.795 0 0 1-.792.715h-.865v.866A3.084 3.084 0 0 0-.793-5.639" style="fill:#0098da;fill-opacity:1;fill-rule:nonzero;stroke:none" transform="translate(30.27 21.274)"/><path d="M0 0a3.637 3.637 0 0 0 3.633-3.633A3.638 3.638 0 0 0 0-7.267a3.638 3.638 0 0 0-3.633 3.634A3.637 3.637 0 0 0 0 0m0-8.856a5.229 5.229 0 0 1 5.223 5.223A5.229 5.229 0 0 1 0 1.59a5.23 5.23 0 0 1-5.224-5.223A5.23 5.23 0 0 1 0-8.856" style="fill:#0098da;fill-opacity:1;fill-rule:nonzero;stroke:none" transform="translate(38.571 13.526)"/><path d="M0 0a.794.794 0 0 1-.795-.795v-2.003a.795.795 0 0 1 1.591 0v2.003C.796-.355.44 0 0 0" style="fill:#0098da;fill-opacity:1;fill-rule:nonzero;stroke:none" transform="translate(38.571 10.468)"/><path d="M0 0a.969.969 0 1 1-.002 1.938A.969.969 0 0 1 0 0" style="fill:#0098da;fill-opacity:1;fill-rule:nonzero;stroke:none" transform="translate(38.571 10.834)"/><path d="M0 0c.63 0 1.143-.512 1.143-1.142C1.143-1.771.63-2.284 0-2.284c-.629 0-1.142.513-1.142 1.142C-1.142-.512-.629 0 0 0m2.732-1.142A2.735 2.735 0 0 1 0 1.591a2.735 2.735 0 0 1-2.732-2.733c0-.799.351-1.513.901-2.013a4.118 4.118 0 0 1-1.266-.969.793.793 0 0 1 .076-1.122.794.794 0 0 1 1.122.075 2.563 2.563 0 0 0 2.146.852 2.53 2.53 0 0 0 1.942-1.25.797.797 0 0 1 1.086-.292c.38.219.511.706.292 1.087a4.118 4.118 0 0 1-1.73 1.623c.547.5.895 1.212.895 2.009" style="fill:#0098da;fill-opacity:1;fill-rule:nonzero;stroke:none" transform="translate(38.018 21.274)"/></g></svg>