<svg xmlns="http://www.w3.org/2000/svg" width="66.667" height="66.667"><defs><clipPath id="a" clipPathUnits="userSpaceOnUse"><path d="M0 50h50V0H0Z"/></clipPath></defs><g clip-path="url(#a)" transform="matrix(1.33333 0 0 -1.33333 0 66.667)"><path d="M0 0h-28.691c-2.012 0-3.648 1.766-3.648 3.938v38.776c0 2.171 1.636 3.938 3.648 3.938H-9.63a.822.822 0 0 0 0-1.646h-19.061c-1.104 0-2.002-1.028-2.002-2.292V3.938c0-1.265.898-2.293 2.002-2.293H0c1.104 0 2.003 1.028 2.003 2.293v21.144a.823.823 0 0 0 1.645 0V3.938C3.648 1.766 2.012 0 0 0" style="fill:#0098da;fill-opacity:1;fill-rule:nonzero;stroke:none" transform="translate(32.516 1.418)"/><path d="M0 0a2.603 2.603 0 0 1-2.601-2.6v-15.451l3.447 2.522a4.639 4.639 0 0 0 2.42.693h11.838a2.602 2.602 0 0 1 2.601 2.599V-2.6c0 1.434-1.166 2.6-2.601 2.6zm-2.726-19.818a1.52 1.52 0 0 0-1.519 1.519V-2.6A4.25 4.25 0 0 0 0 1.646h15.104A4.25 4.25 0 0 0 19.35-2.6v-9.637a4.25 4.25 0 0 0-4.246-4.245H3.266a2.944 2.944 0 0 1-1.512-.417l-3.576-2.622a1.518 1.518 0 0 0-.904-.297" style="fill:#0098da;fill-opacity:1;fill-rule:nonzero;stroke:none" transform="translate(30.474 46.937)"/><path d="M0 0a.822.822 0 0 0-.823.822v12.241a.823.823 0 0 0 1.646 0V.822A.822.822 0 0 0 0 0" style="fill:#0098da;fill-opacity:1;fill-rule:nonzero;stroke:none" transform="translate(13.196 6.447)"/><path d="M0 0h-23.04a.822.822 0 1 0 0 1.645H0A.823.823 0 0 0 0 0" style="fill:#0098da;fill-opacity:1;fill-rule:nonzero;stroke:none" transform="translate(29.69 12.567)"/><path d="M0 0a.05.05 0 0 0 .019-.003v14.657l-21.365.02c-.014 0-.024 0-.03.002V.02L-.013-.001A.062.062 0 0 0 0 0m-.013-1.646h-21.333c-.924 0-1.676.674-1.676 1.502v14.96c0 .83.752 1.504 1.676 1.504H-.013c.924 0 1.676-.674 1.676-1.504V-.144c0-.828-.752-1.502-1.676-1.502" style="fill:#0098da;fill-opacity:1;fill-rule:nonzero;stroke:none" transform="translate(28.85 8.093)"/><path d="M0 0h-23.04a.823.823 0 0 0 0 1.646H0A.823.823 0 0 0 0 0" style="fill:#0098da;fill-opacity:1;fill-rule:nonzero;stroke:none" transform="translate(29.69 18.686)"/><path d="M0 0a3.46 3.46 0 0 0-2.735 1.369.824.824 0 0 0 1.31.996c.36-.473.951-.744 1.524-.718.994.001 1.665.538 1.665 1.019 0 .481-.669 1.017-1.628 1.017-1.807 0-3.277 1.195-3.277 2.665 0 1.494 1.439 2.664 3.277 2.664a3.446 3.446 0 0 0 2.866-1.366.823.823 0 1 0-1.31-.996c-.359.473-.93.74-1.523.717-.994-.001-1.664-.537-1.664-1.019 0-.482.67-1.019 1.631-1.019 1.836 0 3.273-1.17 3.273-2.663C3.409 1.197 1.939.002.131.002.088 0 .044 0 0 0" style="fill:#0098da;fill-opacity:1;fill-rule:nonzero;stroke:none" transform="translate(9.576 29.076)"/><path d="M0 0a.823.823 0 0 0-.823.823V2.05a.823.823 0 0 0 1.646 0V.823A.824.824 0 0 0 0 0" style="fill:#0098da;fill-opacity:1;fill-rule:nonzero;stroke:none" transform="translate(9.712 27.852)"/><path d="M0 0a.823.823 0 0 0-.823.823V2.05a.823.823 0 0 0 1.646 0V.823A.824.824 0 0 0 0 0" style="fill:#0098da;fill-opacity:1;fill-rule:nonzero;stroke:none" transform="translate(9.712 36.442)"/><path d="M0 0a5.29 5.29 0 0 0-5.283 5.284A5.29 5.29 0 0 0 0 10.567a.824.824 0 0 0 0-1.646 3.641 3.641 0 0 1-3.638-3.637A3.641 3.641 0 0 1 0 1.646.824.824 0 0 0 0 0" style="fill:#0098da;fill-opacity:1;fill-rule:nonzero;stroke:none" transform="translate(21.114 28.3)"/><path d="M0 0h-4.716a.824.824 0 0 0 0 1.646H0A.824.824 0 0 0 0 0" style="fill:#0098da;fill-opacity:1;fill-rule:nonzero;stroke:none" transform="translate(20.127 32.76)"/><path d="M0 0c-.58 0-1.046.446-1.046.966 0 .521.466.955 1.046.955.58 0 1.06-.434 1.06-.955C1.06.446.58 0 0 0m.896 3.011C.87 2.528.454 2.218.013 2.218c-.391 0-.883.247-.883.867 0 .632.53 1.264.984 1.722.365.372.996.966.996 1.709 0 .583-.391 1.078-1.248 1.078-.278 0-.681-.049-.997-.198-.264-.124-.441-.334-.782-.334-.403 0-.845.297-.845.755 0 .904 1.703 1.288 2.75 1.288 1.728 0 2.863-1.04 2.863-2.601 0-.978-.455-1.66-.997-2.242-.417-.446-.63-.632-.857-.867-.076-.074-.101-.272-.101-.384" style="fill:#0098da;fill-opacity:1;fill-rule:nonzero;stroke:none" transform="translate(33.201 34.931)"/><path d="M0 0c.975 0 1.321-.594 1.321-1.15 0-.73-.574-1.311-.953-1.695l-.064-.066c-.649-.653-.963-1.199-.963-1.671 0-.546.42-.794.81-.794.373 0 .784.253.81.722 0 .042.006.321.124.434.083.087.166.168.259.259.157.153.335.327.595.606.484.519.977 1.185.977 2.193C2.916.374 1.82 1.366.125 1.366c-1.122 0-2.676-.422-2.676-1.215 0-.409.399-.684.772-.684.214 0 .359.093.512.191.076.048.152.096.24.137C-.625-.015-.14 0 0 0m.151-5.521c-.474 0-.956.322-.956.939 0 .681.574 1.339 1.005 1.774l.066.065c.362.367.91.922.91 1.593C1.176-.665.866-.146 0-.146c-.132 0-.591-.013-.966-.19a1.824 1.824 0 0 1-.221-.128c-.167-.105-.337-.214-.592-.214-.443 0-.917.333-.917.829 0 1.028 1.901 1.361 2.821 1.361 1.757 0 2.937-1.075 2.937-2.674 0-1.064-.543-1.784-1.017-2.292a17.022 17.022 0 0 0-.6-.611c-.091-.089-.174-.17-.258-.257-.051-.05-.081-.208-.081-.334v-.004c-.027-.491-.437-.861-.955-.861m-.012-.297c-.538 0-.975-.396-.975-.882 0-.485.446-.894.975-.894.534 0 .986.409.986.894 0 .478-.452.882-.986.882m0-1.921c-.608 0-1.12.476-1.12 1.039 0 .567.502 1.027 1.12 1.027.624 0 1.132-.46 1.132-1.027 0-.563-.519-1.039-1.132-1.039" style="fill:#0098da;fill-opacity:1;fill-rule:nonzero;stroke:none" transform="translate(33.063 42.598)"/><path d="M0 0c-.15-.384-.554-.582-.958-.521-.454.087-.819.497-.681.893l3.292 8.522c.151.384.541.583.946.509.428-.075.731-.484.693-.868a.643.643 0 0 0-.063-.186Z" style="fill:#0098da;fill-opacity:1;fill-rule:nonzero;stroke:none" transform="translate(38.177 35.03)"/><path d="M0 0a.746.746 0 0 1-.708-.479L-3.998-9a.478.478 0 0 1 .047-.404.856.856 0 0 1 .579-.391c.392-.063.744.138.878.475L.733-.971a.563.563 0 0 1 .06.172c.034.357-.256.718-.635.784A.861.861 0 0 1 0 0m-3.239-9.951a.944.944 0 0 0-.158.013 1.013 1.013 0 0 0-.68.46.631.631 0 0 0-.058.528L-.843-.426A.907.907 0 0 0 .184.128C.635.049.979-.384.937-.818a.7.7 0 0 0-.072-.212L-2.36-9.373a.931.931 0 0 0-.879-.578" style="fill:#0098da;fill-opacity:1;fill-rule:nonzero;stroke:none" transform="translate(40.605 44.377)"/><path d="M0 0c0 .421.391.805.883.805.479 0 .883-.384.883-.805L1.64-5.216c-.013-.371-.367-.693-.757-.693-.429 0-.757.309-.757.693zm.908-8.152c-.593 0-1.059.446-1.059.966s.466.954 1.059.954c.568 0 1.047-.434 1.047-.954s-.479-.966-1.047-.966" style="fill:#0098da;fill-opacity:1;fill-rule:nonzero;stroke:none" transform="translate(43.257 43.096)"/><path d="m0 0 .127-5.214c0-.351.301-.623.685-.623.352 0 .671.291.682.623L1.62.001c0 .388-.378.73-.808.73C.372.731 0 .397 0 0m.812-5.983c-.466 0-.831.337-.831.767L-.146-.001c0 .476.439.878.958.878.508 0 .954-.41.954-.878L1.64-5.218c-.014-.408-.402-.765-.828-.765m.024-.323c-.544 0-.986-.395-.986-.881 0-.492.442-.893.986-.893.527 0 .974.409.974.893 0 .479-.447.881-.974.881m0-1.92c-.624 0-1.132.467-1.132 1.039 0 .566.508 1.027 1.132 1.027.606 0 1.119-.47 1.119-1.027 0-.563-.513-1.039-1.119-1.039" style="fill:#0098da;fill-opacity:1;fill-rule:nonzero;stroke:none" transform="translate(43.33 43.097)"/></g></svg>