<svg xmlns="http://www.w3.org/2000/svg" width="66.667" height="66.667"><defs><clipPath id="a" clipPathUnits="userSpaceOnUse"><path d="M0 50h50V0H0Z"/></clipPath></defs><g clip-path="url(#a)" transform="matrix(1.33333 0 0 -1.33333 0 66.667)"><path d="M0 0c0 .328.305.618.687.618.375 0 .689-.29.689-.618v-5.747c0-.328-.314-.618-.689-.618-.382 0-.687.29-.687.618Z" style="fill:#0099df;fill-opacity:1;fill-rule:nonzero;stroke:none" transform="translate(26.827 15.546)"/><path d="M0 0c0 .328.305.618.687.618.375 0 .689-.29.689-.618v-5.747c0-.328-.314-.618-.689-.618-.382 0-.687.29-.687.618Z" style="fill:none;stroke:#0099df;stroke-width:.2;stroke-linecap:butt;stroke-linejoin:miter;stroke-miterlimit:10;stroke-dasharray:none;stroke-opacity:1" transform="translate(26.827 15.546)"/><path d="M0 0c0 .733-.383 1.313-1.445 1.313h-.668v-4.366h.668C-.363-3.053 0-2.424 0-1.661zm-1.612-4.278h-1.111c-.413 0-.766.318-.766.695v5.428c0 .377.353.695.766.695h1.111C.609 2.54 1.376 1.343 1.376 0v-1.661c0-1.362-.757-2.617-2.988-2.617" style="fill:#0099df;fill-opacity:1;fill-rule:nonzero;stroke:none" transform="translate(32.892 13.547)"/><path d="M0 0c0 .733-.383 1.313-1.445 1.313h-.668v-4.366h.668C-.363-3.053 0-2.424 0-1.661zm-1.612-4.278h-1.111c-.413 0-.766.318-.766.695v5.428c0 .377.353.695.766.695h1.111C.609 2.54 1.376 1.343 1.376 0v-1.661c0-1.362-.757-2.617-2.988-2.617z" style="fill:none;stroke:#0099df;stroke-width:.2;stroke-linecap:butt;stroke-linejoin:miter;stroke-miterlimit:10;stroke-dasharray:none;stroke-opacity:1" transform="translate(32.892 13.547)"/><path d="M0 0a9.43 9.43 0 0 1-.717.261c-.964.29-2.005.608-2.005 2.009 0 1.245.884 1.999 2.281 1.999.579 0 1.975-.145 1.975-.87 0-.319-.256-.608-.688-.608-.177 0-.315.058-.482.105a1.95 1.95 0 0 1-.747.146c-.481 0-.933-.164-.933-.734 0-.425.246-.57.412-.648.256-.125.492-.202.708-.26.963-.299 2.014-.628 2.014-2 0-1.342-1.042-2.115-2.447-2.115-.726 0-2.103.252-2.103.928 0 .308.286.608.649.608.147 0 .305-.048.491-.116.237-.077.551-.192.974-.192.678 0 1.021.299 1.021.83C.403-.222.178-.077 0 0" style="fill:#0099df;fill-opacity:1;fill-rule:nonzero;stroke:none" transform="translate(37.608 11.896)"/><path d="M0 0a9.43 9.43 0 0 1-.717.261c-.964.29-2.005.608-2.005 2.009 0 1.245.884 1.999 2.281 1.999.579 0 1.975-.145 1.975-.87 0-.319-.256-.608-.688-.608-.177 0-.315.058-.482.105a1.95 1.95 0 0 1-.747.146c-.481 0-.933-.164-.933-.734 0-.425.246-.57.412-.648.256-.125.492-.202.708-.26.963-.299 2.014-.628 2.014-2 0-1.342-1.042-2.115-2.447-2.115-.726 0-2.103.252-2.103.928 0 .308.286.608.649.608.147 0 .305-.048.491-.116.237-.077.551-.192.974-.192.678 0 1.021.299 1.021.83C.403-.222.178-.077 0 0Z" style="fill:none;stroke:#0099df;stroke-width:.2;stroke-linecap:butt;stroke-linejoin:miter;stroke-miterlimit:10;stroke-dasharray:none;stroke-opacity:1" transform="translate(37.608 11.896)"/><path d="M0 0h-14.993a3.653 3.653 0 0 0-3.637 3.636V31.39a3.64 3.64 0 0 0 3.621 3.623h38.626a3.652 3.652 0 0 0 3.638-3.635V20.89a.791.791 0 1 0-1.582 0v10.486a2.067 2.067 0 0 1-2.058 2.055h-38.622a2.053 2.053 0 0 1-2.04-2.043V3.638a2.068 2.068 0 0 1 2.056-2.057H0A.79.79 0 1 0 0 0" style="fill:#0099df;fill-opacity:1;fill-rule:nonzero;stroke:none" transform="translate(18.956 9.635)"/><path d="M0 0h-44.303a.791.791 0 0 0 0 1.583H0A.79.79 0 1 0 0 0" style="fill:#0099df;fill-opacity:1;fill-rule:nonzero;stroke:none" transform="translate(45.42 34.78)"/><path d="M0 0h-20.95c-.949 0-1.722.771-1.722 1.722v13.294c0 .95.773 1.721 1.722 1.721h11.161a.79.79 0 1 0 0-1.582H-20.95a.139.139 0 0 1-.139-.139V1.722a.14.14 0 0 1 .139-.141H0a.14.14 0 0 1 .14.141v6.155a.79.79 0 1 0 1.582 0V1.722C1.722.771.95 0 0 0" style="fill:#0099df;fill-opacity:1;fill-rule:nonzero;stroke:none" transform="translate(44.542 5.353)"/><path d="M0 0h-2.771a.791.791 0 1 0 0 1.583H0A.792.792 0 0 0 0 0" style="fill:#0099df;fill-opacity:1;fill-rule:nonzero;stroke:none" transform="translate(34.634 25.526)"/><path d="M0 0h-6.707a.791.791 0 0 0 0 1.583H0A.792.792 0 0 0 0 0" style="fill:#0099df;fill-opacity:1;fill-rule:nonzero;stroke:none" transform="translate(29.724 25.526)"/><path d="M0 0h-6.646a.79.79 0 1 0 0 1.583H0A.792.792 0 0 0 0 0" style="fill:#0099df;fill-opacity:1;fill-rule:nonzero;stroke:none" transform="translate(34.634 29.541)"/><path d="M0 0h-2.666a.791.791 0 0 0 0 1.583H0A.792.792 0 0 0 0 0" style="fill:#0099df;fill-opacity:1;fill-rule:nonzero;stroke:none" transform="translate(25.683 29.541)"/><path d="M0 0a.787.787 0 0 0-.559.231l-1.38 1.381a.788.788 0 0 0 0 1.118.789.789 0 0 0 1.117 0L0 1.909 2.201 4.11c.308.31.812.31 1.118 0a.788.788 0 0 0 0-1.118L.559.231A.787.787 0 0 0 0 0" style="fill:#0099df;fill-opacity:1;fill-rule:nonzero;stroke:none" transform="translate(43.07 19.719)"/><path d="M0 0a4.336 4.336 0 0 1-4.331-4.331A4.336 4.336 0 0 1 0-8.662a4.336 4.336 0 0 1 4.332 4.331A4.336 4.336 0 0 1 0 0m0-10.244a5.92 5.92 0 0 0-5.913 5.913A5.92 5.92 0 0 0 0 1.583a5.92 5.92 0 0 0 5.914-5.914A5.92 5.92 0 0 0 0-10.244" style="fill:#0099df;fill-opacity:1;fill-rule:nonzero;stroke:none" transform="translate(43.76 26.22)"/><path d="M0 0a.654.654 0 1 1 0-1.308A.654.654 0 0 1 0 0m0-2.892A2.24 2.24 0 0 0-2.237-.654 2.24 2.24 0 0 0 0 1.583 2.24 2.24 0 0 0 2.237-.654 2.24 2.24 0 0 0 0-2.892" style="fill:#0099df;fill-opacity:1;fill-rule:nonzero;stroke:none" transform="translate(7.633 40.14)"/><path d="M0 0a.655.655 0 1 1 0-1.31A.655.655 0 0 1 0 0m0-2.892A2.24 2.24 0 0 0-2.237-.654 2.24 2.24 0 0 0 0 1.583 2.24 2.24 0 0 0 2.237-.654 2.24 2.24 0 0 0 0-2.892" style="fill:#0099df;fill-opacity:1;fill-rule:nonzero;stroke:none" transform="translate(13.207 40.14)"/><path d="M0 0a.655.655 0 1 1 0-1.31A.655.655 0 0 1 0 0m0-2.892A2.24 2.24 0 0 0-2.237-.654 2.24 2.24 0 0 0 0 1.583 2.24 2.24 0 0 0 2.236-.654 2.24 2.24 0 0 0 0-2.892" style="fill:#0099df;fill-opacity:1;fill-rule:nonzero;stroke:none" transform="translate(18.623 40.14)"/><path d="M0 0h-3.497a.79.79 0 1 0 0 1.581H0c.68 0 1.233.598 1.233 1.331 0 1.059-.893 1.65-2.364 2.497-1.48.853-3.157 1.82-3.157 3.869 0 1.606 1.263 2.913 2.816 2.913h3.496a.79.79 0 1 0 0-1.582h-3.496c-.68 0-1.234-.597-1.234-1.331 0-1.058.894-1.65 2.365-2.498 1.48-.852 3.156-1.82 3.156-3.868C2.815 1.306 1.552 0 0 0" style="fill:#0099df;fill-opacity:1;fill-rule:nonzero;stroke:none" transform="translate(16.521 16.84)"/><path d="M0 0a.792.792 0 0 0-.792.792V2.72a.793.793 0 0 0 1.583 0V.792A.791.791 0 0 0 0 0" style="fill:#0099df;fill-opacity:1;fill-rule:nonzero;stroke:none" transform="translate(15.785 27.449)"/><path d="M0 0a.792.792 0 0 0-.792.791v1.93a.792.792 0 0 0 1.583 0V.791A.79.79 0 0 0 0 0" style="fill:#0099df;fill-opacity:1;fill-rule:nonzero;stroke:none" transform="translate(15.785 14.91)"/><path d="M0 0c-4.242 0-7.693 3.601-7.693 8.025 0 4.426 3.451 8.026 7.693 8.026a.79.79 0 1 0 0-1.583c-3.37 0-6.11-2.89-6.11-6.443 0-3.552 2.74-6.443 6.11-6.443A.79.79 0 1 0 0 0" style="fill:#0099df;fill-opacity:1;fill-rule:nonzero;stroke:none" transform="translate(11.645 14.91)"/><path d="M0 0h-6.043a.791.791 0 0 0 0 1.583H0A.791.791 0 0 0 0 0" style="fill:#0099df;fill-opacity:1;fill-rule:nonzero;stroke:none" transform="translate(11.184 24.555)"/><path d="M0 0h-6.041a.792.792 0 1 0 0 1.582H0A.79.79 0 1 0 0 0" style="fill:#0099df;fill-opacity:1;fill-rule:nonzero;stroke:none" transform="translate(11.184 19.732)"/><path d="M0 0c-2.287 0-4.012 3.45-4.012 8.025 0 4.576 1.725 8.026 4.012 8.026a.79.79 0 1 0 0-1.583c-1.015 0-2.43-2.451-2.43-6.443 0-3.991 1.415-6.443 2.43-6.443A.79.79 0 1 0 0 0" style="fill:#0099df;fill-opacity:1;fill-rule:nonzero;stroke:none" transform="translate(11.645 14.91)"/></g></svg>