<svg xmlns="http://www.w3.org/2000/svg" width="66.667" height="66.667"><defs><clipPath id="a" clipPathUnits="userSpaceOnUse"><path d="M0 50h50V0H0Z"/></clipPath></defs><g clip-path="url(#a)" transform="matrix(1.33333 0 0 -1.33333 0 66.667)"><path d="M0 0v.401c1.354.307 2.328 1.295 2.328 2.514 0 1.469-1.406 2.62-3.2 2.62-.836 0-1.46.464-1.46.879 0 .414.624.878 1.496.878a1.656 1.656 0 0 0 1.372-.646.872.872 0 0 1 1.387 1.055A3.392 3.392 0 0 1 0 8.94v.389a.872.872 0 0 1-1.743 0v-.401C-3.1 8.623-4.075 7.633-4.075 6.414c0-1.471 1.407-2.622 3.203-2.622.834 0 1.457-.463 1.457-.877 0-.415-.625-.878-1.496-.879a1.666 1.666 0 0 0-1.373.647.87.87 0 1 1-1.386-1.056A3.395 3.395 0 0 1-1.743.379V0A.872.872 0 1 1 0 0" style="fill:#0098da;fill-opacity:1;fill-rule:nonzero;stroke:none" transform="translate(10.852 36.598)"/><path d="M0 0a2.796 2.796 0 0 0-2.793-2.793h-33.205A2.796 2.796 0 0 0-38.791 0v10.731a2.796 2.796 0 0 0 2.792 2.793l21.407-.007c.274 0 .532.128.696.347l2.328 3.092 1.434-2.942a.87.87 0 0 1 .783-.49h6.558A2.796 2.796 0 0 0 0 10.731Zm-2.793 15.267h-6.013L-10.625 19a.868.868 0 0 1-1.479.142l-2.922-3.882-20.972.007a4.541 4.541 0 0 1-4.536-4.536V0a4.54 4.54 0 0 1 4.536-4.535h33.205A4.54 4.54 0 0 1 1.742 0v10.731a4.54 4.54 0 0 1-4.535 4.536" style="fill:#0098da;fill-opacity:1;fill-rule:nonzero;stroke:none" transform="translate(46.86 4.691)"/><path d="M0 0h-23.436a.872.872 0 1 1 0-1.743H0a2.796 2.796 0 0 0 2.793-2.793v-10.732A2.796 2.796 0 0 0 0-18.06l-21.406.007a.872.872 0 0 1-.697-.347l-2.327-3.093-1.434 2.943a.87.87 0 0 1-.783.49h-6.558a2.796 2.796 0 0 0-2.793 2.792.872.872 0 1 1-1.743 0 4.54 4.54 0 0 1 4.536-4.535h6.013l1.818-3.733a.868.868 0 0 1 .784-.489c.272 0 .53.127.696.347l2.922 3.882L0-19.803a4.54 4.54 0 0 1 4.535 4.535v10.732A4.54 4.54 0 0 1 0 0" style="fill:#0098da;fill-opacity:1;fill-rule:nonzero;stroke:none" transform="translate(44.067 45.648)"/><path d="M0 0a.872.872 0 0 1 0 1.743h-9.596a.871.871 0 0 1 0-1.743z" style="fill:#0098da;fill-opacity:1;fill-rule:nonzero;stroke:none" transform="translate(32.587 37.118)"/><path d="M0 0c0-.481.391-.872.872-.872h13.941a.872.872 0 0 1 0 1.744H.872A.873.873 0 0 1 0 0" style="fill:#0098da;fill-opacity:1;fill-rule:nonzero;stroke:none" transform="translate(17.774 33.414)"/><path d="M0 0c.569.611 1.047 1.327 1.047 2.355 0 1.641-1.193 2.734-3.008 2.734-1.1 0-2.889-.404-2.889-1.354 0-.482.465-.794.888-.794.358 0 .544.222.822.351.33.157.755.209 1.046.209.902 0 1.312-.521 1.312-1.132 0-.781-.661-1.406-1.046-1.797-.478-.481-1.034-1.145-1.034-1.809 0-.65.517-.91.927-.91.464 0 .902.325.928.832 0 .117.027.326.106.404.238.247.464.442.901.911" style="fill:#0098da;fill-opacity:1;fill-rule:nonzero;stroke:none" transform="translate(42.238 35.773)"/><path d="M0 0c-.609 0-1.101-.456-1.101-1.002 0-.547.492-1.016 1.101-1.016.608 0 1.112.469 1.112 1.016C1.112-.456.608 0 0 0" style="fill:#0098da;fill-opacity:1;fill-rule:nonzero;stroke:none" transform="translate(40.291 33.313)"/><path d="M0 0h-22.015a.871.871 0 1 1 0-1.742H0A.87.87 0 1 1 0 0" style="fill:#0098da;fill-opacity:1;fill-rule:nonzero;stroke:none" transform="translate(40.976 13.205)"/><path d="M0 0h-22.015a.871.871 0 1 1 0-1.742H0A.87.87 0 1 1 0 0" style="fill:#0098da;fill-opacity:1;fill-rule:nonzero;stroke:none" transform="translate(40.976 8.63)"/><path d="M0 0c.451 0 .795.325.795.729l.132 5.479c0 .443-.41.847-.927.847-.503 0-.928-.404-.928-.847L-.795.729C-.782.339-.411 0 0 0" style="fill:#0098da;fill-opacity:1;fill-rule:nonzero;stroke:none" transform="translate(13.085 8.01)"/><path d="M0 0c-.596 0-1.1-.456-1.1-1.002 0-.547.504-1.016 1.1-1.016.623 0 1.113.469 1.113 1.016C1.113-.456.623 0 0 0" style="fill:#0098da;fill-opacity:1;fill-rule:nonzero;stroke:none" transform="translate(13.058 7.672)"/><path d="M0 0a6.846 6.846 0 0 0 6.839 6.838A6.846 6.846 0 0 0 13.677 0a6.847 6.847 0 0 0-6.838-6.839A6.847 6.847 0 0 0 0 0m15.42 0c0 4.732-3.849 8.582-8.581 8.582-4.732 0-8.582-3.85-8.582-8.582 0-4.732 3.85-8.582 8.582-8.582 4.732 0 8.581 3.85 8.581 8.582" style="fill:#0098da;fill-opacity:1;fill-rule:nonzero;stroke:none" transform="translate(3.14 41.263)"/></g></svg>