<svg width="66.667" height="66.667" xmlns="http://www.w3.org/2000/svg"><defs><clipPath clipPathUnits="userSpaceOnUse" id="a"><path d="M0 50h50V0H0Z"/></clipPath></defs><g clip-path="url(#a)" transform="matrix(1.33333 0 0 -1.33333 0 66.667)"><path d="M0 0a2.51 2.51 0 0 0-2.508-2.507h-31.355A2.51 2.51 0 0 0-36.37 0v41.58a2.751 2.751 0 0 0 2.748 2.748h20.171c.028 0 .055-.008.083-.008v-7.221a6.145 6.145 0 0 1 6.139-6.139h7.22c.001-.029.009-.058.009-.087Zm-1.336 34.096c.449-.45.787-.979 1.014-1.553h-6.907a4.562 4.562 0 0 0-4.557 4.556v6.903a4.528 4.528 0 0 0 1.552-1.007zm1.12 1.119-8.897 8.899a6.177 6.177 0 0 1-4.338 1.797h-20.171a4.336 4.336 0 0 1-4.331-4.331V0a4.094 4.094 0 0 1 4.09-4.089h31.355A4.094 4.094 0 0 1 1.582 0v30.873c0 1.64-.639 3.182-1.798 4.342" style="fill:#0099df;fill-opacity:1;fill-rule:nonzero;stroke:none" transform="translate(43.185 4.089)"/><path d="M0 0c0-.591-.481-1.071-1.071-1.071h-23.468c-.59 0-1.07.48-1.07 1.071v2.464c0 .591.48 1.071 1.07 1.071h23.468c.59 0 1.071-.48 1.071-1.071Zm-1.071 5.118h-23.468a2.657 2.657 0 0 1-2.653-2.654V0a2.656 2.656 0 0 1 2.653-2.653h23.468A2.655 2.655 0 0 1 1.582 0v2.464a2.657 2.657 0 0 1-2.653 2.654" style="fill:#0099df;fill-opacity:1;fill-rule:nonzero;stroke:none" transform="translate(37.805 23.798)"/><path d="M0 0c.437 0 .792.354.792.791v2.136h6.864c1.431 0 2.157-.74 2.157-2.198a.79.79 0 1 1 1.582 0c0 2.332-1.433 3.78-3.739 3.78H-7.49c-2.307 0-3.739-1.448-3.739-3.78a.791.791 0 0 1 1.583 0c0 1.458.725 2.198 2.156 2.198h6.698V.791C-.792.354-.437 0 0 0" style="fill:#0099df;fill-opacity:1;fill-rule:nonzero;stroke:none" transform="translate(24.917 14.185)"/><path d="m0 0-4.541-.013.035 3.993h4.498l.034.006zm-.008 5.562h-4.498c-.892 0-1.618-.706-1.618-1.576V-.013c0-.865.722-1.569 1.609-1.569H0c.888 0 1.608.704 1.608 1.569v3.999c0 .87-.724 1.576-1.616 1.576" style="fill:#0099df;fill-opacity:1;fill-rule:nonzero;stroke:none" transform="translate(27.174 7.845)"/><path d="m0 0-4.541-.013.034 3.993h4.499l.034.006zm-.008 5.562h-4.499c-.891 0-1.617-.706-1.617-1.576V-.013c0-.865.722-1.569 1.609-1.569H0c.887 0 1.609.704 1.609 1.569v3.999c0 .87-.726 1.576-1.617 1.576" style="fill:#0099df;fill-opacity:1;fill-rule:nonzero;stroke:none" transform="translate(16.737 7.845)"/><path d="m0 0-4.542-.013.034 3.993h4.5l.034.006zm-.008 5.562h-4.5c-.891 0-1.616-.706-1.616-1.576V-.013c0-.865.722-1.569 1.609-1.569H0c.887 0 1.608.704 1.608 1.569v3.999c0 .87-.724 1.576-1.616 1.576" style="fill:#0099df;fill-opacity:1;fill-rule:nonzero;stroke:none" transform="translate(37.778 7.845)"/><path d="M0 0h-1.764a.792.792 0 1 1 0-1.582H0A.791.791 0 1 1 0 0" style="fill:#0099df;fill-opacity:1;fill-rule:nonzero;stroke:none" transform="translate(15.361 10.627)"/><path d="M0 0h-1.764a.792.792 0 1 1 0-1.582H0A.79.79 0 1 1 0 0" style="fill:#0099df;fill-opacity:1;fill-rule:nonzero;stroke:none" transform="translate(25.799 10.627)"/><path d="M0 0h-1.765a.79.79 0 1 1 0-1.582H0A.79.79 0 1 1 0 0" style="fill:#0099df;fill-opacity:1;fill-rule:nonzero;stroke:none" transform="translate(36.403 10.627)"/></g></svg>