<svg width="66.667" height="66.667" xmlns="http://www.w3.org/2000/svg"><defs><clipPath clipPathUnits="userSpaceOnUse" id="a"><path d="M0 50h50V0H0Z"/></clipPath></defs><g clip-path="url(#a)" transform="matrix(1.33333 0 0 -1.33333 0 66.667)"><path d="M0 0a3.88 3.88 0 0 0 .809-1.191h-5.903a3.897 3.897 0 0 0-3.893 3.893v5.9c.44-.194.848-.461 1.191-.804zm-11.954-30.883h-17.261a2.1 2.1 0 0 0-2.097 2.097V6.628a2.312 2.312 0 0 0 2.309 2.31h18.43V2.702a5.485 5.485 0 0 1 5.479-5.479h6.236v-6.194a.792.792 0 1 1 1.584 0v6.217a5.446 5.446 0 0 1-1.604 3.875l-7.797 7.798a5.513 5.513 0 0 1-3.871 1.604H-24.48v.572c0 1.202.978 2.18 2.18 2.18h17.692c.972 0 1.923-.394 2.611-1.082l7.473-7.474a3.679 3.679 0 0 0 1.085-2.617V-6.56a.791.791 0 1 1 1.584 0v8.662A5.253 5.253 0 0 1 6.598 5.84l-7.474 7.474a5.313 5.313 0 0 1-3.732 1.547H-22.3a3.771 3.771 0 0 1-3.766-3.766v-.572h-2.937a3.899 3.899 0 0 1-3.895-3.895v-35.414a3.687 3.687 0 0 1 3.683-3.682h17.261a.792.792 0 1 1 0 1.585" style="fill:#0099df;fill-opacity:1;fill-rule:nonzero;stroke:none" transform="translate(34.542 35.14)"/><path d="M0 0h-11.659a.792.792 0 1 1 0-1.585H0A.793.793 0 0 1 0 0" style="fill:#0099df;fill-opacity:1;fill-rule:nonzero;stroke:none" transform="translate(19.093 15.694)"/><path d="M0 0h-11.659a.792.792 0 0 1 0-1.585H0A.793.793 0 0 1 0 0" style="fill:#0099df;fill-opacity:1;fill-rule:nonzero;stroke:none" transform="translate(19.093 11.024)"/><path d="M0 0h-11.255a.792.792 0 1 1 0-1.585H0A.793.793 0 0 1 0 0" style="fill:#0099df;fill-opacity:1;fill-rule:nonzero;stroke:none" transform="translate(18.69 22.963)"/><path d="M0 0h-16.414a.793.793 0 1 1 0-1.585H0A.793.793 0 0 1 0 0" style="fill:#0099df;fill-opacity:1;fill-rule:nonzero;stroke:none" transform="translate(23.849 27.645)"/><path d="M0 0a8.233 8.233 0 0 0-8.594 7.864c-.201 4.539 3.327 8.395 7.865 8.595a8.18 8.18 0 0 0 5.926-2.153 8.181 8.181 0 0 0 2.668-5.713 8.182 8.182 0 0 0-2.152-5.926A8.177 8.177 0 0 0 0 0m13.138-3.029-5.754 5.23A9.751 9.751 0 0 1 9.45 8.663c-.241 5.411-4.855 9.629-10.249 9.38a9.75 9.75 0 0 1-6.811-3.182 9.756 9.756 0 0 1-2.568-7.066c.233-5.265 4.589-9.389 9.809-9.389a9.748 9.748 0 0 1 6.681 2.626l5.759-5.234a.796.796 0 0 1 1.119.053.794.794 0 0 1-.052 1.12" style="fill:#0099df;fill-opacity:1;fill-rule:nonzero;stroke:none" transform="translate(34.96 4.408)"/><path d="M0 0c-.621.832-2.035.832-2.653.002L-4.01-1.805c-.333.305-.791.46-1.235.429-.481-.034-.921-.275-1.248-.719L-8.746-5.75a.798.798 0 0 1-.018-.803.795.795 0 0 1 .693-.406h6.925a.792.792 0 0 1 0 1.585h-5.471l1.542 2.396.592-.591a.792.792 0 0 1 1.194.084l1.903 2.536h.003c.018 0 .117-.005.114-.002l.99-1.309a.791.791 0 1 1 1.264.956z" style="fill:#0099df;fill-opacity:1;fill-rule:nonzero;stroke:none" transform="translate(38.455 14.582)"/><path d="M0 0a1.453 1.453 0 1 1-.001 2.905A1.453 1.453 0 0 1 0 0" style="fill:#0099df;fill-opacity:1;fill-rule:nonzero;stroke:none" transform="translate(31.63 14.746)"/></g></svg>