<svg width="66.667" height="66.667" xmlns="http://www.w3.org/2000/svg"><defs><clipPath clipPathUnits="userSpaceOnUse" id="a"><path d="M0 50h50V0H0Z"/></clipPath></defs><g clip-path="url(#a)" transform="matrix(1.33333 0 0 -1.33333 0 66.667)"><path d="M0 0v6.119c.464-.2.893-.483 1.26-.851L9.3-2.773c.361-.362.644-.793.846-1.26H4.033A4.038 4.038 0 0 0 0 0m10.481-5.63v-3.872a.8.8 0 0 1 1.597 0v3.876a5.597 5.597 0 0 1-1.648 3.982L2.39 6.398a5.593 5.593 0 0 1-3.978 1.648H-20.62a4.003 4.003 0 0 1-3.998-3.998v-36.63a3.783 3.783 0 0 1 3.779-3.779h16.69a.798.798 0 1 1 0 1.596h-16.69c-1.203 0-2.182.98-2.182 2.183v36.63c0 1.324 1.077 2.4 2.401 2.4h19.022V0a5.638 5.638 0 0 1 5.631-5.63z" style="fill:#0099df;fill-opacity:1;fill-rule:nonzero;stroke:none" transform="translate(25.13 41.954)"/><path d="M0 0c0-.365-.383-.675-.835-.675h-19.393c-.452 0-.834.31-.834.675v3.641h18.476a.798.798 0 1 1 0 1.596h-14.605l2.993 3.991c.135.18.342.293.565.31a.818.818 0 0 0 .607-.225l1.079-1.08a.765.765 0 0 1 .621-.232c.23.017.443.132.582.317l3.469 4.624c.292.389.952.389 1.244 0l2.806-3.741a.8.8 0 0 1 1.278.958L-4.754 13.9a2.384 2.384 0 0 1-1.899.951 2.389 2.389 0 0 1-1.9-.951l-2.916-3.886-.428.426a2.394 2.394 0 0 1-1.85.691 2.38 2.38 0 0 1-1.73-.945l-3.638-4.851c-.023-.03-.029-.065-.046-.098h-1.901v18.971c0 .372.375.674.834.674H-.835c.46 0 .835-.302.835-.674Zm-.835 26.48h-19.393c-1.34 0-2.432-1.019-2.432-2.272V0c0-1.253 1.092-2.271 2.432-2.271H-.835C.506-2.271 1.597-1.253 1.597 0v24.208c0 1.253-1.091 2.272-2.432 2.272" style="fill:#0099df;fill-opacity:1;fill-rule:nonzero;stroke:none" transform="translate(47.892 2.272)"/><path d="M0 0h-14.069a.798.798 0 1 1 0-1.597H0A.8.8 0 0 1 0 0" style="fill:#0099df;fill-opacity:1;fill-rule:nonzero;stroke:none" transform="translate(20.304 22.135)"/><path d="M0 0h-4.368a.798.798 0 1 1 0-1.597H0A.8.8 0 0 1 0 0" style="fill:#0099df;fill-opacity:1;fill-rule:nonzero;stroke:none" transform="translate(20.304 17.767)"/><path d="M0 0h6.435a.799.799 0 1 1 0 1.597H0A.798.798 0 1 1 0 0" style="fill:#0099df;fill-opacity:1;fill-rule:nonzero;stroke:none" transform="translate(6.235 16.17)"/><path d="M0 0h14.069a.799.799 0 1 1 0 1.597H0A.798.798 0 1 1 0 0" style="fill:#0099df;fill-opacity:1;fill-rule:nonzero;stroke:none" transform="translate(6.235 11.82)"/><path d="M0 0h-4.368a.8.8 0 0 1 0-1.598H0A.8.8 0 0 1 0 0" style="fill:#0099df;fill-opacity:1;fill-rule:nonzero;stroke:none" transform="translate(20.304 33.102)"/><path d="M0 0h6.435a.799.799 0 1 1 0 1.598H0A.8.8 0 0 1 0 0" style="fill:#0099df;fill-opacity:1;fill-rule:nonzero;stroke:none" transform="translate(6.235 31.504)"/><path d="M0 0h-14.069a.8.8 0 0 1 0-1.598H0A.8.8 0 0 1 0 0" style="fill:#0099df;fill-opacity:1;fill-rule:nonzero;stroke:none" transform="translate(20.304 28.752)"/><path d="M0 0a.792.792 0 0 1-.304.53.793.793 0 0 1-.591.16L-4.443.229a.798.798 0 0 1-.69-.894.792.792 0 0 1 .895-.689l1.62.209-3.784-4.486a.797.797 0 0 1 .61-1.313c.227 0 .452.096.61.284l3.847 4.56c.243-1.772.313-1.835.542-2.025a.801.801 0 0 1 1.125.104c.191.232.23.54.129.801C.389-2.891.174-1.356 0 0" style="fill:#0099df;fill-opacity:1;fill-rule:nonzero;stroke:none" transform="translate(40.701 23.264)"/></g></svg>