<svg width="66.667" height="66.667" xmlns="http://www.w3.org/2000/svg"><defs><clipPath clipPathUnits="userSpaceOnUse" id="a"><path d="M0 50h50V0H0Z"/></clipPath></defs><g clip-path="url(#a)" transform="matrix(1.33333 0 0 -1.33333 0 66.667)"><path d="M0 0v5.741a3.77 3.77 0 0 0 1.165-.789l7.57-7.572c.34-.34.602-.736.789-1.164H3.785A3.79 3.79 0 0 0 0 0m9.817-1.538-7.57 7.572a5.276 5.276 0 0 1-3.755 1.555h-18.746a3.781 3.781 0 0 1-3.777-3.776V-9.925a.765.765 0 1 1 1.53 0V3.813a2.25 2.25 0 0 0 2.247 2.247h18.725V0a5.32 5.32 0 0 1 5.314-5.314h6.06v-26.25a2.043 2.043 0 0 0-2.041-2.042h-28.263a2.044 2.044 0 0 0-2.042 2.042v3.922a.765.765 0 1 1-1.53 0v-3.922a3.575 3.575 0 0 1 3.572-3.571H7.804a3.575 3.575 0 0 1 3.57 3.571v26.267a5.285 5.285 0 0 1-1.557 3.759" style="fill:#0099df;fill-opacity:1;fill-rule:nonzero;stroke:none" transform="translate(38.626 38.773)"/><path d="M0 0c.422 0 .765.343.765.765v6.539a2.25 2.25 0 0 0 2.247 2.247H7.36a.765.765 0 1 1 0 1.53H3.012A3.782 3.782 0 0 1-.765 7.304V.765C-.765.343-.422 0 0 0" style="fill:#0099df;fill-opacity:1;fill-rule:nonzero;stroke:none" transform="translate(4.62 30.179)"/><path d="M0 0h-19.043a.766.766 0 0 1 0-1.53H0A.765.765 0 1 1 0 0" style="fill:#0099df;fill-opacity:1;fill-rule:nonzero;stroke:none" transform="translate(41.782 28.917)"/><path d="M0 0h-5.912a.764.764 0 1 1 0-1.529H0A.764.764 0 1 1 0 0" style="fill:#0099df;fill-opacity:1;fill-rule:nonzero;stroke:none" transform="translate(41.782 23.988)"/><path d="M0 0h9.609a.764.764 0 0 1 0 1.529H0A.765.765 0 1 1 0 0" style="fill:#0099df;fill-opacity:1;fill-rule:nonzero;stroke:none" transform="translate(22.74 22.459)"/><path d="M0 0h19.043a.764.764 0 1 1 0 1.528H0A.764.764 0 1 1 0 0" style="fill:#0099df;fill-opacity:1;fill-rule:nonzero;stroke:none" transform="translate(22.74 17.552)"/><path d="M0 0a2.125 2.125 0 0 1-.62-1.611l.049-.969a.6.6 0 0 0-.368-.578.594.594 0 0 0-.665.145l-.654.722a2.123 2.123 0 0 1-1.574.701h-.005a2.128 2.128 0 0 1-1.577-.699l-.656-.723a.596.596 0 0 0-1.038.424l.05.974A2.127 2.127 0 0 1-9.29.618l-.974-.05a.617.617 0 0 0-.583.368.596.596 0 0 0 .15.669l.724.655a2.127 2.127 0 0 1 .001 3.156l-.723.655a.6.6 0 0 0-.151.671c.096.233.329.362.577.368l.972-.048a2.123 2.123 0 0 1 2.235 2.231l-.047.975a.599.599 0 0 0 .368.579.6.6 0 0 0 .669-.15l.652-.719c.805-.895 2.357-.891 3.155-.003l.659.723a.598.598 0 0 0 1.04-.43l-.05-.975a2.133 2.133 0 0 1 .619-1.607 2.14 2.14 0 0 1 1.61-.622l.973.05a.63.63 0 0 0 .581-.368.6.6 0 0 0-.151-.671l-.725-.654a2.13 2.13 0 0 1 0-3.157l.725-.654a.598.598 0 0 0 .151-.671C3.07.706 2.835.58 2.584.571l-.973.05A2.125 2.125 0 0 1 0 0m4.58.354a2.13 2.13 0 0 1-.539 2.391l-.724.654a.599.599 0 0 0-.001.887l.725.653c.665.601.882 1.562.539 2.392a2.151 2.151 0 0 1-2.071 1.311l-.971-.05a.63.63 0 0 0-.453.175.594.594 0 0 0-.172.45l.049.973a2.128 2.128 0 0 1-3.7 1.537l-.661-.726a.614.614 0 0 0-.884 0l-.002.002-.655.723a2.133 2.133 0 0 1-2.387.533 2.13 2.13 0 0 1-1.31-2.065l.047-.978a.604.604 0 0 0-.174-.454.576.576 0 0 0-.455-.173l-.975.049a2.15 2.15 0 0 1-2.065-1.311 2.132 2.132 0 0 1 .535-2.389l.725-.656a.598.598 0 0 0 0-.887l-.724-.655a2.129 2.129 0 0 1-.536-2.392 2.132 2.132 0 0 1 2.073-1.307l.975.05a.644.644 0 0 0 .451-.173.604.604 0 0 0 .174-.453l-.05-.978a2.133 2.133 0 0 1 1.313-2.063 2.134 2.134 0 0 1 2.385.536l.659.725a.652.652 0 0 0 .445.197.594.594 0 0 0 .441-.198l.657-.726a2.129 2.129 0 0 1 2.384-.529A2.137 2.137 0 0 1 .957-2.507l-.049.974a.593.593 0 0 0 .174.452.65.65 0 0 0 .452.175l.972-.05A2.146 2.146 0 0 1 4.58.354" style="fill:#0099df;fill-opacity:1;fill-rule:nonzero;stroke:none" transform="translate(12.421 15.781)"/><path d="M0 0a2.367 2.367 0 0 0-2.364 2.364c0 .631.246 1.225.693 1.671A2.348 2.348 0 0 0 0 4.728a2.366 2.366 0 0 0 2.363-2.364A2.366 2.366 0 0 0 0 0m0 6.257a3.862 3.862 0 0 1-2.753-1.14 3.867 3.867 0 0 1-1.141-2.753A3.898 3.898 0 0 1 0-1.529a3.898 3.898 0 0 1 3.893 3.893A3.898 3.898 0 0 1 0 6.257" style="fill:#0099df;fill-opacity:1;fill-rule:nonzero;stroke:none" transform="translate(8.581 17.257)"/><path d="M0 0h8.323L7.065-1.154a.765.765 0 0 1 1.036-1.127l2.85 2.618a.763.763 0 0 1-.037 1.158L8.008 3.842a.766.766 0 0 1-.961-1.191l1.389-1.122H0A.765.765 0 1 1 0 0" style="fill:#0099df;fill-opacity:1;fill-rule:nonzero;stroke:none" transform="translate(22.74 10.339)"/></g></svg>