<svg xmlns="http://www.w3.org/2000/svg" width="66.667" height="66.667"><defs><clipPath id="a" clipPathUnits="userSpaceOnUse"><path d="M0 50h50V0H0Z"/></clipPath></defs><g clip-path="url(#a)" transform="matrix(1.33333 0 0 -1.33333 0 66.667)"><path d="M0 0a2.812 2.812 0 0 0-2.809-2.809h-32.749A2.812 2.812 0 0 0-38.366 0v10.585a2.812 2.812 0 0 0 2.808 2.808l21.113-.007c.253 0 .491.118.642.321l2.35 3.12 1.452-2.981a.804.804 0 0 1 .725-.453h6.467A2.812 2.812 0 0 0 0 10.585Zm-2.809 15.003h-5.963l-1.808 3.714a.806.806 0 0 1-1.368.131l-2.9-3.851-20.71.006a4.423 4.423 0 0 1-4.419-4.418V0a4.423 4.423 0 0 1 4.419-4.419h32.749A4.422 4.422 0 0 1 1.61 0v10.585a4.423 4.423 0 0 1-4.419 4.418" style="fill:#0098da;fill-opacity:1;fill-rule:nonzero;stroke:none" transform="translate(46.614 4.97)"/><path d="M0 0h-23.114a.806.806 0 0 1 0-1.612H0A2.811 2.811 0 0 0 2.809-4.42v-10.584A2.812 2.812 0 0 0 0-17.812l-21.112.007a.805.805 0 0 1-.644-.321l-2.349-3.121-1.453 2.982a.805.805 0 0 1-.724.453h-6.467a2.812 2.812 0 0 0-2.808 2.808.806.806 0 1 1-1.611 0 4.424 4.424 0 0 1 4.419-4.419h5.964l1.808-3.713a.804.804 0 0 1 1.368-.131l2.898 3.851L0-19.423a4.424 4.424 0 0 1 4.419 4.419V-4.42A4.424 4.424 0 0 1 0 0" style="fill:#0098da;fill-opacity:1;fill-rule:nonzero;stroke:none" transform="translate(43.806 45.311)"/><path d="M0 0a.806.806 0 0 1 0 1.611h-9.464a.806.806 0 1 1 0-1.611Z" style="fill:#0098da;fill-opacity:1;fill-rule:nonzero;stroke:none" transform="translate(32.482 37.005)"/><path d="M0 0c0-.445.361-.806.806-.806h13.749a.806.806 0 0 1 0 1.612H.806A.806.806 0 0 1 0 0" style="fill:#0098da;fill-opacity:1;fill-rule:nonzero;stroke:none" transform="translate(17.927 33.298)"/><path d="M0 0c.562.603 1.032 1.309 1.032 2.322 0 1.616-1.176 2.694-2.965 2.694-1.084 0-2.846-.398-2.846-1.334 0-.475.457-.783.875-.783.352 0 .535.218.809.346.326.154.745.205 1.032.205.887 0 1.293-.512 1.293-1.116 0-.769-.654-1.384-1.032-1.77C-2.272.09-2.82-.565-2.82-1.219c0-.641.509-.898.914-.898.457 0 .888.321.914.821 0 .116.026.321.104.398.236.244.457.436.888.898" style="fill:#0098da;fill-opacity:1;fill-rule:nonzero;stroke:none" transform="translate(41.998 35.623)"/><path d="M0 0c-.601 0-1.083-.449-1.083-.988 0-.539.482-1.001 1.083-1.001.602 0 1.098.462 1.098 1.001C1.098-.449.602 0 0 0" style="fill:#0098da;fill-opacity:1;fill-rule:nonzero;stroke:none" transform="translate(40.078 33.199)"/><path d="M0 0h-21.713a.805.805 0 1 1 0-1.61H0A.805.805 0 1 1 0 0" style="fill:#0098da;fill-opacity:1;fill-rule:nonzero;stroke:none" transform="translate(40.757 13.313)"/><path d="M0 0h-21.713a.806.806 0 1 1 0-1.61H0A.804.804 0 1 1 0 0" style="fill:#0098da;fill-opacity:1;fill-rule:nonzero;stroke:none" transform="translate(40.757 8.8)"/><path d="M0 0c.443 0 .783.32.783.719L.914 6.12c0 .435-.405.833-.914.833-.497 0-.914-.398-.914-.833l.13-5.401C-.771.334-.405 0 0 0" style="fill:#0098da;fill-opacity:1;fill-rule:nonzero;stroke:none" transform="translate(13.25 8.241)"/><path d="M0 0c-.587 0-1.083-.45-1.083-.988 0-.539.496-1 1.083-1 .614 0 1.098.461 1.098 1C1.098-.45.614 0 0 0" style="fill:#0098da;fill-opacity:1;fill-rule:nonzero;stroke:none" transform="translate(13.223 7.908)"/><path d="M0 0a6.806 6.806 0 0 0 6.799 6.798A6.806 6.806 0 0 0 13.597 0a6.806 6.806 0 0 0-6.798-6.799A6.807 6.807 0 0 0 0 0m15.208 0c0 4.637-3.772 8.41-8.409 8.41-4.637 0-8.41-3.773-8.41-8.41 0-4.638 3.773-8.41 8.41-8.41 4.637 0 8.409 3.772 8.409 8.41" style="fill:#0098da;fill-opacity:1;fill-rule:nonzero;stroke:none" transform="translate(3.387 41.04)"/><path d="M0 0a.624.624 0 0 0-.625.617c.013.138.219.525.625 1.036C.404 1.145.61.76.625.62A.625.625 0 0 0 0 0m6.863.01a.623.623 0 0 0-.625.616c.013.139.22.526.625 1.037.403-.508.609-.893.625-1.034A.625.625 0 0 0 6.863.01m-.899-3.79a.805.805 0 0 1-.806.805h-.85V2.07l.864.005c-.318-.49-.546-.995-.546-1.441a2.24 2.24 0 0 1 2.237-2.236A2.238 2.238 0 0 1 9.099.634c0 .869-.86 1.963-1.581 2.729-.032.034-.076.051-.112.079a.8.8 0 0 1-.581.253H6.82l-2.512-.014v.631a.806.806 0 0 1-1.612 0v-.64L.175 3.658c-.048 0-.09-.02-.136-.028-.013 0-.025.008-.039.008h-.002a.998.998 0 0 1-.652-.284c-.721-.765-1.582-1.859-1.582-2.729A2.24 2.24 0 0 1 0-1.612 2.24 2.24 0 0 1 2.237.625c0 .442-.224.943-.539 1.43l.998.006v-5.036h-.85a.804.804 0 1 1 0-1.611h3.312c.445 0 .806.361.806.806" style="fill:#0098da;fill-opacity:1;fill-rule:nonzero;stroke:none" transform="translate(6.754 40.773)"/></g></svg>