<svg xmlns="http://www.w3.org/2000/svg" width="66.667" height="66.667"><defs><clipPath id="a" clipPathUnits="userSpaceOnUse"><path d="M0 50h50V0H0Z"/></clipPath></defs><g clip-path="url(#a)" transform="matrix(1.33333 0 0 -1.33333 0 66.667)"><path d="M0 0a.611.611 0 0 0-.612.604C-.599.74-.397 1.12 0 1.62.395 1.123.597.746.612.607A.613.613 0 0 0 0 0m6.723.01a.611.611 0 0 0-.613.604c.013.136.215.514.613 1.015.394-.497.596-.875.611-1.012A.61.61 0 0 0 6.723.01m-.881-3.713a.789.789 0 0 1-.789.789H4.22v4.942l.846.004c-.311-.479-.534-.974-.534-1.41 0-1.208.983-2.191 2.191-2.191 1.207 0 2.19.983 2.19 2.191 0 .851-.842 1.922-1.549 2.673-.031.033-.074.049-.11.077a.784.784 0 0 1-.569.248h-.004L4.22 3.606v.618a.79.79 0 0 1-1.579 0v-.627l-2.47-.014c-.047 0-.088-.019-.134-.027-.013 0-.024.007-.037.007a.98.98 0 0 1-.642-.277C-1.348 2.535-2.19 1.463-2.19.612c0-1.208.982-2.191 2.19-2.191S2.19-.596 2.19.612c0 .434-.219.925-.526 1.401l.977.006v-4.933h-.832a.79.79 0 1 1 0-1.578h3.244a.79.79 0 0 1 .789.789" style="fill:#0098da;fill-opacity:1;fill-rule:nonzero;stroke:none" transform="translate(5.016 41.051)"/><path d="M0 0h21.837a2.701 2.701 0 0 0 2.698-2.697v-10.211a2.7 2.7 0 0 0-2.698-2.696l-20.366.006H1.47a.79.79 0 0 1-.631-.314l-2.254-2.995-1.392 2.859a.79.79 0 0 1-.709.444h-6.239c-1.194 0-2.23.765-2.579 1.904a.79.79 0 0 1-1.509-.463 4.252 4.252 0 0 1 4.088-3.02h5.745l1.741-3.575a.787.787 0 0 1 1.34-.129l2.793 3.711 19.973-.007a4.28 4.28 0 0 1 4.275 4.275v10.211a4.28 4.28 0 0 1-4.275 4.275H0A.789.789 0 1 1 0 0" style="fill:#0098da;fill-opacity:1;fill-rule:nonzero;stroke:none" transform="translate(19.005 44.772)"/><path d="M0 0a.79.79 0 0 1 0-1.578h9.13A.789.789 0 1 1 9.13 0Z" style="fill:#0098da;fill-opacity:1;fill-rule:nonzero;stroke:none" transform="translate(21.701 39.892)"/><path d="M0 0h13.265a.79.79 0 0 1 0 1.579H0A.79.79 0 0 1 0 0" style="fill:#0098da;fill-opacity:1;fill-rule:nonzero;stroke:none" transform="translate(17.566 33.96)"/><path d="M0 0a.79.79 0 0 1 0-1.578h9.13A.789.789 0 1 1 9.13 0Z" style="fill:#0098da;fill-opacity:1;fill-rule:nonzero;stroke:none" transform="translate(17.566 11.238)"/><path d="M0 0a.788.788 0 0 1-.789.789h-13.265a.789.789 0 1 1 0-1.577H-.789C-.353-.788 0-.436 0 0" style="fill:#0098da;fill-opacity:1;fill-rule:nonzero;stroke:none" transform="translate(31.62 14.802)"/><path d="M0 0c.542.582.996 1.263.996 2.241 0 1.561-1.135 2.6-2.861 2.6-1.047 0-2.749-.384-2.749-1.287 0-.459.441-.756.844-.756.341 0 .517.211.782.334.315.149.718.199.996.199.858 0 1.249-.496 1.249-1.077 0-.743-.631-1.337-.997-1.709-.454-.458-.984-1.09-.984-1.721 0-.619.493-.867.884-.867.442 0 .857.31.882.793 0 .111.025.309.102.383.226.236.44.422.856.867" style="fill:#0098da;fill-opacity:1;fill-rule:nonzero;stroke:none" transform="translate(39.103 36.994)"/><path d="M0 0c-.58 0-1.046-.434-1.046-.953 0-.521.466-.966 1.046-.966.581 0 1.06.445 1.06.966C1.06-.434.581 0 0 0" style="fill:#0098da;fill-opacity:1;fill-rule:nonzero;stroke:none" transform="translate(37.25 34.654)"/><path d="M0 0c.429 0 .757.309.757.693l.126 5.212c0 .421-.391.806-.883.806-.479 0-.882-.385-.882-.806L-.756.693C-.744.321-.391 0 0 0" style="fill:#0098da;fill-opacity:1;fill-rule:nonzero;stroke:none" transform="translate(11.364 10.58)"/><path d="M0 0c.592 0 1.059.445 1.059.965S.592 1.919 0 1.919c-.568 0-1.047-.434-1.047-.954S-.568 0 0 0" style="fill:#0098da;fill-opacity:1;fill-rule:nonzero;stroke:none" transform="translate(11.34 8.339)"/><path d="M0 0a6.554 6.554 0 0 0 6.547 6.546A6.554 6.554 0 0 0 13.094 0a6.554 6.554 0 0 0-6.547-6.546A6.554 6.554 0 0 0 0 0m14.672 0c0 4.48-3.645 8.125-8.125 8.125S-1.578 4.48-1.578 0s3.645-8.125 8.125-8.125S14.672-4.48 14.672 0" style="fill:#0098da;fill-opacity:1;fill-rule:nonzero;stroke:none" transform="translate(1.83 41.312)"/><path d="M0 0a.79.79 0 0 1 .71-.443h6.239a2.691 2.691 0 0 0 2.485-1.648.793.793 0 0 1 1.035-.42c.401.17.589.633.42 1.035a4.27 4.27 0 0 1-3.94 2.61H1.203l-1.74 3.575a.79.79 0 0 1-1.341.13L-4.67 1.128l-19.974.006a4.28 4.28 0 0 1-4.275-4.275v-10.211a4.28 4.28 0 0 1 4.275-4.274H-2.67a.788.788 0 1 1 0 1.577h-21.974a2.7 2.7 0 0 0-2.696 2.697v10.211a2.7 2.7 0 0 0 2.695 2.698L-4.276-.45c.247 0 .481.115.63.314l2.253 2.995z" style="fill:#0098da;fill-opacity:1;fill-rule:nonzero;stroke:none" transform="translate(33.834 20.757)"/><path d="M0 0a6.556 6.556 0 0 0-6.547 6.548A6.556 6.556 0 0 0 0 13.095a6.556 6.556 0 0 0 6.547-6.547A6.556 6.556 0 0 0 0 0m0 14.672c-4.479 0-8.124-3.645-8.124-8.124 0-4.481 3.645-8.126 8.124-8.126 4.48 0 8.125 3.645 8.125 8.126 0 4.479-3.645 8.124-8.125 8.124" style="fill:#0098da;fill-opacity:1;fill-rule:nonzero;stroke:none" transform="translate(41.623 2.14)"/><path d="M0 0c.128.348.208.718.208 1.108 0 .614-.181 1.182-.479 1.671C.578 2.07.975 1.257.975 1.257S.617.652 0 0m-7.021 1.187s.384.911 1.282 1.658a3.2 3.2 0 0 1-.256-3.002 7.342 7.342 0 0 0-1.026 1.344m3.998-2.01a1.93 1.93 0 1 0-.001 3.86 1.93 1.93 0 0 0 .001-3.86m5.167 2.647C2.078 1.959.508 5.107-3.07 5.107h-.046c-3.649-.028-5.046-3.281-5.104-3.42l-.242-.58.305-.549c.078-.141 1.946-3.45 5.052-3.45h.048C.038-2.856 2.014.459 2.096.601l.351.598z" style="fill:#0098da;fill-opacity:1;fill-rule:nonzero;stroke:none" transform="translate(44.647 7.58)"/><path d="M0 0a.953.953 0 1 1 0-1.907A.953.953 0 0 1 0 0" style="fill:#0098da;fill-opacity:1;fill-rule:nonzero;stroke:none" transform="translate(41.623 9.642)"/></g></svg>