<svg width="66.667" height="66.667" xmlns="http://www.w3.org/2000/svg"><defs><clipPath clipPathUnits="userSpaceOnUse" id="a"><path d="M0 50h50V0H0Z"/></clipPath></defs><g clip-path="url(#a)" transform="matrix(1.33333 0 0 -1.33333 0 66.667)"><path d="M0 0v6.107a4.01 4.01 0 0 0 1.257-.849l8.025-8.026c.367-.367.649-.795.848-1.258H4.025A4.03 4.03 0 0 0 0 0m10.461-5.621v-4.801a.798.798 0 0 1 1.594 0v4.806a5.588 5.588 0 0 1-1.645 3.975L2.384 6.386a5.574 5.574 0 0 1-3.97 1.644h-18.996c-2.2 0-3.99-1.789-3.99-3.989v-36.562a3.775 3.775 0 0 1 3.772-3.771h1.652a.796.796 0 1 1 0 1.593H-20.8a2.18 2.18 0 0 0-2.177 2.178V4.041a2.398 2.398 0 0 0 2.395 2.395h18.987V0a5.627 5.627 0 0 1 5.62-5.621z" style="fill:#0099df;fill-opacity:1;fill-rule:nonzero;stroke:none" transform="translate(25.13 41.922)"/><path d="M0 0c0-.371-.375-.674-.834-.674h-19.355c-.46 0-.834.303-.834.674v23.225c0 .371.374.672.834.672H-.834c.452 0 .834-.308.834-.672Zm-.834 25.492h-19.355c-1.339 0-2.429-1.017-2.429-2.267V0c0-1.25 1.09-2.267 2.429-2.267H-.834C.505-2.267 1.594-1.25 1.594 0v23.225c0 1.25-1.089 2.267-2.428 2.267" style="fill:#0099df;fill-opacity:1;fill-rule:nonzero;stroke:none" transform="translate(47.849 2.314)"/><path d="M0 0a.783.783 0 0 1-.68.364.795.795 0 0 1-.787-.806c.004-.359.007-.479 1.788-1.966h-5.077A2.657 2.657 0 0 0-7.41.246v1.627a.798.798 0 0 1-1.595 0V.246a4.253 4.253 0 0 1 4.249-4.248H.266l-1.429-1.407A.796.796 0 1 1-.044-6.545l2.965 2.92a.798.798 0 0 1-.054 1.185C1.648-1.444.281-.29 0 0" style="fill:#0099df;fill-opacity:1;fill-rule:nonzero;stroke:none" transform="translate(18.523 9.514)"/><path d="M0 0h-6.669a.797.797 0 0 1 0-1.595H0A.798.798 0 0 1 0 0" style="fill:#0099df;fill-opacity:1;fill-rule:nonzero;stroke:none" transform="translate(20.313 30.545)"/><path d="M0 0h4.072a.797.797 0 1 1 0 1.595H0A.798.798 0 0 1 0 0" style="fill:#0099df;fill-opacity:1;fill-rule:nonzero;stroke:none" transform="translate(6.27 28.95)"/><path d="M0 0h-14.043a.797.797 0 0 1 0-1.594H0A.797.797 0 0 1 0 0" style="fill:#0099df;fill-opacity:1;fill-rule:nonzero;stroke:none" transform="translate(20.313 34.937)"/><path d="M0 0h14.043a.797.797 0 1 1 0 1.594H0A.797.797 0 0 1 0 0" style="fill:#0099df;fill-opacity:1;fill-rule:nonzero;stroke:none" transform="translate(6.27 22.422)"/><path d="M0 0h-4.36a.796.796 0 1 1 0-1.594H0A.797.797 0 0 1 0 0" style="fill:#0099df;fill-opacity:1;fill-rule:nonzero;stroke:none" transform="translate(20.313 19.656)"/><path d="M0 0h6.422a.797.797 0 1 1 0 1.594H0A.797.797 0 1 1 0 0" style="fill:#0099df;fill-opacity:1;fill-rule:nonzero;stroke:none" transform="translate(6.27 18.063)"/><path d="M0 0c.441 0 .797.356.797.797L.744 2.979l1.438.052V.797c0-.441.356-.797.797-.797h2.182l.051-1.385H2.979a.796.796 0 0 1-.797-.797l.051-2.18-1.436-.052v2.232A.796.796 0 0 1 0-1.385l-2.182-.052L-2.233 0Zm-2.233-2.979h1.436v-1.435c0-.851.692-1.542 1.541-1.542h1.489c.851 0 1.542.691 1.542 1.542v1.435h1.437c.85 0 1.541.692 1.541 1.542v1.49c0 .849-.691 1.541-1.541 1.541H3.775v1.437c0 .85-.691 1.541-1.542 1.541H.744A1.543 1.543 0 0 1-.797 3.031V1.594h-1.436c-.85 0-1.542-.692-1.542-1.541v-1.49c0-.85.692-1.542 1.542-1.542" style="fill:#0099df;fill-opacity:1;fill-rule:nonzero;stroke:none" transform="translate(35.848 19.611)"/><path d="M40.662 6.907h3.464V5.091h-3.464zm-10.114 0h3.463V5.091h-3.463zm3.463 1.594h-3.463v1.815h3.463zm5.057-3.41h-3.464v1.816h3.464zm-3.464 5.225h3.464V8.501h-3.464zm8.522-1.815h-3.464v1.815h3.464zm.235 3.409H30.312c-.75 0-1.358-.612-1.358-1.365V4.862c0-.753.608-1.365 1.358-1.365h14.049c.75 0 1.359.612 1.359 1.365v5.683c0 .753-.609 1.365-1.359 1.365" style="fill:#0099df;fill-opacity:1;fill-rule:nonzero;stroke:none"/></g></svg>