<svg xmlns="http://www.w3.org/2000/svg" width="66.667" height="66.667"><defs><clipPath id="a" clipPathUnits="userSpaceOnUse"><path d="M0 50h50V0H0Z"/></clipPath></defs><g clip-path="url(#a)" transform="matrix(1.33333 0 0 -1.33333 0 66.667)"><path d="M0 0h.553a.798.798 0 1 1 0 1.596H0a5.37 5.37 0 0 1-5.363-5.365v-26.053A5.37 5.37 0 0 1 0-35.186h.553a.797.797 0 1 1 0 1.595H0a3.774 3.774 0 0 0-3.769 3.769v12.229H-.29a.798.798 0 0 1 0 1.595h-3.479v12.229A3.774 3.774 0 0 0 0 0" style="fill:#0099df;fill-opacity:1;fill-rule:nonzero;stroke:none" transform="translate(36.36 41.765)"/><path d="M0 0a.19.19 0 0 0-.188-.189h-7.495A.19.19 0 0 0-7.872 0v9.253a.19.19 0 0 0 .189.189h4.219a.802.802 0 0 0 .568-.235c.026-.025.052-.05.081-.07l2.611-1.984A.797.797 0 0 0 0 6.618Zm.812 8.385-2.623 1.992a2.384 2.384 0 0 1-1.653.66h-4.219c-.984 0-1.784-.8-1.784-1.784V0c0-.984.8-1.784 1.784-1.784h7.495c.983 0 1.783.8 1.783 1.784v6.618c0 .641-.249 1.243-.702 1.695a.694.694 0 0 1-.081.072" style="fill:#0099df;fill-opacity:1;fill-rule:nonzero;stroke:none" transform="translate(48.337 2.68)"/><path d="M0 0h-4.926a.797.797 0 1 1 0-1.595H0A.798.798 0 1 1 0 0" style="fill:#0099df;fill-opacity:1;fill-rule:nonzero;stroke:none" transform="translate(46.864 8.708)"/><path d="M0 0h-4.926a.797.797 0 1 1 0-1.595H0A.798.798 0 1 1 0 0" style="fill:#0099df;fill-opacity:1;fill-rule:nonzero;stroke:none" transform="translate(46.864 5.85)"/><path d="M0 0a.188.188 0 0 0-.188-.188h-7.495A.189.189 0 0 0-7.872 0v9.253c0 .105.085.19.189.19h4.219a.802.802 0 0 0 .568-.235.777.777 0 0 1 .081-.071l2.612-1.984A.796.796 0 0 0 0 6.619Zm.812 8.386-2.623 1.992a2.39 2.39 0 0 1-1.653.661h-4.219a1.787 1.787 0 0 1-1.784-1.786V0c0-.983.8-1.783 1.784-1.783h7.495c.983 0 1.783.8 1.783 1.783v6.619a2.38 2.38 0 0 1-.702 1.696.914.914 0 0 1-.081.071" style="fill:#0099df;fill-opacity:1;fill-rule:nonzero;stroke:none" transform="translate(48.337 20.343)"/><path d="M0 0h-4.926a.798.798 0 1 1 0-1.595H0A.797.797 0 1 1 0 0" style="fill:#0099df;fill-opacity:1;fill-rule:nonzero;stroke:none" transform="translate(46.864 26.372)"/><path d="M0 0h-4.926a.798.798 0 1 1 0-1.595H0A.797.797 0 1 1 0 0" style="fill:#0099df;fill-opacity:1;fill-rule:nonzero;stroke:none" transform="translate(46.864 23.514)"/><path d="M0 0a.188.188 0 0 0-.188-.188h-7.495A.189.189 0 0 0-7.872 0v9.253a.19.19 0 0 0 .189.189h4.221a.795.795 0 0 0 .566-.235.767.767 0 0 1 .081-.07l2.612-1.984A.798.798 0 0 0 0 6.619Zm.893 8.314a.675.675 0 0 1-.081.071l-2.623 1.992a2.378 2.378 0 0 1-1.65.661h-4.222a1.786 1.786 0 0 1-1.784-1.785V0c0-.983.8-1.784 1.784-1.784h7.495c.983 0 1.783.801 1.783 1.784v6.619c0 .641-.249 1.243-.702 1.695" style="fill:#0099df;fill-opacity:1;fill-rule:nonzero;stroke:none" transform="translate(48.337 38.066)"/><path d="M0 0h-4.926a.798.798 0 1 1 0-1.596H0A.798.798 0 0 1 0 0" style="fill:#0099df;fill-opacity:1;fill-rule:nonzero;stroke:none" transform="translate(46.864 44.095)"/><path d="M0 0h-4.926a.798.798 0 1 1 0-1.596H0A.798.798 0 0 1 0 0" style="fill:#0099df;fill-opacity:1;fill-rule:nonzero;stroke:none" transform="translate(46.864 41.237)"/><path d="M0 0h-8.432c-.693 0-1.257.563-1.257 1.256V27.938a1.41 1.41 0 0 0 1.407 1.408H5.622c.675 0 1.31-.263 1.788-.742l5.543-5.542a2.555 2.555 0 0 0 .742-1.792v-7.764a.797.797 0 1 1 1.595 0v7.764c0 1.103-.43 2.14-1.209 2.919l-5.543 5.544a4.098 4.098 0 0 1-2.916 1.208H-8.282a3.006 3.006 0 0 1-3.002-3.003V1.256a2.855 2.855 0 0 1 2.852-2.851H0A.798.798 0 0 1 0 0" style="fill:#0099df;fill-opacity:1;fill-rule:nonzero;stroke:none" transform="translate(11.352 10.4)"/><path d="M0 0c.317 0 .594.255.604.559l.085 3.524c0 .339-.322.636-.689.636-.374 0-.689-.291-.689-.638l.085-3.52C-.604.246-.338 0 0 0" style="fill:#0099df;fill-opacity:1;fill-rule:nonzero;stroke:none" transform="translate(22.18 11.676)"/><path d="M0 0c-.446 0-.809-.33-.809-.736 0-.411.363-.745.809-.745.434 0 .8.34.8.745C.8-.338.434 0 0 0" style="fill:#0099df;fill-opacity:1;fill-rule:nonzero;stroke:none" transform="translate(22.196 10.904)"/><path d="M0 0a.923.923 0 0 0-.792-.441h-8.243A.928.928 0 0 0-9.829 0a.927.927 0 0 0-.04.908l4.121 8.241c.16.319.479.517.834.517a.929.929 0 0 0 .835-.516L.043.908V.907A.926.926 0 0 0 0 0m-2.653 9.864a2.514 2.514 0 0 1-2.261 1.397 2.515 2.515 0 0 1-2.261-1.398l-4.12-8.241a2.511 2.511 0 0 1 .109-2.461 2.513 2.513 0 0 1 2.151-1.197h8.243a2.51 2.51 0 0 1 2.15 1.198c.464.752.505 1.671.111 2.46z" style="fill:#0099df;fill-opacity:1;fill-rule:nonzero;stroke:none" transform="translate(27.105 8.894)"/><path d="M0 0a.226.226 0 0 0-.143-.211l-1.669-.667A1.251 1.251 0 0 0-3.527.283v2.698c0 2.356.872 4.613 2.457 6.356l.676.744a.226.226 0 0 0 .249.058A.225.225 0 0 0 0 9.928V5.341l-2.253-1.753a.797.797 0 0 1 .49-1.427c.171 0 .344.054.49.167L0 3.319Zm6.267-1.692a.795.795 0 0 1 1.037.444.797.797 0 0 1-.444 1.037.226.226 0 0 0-.143.211v3.319l1.275-.991a.797.797 0 0 1 .979 1.26L6.718 5.341v4.587c0 .094.057.177.145.211a.221.221 0 0 0 .25-.059l.675-.743a9.425 9.425 0 0 0 2.456-6.355.797.797 0 1 1 1.595 0 11.013 11.013 0 0 1-2.87 7.428l-.676.743a1.831 1.831 0 0 1-2.005.474 1.832 1.832 0 0 1-1.165-1.699l-.001-3.346-.965.751v6.27a.799.799 0 0 1-1.596 0v-6.27l-.966-.751v3.346c0 .747-.468 1.43-1.164 1.699a1.833 1.833 0 0 1-2.006-.474l-.675-.743a11.016 11.016 0 0 1-2.873-7.429V.283a2.843 2.843 0 0 1 2.847-2.846c.357 0 .716.067 1.057.204l1.669.667A1.814 1.814 0 0 1 1.595 0v4.561l1.764 1.372 1.763-1.372V0c0-.749.449-1.413 1.145-1.692" style="fill:#0099df;fill-opacity:1;fill-rule:nonzero;stroke:none" transform="translate(9.997 19.8)"/></g></svg>