<svg xmlns="http://www.w3.org/2000/svg" width="66.667" height="66.667"><defs><clipPath id="a" clipPathUnits="userSpaceOnUse"><path d="M0 50h50V0H0Z"/></clipPath></defs><g clip-path="url(#a)" transform="matrix(1.33333 0 0 -1.33333 0 66.667)"><path d="M0 0a3.69 3.69 0 0 1 .589 1.993A3.706 3.706 0 0 1-.557 4.67c1.653-.937 2.412-2.491 2.412-2.491S1.161 1 0 0m-8.124 2.093s.751 1.796 2.592 2.725a3.7 3.7 0 0 1-1.326-2.825c0-.879.319-1.677.83-2.314C-7.349.7-8.124 2.093-8.124 2.093m4.99-2.51a2.41 2.41 0 1 0-.002 4.82 2.41 2.41 0 0 0 .002-4.82m6.122 1.933.354.605-.306.631c-.078.161-1.955 3.924-6.229 3.924h-.006l-.049-.001c-4.353-.033-6.019-3.912-6.087-4.077l-.245-.586.308-.555c.094-.169 2.339-4.146 6.034-4.146h.058c3.69.042 6.069 4.035 6.168 4.205" style="fill:#0098da;fill-opacity:1;fill-rule:nonzero;stroke:none" transform="translate(14.84 39.782)"/><path d="M0 0a1.19 1.19 0 1 1 0-2.38A1.19 1.19 0 0 1 0 0" style="fill:#0098da;fill-opacity:1;fill-rule:nonzero;stroke:none" transform="translate(11.707 42.965)"/><path d="M0 0a.796.796 0 0 1-.797-.796c0-.738-.601-1.34-1.34-1.34h-30.678c-1.192 0-2.162.97-2.162 2.162v27.055a.797.797 0 0 1-1.594 0V.026a3.759 3.759 0 0 1 3.756-3.755h30.678A2.936 2.936 0 0 1 .796-.796.795.795 0 0 1 0 0" style="fill:#0098da;fill-opacity:1;fill-rule:nonzero;stroke:none" transform="translate(41.887 4.002)"/><path d="M0 0c.359-.359.636-.777.832-1.229h-6.025a3.978 3.978 0 0 0-3.974 3.973V8.77c.452-.196.87-.472 1.229-.831zm-15.585 9.102h4.824V2.744a5.575 5.575 0 0 1 5.568-5.568h6.358v-3.011a.797.797 0 1 1 1.593 0v3.024a5.532 5.532 0 0 1-1.63 3.938l-7.939 7.939a5.53 5.53 0 0 1-3.935 1.63H-15.585a.797.797 0 1 1 0-1.594" style="fill:#0098da;fill-opacity:1;fill-rule:nonzero;stroke:none" transform="translate(39.927 35.486)"/><path d="M0 0v8.791c0 1.106.9 2.006 2.006 2.006h13.149a2.01 2.01 0 0 0 2.008-2.006V-5.421l-4.792 2.864a3.89 3.89 0 0 1-1.994.551H2.006C.9-2.006 0-1.106 0 0m11.553-3.925 5.018-2.995a1.377 1.377 0 0 1 1.428-.128c.467.233.758.702.758 1.224V8.791a3.606 3.606 0 0 1-3.602 3.601H2.006a3.605 3.605 0 0 1-3.6-3.601V0a3.605 3.605 0 0 1 3.6-3.601h8.371c.414 0 .82-.112 1.176-.324" style="fill:#0098da;fill-opacity:1;fill-rule:nonzero;stroke:none" transform="translate(3.126 37.336)"/><path d="M0 0h-7.795a.797.797 0 1 1 0-1.594H0A.797.797 0 1 1 0 0" style="fill:#0098da;fill-opacity:1;fill-rule:nonzero;stroke:none" transform="translate(24.96 14.68)"/><path d="M0 0h3.403a.797.797 0 1 1 0 1.594H0A.797.797 0 0 1 0 0" style="fill:#0098da;fill-opacity:1;fill-rule:nonzero;stroke:none" transform="translate(11.21 13.086)"/><path d="M0 0h13.75a.796.796 0 1 1 0 1.594H0A.797.797 0 0 1 0 0" style="fill:#0098da;fill-opacity:1;fill-rule:nonzero;stroke:none" transform="translate(11.21 7.877)"/><path d="M0 0h-13.75a.796.796 0 1 1 0-1.593H0A.797.797 0 1 1 0 0" style="fill:#0098da;fill-opacity:1;fill-rule:nonzero;stroke:none" transform="translate(24.96 19.889)"/><path d="M0 0a.798.798 0 0 1 0 1.594h-3.588a.797.797 0 1 1 0-1.594Z" style="fill:#0098da;fill-opacity:1;fill-rule:nonzero;stroke:none" transform="translate(24.757 23.505)"/><path d="M0 0h7.677a.798.798 0 0 1 0 1.594H0A.798.798 0 0 1 0 0" style="fill:#0098da;fill-opacity:1;fill-rule:nonzero;stroke:none" transform="translate(11.006 23.505)"/><path d="M0 0c0-.623-.508-1.131-1.132-1.131H-14.57c-.624 0-1.131.508-1.131 1.131v16.609c0 .624.507 1.131 1.131 1.131h13.438c.624 0 1.132-.507 1.132-1.131Zm-1.132 19.334H-14.57a2.728 2.728 0 0 1-2.725-2.725V0a2.728 2.728 0 0 1 2.725-2.725h13.438A2.728 2.728 0 0 1 1.594 0v16.609a2.728 2.728 0 0 1-2.726 2.725" style="fill:#0098da;fill-opacity:1;fill-rule:nonzero;stroke:none" transform="translate(46.875 8.183)"/><path d="M0 0a.806.806 0 0 1-.074.143c-.019.031-.027.065-.049.093-.01.012-.023.017-.033.028-.036.041-.079.07-.123.102-.041.03-.079.063-.124.084-.042.021-.088.029-.133.041a.748.748 0 0 1-.167.033c-.014.001-.026.009-.041.009h-3.101a.797.797 0 1 1 0-1.594h.841l-7.543-6.076a.797.797 0 0 1 1-1.241l8.006 6.449v-1.435a.796.796 0 1 1 1.594 0v3.1c0 .035-.016.066-.021.101C.025-.107.019-.054 0 0" style="fill:#0098da;fill-opacity:1;fill-rule:nonzero;stroke:none" transform="translate(44.11 23.394)"/><path d="M0 0a.797.797 0 0 1-.797-.797v-2.59a.797.797 0 0 1 1.594 0v2.59A.797.797 0 0 1 0 0" style="fill:#0098da;fill-opacity:1;fill-rule:nonzero;stroke:none" transform="translate(35.603 13.231)"/><path d="M0 0a.797.797 0 0 1-.797-.797v-4.532a.797.797 0 1 1 1.594 0v4.532A.797.797 0 0 1 0 0" style="fill:#0098da;fill-opacity:1;fill-rule:nonzero;stroke:none" transform="translate(39.443 15.174)"/><path d="M0 0a.797.797 0 0 1-.797-.797v-6.259a.797.797 0 0 1 1.593 0v6.259A.796.796 0 0 1 0 0" style="fill:#0098da;fill-opacity:1;fill-rule:nonzero;stroke:none" transform="translate(43.284 16.9)"/></g></svg>