<svg width="66.667" height="66.667" xmlns="http://www.w3.org/2000/svg"><defs><clipPath clipPathUnits="userSpaceOnUse" id="a"><path d="M0 50h50V0H0Z"/></clipPath></defs><g clip-path="url(#a)" transform="matrix(1.33333 0 0 -1.33333 0 66.667)"><path d="M0 0c.157.217.41.346.679.346H18.005c.269 0 .522-.13.678-.346.157-.218.2-.5.129-.715l-2.177-5.53a.84.84 0 0 0-.806-.613H2.857c-.361 0-.681.231-.81.612L-.115-.754A.838.838 0 0 0 0 0m11.29-45.609H-8.113a2.472 2.472 0 0 0-2.469 2.469v35.908a2.471 2.471 0 0 0 2.469 2.469h7.868l.798-2.026a2.428 2.428 0 0 1 2.304-1.66H15.83a2.425 2.425 0 0 1 2.293 1.639l.805 2.047h7.868a2.472 2.472 0 0 0 2.47-2.469v-12.685a.796.796 0 1 1 1.59 0v12.685c0 2.239-1.82 4.06-4.06 4.06h-7.242l.753 1.913a2.44 2.44 0 0 1-.333 2.188 2.43 2.43 0 0 1-1.969 1.008H.678A2.431 2.431 0 0 1-1.29.931a2.447 2.447 0 0 1-.319-2.229l.737-1.874h-7.241a4.064 4.064 0 0 1-4.06-4.06V-43.14a4.064 4.064 0 0 1 4.06-4.059H11.29a.794.794 0 0 1 0 1.59" style="fill:#0099df;fill-opacity:1;fill-rule:nonzero;stroke:none" transform="translate(13.116 47.875)"/><path d="M0 0a.795.795 0 0 1-.795-.796v-27.747a2.429 2.429 0 0 1 2.427-2.427H12.89a.795.795 0 0 1 0 1.59H1.632a.837.837 0 0 0-.837.837V-.796C.795-.356.439 0 0 0" style="fill:#0099df;fill-opacity:1;fill-rule:nonzero;stroke:none" transform="translate(8.263 38.175)"/><path d="M0 0v-9.401a.794.794 0 1 1 1.59 0V0A.796.796 0 1 1 0 0" style="fill:#0099df;fill-opacity:1;fill-rule:nonzero;stroke:none" transform="translate(35.853 37.379)"/><path d="M0 0c-5.968 0-10.824 4.856-10.824 10.824S-5.968 21.648 0 21.648s10.824-4.856 10.824-10.824S5.968 0 0 0m0 23.239c-6.846 0-12.414-5.569-12.414-12.415C-12.414 3.979-6.846-1.59 0-1.59c6.845 0 12.414 5.569 12.414 12.414 0 6.846-5.569 12.415-12.414 12.415" style="fill:#0099df;fill-opacity:1;fill-rule:nonzero;stroke:none" transform="translate(36.644 1.777)"/><path d="m0 0-.485 1.457c.381.1.754.23 1.126.355A11.94 11.94 0 0 1 2.148.655C1.448.388.731.165 0 0m7.972 3.859a.796.796 0 0 1 1.078.322 8.73 8.73 0 0 1 1.046 4.241 6.21 6.21 0 0 1-6.203 6.203 6.21 6.21 0 0 1-6.204-6.203c0-2.213.717-3.956 1.771-5.33a14.88 14.88 0 0 0-1.138-.282.798.798 0 0 1-.593-1.031l.984-2.95a.795.795 0 0 1 .895-.531 17.32 17.32 0 0 1 4.299 1.38C6.151-1.38 8.153-1.699 8.199-1.706a.796.796 0 0 1 .873.535l.984 2.95a.801.801 0 0 1-.609 1.033c-.072.013-7.218 1.414-7.219 5.669a1.498 1.498 0 0 0 1.606 1.607.572.572 0 0 1 .117 0c.443.031.862-.127 1.171-.436.31-.309.468-.736.434-1.229a3.591 3.591 0 0 0-.713-2.152.794.794 0 1 1 1.275-.949 5.101 5.101 0 0 1 1.026 3.041 3.08 3.08 0 0 1-.897 2.413 3.078 3.078 0 0 1-2.354.902 3.057 3.057 0 0 1-2.355-.902C.899 10.14.573 9.26.64 8.422c0-4.501 5.442-6.39 7.63-6.968l-.487-1.46c-.764.169-2.094.534-3.475 1.212a.804.804 0 0 1-.195.096c-.928.474-1.87 1.094-2.673 1.897a.671.671 0 0 1-.082.087C.153 4.526-.721 6.191-.721 8.422a4.62 4.62 0 0 0 4.614 4.613 4.62 4.62 0 0 0 4.613-4.624 7.14 7.14 0 0 0-.856-3.474.795.795 0 0 1 .322-1.078" style="fill:#0099df;fill-opacity:1;fill-rule:nonzero;stroke:none" transform="translate(32.751 6.146)"/><path d="M0 0a.794.794 0 0 1-.795.795h-11.607a.796.796 0 1 1 0-1.59H-.795C-.355-.795 0-.439 0 0" style="fill:#0099df;fill-opacity:1;fill-rule:nonzero;stroke:none" transform="translate(33.3 32)"/><path d="M0 0a.797.797 0 0 1 1.125 0l2.833 2.834a.794.794 0 1 1-1.125 1.124L.562 1.687l-1.07 1.071a.795.795 0 1 1-1.125-1.125z" style="fill:#0099df;fill-opacity:1;fill-rule:nonzero;stroke:none" transform="translate(13.874 30.123)"/><path d="M0 0a.794.794 0 0 1-.795.795h-5.058a.795.795 0 0 1 0-1.59h5.058C-.355-.795 0-.439 0 0" style="fill:#0099df;fill-opacity:1;fill-rule:nonzero;stroke:none" transform="translate(26.751 24.514)"/><path d="m0 0 1.633-1.633a.793.793 0 0 1 1.125 0L5.591 1.2a.795.795 0 1 1-1.125 1.125L2.195.054l-1.07 1.071A.797.797 0 0 1 0 0" style="fill:#0099df;fill-opacity:1;fill-rule:nonzero;stroke:none" transform="translate(12.242 24.168)"/><path d="m0 0 1.633-1.633a.793.793 0 0 1 1.125 0L5.591 1.2a.795.795 0 1 1-1.125 1.124L2.195.054l-1.07 1.07A.795.795 0 1 1 0 0" style="fill:#0099df;fill-opacity:1;fill-rule:nonzero;stroke:none" transform="translate(12.242 16.858)"/></g></svg>