<svg width="66.667" height="66.667" xmlns="http://www.w3.org/2000/svg"><defs><clipPath clipPathUnits="userSpaceOnUse" id="a"><path d="M0 50h50V0H0Z"/></clipPath></defs><g clip-path="url(#a)" transform="matrix(1.33333 0 0 -1.33333 0 66.667)"><path d="M0 0h-.507v1.308H0c.515 0 .744-.203.744-.658C.744.2.515 0 0 0m-1.223-3.241c.388 0 .716.309.716.675v1.254H0c1.343 0 2.176.749 2.176 1.954 0 1.237-.813 1.977-2.176 1.977h-1.16c-.423 0-.779-.33-.779-.721v-4.464c0-.366.328-.675.716-.675" style="fill:#0099df;fill-opacity:1;fill-rule:nonzero;stroke:none" transform="translate(20.058 27.524)"/><path d="M0 0c0-.64-.326-.952-.997-.952h-.373v3.175h.373c.662 0 .997-.299.997-.89Zm-2.023-2.263h.892C1.182-2.263 1.431-.68 1.431 0v1.333c0 .663-.249 2.202-2.562 2.202h-.892c-.422 0-.779-.33-.779-.722v-4.355c0-.391.357-.721.779-.721" style="fill:#0099df;fill-opacity:1;fill-rule:nonzero;stroke:none" transform="translate(25.815 26.616)"/><path d="M0 0c.389 0 .716.302.716.66v1.656h1.328c.397 0 .708.29.708.66 0 .353-.324.652-.708.652H.716v.928h1.478c.402 0 .716.282.716.644 0 .362-.328.668-.716.668H.056c-.462 0-.772-.369-.772-.714V.66C-.716.296-.395 0 0 0" style="fill:#0099df;fill-opacity:1;fill-rule:nonzero;stroke:none" transform="translate(28.811 24.284)"/><path d="M0 0h-13.134a.794.794 0 1 1 0-1.59H0A.795.795 0 0 1 0 0" style="fill:#0099df;fill-opacity:1;fill-rule:nonzero;stroke:none" transform="translate(31.567 21.274)"/><path d="M0 0h-13.134a.794.794 0 1 1 0-1.59H0A.795.795 0 0 1 0 0" style="fill:#0099df;fill-opacity:1;fill-rule:nonzero;stroke:none" transform="translate(31.567 16.857)"/><path d="M0 0v-.018c.022-1.087-.747-1.995-1.692-2.024h-17.386c-.97.029-1.739.937-1.716 2.042v23.034c-.023 1.088.746 1.996 1.692 2.025h12.644a1.566 1.566 0 0 0 1.166-.559l4.757-5.427c.347-.4.536-.925.535-1.482Zm-4.093 25.545a3.157 3.157 0 0 1-2.36 1.104l-12.673-.001c-1.838-.054-3.299-1.69-3.258-3.63V.017c-.041-1.956 1.42-3.593 3.282-3.649h17.433C.167-3.576 1.626-1.945 1.589.009v17.579a3.828 3.828 0 0 1-.925 2.53z" style="fill:#0099df;fill-opacity:1;fill-rule:nonzero;stroke:none" transform="translate(35.398 13.491)"/><path d="M0 0c.149.17.218.396.19.619l-.561 4.548a.787.787 0 0 1-.888.692.795.795 0 0 1-.691-.887l.35-2.835a24.829 24.829 0 0 1-17.763 7.482A24.818 24.818 0 0 1-31.997 6.17a.794.794 0 1 1 .81-1.368 23.224 23.224 0 0 0 11.824 3.227A23.232 23.232 0 0 0-2.986 1.27c-2.33-.064-2.422-.166-2.642-.437a.796.796 0 0 1 .882-1.251c.428.059 2.411.119 4.159.145A.79.79 0 0 1 0 0" style="fill:#0099df;fill-opacity:1;fill-rule:nonzero;stroke:none" transform="translate(44.363 40.22)"/><path d="m0 0-2.58-.213a24.894 24.894 0 0 1 7.244 17.531c0 4.639-1.285 9.163-3.721 13.084a.794.794 0 1 1-1.349-.839 23.206 23.206 0 0 0 3.481-12.245c0-6.13-2.44-12.023-6.734-16.361.038 2.564-.058 2.648-.328 2.886a.798.798 0 0 1-1.122-.072.791.791 0 0 1-.163-.758c.042-.431.022-2.414-.023-4.162a.796.796 0 0 1 .86-.812l4.567.377c.437.036.763.42.725.857A.788.788 0 0 1 0 0" style="fill:#0099df;fill-opacity:1;fill-rule:nonzero;stroke:none" transform="translate(45.174 7.682)"/><path d="M0 0a23.209 23.209 0 0 0 7.009 16.627c-.077-2.733.015-2.825.288-3.072a.794.794 0 0 1 1.296.813c-.036.431.006 2.415.071 4.163a.794.794 0 0 1-.852.822l-4.57-.326a.793.793 0 0 1-.736-.849.798.798 0 0 1 .849-.736l2.391.17A24.794 24.794 0 0 1-1.59 0a24.81 24.81 0 0 1 3.484-12.694.795.795 0 1 1 1.367.813A23.212 23.212 0 0 0 0 0" style="fill:#0099df;fill-opacity:1;fill-rule:nonzero;stroke:none" transform="translate(1.752 25)"/><path d="M0 0a23.204 23.204 0 0 0-12.133-3.413 23.167 23.167 0 0 0-16.63 7.015l2.548-.182a.794.794 0 1 1 .113 1.586l-4.42.314a.769.769 0 0 1-.469-.031c-.018-.007-.032-.018-.05-.026-.056-.028-.115-.047-.166-.088-.012-.011-.017-.025-.028-.035-.014-.012-.033-.017-.046-.03-.048-.046-.074-.105-.109-.161-.005-.01-.013-.017-.018-.027a.782.782 0 0 1-.115-.412c.065-1.748.106-3.733.07-4.163a.794.794 0 0 1 1.297-.814c.267.242.361.329.292 2.921a24.747 24.747 0 0 1 17.731-7.456c4.589 0 9.071 1.26 12.964 3.647A.795.795 0 0 1 0 0" style="fill:#0099df;fill-opacity:1;fill-rule:nonzero;stroke:none" transform="translate(37.133 5.164)"/></g></svg>