<svg width="66.667" height="66.667" xmlns="http://www.w3.org/2000/svg"><defs><clipPath clipPathUnits="userSpaceOnUse" id="a"><path d="M0 50h50V0H0Z"/></clipPath></defs><g clip-path="url(#a)" transform="matrix(1.33333 0 0 -1.33333 0 66.667)"><path d="M0 0c.427-.426.748-.928.964-1.473h-6.588a4.349 4.349 0 0 0-4.344 4.345v6.583a4.33 4.33 0 0 0 1.472-.958zm2.034-28.088a.76.76 0 0 1-.761-.761v-2.708a2.39 2.39 0 0 0-2.388-2.389h-30.791a2.39 2.39 0 0 0-2.387 2.389V7.15a2.62 2.62 0 0 0 2.618 2.618h20.111c.025 0 .049-.007.075-.007V2.872a5.873 5.873 0 0 1 5.865-5.867h6.89c.001-.027.007-.052.007-.079v-10.269a.76.76 0 1 1 1.522 0v10.269a5.83 5.83 0 0 1-1.718 4.151l-8.495 8.496a5.821 5.821 0 0 1-4.146 1.718h-20.111a4.146 4.146 0 0 1-4.141-4.141v-38.707a3.914 3.914 0 0 1 3.91-3.91h30.791a3.913 3.913 0 0 1 3.91 3.91v2.708a.76.76 0 0 1-.761.761" style="fill:#0099df;fill-opacity:1;fill-rule:nonzero;stroke:none" transform="translate(43.978 37.088)"/><path d="M0 0h-2.029a1.828 1.828 0 0 0-1.826 1.827v31.802c0 1.112.904 2.017 2.016 2.017h1.768a.76.76 0 1 1 0 1.522h-1.768a3.542 3.542 0 0 1-3.539-3.539V1.827a3.352 3.352 0 0 1 3.349-3.348H0A.76.76 0 1 1 0 0" style="fill:#0099df;fill-opacity:1;fill-rule:nonzero;stroke:none" transform="translate(5.437 7.177)"/><path d="M0 0h-14.248a.76.76 0 0 1-.761-.761v-1.368l-4.63 4.979 4.63 4.977V6.46a.76.76 0 0 1 .761-.761H0Zm.761 7.221h-14.248v2.544a.764.764 0 0 1-.483.709.763.763 0 0 1-.836-.191l-6.428-6.915a.759.759 0 0 1 0-1.037l6.428-6.916a.767.767 0 0 1 .836-.189.76.76 0 0 1 .483.708v2.545H.761c.421 0 .76.339.76.76V6.46a.76.76 0 0 1-.76.761" style="fill:#0099df;fill-opacity:1;fill-rule:nonzero;stroke:none" transform="translate(48.419 13.12)"/><path d="M0 0h-11.055a.76.76 0 1 1 0-1.521H0A.76.76 0 1 1 0 0" style="fill:#0099df;fill-opacity:1;fill-rule:nonzero;stroke:none" transform="translate(25.937 22.642)"/><path d="M0 0h8.651a.76.76 0 1 1 0 1.521H0A.76.76 0 1 1 0 0" style="fill:#0099df;fill-opacity:1;fill-rule:nonzero;stroke:none" transform="translate(14.882 15.196)"/><path d="M0 0h11.055a.761.761 0 0 1 0 1.522H0A.76.76 0 1 1 0 0" style="fill:#0099df;fill-opacity:1;fill-rule:nonzero;stroke:none" transform="translate(14.882 9.297)"/><path d="M0 0c0 .42-.341.761-.762.761h-25.171a.761.761 0 0 1 0-1.522H-.762C-.341-.761 0-.42 0 0" style="fill:#0099df;fill-opacity:1;fill-rule:nonzero;stroke:none" transform="translate(40.815 27.75)"/><path d="M0 0a.2.2 0 0 0 .2.2h9.132a.2.2 0 0 0 .2-.2v-3.128a.2.2 0 0 0-.2-.2H.2a.2.2 0 0 0-.2.2zm.2-4.851h9.132c.95 0 1.722.773 1.722 1.723V0c0 .95-.772 1.723-1.722 1.723H.2C-.75 1.723-1.523.95-1.523 0v-3.128c0-.95.773-1.723 1.723-1.723" style="fill:#0099df;fill-opacity:1;fill-rule:nonzero;stroke:none" transform="translate(15.644 37.688)"/></g></svg>