<svg width="66.667" height="66.667" xmlns="http://www.w3.org/2000/svg"><defs><clipPath clipPathUnits="userSpaceOnUse" id="a"><path d="M0 50h50V0H0Z"/></clipPath></defs><g clip-path="url(#a)" transform="matrix(1.33333 0 0 -1.33333 0 66.667)"><path d="M0 0h-18.352c-.638 0-1.156.519-1.156 1.157v24.336a1.3 1.3 0 0 0 1.298 1.299h11.543v-3.921a3.908 3.908 0 0 1 3.903-3.903h3.921V1.157C1.157.519.638 0 0 0m.467 20.894c.115-.116.216-.244.304-.379h-3.535a2.358 2.358 0 0 0-2.355 2.356v3.537c.134-.089.262-.189.378-.306zm2.194-1.153c0 .03-.014.055-.016.084a3.93 3.93 0 0 1-1.084 2.162l-5.208 5.209a3.863 3.863 0 0 1-2.176 1.086c-.024.002-.045.014-.07.014-.008 0-.016-.005-.024-.005-.162.02-.322.047-.488.047H-18.21a2.849 2.849 0 0 1-2.846-2.845V1.157a2.706 2.706 0 0 1 2.704-2.703H0a2.707 2.707 0 0 1 2.705 2.703v18.069c0 .164-.029.325-.049.487 0 .01.005.018.005.028" style="fill:#0099df;fill-opacity:1;fill-rule:nonzero;stroke:none" transform="translate(21.056 20.453)"/><path d="M0 0h-18.353c-.638 0-1.157.519-1.157 1.157v24.335a1.3 1.3 0 0 0 1.299 1.299h11.544V22.87a3.907 3.907 0 0 1 3.903-3.902h3.921V1.157C1.157.519.638 0 0 0m.467 20.893c.116-.117.217-.245.305-.379h-3.536a2.36 2.36 0 0 0-2.357 2.356v3.537c.135-.088.263-.189.379-.305zm2.188-1.178c0 .009.005.016.005.025 0 .027-.012.048-.014.073a3.869 3.869 0 0 1-1.085 2.173l-5.209 5.209a3.86 3.86 0 0 1-2.175 1.086c-.025.002-.046.014-.071.014-.008 0-.015-.004-.024-.005-.162.021-.322.048-.487.048h-11.806a2.849 2.849 0 0 1-2.845-2.846V1.157a2.706 2.706 0 0 1 2.703-2.704H0a2.706 2.706 0 0 1 2.703 2.704v18.069c0 .166-.027.327-.048.489" style="fill:#0099df;fill-opacity:1;fill-rule:nonzero;stroke:none" transform="translate(47.297 2.755)"/><path d="M0 0a.773.773 0 0 1-1.425-.429c.005-.346.011-.47 1.885-2.035h-5.269A2.741 2.741 0 0 0-7.547.274V1.93a.774.774 0 0 1-1.547 0V.274A4.289 4.289 0 0 1-4.809-4.01H.394l-1.52-1.497A.774.774 0 1 1-.042-6.608l3.018 2.969a.775.775 0 0 1-.053 1.151C1.678-1.47.281-.292 0 0" style="fill:#0099df;fill-opacity:1;fill-rule:nonzero;stroke:none" transform="translate(16.827 12.58)"/><path d="M0 0a.774.774 0 0 1 .652-.358h.009c.427.005.77.356.764.783-.004.348-.009.472-1.885 2.037h5.27A2.741 2.741 0 0 0 7.548-.275v-1.656a.774.774 0 0 1 1.546 0v1.656A4.29 4.29 0 0 1 4.81 4.01H-.392l1.519 1.495A.773.773 0 1 1 .041 6.607l-3.017-2.969a.774.774 0 0 1 .054-1.151C-1.677 1.47-.282.292 0 0" style="fill:#0099df;fill-opacity:1;fill-rule:nonzero;stroke:none" transform="translate(33.082 37.405)"/><path d="m0 0-5.805-6.032-1.564-.324.324 1.683 5.812 6.038A.853.853 0 0 0 0 1.357.98.98 0 0 0 .27.679.983.983 0 0 0 0 0m-2.348 2.438-5.97-6.203a.766.766 0 0 1-.203-.391l-.586-3.048a.77.77 0 0 1 .917-.902l2.933.609a.765.765 0 0 1 .401.221l5.97 6.202a2.54 2.54 0 0 1-.007 3.512c-.904.941-2.55.94-3.455 0" style="fill:#0099df;fill-opacity:1;fill-rule:nonzero;stroke:none" transform="translate(44.55 14.614)"/><path d="M0 0h6.682a.773.773 0 1 1 0 1.547H0A.772.772 0 1 1 0 0" style="fill:#0099df;fill-opacity:1;fill-rule:nonzero;stroke:none" transform="translate(30.648 15.377)"/><path d="M0 0h-3.543a.772.772 0 1 1 0-1.546H0A.772.772 0 1 1 0 0" style="fill:#0099df;fill-opacity:1;fill-rule:nonzero;stroke:none" transform="translate(34.191 13.5)"/><path d="M0 0h-14.289a.774.774 0 0 1 0-1.547H0A.773.773 0 0 1 0 0" style="fill:#0099df;fill-opacity:1;fill-rule:nonzero;stroke:none" transform="translate(19.024 35.231)"/><path d="M0 0h-4.436a.774.774 0 0 1 0-1.547H0A.773.773 0 0 1 0 0" style="fill:#0099df;fill-opacity:1;fill-rule:nonzero;stroke:none" transform="translate(19.024 30.796)"/><path d="M0 0h6.535a.774.774 0 0 1 0 1.547H0A.774.774 0 1 1 0 0" style="fill:#0099df;fill-opacity:1;fill-rule:nonzero;stroke:none" transform="translate(4.736 29.249)"/><path d="M0 0h-14.289a.775.775 0 0 1 0-1.547H0A.773.773 0 1 1 0 0" style="fill:#0099df;fill-opacity:1;fill-rule:nonzero;stroke:none" transform="translate(19.024 26.379)"/></g></svg>