<svg width="66.667" height="66.667" xmlns="http://www.w3.org/2000/svg"><defs><clipPath clipPathUnits="userSpaceOnUse" id="a"><path d="M0 50h50V0H0Z"/></clipPath></defs><g clip-path="url(#a)" transform="matrix(1.33333 0 0 -1.33333 0 66.667)"><path d="M0 0a.797.797 0 0 1 1.127-.009l2.659 2.617a.797.797 0 0 1-.037 1.171L1.03 6.133A.798.798 0 0 1-.015 4.927l1.266-1.095h-8.386a.797.797 0 1 1 0-1.595h8.27L.008 1.128A.796.796 0 0 1 0 0" style="fill:#0099df;fill-opacity:1;fill-rule:nonzero;stroke:none" transform="translate(27.818 18.695)"/><path d="M0 0c0 .44-.357.797-.797.797h-15.786a.797.797 0 0 1 0-1.594H-.797C-.357-.797 0-.44 0 0" style="fill:#0099df;fill-opacity:1;fill-rule:nonzero;stroke:none" transform="translate(24.834 15.27)"/><path d="M0 0a.797.797 0 1 1 0-1.595h12.422a.798.798 0 0 1 0 1.595Z" style="fill:#0099df;fill-opacity:1;fill-rule:nonzero;stroke:none" transform="translate(8.252 11.284)"/><path d="M0 0c.381-.381.68-.834.887-1.327h-6.298a4.159 4.159 0 0 0-4.154 4.154v6.305c.49-.206.94-.505 1.327-.892zm2.015-25.165a.796.796 0 0 1-.797-.798v-4.256a2.484 2.484 0 0 0-2.482-2.48h-29.633a2.258 2.258 0 0 0-2.256 2.257V6.975a2.482 2.482 0 0 0 2.48 2.48h19.502l.011-.001V2.827a5.756 5.756 0 0 1 5.749-5.749h6.627l.002-.016v-4.974a.797.797 0 1 1 1.594 0v4.974a5.793 5.793 0 0 1-1.683 4.066l-8.238 8.24a5.707 5.707 0 0 1-4.062 1.682h-14.764v.645a2.347 2.347 0 0 0 2.344 2.344h18.692a3.914 3.914 0 0 0 2.788-1.156l7.896-7.897a3.925 3.925 0 0 0 1.157-2.794v-4.387a.798.798 0 0 1 1.594 0v4.387a5.51 5.51 0 0 1-1.622 3.921l-7.897 7.898a5.499 5.499 0 0 1-3.916 1.622h-18.692a3.943 3.943 0 0 1-3.939-3.938v-.645h-3.143a4.08 4.08 0 0 1-4.076-4.075v-37.417a3.856 3.856 0 0 1 3.852-3.852h29.633a4.08 4.08 0 0 1 4.076 4.075v4.256a.797.797 0 0 1-.797.798" style="fill:#0099df;fill-opacity:1;fill-rule:nonzero;stroke:none" transform="translate(36.484 34.33)"/><path d="m0 0-1.593-1.358-2.716 3.184 1.592 1.359A2.096 2.096 0 0 0 .729 1.427 2.078 2.078 0 0 0 0 0m-17.717-10.152 2.182-2.558-4.075-1.267zm3.663-1.836-2.717 3.184L-5.522.791l2.716-3.184zM2.318 1.302a3.659 3.659 0 0 1-.871 2.684 3.692 3.692 0 0 1-5.199.412l-14.66-12.505a.77.77 0 0 1-.197-.253l-3.256-6.577a.8.8 0 0 1 .108-.872.802.802 0 0 1 .843-.243l7.008 2.178.003.002a.796.796 0 0 1 .281.149c.006.005.008.013.014.018L-1.187-3.108c.008.005.019.008.027.015.008.006.011.016.017.023l2.178 1.857a3.663 3.663 0 0 1 1.283 2.515" style="fill:#0099df;fill-opacity:1;fill-rule:nonzero;stroke:none" transform="translate(45.934 21.048)"/><path d="m0 0 4.783-.037 1.768-1.86a.2.2 0 0 0 .054-.141v-6.37l.001-.019c.002-.085-.065-.155-.128-.158H.022c-.084.003-.152.073-.15.177v8.251C-.13-.072-.062-.002 0 0m0-10.18h6.5A1.756 1.756 0 0 1 8.201-8.4v6.359c.001.461-.172.9-.491 1.239L5.941 1.059a1.712 1.712 0 0 1-1.235.536H-.021C-.982 1.568-1.745.766-1.723-.176l.001-8.213A1.758 1.758 0 0 1 0-10.18" style="fill:#0099df;fill-opacity:1;fill-rule:nonzero;stroke:none" transform="translate(9.178 31.122)"/></g></svg>