<svg width="66.667" height="66.667" xmlns="http://www.w3.org/2000/svg"><defs><clipPath clipPathUnits="userSpaceOnUse" id="a"><path d="M0 50h50V0H0Z"/></clipPath></defs><g clip-path="url(#a)" transform="matrix(1.33333 0 0 -1.33333 0 66.667)"><path d="M0 0c0-.361-.379-.668-.827-.668h-19.204c-.448 0-.827.307-.827.668v3.606h18.296a.79.79 0 1 1 0 1.581h-14.463l2.964 3.952a.768.768 0 0 0 .56.306.785.785 0 0 0 .601-.222l1.068-1.07a.759.759 0 0 1 .615-.229c.229.016.44.131.576.314l3.436 4.579c.289.385.943.385 1.232 0l2.78-3.705a.79.79 0 1 1 1.264.949l-2.779 3.705a2.365 2.365 0 0 1-1.881.941 2.366 2.366 0 0 1-1.881-.941l-2.888-3.849-.424.423a2.378 2.378 0 0 1-1.831.683 2.347 2.347 0 0 1-1.714-.936l-3.603-4.804c-.022-.029-.028-.064-.046-.096h-1.882v18.787c0 .368.371.668.827.668H-.827c.456 0 .827-.3.827-.668zm-.827 26.224h-19.204c-1.328 0-2.409-1.009-2.409-2.25V0c0-1.24 1.081-2.249 2.409-2.249H-.827C.5-2.249 1.581-1.24 1.581 0v23.974c0 1.241-1.081 2.25-2.408 2.25" style="fill:#0099df;fill-opacity:1;fill-rule:nonzero;stroke:none" transform="translate(47.67 2.259)"/><path d="M0 0h7.743a.792.792 0 0 1 0 1.583H0A.791.791 0 0 1 0 0" style="fill:#0099df;fill-opacity:1;fill-rule:nonzero;stroke:none" transform="translate(5.899 29.588)"/><path d="M0 0h-4.547a.79.79 0 1 1 0-1.583H0A.792.792 0 0 1 0 0" style="fill:#0099df;fill-opacity:1;fill-rule:nonzero;stroke:none" transform="translate(21.082 31.17)"/><path d="M0 0h-15.184a.791.791 0 0 1 0-1.581H0A.79.79 0 1 1 0 0" style="fill:#0099df;fill-opacity:1;fill-rule:nonzero;stroke:none" transform="translate(21.082 25.433)"/><path d="M0 0a.79.79 0 0 1-.791.791h-4.86a.791.791 0 0 1 0-1.581h4.86A.79.79 0 0 1 0 0" style="fill:#0099df;fill-opacity:1;fill-rule:nonzero;stroke:none" transform="translate(11.55 18.918)"/><path d="M0 0h-7.382a.792.792 0 1 1 0-1.581H0A.79.79 0 1 1 0 0" style="fill:#0099df;fill-opacity:1;fill-rule:nonzero;stroke:none" transform="translate(21.082 19.709)"/><path d="M0 0v6.06a3.982 3.982 0 0 0 1.248-.843l7.961-7.964a3.98 3.98 0 0 0 .838-1.247H3.995A4 4 0 0 0 0 0m10.38-5.576v-4.764a.791.791 0 1 1 1.581 0v4.768c0 1.49-.58 2.89-1.631 3.944L2.367 6.336a5.539 5.539 0 0 1-3.94 1.632H-20.42a3.963 3.963 0 0 1-3.959-3.959v-36.276a3.747 3.747 0 0 1 3.743-3.742h1.637a.79.79 0 1 1 0 1.581h-1.637c-1.192 0-2.161.97-2.161 2.161V4.009a2.38 2.38 0 0 0 2.377 2.377h18.838V0a5.582 5.582 0 0 1 5.577-5.576z" style="fill:#0099df;fill-opacity:1;fill-rule:nonzero;stroke:none" transform="translate(25.128 42.023)"/><path d="M0 0c-.144.222-.416.333-.677.361a.79.79 0 0 1-.779-.802c.006-.354.009-.473 1.774-1.948h-5.037A2.637 2.637 0 0 0-7.352.245v1.614a.79.79 0 1 1-1.582 0V.245A4.22 4.22 0 0 1-4.719-3.97H.264l-1.418-1.395A.792.792 0 0 1-.599-6.72c.201 0 .401.075.555.228l2.942 2.896a.79.79 0 0 1-.054 1.176C1.636-1.433.278-.287 0 0" style="fill:#0099df;fill-opacity:1;fill-rule:nonzero;stroke:none" transform="translate(18.573 9.867)"/><path d="M0 0a.455.455 0 0 0 0 .908C.25.908.455.704.455.454A.456.456 0 0 0 0 0m0 2.489A2.037 2.037 0 0 1-2.035.454c0-1.122.913-2.035 2.035-2.035S2.036-.668 2.036.454A2.038 2.038 0 0 1 0 2.489" style="fill:#0099df;fill-opacity:1;fill-rule:nonzero;stroke:none" transform="translate(33.616 18.43)"/></g></svg>