<svg xmlns="http://www.w3.org/2000/svg" width="66.667" height="66.667"><defs><clipPath id="a" clipPathUnits="userSpaceOnUse"><path d="M0 50h50V0H0Z"/></clipPath></defs><g clip-path="url(#a)" transform="matrix(1.33333 0 0 -1.33333 0 66.667)"><path d="M0 0c.34-.34.601-.736.791-1.163h-5.866a3.874 3.874 0 0 0-3.87 3.871v5.868a3.864 3.864 0 0 0 1.161-.792Zm-13.821-30.803h-15.333a2.08 2.08 0 0 0-2.078 2.078V6.627a2.292 2.292 0 0 0 2.289 2.29h18.384V2.708a5.49 5.49 0 0 1 5.484-5.485h6.21v-6.168a.806.806 0 1 1 1.613 0v6.206c0 .248-.04.489-.072.732.001.013.008.024.008.037 0 .038-.017.071-.022.108a5.448 5.448 0 0 1-1.52 3.003l-7.784 7.784a5.425 5.425 0 0 1-3.007 1.521c-.036.005-.067.021-.103.021-.013 0-.024-.007-.036-.008-.242.033-.482.072-.729.072h-13.895v.555c0 1.192.97 2.161 2.162 2.161h17.66c.966 0 1.912-.392 2.596-1.076l7.46-7.461a3.656 3.656 0 0 0 1.077-2.602v-8.646a.807.807 0 1 1 1.613 0v8.646c0 1.414-.55 2.744-1.548 3.743l-7.462 7.462a5.25 5.25 0 0 1-3.736 1.548h-17.66a3.78 3.78 0 0 1-3.776-3.775v-.555h-2.917a3.908 3.908 0 0 1-3.903-3.904v-35.352a3.696 3.696 0 0 1 3.692-3.692h15.333a.806.806 0 0 1 0 1.614" style="fill:#0099df;fill-opacity:1;fill-rule:nonzero;stroke:none" transform="translate(35.556 35.03)"/><path d="M0 0a.988.988 0 0 0 .753-.281l1.215-1.215a.791.791 0 0 1 .628-.234.804.804 0 0 1 .589.321l3.904 5.205c.364.485 1.198.465 1.535.019l3.525-5.001a.807.807 0 0 1 1.318.931L9.928 4.764a2.596 2.596 0 0 1-2.065 1.033c-.808 0-1.58-.386-2.065-1.033L2.452.303 1.895.86a2.559 2.559 0 0 1-2.01.749c-.746-.053-1.432-.427-1.923-1.087l-4.624-7.501a.81.81 0 0 1-.018-.817.805.805 0 0 1 .705-.414H7.287a.807.807 0 1 1 0 1.613H-4.531L-.706-.385A.968.968 0 0 0 0 0" style="fill:#0099df;fill-opacity:1;fill-rule:nonzero;stroke:none" transform="translate(14.805 23.83)"/><path d="M0 0a1.238 1.238 0 0 0-2.474 0c0 .682.555 1.237 1.237 1.237S0 .682 0 0m-4.088 0a2.854 2.854 0 0 1 2.851-2.851A2.854 2.854 0 0 1 1.614 0a2.854 2.854 0 0 1-2.851 2.851A2.854 2.854 0 0 1-4.088 0" style="fill:#0099df;fill-opacity:1;fill-rule:nonzero;stroke:none" transform="translate(13.313 31.708)"/><path d="M0 0c-4.981 0-9.035 4.053-9.035 9.035 0 4.983 4.054 9.035 9.035 9.035 4.982 0 9.036-4.052 9.036-9.035C9.036 4.053 4.982 0 0 0m0 19.684c-5.872 0-10.648-4.777-10.648-10.649C-10.648 3.163-5.872-1.613 0-1.613S10.648 3.163 10.648 9.035 5.872 19.684 0 19.684" style="fill:#0099df;fill-opacity:1;fill-rule:nonzero;stroke:none" transform="translate(36.642 1.722)"/><path d="m0 0-5.432-4.888-.48-.063.129.488L-.355.422c.115.099.289.09.389-.025A.28.28 0 0 0 0 0m-1.425 1.63-5.617-5.055c-.018-.015-.024-.037-.041-.054a.843.843 0 0 1-.169-.276c-.008-.022-.025-.04-.031-.064l-.496-1.885a.805.805 0 0 1 .78-1.012c.035 0 .07.001.106.006l1.921.255c.029.004.051.02.078.027a.735.735 0 0 1 .286.131c.022.017.048.024.07.042L1.07-1.207c.784.685.865 1.881.179 2.666a1.892 1.892 0 0 1-2.674.171" style="fill:#0099df;fill-opacity:1;fill-rule:nonzero;stroke:none" transform="translate(40.057 14.879)"/><path d="M0 0h-8.672a.807.807 0 1 1 0-1.613H0A.806.806 0 1 1 0 0" style="fill:#0099df;fill-opacity:1;fill-rule:nonzero;stroke:none" transform="translate(40.731 7.54)"/></g></svg>