<svg xmlns="http://www.w3.org/2000/svg" width="66.667" height="66.667"><defs><clipPath id="a" clipPathUnits="userSpaceOnUse"><path d="M0 50h50V0H0Z"/></clipPath></defs><g clip-path="url(#a)" transform="matrix(1.33333 0 0 -1.33333 0 66.667)"><path d="M0 0h.572a.828.828 0 0 1 0 1.655H0a5.569 5.569 0 0 1-5.563-5.564V-30.93A5.569 5.569 0 0 1 0-36.494h.572a.827.827 0 1 1 0 1.655H0a3.913 3.913 0 0 0-3.909 3.909v12.683h3.607a.827.827 0 0 1 0 1.655h-3.607v12.683A3.913 3.913 0 0 0 0 0" style="fill:#0099df;fill-opacity:1;fill-rule:nonzero;stroke:none" transform="translate(35.769 42.388)"/><path d="M0 0a.196.196 0 0 0-.196-.196H-7.97A.196.196 0 0 0-8.165 0v9.597c0 .108.088.197.195.197h4.376a.832.832 0 0 0 .589-.244.627.627 0 0 1 .084-.073l2.708-2.058A.823.823 0 0 0 0 6.864Zm.842 8.697-2.721 2.067a2.48 2.48 0 0 1-1.715.684H-7.97a1.852 1.852 0 0 1-1.849-1.851V0c0-1.021.83-1.851 1.849-1.851h7.774c1.02 0 1.85.83 1.85 1.851v6.864c0 .664-.258 1.289-.729 1.759a.974.974 0 0 1-.083.074" style="fill:#0099df;fill-opacity:1;fill-rule:nonzero;stroke:none" transform="translate(48.191 1.85)"/><path d="M0 0h-5.109a.828.828 0 1 1 0-1.654H0A.827.827 0 1 1 0 0" style="fill:#0099df;fill-opacity:1;fill-rule:nonzero;stroke:none" transform="translate(46.663 8.102)"/><path d="M0 0h-5.109a.828.828 0 1 1 0-1.654H0A.827.827 0 1 1 0 0" style="fill:#0099df;fill-opacity:1;fill-rule:nonzero;stroke:none" transform="translate(46.663 5.139)"/><path d="M0 0a.196.196 0 0 0-.196-.195H-7.97A.196.196 0 0 0-8.165 0v9.597c0 .109.088.196.195.196h4.376a.823.823 0 0 0 .589-.244.941.941 0 0 1 .084-.072l2.709-2.058A.824.824 0 0 0 0 6.865Zm.842 8.697-2.721 2.067a2.477 2.477 0 0 1-1.715.685H-7.97a1.853 1.853 0 0 1-1.849-1.852V0c0-1.02.83-1.85 1.849-1.85h7.774c1.02 0 1.85.83 1.85 1.85v6.865c0 .664-.258 1.289-.729 1.759a.943.943 0 0 1-.083.073" style="fill:#0099df;fill-opacity:1;fill-rule:nonzero;stroke:none" transform="translate(48.191 20.17)"/><path d="M0 0h-5.109a.828.828 0 0 1 0-1.655H0A.827.827 0 0 1 0 0" style="fill:#0099df;fill-opacity:1;fill-rule:nonzero;stroke:none" transform="translate(46.663 26.423)"/><path d="M0 0h-5.109a.828.828 0 1 1 0-1.654H0A.827.827 0 1 1 0 0" style="fill:#0099df;fill-opacity:1;fill-rule:nonzero;stroke:none" transform="translate(46.663 23.458)"/><path d="M0 0a.196.196 0 0 0-.196-.196H-7.97A.196.196 0 0 0-8.165 0v9.598c0 .108.088.195.195.195h4.378a.82.82 0 0 0 .587-.244c.027-.026.055-.05.084-.073l2.709-2.057A.826.826 0 0 0 0 6.865Zm.925 8.624a1.14 1.14 0 0 1-.083.073l-2.721 2.066a2.465 2.465 0 0 1-1.712.685H-7.97a1.852 1.852 0 0 1-1.849-1.85V0c0-1.021.83-1.851 1.849-1.851h7.774c1.02 0 1.85.83 1.85 1.851v6.865c0 .664-.258 1.289-.729 1.759" style="fill:#0099df;fill-opacity:1;fill-rule:nonzero;stroke:none" transform="translate(48.191 38.552)"/><path d="M0 0h-5.109a.828.828 0 0 1 0-1.655H0A.827.827 0 0 1 0 0" style="fill:#0099df;fill-opacity:1;fill-rule:nonzero;stroke:none" transform="translate(46.663 44.805)"/><path d="M0 0h-5.109a.828.828 0 0 1 0-1.655H0A.827.827 0 0 1 0 0" style="fill:#0099df;fill-opacity:1;fill-rule:nonzero;stroke:none" transform="translate(46.663 41.84)"/><path d="M0 0c0 1.67-1.281 2.07-2.455 2.435-.263.071-.55.165-.861.318-.204.093-.503.27-.503.788 0 .694.55.893 1.137.893.419 0 .682-.094.91-.176.204-.058.371-.13.586-.13.527 0 .838.354.838.742 0 .882-1.699 1.059-2.405 1.059-1.701 0-2.778-.918-2.778-2.436 0-1.705 1.269-2.094 2.442-2.447.323-.105.623-.212.874-.317.215-.094.491-.27.491-.799 0-.648-.419-1.013-1.245-1.013-.515 0-.898.143-1.185.235-.228.082-.419.141-.599.141-.443 0-.79-.363-.79-.739 0-.825 1.676-1.129 2.562-1.129C-1.269-2.575 0-1.635 0 0" style="fill:#0099df;fill-opacity:1;fill-rule:nonzero;stroke:none" transform="translate(5.697 23.404)"/><path d="M0 0c0-.931-.443-1.694-1.759-1.694h-.814v5.317h.814C-.466 3.623 0 2.917 0 2.022Zm-1.963 5.117h-1.353c-.502 0-.934-.389-.934-.847v-6.611c0-.46.432-.847.934-.847h1.353c2.717 0 3.639 1.53 3.639 3.188v2.022c0 1.636-.933 3.095-3.639 3.095" style="fill:#0099df;fill-opacity:1;fill-rule:nonzero;stroke:none" transform="translate(11.025 24.122)"/><path d="M0 0v-2.328c0-.942-.455-1.601-1.437-1.601-.981 0-1.436.659-1.436 1.601V0c0 .954.383 1.588 1.436 1.588C-.383 1.588 0 .954 0 0m-4.55 0v-2.328c0-1.717 1.042-3.093 3.113-3.093 2.071 0 3.113 1.376 3.113 3.093V0c0 1.671-.874 3.083-3.113 3.083S-4.55 1.671-4.55 0" style="fill:#0099df;fill-opacity:1;fill-rule:nonzero;stroke:none" transform="translate(18.162 26.25)"/><path d="M0 0c-.443 0-.837-.353-.837-.753v-2.741h-2.55v2.741c0 .4-.384.753-.838.753-.467 0-.838-.353-.838-.753V-7.74c0-.412.371-.764.838-.764.454 0 .838.352.838.764V-5h2.55v-2.74c0-.412.394-.764.837-.764.455 0 .838.352.838.764v6.987C.838-.353.443 0 0 0" style="fill:#0099df;fill-opacity:1;fill-rule:nonzero;stroke:none" transform="translate(26.136 29.333)"/><path d="M0 0a26.59 26.59 0 0 0 7.786-2.065 1.06 1.06 0 0 0 .616-.972v-2.77a.828.828 0 1 1 1.654 0v2.765A2.716 2.716 0 0 1 8.461-.555a28.232 28.232 0 0 1-8.283 2.2A.828.828 0 1 1 0 0" style="fill:#0099df;fill-opacity:1;fill-rule:nonzero;stroke:none" transform="translate(16.846 38.262)"/><path d="M0 0a.826.826 0 0 1-1.144-.248c-1.632-2.534-4.364-4.551-8.12-5.996a2.956 2.956 0 0 0-2.133 0c-4.046 1.557-6.419 3.325-8.191 6.105a.827.827 0 1 1-1.395-.889c2.455-3.854 5.923-5.58 8.992-6.76a4.62 4.62 0 0 1 3.321 0C-4.579-6.215-1.579-3.979.247-1.144A.827.827 0 0 1 0 0" style="fill:#0099df;fill-opacity:1;fill-rule:nonzero;stroke:none" transform="translate(24.062 18.025)"/><path d="M0 0c.457 0 .828.371.828.828v2.775c-.003.415.239.794.602.961 3.17 1.383 6.318 2.107 9.616 2.212l1.677-1.94-1.717-1.985a.827.827 0 0 1 .04-1.125l2.18-2.183A.826.826 0 1 1 14.397.712L12.76 2.351l1.683 1.944a.83.83 0 0 1 0 1.083l-2.401 2.776a.836.836 0 0 1-.646.285l-.136-.002C7.652 8.358 4.22 7.587.754 6.074A2.713 2.713 0 0 1-.827 3.598V.828C-.827.371-.457 0 0 0" style="fill:#0099df;fill-opacity:1;fill-rule:nonzero;stroke:none" transform="translate(1.387 31.627)"/></g></svg>