<svg xmlns="http://www.w3.org/2000/svg" width="66.667" height="66.667"><defs><clipPath id="a" clipPathUnits="userSpaceOnUse"><path d="M0 50h50V0H0Z"/></clipPath></defs><g clip-path="url(#a)" transform="matrix(1.33333 0 0 -1.33333 0 66.667)"><path d="M0 0c-.455 0-.794.124-1.048.207-.202.073-.371.125-.53.125-.392 0-.699-.322-.699-.654 0-.728 1.483-.998 2.266-.998 1.515 0 2.637.831 2.637 2.276 0 1.476-1.133 1.828-2.17 2.15a4.15 4.15 0 0 0-.763.281c-.18.084-.445.239-.445.696 0 .613.487.79 1.006.79.371 0 .604-.083.805-.156.18-.052.328-.114.519-.114.466 0 .741.312.741.655 0 .779-1.504.934-2.129.934-1.503 0-2.456-.81-2.456-2.15 0-1.507 1.122-1.85 2.16-2.161.286-.094.551-.188.773-.281.191-.083.435-.239.435-.706C1.102.321.731 0 0 0" style="fill:#0099df;fill-opacity:1;fill-rule:nonzero;stroke:none" transform="translate(18.745 19.18)"/><path d="M0 0v-2.058c0-.832-.402-1.413-1.271-1.413-.868 0-1.271.581-1.271 1.413V0c0 .841.339 1.402 1.271 1.402C-.339 1.402 0 .841 0 0m-4.024 0v-2.058c0-1.33.699-2.421 2.107-2.681.191-1.06.816-1.756 1.79-1.756.667 0 1.175.02 1.175.634 0 .395-.296.633-.73.633H.011c-.233 0-.382.157-.466.531 1.292.301 1.937 1.372 1.937 2.639V0c0 1.476-.773 2.722-2.753 2.722S-4.024 1.476-4.024 0" style="fill:#0099df;fill-opacity:1;fill-rule:nonzero;stroke:none" transform="translate(26.208 22.651)"/><path d="M0 0h2.986c.403 0 .721.291.721.665 0 .363-.339.645-.721.645H.688v5.444c0 .353-.338.665-.741.665-.413 0-.741-.312-.741-.665V.717C-.794.312-.424 0 0 0" style="fill:#0099df;fill-opacity:1;fill-rule:nonzero;stroke:none" transform="translate(29.573 17.954)"/><path d="M0 0a.85.85 0 0 1-.85-.85v-10.969a1.81 1.81 0 0 0-1.808-1.809h-34.796a1.81 1.81 0 0 0-1.808 1.809V7.318h14.006l-1.546-1.546A.85.85 0 1 1-25.6 4.571l2.821 2.822a.849.849 0 0 1 0 1.201l-3.172 3.172a.85.85 0 1 1-1.202-1.202l1.547-1.546h-13.656v5.467a1.81 1.81 0 0 0 1.808 1.809h15.871a.85.85 0 1 1 0 1.699h-15.871a3.511 3.511 0 0 1-3.508-3.508v-26.304a3.511 3.511 0 0 1 3.508-3.508h34.796A3.512 3.512 0 0 1 .85-11.819V-.85C.85-.38.47 0 0 0" style="fill:#0099df;fill-opacity:1;fill-rule:nonzero;stroke:none" transform="translate(46.871 25.328)"/><path d="M0 0a.85.85 0 0 1-1.159-.317 1.698 1.698 0 0 0-1.475-.86H-36.88c-.935 0-1.695.761-1.695 1.697v26.955c0 .602.324 1.164.846 1.466a.85.85 0 1 1-.854 1.471 3.406 3.406 0 0 1-1.692-2.937V.52a3.4 3.4 0 0 1 3.395-3.396h34.246c1.218 0 2.349.658 2.952 1.717A.849.849 0 0 1 0 0" style="fill:#0099df;fill-opacity:1;fill-rule:nonzero;stroke:none" transform="translate(40.794 7.524)"/><path d="M0 0a.74.74 0 0 0-.701-.444l-1.123.057a2.436 2.436 0 0 1-1.834-.706 2.415 2.415 0 0 1-.705-1.834l.055-1.116a.72.72 0 0 0-1.246-.521l-.754.834c-.917 1.013-2.676 1.012-3.589.001l-.757-.833a.72.72 0 0 0-1.252.511l.057 1.122a2.414 2.414 0 0 1-2.539 2.54l-1.123-.056a.711.711 0 0 0-.701.442.718.718 0 0 0 .181.808l.834.754c.507.459.798 1.113.798 1.795 0 .684-.291 1.338-.797 1.796l-.834.757a.72.72 0 0 0-.181.808c.115.279.394.45.696.443l1.12-.056a2.455 2.455 0 0 1 1.839.705 2.42 2.42 0 0 1 .704 1.835l-.054 1.121a.722.722 0 0 0 1.251.52l.753-.832c.916-1.016 2.68-1.011 3.589-.002l.759.834a.727.727 0 0 0 .811.183.723.723 0 0 0 .443-.701l-.057-1.125a2.421 2.421 0 0 1 2.535-2.536l1.122.057c.303-.005.583-.164.7-.444a.723.723 0 0 0-.183-.809l-.836-.754a2.427 2.427 0 0 1 .001-3.592l.835-.753A.721.721 0 0 0 0 0m.122 2.823a.724.724 0 0 0-.001 1.071l.836.753a2.423 2.423 0 0 1 .613 2.72A2.44 2.44 0 0 1-.786 8.858l-1.12-.056a.78.78 0 0 0-.544.21.721.721 0 0 0-.21.543l.057 1.123a2.422 2.422 0 0 1-1.491 2.358 2.427 2.427 0 0 1-2.718-.61l-.761-.835a.741.741 0 0 0-1.068 0l-.001.001-.755.834a2.42 2.42 0 0 1-4.207-1.743l.054-1.128a.72.72 0 0 0-.208-.546.791.791 0 0 0-.549-.21l-1.125.056a2.413 2.413 0 0 1-2.35-1.491 2.425 2.425 0 0 1 .61-2.717l.835-.757a.722.722 0 0 0 0-1.07l-.834-.755a2.419 2.419 0 0 1-.611-2.72c.392-.945 1.352-1.564 2.359-1.488l1.121.057a.757.757 0 0 0 .547-.211.718.718 0 0 0 .209-.544l-.058-1.127a2.426 2.426 0 0 1 2.414-2.529c.669 0 1.326.276 1.794.791l.759.835c.272.303.795.303 1.069 0l.757-.837a2.434 2.434 0 0 1 2.712-.603 2.43 2.43 0 0 1 1.49 2.349l-.057 1.121a.726.726 0 0 0 .209.547c.144.144.359.204.546.21l1.123-.058A2.419 2.419 0 0 1 .956 2.07Z" style="fill:#0099df;fill-opacity:1;fill-rule:nonzero;stroke:none" transform="translate(47.727 34.132)"/><path d="M0 0a2.759 2.759 0 0 0-2.756 2.756A2.76 2.76 0 0 0 0 5.513a2.761 2.761 0 0 0 2.757-2.757A2.76 2.76 0 0 0 0 0m0 7.212a4.461 4.461 0 0 1-4.456-4.456A4.46 4.46 0 0 1 0-1.699a4.46 4.46 0 0 1 4.456 4.455A4.461 4.461 0 0 1 0 7.212" style="fill:#0099df;fill-opacity:1;fill-rule:nonzero;stroke:none" transform="translate(39.62 34.731)"/></g></svg>