<svg xmlns="http://www.w3.org/2000/svg" width="66.667" height="66.667"><defs><clipPath id="a" clipPathUnits="userSpaceOnUse"><path d="M0 50h50V0H0Z"/></clipPath></defs><g clip-path="url(#a)" transform="matrix(1.33333 0 0 -1.33333 0 66.667)"><path d="M0 0v2.886c3.336-.142 5.092-1.061 5.193-1.42a.85.85 0 1 1 1.7 0c0 1.999-3.429 2.989-6.893 3.128v.701a.85.85 0 1 1-1.699 0v-.701c-3.464-.139-6.894-1.129-6.894-3.128 0-.47.38-.857.849-.857.47 0 .849.374.849.844.103.371 1.86 1.291 5.196 1.433V0c-3.182-.11-7.659-.855-7.659-3.13 0-.47.377-.869.846-.869.47 0 .847.36.847.83.161.394 2.173 1.332 5.966 1.461v-2.894c-1.737-.085-5.362-.49-5.362-2.357a.85.85 0 0 1 1.687-.148c.302.267 1.595.71 3.675.809V-8.49A.85.85 0 1 1 0-8.49v2.192c2.08-.099 3.373-.542 3.675-.809a.85.85 0 0 1 1.686.148c0 1.867-3.624 2.272-5.361 2.357v2.894c3.793-.129 5.804-1.063 5.959-1.422a.848.848 0 1 1 1.699 0C7.658-.855 3.183-.11 0 0" style="fill:#0099df;fill-opacity:1;fill-rule:nonzero;stroke:none" transform="translate(38.134 14.704)"/><path d="M0 0c.27-.27.479-.59.647-.929h-5.336a3.537 3.537 0 0 0-3.534 3.533v5.334a3.58 3.58 0 0 0 .954-.668Zm6.915 7.568c.22-.219.391-.473.535-.738H2.648a3.186 3.186 0 0 0-3.182 3.182v4.8c.267-.145.521-.315.738-.532zM-8.825-29.66h-18.427a1.856 1.856 0 0 0-1.853 1.854V6.276c0 1.132.919 2.052 2.051 2.052h17.131V2.604a5.24 5.24 0 0 1 5.234-5.233h5.724v-2.026a.85.85 0 1 1 1.699 0V-2.5c0 .234-.037.46-.067.688.001.012.007.021.007.033 0 .033-.015.061-.019.093a5.185 5.185 0 0 1-1.453 2.888l-7.268 7.27a5.264 5.264 0 0 1-2.879 1.471c-.043.007-.082.026-.127.026-.016 0-.03-.009-.045-.01-.234.032-.466.069-.706.069h-9.842v3.131c0 1.132.92 2.052 2.052 2.052h15.38v-5.199A4.887 4.887 0 0 1 2.648 5.13h5.201v-9.547a.85.85 0 1 1 1.699 0v9.733c0 .215-.034.423-.062.633 0 .011.006.02.006.03 0 .032-.014.059-.017.089a4.859 4.859 0 0 1-1.357 2.703l-6.711 6.711a4.896 4.896 0 0 1-2.683 1.352c-.036.005-.07.022-.108.022-.012 0-.023-.006-.036-.007-.207.027-.413.062-.623.062h-15.57a3.755 3.755 0 0 1-3.752-3.752v-3.131h-5.689a3.755 3.755 0 0 1-3.752-3.752v-34.082a3.557 3.557 0 0 1 3.554-3.553h18.427a.85.85 0 1 1 0 1.699" style="fill:#0099df;fill-opacity:1;fill-rule:nonzero;stroke:none" transform="translate(31.112 32.488)"/><path d="M0 0h-13.825a.85.85 0 1 1 0-1.699H0A.85.85 0 1 1 0 0" style="fill:#0099df;fill-opacity:1;fill-rule:nonzero;stroke:none" transform="translate(20.368 15.589)"/><path d="M0 0h-13.825a.85.85 0 1 1 0-1.7H0A.85.85 0 0 1 0 0" style="fill:#0099df;fill-opacity:1;fill-rule:nonzero;stroke:none" transform="translate(20.368 26.769)"/><path d="M0 0h-8.368a.85.85 0 1 1 0-1.699H0A.85.85 0 1 1 0 0" style="fill:#0099df;fill-opacity:1;fill-rule:nonzero;stroke:none" transform="translate(20.368 10.403)"/><path d="M0 0a.85.85 0 1 1 0-1.699h3.089a.85.85 0 1 1 0 1.699z" style="fill:#0099df;fill-opacity:1;fill-rule:nonzero;stroke:none" transform="translate(6.543 10.403)"/><path d="M0 0h-3.961a.85.85 0 1 1 0-1.699H0A.85.85 0 1 1 0 0" style="fill:#0099df;fill-opacity:1;fill-rule:nonzero;stroke:none" transform="translate(20.368 21.014)"/><path d="M0 0h7.496a.85.85 0 1 1 0 1.699H0A.85.85 0 1 1 0 0" style="fill:#0099df;fill-opacity:1;fill-rule:nonzero;stroke:none" transform="translate(6.543 19.314)"/><path d="M0 0a2.613 2.613 0 0 0-2.609-2.609h-16.203A2.612 2.612 0 0 0-21.42 0v16.395a2.612 2.612 0 0 0 2.608 2.609h16.203A2.613 2.613 0 0 0 0 16.395Zm-2.609 20.703h-16.203a4.313 4.313 0 0 1-4.308-4.308V0a4.314 4.314 0 0 1 4.308-4.309h16.203A4.313 4.313 0 0 1 1.699 0v16.395a4.312 4.312 0 0 1-4.308 4.308" style="fill:#0099df;fill-opacity:1;fill-rule:nonzero;stroke:none" transform="translate(47.994 4.91)"/></g></svg>