<svg width="66.667" height="66.667" xmlns="http://www.w3.org/2000/svg"><defs><clipPath clipPathUnits="userSpaceOnUse" id="a"><path d="M0 50h50V0H0Z"/></clipPath></defs><g clip-path="url(#a)" transform="matrix(1.33333 0 0 -1.33333 0 66.667)"><path d="M0 0c.501.649.812 1.453.812 2.335A3.822 3.822 0 0 1-.687 5.357C1.32 4.41 2.234 2.53 2.234 2.53S1.393 1.095 0 0m-8.292 2.439s.875 2.081 3.03 3.008A3.832 3.832 0 0 1-6.87 2.335c0-1.027.411-1.957 1.07-2.647C-7.364.771-8.292 2.439-8.292 2.439m5.263-2.647a2.542 2.542 0 1 0-.001 5.085A2.542 2.542 0 0 0-3.03-.208m6.733 2.682-.303.624c-.081.167-2.037 4.089-6.493 4.089h-.056c-4.535-.036-6.27-4.077-6.342-4.249l-.241-.579.304-.548c.098-.177 2.442-4.329 6.289-4.329h.061c3.843.044 6.327 4.215 6.431 4.393z" style="fill:#0099df;fill-opacity:1;fill-rule:nonzero;stroke:none" transform="translate(39.264 11.203)"/><path d="M0 0a1.39 1.39 0 1 1-.001-2.78A1.39 1.39 0 0 1 0 0" style="fill:#0099df;fill-opacity:1;fill-rule:nonzero;stroke:none" transform="translate(36.234 14.928)"/><path d="M0 0c0 4.636 3.772 8.407 8.408 8.407 4.637 0 8.408-3.771 8.408-8.407 0-4.637-3.771-8.408-8.408-8.408C3.772-8.408 0-4.637 0 0m21.621-12.074-5.632 5.595A9.939 9.939 0 0 1 18.392 0c0 5.505-4.478 9.982-9.984 9.982-5.505 0-9.983-4.477-9.983-9.982 0-5.506 4.478-9.983 9.983-9.983 2.467 0 4.722.903 6.466 2.39l5.638-5.6a.781.781 0 0 1 .554-.228.788.788 0 0 1 .555 1.347" style="fill:#0099df;fill-opacity:1;fill-rule:nonzero;stroke:none" transform="translate(27.826 13.538)"/><path d="M0 0c.354-.353.625-.764.818-1.208h-5.937a3.92 3.92 0 0 0-3.915 3.915v5.938a3.893 3.893 0 0 0 1.209-.818Zm-4.395-32.033h-24.932a2.115 2.115 0 0 0-2.112 2.113V6.647a2.328 2.328 0 0 0 2.325 2.325h18.505V2.707a5.497 5.497 0 0 1 5.49-5.491h6.266v-4.672a.788.788 0 1 1 1.576 0v4.687a5.458 5.458 0 0 1-1.609 3.884l-7.825 7.826a5.447 5.447 0 0 1-3.879 1.607h-13.993v.582c0 1.211.985 2.196 2.197 2.196h17.754a3.69 3.69 0 0 0 2.627-1.089l7.499-7.501a3.697 3.697 0 0 0 1.091-2.632V-8.113a.788.788 0 1 1 1.575 0V2.104c0 1.415-.55 2.746-1.551 3.747l-7.5 7.501a5.256 5.256 0 0 1-3.741 1.55h-17.754a3.778 3.778 0 0 1-3.773-3.772v-.582h-2.955a3.905 3.905 0 0 1-3.901-3.901V-29.92a3.692 3.692 0 0 1 3.688-3.688h24.932a.788.788 0 1 1 0 1.575" style="fill:#0099df;fill-opacity:1;fill-rule:nonzero;stroke:none" transform="translate(33.335 34.981)"/><path d="M0 0h-13.974a.787.787 0 1 1 0-1.575H0A.787.787 0 1 1 0 0" style="fill:#0099df;fill-opacity:1;fill-rule:nonzero;stroke:none" transform="translate(20.265 13.565)"/><path d="M0 0a.787.787 0 1 1 0-1.575h3.545a.788.788 0 1 1 0 1.575Z" style="fill:#0099df;fill-opacity:1;fill-rule:nonzero;stroke:none" transform="translate(6.291 9.523)"/><path d="M0 0h-6.729a.788.788 0 1 1 0-1.575H0A.787.787 0 1 1 0 0" style="fill:#0099df;fill-opacity:1;fill-rule:nonzero;stroke:none" transform="translate(20.265 9.523)"/><path d="M0 0a1.391 1.391 0 1 1 0-2.783A1.391 1.391 0 0 1 0 0" style="fill:#0099df;fill-opacity:1;fill-rule:nonzero;stroke:none" transform="translate(13.278 26.047)"/><path d="M0 0c.281.584.668 1.202 1.106 1.83.406-.473.833-.937 1.279-1.383a25.2 25.2 0 0 1 1.394-1.29C1.582-2.38-.049-2.744-.427-2.366-.658-2.134-.624-1.295 0 0m0 6.236c-.624 1.295-.658 2.135-.427 2.366.091.091.253.139.479.139.712 0 2.057-.5 3.724-1.665A25.062 25.062 0 0 1 2.385 5.79a25.58 25.58 0 0 1-1.28-1.382C.668 5.035.281 5.653 0 6.236m8.175 1.939c.832.4 1.476.558 1.891.558.231 0 .392-.048.474-.131.379-.379.014-2.01-1.523-4.207-.408.477-.839.945-1.288 1.395-.447.446-.911.873-1.384 1.278.628.438 1.246.826 1.83 1.107M6.614 1.562A23.145 23.145 0 0 0 5.057.138 23.14 23.14 0 0 0 3.5 1.561a22.62 22.62 0 0 0-1.409 1.557c.436.524.898 1.046 1.409 1.557a22.94 22.94 0 0 0 1.561 1.411 23.008 23.008 0 0 0 1.553-1.411 23.41 23.41 0 0 0 1.423-1.557 23.658 23.658 0 0 0-1.423-1.556m3.926-3.928c-.376-.377-2.011-.013-4.212 1.527.478.409.95.834 1.401 1.285v.001c.449.449.88.918 1.288 1.395 1.537-2.197 1.902-3.829 1.523-4.208M-1.542-3.479c.408-.409.949-.591 1.582-.591 1.385 0 3.206.888 5.01 2.214.834-.615 1.66-1.126 2.441-1.502 1.087-.523 1.926-.716 2.572-.716.776 0 1.275.278 1.591.595 1.302 1.3.314 3.968-1.621 6.597 1.935 2.63 2.923 5.297 1.621 6.598-.579.58-1.772 1.03-4.163-.121-.779-.376-1.604-.886-2.436-1.499-2.628 1.933-5.294 2.921-6.597 1.62-1.3-1.301-.313-3.967 1.621-6.596C-.534 2.287-1.044 1.463-1.42.684c-1.151-2.391-.701-3.584-.122-4.163" style="fill:#0099df;fill-opacity:1;fill-rule:nonzero;stroke:none" transform="translate(8.221 21.538)"/></g></svg>