<svg width="66.667" height="66.667" xmlns="http://www.w3.org/2000/svg"><defs><clipPath clipPathUnits="userSpaceOnUse" id="a"><path d="M0 50h50V0H0Z"/></clipPath></defs><g clip-path="url(#a)" transform="matrix(1.33333 0 0 -1.33333 0 66.667)"><path d="M0 0a.766.766 0 0 0 0 1.529 1.05 1.05 0 1 1-1.05 1.05.765.765 0 0 0-1.529 0A2.582 2.582 0 0 0 0 5.158a2.582 2.582 0 0 0 2.579-2.579A2.582 2.582 0 0 0 0 0" style="fill:#0099df;fill-opacity:1;fill-rule:nonzero;stroke:none" transform="translate(6.315 40.264)"/><path d="M0 0a1.128 1.128 0 0 0 0 2.255c.621 0 1.127-.506 1.127-1.128C1.127.506.621 0 0 0" style="fill:#0099df;fill-opacity:1;fill-rule:nonzero;stroke:none" transform="translate(6.315 37.36)"/><path d="M0 0h-8.988a.762.762 0 0 0-.667.392.762.762 0 0 0 .016.773l3.51 5.695c.407.548.969.854 1.58.896a2.12 2.12 0 0 0 1.642-.613l.299-.299 2.435 3.247a2.12 2.12 0 0 0 1.689.844c.661 0 1.292-.316 1.69-.844l1.538-2.037a.767.767 0 0 0-.149-1.072.768.768 0 0 0-1.072.15l-1.54 2.039c-.221.296-.714.294-.933.003l-2.964-3.952a.763.763 0 0 0-.558-.304.742.742 0 0 0-.594.222l-.922.922a.576.576 0 0 1-.453.169.58.58 0 0 1-.426-.232l-2.752-4.471H0A.764.764 0 1 0 0 0" style="fill:#0099df;fill-opacity:1;fill-rule:nonzero;stroke:none" transform="translate(23.052 12.81)"/><path d="M0 0a.788.788 0 1 1 .787-.787A.788.788 0 0 1 0 0m0-3.103A2.318 2.318 0 0 0-2.316-.787 2.319 2.319 0 0 0 0 1.529 2.319 2.319 0 0 0 2.316-.787 2.318 2.318 0 0 0 0-3.103" style="fill:#0099df;fill-opacity:1;fill-rule:nonzero;stroke:none" transform="translate(16.528 25.961)"/><path d="M0 0a1.883 1.883 0 0 1-1.881-1.88v-8.295c0-1.036.844-1.88 1.881-1.88h12.347c.664 0 1.317-.181 1.887-.522a.576.576 0 0 0 .081-.055l4.421-3.479V-1.88c0 1.037-.843 1.88-1.881 1.88zm18.963-17.88c-.279 0-.556.091-.78.258l-4.772 3.756a2.157 2.157 0 0 1-1.064.282H0a3.413 3.413 0 0 0-3.41 3.409v8.295C-3.41 0-1.88 1.529 0 1.529h16.855a3.414 3.414 0 0 0 3.411-3.409v-14.698c0-.497-.277-.943-.721-1.165a1.307 1.307 0 0 0-.582-.137" style="fill:#0099df;fill-opacity:1;fill-rule:nonzero;stroke:none" transform="translate(3.577 47.624)"/><path d="M0 0a.765.765 0 0 0-.765.765v5.197c0 .973-.379 1.888-1.066 2.575l-7.327 7.328a3.659 3.659 0 0 1-2.57 1.065h-3.493a.765.765 0 1 0 0 1.529h3.493a5.13 5.13 0 0 0 3.651-1.512l7.328-7.329A5.135 5.135 0 0 0 .764 5.962V.765A.765.765 0 0 0 0 0" style="fill:#0099df;fill-opacity:1;fill-rule:nonzero;stroke:none" transform="translate(41.348 26.691)"/><path d="M0 0h-6.544a5.173 5.173 0 0 0-5.168 5.168v6.544a.764.764 0 1 0 1.528 0V5.168a3.644 3.644 0 0 1 3.64-3.639H0A.764.764 0 1 0 0 0" style="fill:#0099df;fill-opacity:1;fill-rule:nonzero;stroke:none" transform="translate(41.287 32.613)"/><path d="M0 0h-5.33a.764.764 0 1 0 0 1.528H0A.763.763 0 1 0 0 0" style="fill:#0099df;fill-opacity:1;fill-rule:nonzero;stroke:none" transform="translate(45.12 16.589)"/><path d="M0 0h-2.436a.764.764 0 0 0 0 1.528H0A.763.763 0 1 0 0 0" style="fill:#0099df;fill-opacity:1;fill-rule:nonzero;stroke:none" transform="translate(37.15 16.589)"/><path d="M0 0h-10.405a.764.764 0 1 0 0 1.529H0A.764.764 0 1 0 0 0" style="fill:#0099df;fill-opacity:1;fill-rule:nonzero;stroke:none" transform="translate(45.12 11.815)"/><path d="M0 0h-2.665a.764.764 0 1 0 0 1.528H0A.763.763 0 1 0 0 0" style="fill:#0099df;fill-opacity:1;fill-rule:nonzero;stroke:none" transform="translate(45.12 6.892)"/><path d="M0 0h-5.134a.764.764 0 1 0 0 1.528H0A.763.763 0 1 0 0 0" style="fill:#0099df;fill-opacity:1;fill-rule:nonzero;stroke:none" transform="translate(39.849 6.892)"/><path d="M0 0h-7.478a.766.766 0 0 0 0 1.529H0A.765.765 0 1 0 0 0" style="fill:#0099df;fill-opacity:1;fill-rule:nonzero;stroke:none" transform="translate(19.125 42.169)"/><path d="M0 0h-4.979a.765.765 0 0 0 0 1.529H0A.765.765 0 1 0 0 0" style="fill:#0099df;fill-opacity:1;fill-rule:nonzero;stroke:none" transform="translate(16.625 39.085)"/><path d="M0 0a.736.736 0 0 1-.743-.727v-18.804c0-.402.334-.728.743-.728h15.287c.409 0 .743.326.743.728V-.727a.736.736 0 0 1-.743.727Zm15.287-21.787H0a2.266 2.266 0 0 0-2.271 2.256V-.727A2.266 2.266 0 0 0 0 1.529h15.287a2.267 2.267 0 0 0 2.272-2.256v-18.804a2.267 2.267 0 0 0-2.272-2.256" style="fill:#0099df;fill-opacity:1;fill-rule:nonzero;stroke:none" transform="translate(32.274 22.634)"/><path d="M0 0h-.001l-13.054.018a3.484 3.484 0 0 0-3.48 3.48v22.833a.765.765 0 0 0 1.529 0V3.498c0-1.076.875-1.951 1.952-1.951L.001 1.529A.764.764 0 1 0 0 0" style="fill:#0099df;fill-opacity:1;fill-rule:nonzero;stroke:none" transform="translate(25.13 4.589)"/><path d="M0 0a.765.765 0 0 0-.537 1.31l2.143 2.107C-.82 5.411-.821 5.505-.826 5.892a.764.764 0 0 0 .755.774.796.796 0 0 0 .651-.349c.263-.271 1.527-1.337 2.652-2.255a.767.767 0 0 0 .052-1.137L.536.22A.761.761 0 0 0 0 0" style="fill:#0099df;fill-opacity:1;fill-rule:nonzero;stroke:none" transform="translate(23.543 2.02)"/></g></svg>