<svg xmlns="http://www.w3.org/2000/svg" width="66.667" height="66.667"><defs><clipPath id="a" clipPathUnits="userSpaceOnUse"><path d="M0 50h50V0H0Z"/></clipPath></defs><g clip-path="url(#a)" transform="matrix(1.33333 0 0 -1.33333 0 66.667)"><path d="M0 0c.341-.341.602-.738.795-1.165h-5.962A3.94 3.94 0 0 0-9.103 2.77v5.964a3.92 3.92 0 0 0 1.165-.796zm-5.167-2.835h6.319v-4.703a.835.835 0 1 1 1.669 0v4.754c0 .253-.04.499-.073.746.001.014.008.025.008.038 0 .039-.017.072-.022.109a5.568 5.568 0 0 1-1.553 3.072l-7.938 7.937a5.54 5.54 0 0 1-3.075 1.555c-.036.005-.067.021-.105.021-.013 0-.023-.007-.037-.007-.246.032-.49.072-.743.072h-18.787a3.997 3.997 0 0 1-3.993-3.992v-37.089a3.78 3.78 0 0 1 3.777-3.776.834.834 0 1 1 0 1.668 2.11 2.11 0 0 0-2.107 2.108V6.767a2.325 2.325 0 0 0 2.323 2.322h18.732V2.77a5.611 5.611 0 0 1 5.605-5.605" style="fill:#0099df;fill-opacity:1;fill-rule:nonzero;stroke:none" transform="translate(35.668 38.966)"/><path d="M0 0c.205-.553.519-.779 1.081-.779.544 0 .855.233 1.069.803l1.62 4.404c.029.099.029.176.029.237 0 .473-.417.843-.949.843-.405 0-.786-.251-.907-.602l-.615-1.938a9.37 9.37 0 0 1-.247-1.126 8.45 8.45 0 0 1-.262 1.129L.171 4.923c-.123.346-.499.598-.895.598-.532 0-.949-.371-.949-.844 0-.061 0-.138.033-.248z" style="fill:#0099df;fill-opacity:1;fill-rule:nonzero;stroke:none" transform="translate(32.275 15.17)"/><path d="M0 0h3.879c.539 0 .961.386.961.878 0 .485-.422.866-.961.866H1.556c.361.424.819.825 1.264 1.214.339.298.691.605 1 .923.673.689.973 1.397.973 2.294 0 1.471-1.181 2.501-2.871 2.501-.91 0-2.789-.331-2.789-1.355 0-.527.493-.854.95-.854.274 0 .486.115.673.216.073.04.144.079.22.109.295.121.584.175.935.175.593 0 .96-.349.96-.908 0-.665-.66-1.229-1.242-1.728a23.938 23.938 0 0 1-.301-.26l-.082-.073C.433 3.278-.407 2.533-.876 1.521c-.097-.204-.108-.432-.108-.608C-.984.392-.561 0 0 0" style="fill:#0099df;fill-opacity:1;fill-rule:nonzero;stroke:none" transform="translate(37.296 14.473)"/><path d="M0 0h-5.979a.835.835 0 0 1 0-1.67H0A.835.835 0 0 1 0 0" style="fill:#0099df;fill-opacity:1;fill-rule:nonzero;stroke:none" transform="translate(19.866 33.081)"/><path d="M0 0h2.732a.835.835 0 0 1 0 1.67H0A.835.835 0 0 1 0 0" style="fill:#0099df;fill-opacity:1;fill-rule:nonzero;stroke:none" transform="translate(8.195 31.412)"/><path d="M0 0h-11.671a.835.835 0 0 1 0-1.669H0A.835.835 0 1 1 0 0" style="fill:#0099df;fill-opacity:1;fill-rule:nonzero;stroke:none" transform="translate(19.866 38.974)"/><path d="M0 0h-11.671a.835.835 0 0 1 0-1.67H0A.835.835 0 0 1 0 0" style="fill:#0099df;fill-opacity:1;fill-rule:nonzero;stroke:none" transform="translate(19.866 27.33)"/><path d="M0 0h-2.99a.835.835 0 1 1 0-1.669H0A.834.834 0 1 1 0 0" style="fill:#0099df;fill-opacity:1;fill-rule:nonzero;stroke:none" transform="translate(19.866 21.398)"/><path d="M0 0a.835.835 0 0 1-.835.835h-5.758a.835.835 0 1 1 0-1.669h5.758C-.374-.834 0-.461 0 0" style="fill:#0099df;fill-opacity:1;fill-rule:nonzero;stroke:none" transform="translate(14.788 20.563)"/><path d="M0 0c0-.341-.344-.619-.765-.619h-18.052c-.422 0-.764.278-.764.619v22.97c0 .336.349.619.764.619H-.765c.421 0 .765-.277.765-.619Zm-.765 25.259h-18.052c-1.342 0-2.434-1.027-2.434-2.289V0c0-1.262 1.092-2.288 2.434-2.288H-.765C.577-2.288 1.669-1.262 1.669 0v22.97c0 1.262-1.092 2.289-2.434 2.289" style="fill:#0099df;fill-opacity:1;fill-rule:nonzero;stroke:none" transform="translate(46.16 2.563)"/><path d="M0 0a.86.86 0 0 1-.706.37.835.835 0 0 1-.822-.848c.005-.343.025-.478 1.368-1.615h-3.33A2.235 2.235 0 0 0-5.721.139v1.445a.834.834 0 0 1-1.67 0V.139c0-2.151 1.75-3.9 3.901-3.9h3.32l-1.05-1.033A.834.834 0 1 1-.049-5.983l2.635 2.592a.836.836 0 0 1-.057 1.242C1.487-1.298.263-.267 0 0" style="fill:#0099df;fill-opacity:1;fill-rule:nonzero;stroke:none" transform="translate(17.496 8.629)"/><path d="M0 0h-11.773a.834.834 0 1 1 0-1.669H0A.833.833 0 1 1 0 0" style="fill:#0099df;fill-opacity:1;fill-rule:nonzero;stroke:none" transform="translate(42.256 11.093)"/><path d="M0 0h-11.773a.834.834 0 1 1 0-1.669H0A.833.833 0 1 1 0 0" style="fill:#0099df;fill-opacity:1;fill-rule:nonzero;stroke:none" transform="translate(42.256 6.68)"/></g></svg>