<svg xmlns="http://www.w3.org/2000/svg" width="88.933" height="88.933"><defs><clipPath id="a" clipPathUnits="userSpaceOnUse"><path d="M0 66.7h66.7V0H0Z"/></clipPath></defs><g clip-path="url(#a)" transform="matrix(1.33333 0 0 -1.33333 0 88.933)"><path d="M0 0a1.037 1.037 0 0 0-.609 1.879L5.58 6.35l-6.189 4.469a1.04 1.04 0 0 0 1.216 1.683L7.96 7.191a1.038 1.038 0 0 0 0-1.683L.607.197A1.034 1.034 0 0 0 0 0" style="fill:#0099df;fill-opacity:1;fill-rule:nonzero;stroke:none" transform="translate(11.434 30.282)"/><path d="M0 0h-9.191a1.038 1.038 0 0 0 0 2.076H0A1.038 1.038 0 0 0 0 0" style="fill:#0099df;fill-opacity:1;fill-rule:nonzero;stroke:none" transform="translate(35.33 35.594)"/><path d="M0 0h-.904c-2.457 0-4.457 2-4.457 4.457v36.412c0 2.458 2 4.457 4.457 4.457h43.361a4.462 4.462 0 0 0 4.457-4.457V22.636a1.038 1.038 0 0 0-2.076 0v18.233a2.384 2.384 0 0 1-2.381 2.381H-.904a2.384 2.384 0 0 1-2.381-2.381V4.457A2.384 2.384 0 0 1-.904 2.076H0A1.038 1.038 0 0 0 0 0" style="fill:#0099df;fill-opacity:1;fill-rule:nonzero;stroke:none" transform="translate(7.533 13.094)"/><path d="M0 0c-.573 0-1.038.465-1.038 1.038v22.835a2.628 2.628 0 0 1-2.625 2.625h-44.299A1.2 1.2 0 0 1-49.16 25.3a1.038 1.038 0 0 0-2.076 0 3.278 3.278 0 0 0 3.274 3.274h44.299a4.707 4.707 0 0 0 4.701-4.701V1.038C1.038.465.573 0 0 0" style="fill:#0099df;fill-opacity:1;fill-rule:nonzero;stroke:none" transform="translate(58.838 35.275)"/><path d="M0 0a.62.62 0 0 1 0-1.238A.62.62 0 0 1 0 0m0-3.314A2.698 2.698 0 0 0-2.695-.619 2.698 2.698 0 0 0 0 2.076 2.698 2.698 0 0 0 2.695-.619 2.698 2.698 0 0 0 0-3.314" style="fill:#0099df;fill-opacity:1;fill-rule:nonzero;stroke:none" transform="translate(24.836 52.617)"/><path d="M0 0a.62.62 0 0 1 0-1.238A.62.62 0 0 1 0 0m0-3.314A2.698 2.698 0 0 0-2.695-.619 2.698 2.698 0 0 0 0 2.076 2.698 2.698 0 0 0 2.695-.619 2.698 2.698 0 0 0 0-3.314" style="fill:#0099df;fill-opacity:1;fill-rule:nonzero;stroke:none" transform="translate(18.344 52.617)"/><path d="M0 0a.62.62 0 0 1 0-1.238A.62.62 0 0 1 0 0m0-3.314A2.698 2.698 0 0 0-2.695-.619 2.698 2.698 0 0 0 0 2.076 2.698 2.698 0 0 0 2.695-.619 2.698 2.698 0 0 0 0-3.314" style="fill:#0099df;fill-opacity:1;fill-rule:nonzero;stroke:none" transform="translate(11.924 52.617)"/><path d="M0 0h-49.21a1.039 1.039 0 1 0 0 2.076H0A1.038 1.038 0 0 0 0 0" style="fill:#0099df;fill-opacity:1;fill-rule:nonzero;stroke:none" transform="translate(53.003 46.115)"/><path d="M0 0c-5.49 0-9.956-4.467-9.956-9.957 0-5.49 4.466-9.956 9.956-9.956 5.49 0 9.957 4.466 9.957 9.956C9.957-4.467 5.49 0 0 0m0-21.989c-6.635 0-12.032 5.397-12.032 12.032S-6.635 2.076 0 2.076 12.033-3.322 12.033-9.957 6.635-21.989 0-21.989" style="fill:#0099df;fill-opacity:1;fill-rule:nonzero;stroke:none" transform="translate(53.484 31.535)"/><path d="M0 0h1.63v2.53c0 .574.465 1.038 1.038 1.038h2.667v1.493H2.668c-.573 0-1.038.464-1.038 1.038V8.63H0V6.099c0-.574-.465-1.038-1.038-1.038h-2.668V3.568h2.668C-.465 3.568 0 3.104 0 2.53Zm1.741-2.076H-.111c-1.083 0-1.965.866-1.965 1.93v1.638h-1.741c-1.083 0-1.965.866-1.965 1.931v1.784c0 1.064.882 1.93 1.965 1.93h1.741v1.638c0 1.065.882 1.931 1.965 1.931h1.852c1.083 0 1.965-.866 1.965-1.931V7.137h1.741c1.083 0 1.964-.866 1.964-1.93V3.423c0-1.065-.881-1.931-1.964-1.931H3.706V-.146c0-1.064-.882-1.93-1.965-1.93" style="fill:#0099df;fill-opacity:1;fill-rule:nonzero;stroke:none" transform="translate(52.67 17.264)"/><path d="M0 0a1.497 1.497 0 0 1-1.495-1.495c0-.824.671-1.495 1.495-1.495.825 0 1.495.671 1.495 1.495C1.495-.671.825 0 0 0m0-5.066a3.575 3.575 0 0 0-3.571 3.571A3.575 3.575 0 0 0 0 2.076a3.575 3.575 0 0 0 3.571-3.571A3.575 3.575 0 0 0 0-5.066" style="fill:#0099df;fill-opacity:1;fill-rule:nonzero;stroke:none" transform="translate(20.266 20.12)"/><path d="M0 0c-.429 0-.831.268-.98.696a3.084 3.084 0 0 1-5.822 0A1.035 1.035 0 0 0-8.125.059c-.541.188-.826.78-.637 1.321a5.163 5.163 0 0 0 4.871 3.459A5.165 5.165 0 0 0 .98 1.38 1.037 1.037 0 0 0 0 0" style="fill:#0099df;fill-opacity:1;fill-rule:nonzero;stroke:none" transform="translate(24.157 11.37)"/><path d="M0 0h-8.707a1.038 1.038 0 0 0 0 2.076H0A1.038 1.038 0 0 0 0 0" style="fill:#0099df;fill-opacity:1;fill-rule:nonzero;stroke:none" transform="translate(37.241 17.86)"/><path d="M0 0h-11.282a1.038 1.038 0 0 0 0 2.076H0A1.038 1.038 0 0 0 0 0" style="fill:#0099df;fill-opacity:1;fill-rule:nonzero;stroke:none" transform="translate(39.816 12.494)"/><path d="M0 0c-.221 0-.439.07-.623.208l-7.048 5.286H-28.38c-2.457 0-4.457 2-4.457 4.457v12.087c0 2.457 2 4.457 4.457 4.457h25.179a1.038 1.038 0 0 0 0-2.076H-28.38a2.384 2.384 0 0 1-2.381-2.381V9.951A2.384 2.384 0 0 1-28.38 7.57h21.055c.224 0 .443-.073.623-.208l5.664-4.248v3.418c0 .573.465 1.038 1.038 1.038h2.076c.553 0 1.071.184 1.5.532a1.038 1.038 0 1 0 1.307-1.614 4.476 4.476 0 0 0-2.807-.994H1.038V1.038A1.04 1.04 0 0 0 0 0" style="fill:#0099df;fill-opacity:1;fill-rule:nonzero;stroke:none" transform="translate(42.895 .885)"/></g></svg>