<svg width="66.667" height="66.667" xmlns="http://www.w3.org/2000/svg"><defs><clipPath clipPathUnits="userSpaceOnUse" id="a"><path d="M0 50h50V0H0Z"/></clipPath></defs><g clip-path="url(#a)" transform="matrix(1.33333 0 0 -1.33333 0 66.667)"><path d="M0 0a3.82 3.82 0 0 1 .816 2.345A3.837 3.837 0 0 1-.69 5.382c2.017-.951 2.935-2.84 2.935-2.84S1.4 1.1 0 0m-8.33 2.45s.879 2.09 3.045 3.023a3.85 3.85 0 0 1-1.616-3.128c0-1.033.413-1.966 1.075-2.659C-7.397.774-8.33 2.45-8.33 2.45m5.288-2.66a2.556 2.556 0 1 0 0 5.112 2.556 2.556 0 0 0 0-5.112m6.765 2.694-.305.627c-.081.168-2.047 4.109-6.523 4.109h-.057c-4.556-.035-6.3-4.095-6.371-4.268l-.243-.582.305-.551c.099-.177 2.453-4.349 6.319-4.349h.007l.054.001C.77-2.485 3.267 1.705 3.37 1.883Z" style="fill:#0099df;fill-opacity:1;fill-rule:nonzero;stroke:none" transform="translate(39.33 11.139)"/><path d="M0 0a1.261 1.261 0 1 1-.001-2.523A1.261 1.261 0 0 1 0 0" style="fill:#0099df;fill-opacity:1;fill-rule:nonzero;stroke:none" transform="translate(36.288 14.745)"/><path d="M0 0c0 4.657 3.789 8.446 8.446 8.446 4.658 0 8.449-3.789 8.449-8.446 0-4.658-3.791-8.448-8.449-8.448C3.789-8.448 0-4.658 0 0m21.722-12.131-5.66 5.621A9.979 9.979 0 0 1 18.478 0c0 5.53-4.5 10.029-10.032 10.029C2.916 10.029-1.583 5.53-1.583 0c0-5.531 4.499-10.03 10.029-10.03 2.478 0 4.744.907 6.496 2.401l5.664-5.626a.789.789 0 0 1 .558-.229.793.793 0 0 1 .558 1.353" style="fill:#0099df;fill-opacity:1;fill-rule:nonzero;stroke:none" transform="translate(27.84 13.484)"/><path d="M0 0c.354-.354.628-.768.822-1.214h-5.966a3.937 3.937 0 0 0-3.932 3.933v5.966c.447-.194.86-.467 1.215-.822zm-4.415-32.183h-25.049c-1.17 0-2.122.952-2.122 2.122V6.678a2.338 2.338 0 0 0 2.336 2.336h18.591V2.719a5.522 5.522 0 0 1 5.515-5.516h6.296v-4.694a.793.793 0 0 1 1.583 0v4.708A5.49 5.49 0 0 1 1.12 1.12l-7.862 7.862a5.473 5.473 0 0 1-3.898 1.616h-14.057v.583c0 1.217.989 2.207 2.206 2.207h17.837c.998 0 1.934-.389 2.639-1.094l7.536-7.536a3.716 3.716 0 0 0 1.095-2.644V-8.152a.792.792 0 1 1 1.583 0V2.114a5.287 5.287 0 0 1-1.558 3.763l-7.536 7.537a5.276 5.276 0 0 1-3.759 1.557h-17.837c-2.09 0-3.79-1.7-3.79-3.79v-.583h-2.969a3.924 3.924 0 0 1-3.92-3.92v-36.739a3.71 3.71 0 0 1 3.706-3.705h25.049a.791.791 0 1 1 0 1.583" style="fill:#0099df;fill-opacity:1;fill-rule:nonzero;stroke:none" transform="translate(33.374 35.029)"/><path d="M0 0h7.871a.792.792 0 1 1 0 1.582H0A.791.791 0 1 1 0 0" style="fill:#0099df;fill-opacity:1;fill-rule:nonzero;stroke:none" transform="translate(6.204 19.782)"/><path d="M0 0h-4.623a.79.79 0 1 1 0-1.582H0A.791.791 0 1 1 0 0" style="fill:#0099df;fill-opacity:1;fill-rule:nonzero;stroke:none" transform="translate(21.64 21.364)"/><path d="M0 0h-15.436a.792.792 0 1 1 0-1.582H0A.791.791 0 1 1 0 0" style="fill:#0099df;fill-opacity:1;fill-rule:nonzero;stroke:none" transform="translate(21.64 15.53)"/><path d="M0 0a.792.792 0 1 1 0-1.582h4.94A.79.79 0 1 1 4.94 0Z" style="fill:#0099df;fill-opacity:1;fill-rule:nonzero;stroke:none" transform="translate(6.204 9.71)"/><path d="M0 0h-7.505a.792.792 0 1 1 0-1.582H0A.791.791 0 1 1 0 0" style="fill:#0099df;fill-opacity:1;fill-rule:nonzero;stroke:none" transform="translate(21.64 9.71)"/><path d="M0 0h-15.436a.793.793 0 0 1 0-1.583H0A.792.792 0 1 1 0 0" style="fill:#0099df;fill-opacity:1;fill-rule:nonzero;stroke:none" transform="translate(21.64 27.18)"/></g></svg>