<svg width="24" height="24" viewBox="0 0 24 24" fill="none" xmlns="http://www.w3.org/2000/svg">
<path fill-rule="evenodd" clip-rule="evenodd" d="M7.34735 11.4018C7.2489 11.7195 7.03525 12.0017 6.72062 12.1822L2.06024 14.8626C1.402 15.2396 0.563455 15.0161 0.185673 14.3641C-0.194499 13.7084 0.0292723 12.8743 0.686944 12.4962L3.29147 11.0008L0.686944 9.50159C0.0292723 9.12405 -0.195625 8.28978 0.185673 7.63651C0.563455 6.98281 1.402 6.75861 2.06024 7.13558L6.72062 9.81431C7.04833 10.0025 7.26732 10.301 7.3593 10.6348C7.39025 10.7421 7.40403 10.8494 7.40938 10.9572C7.41303 11.1057 7.3939 11.2563 7.34735 11.4018ZM8.61192 13.9123C9.32163 13.9631 9.88198 14.5541 9.88198 15.2732V20.6325C9.88198 21.3882 9.26608 22 8.50995 22C7.75017 22 7.13666 21.3882 7.13666 20.6325V17.6349L4.52327 19.1349C3.86799 19.5148 3.03001 19.2901 2.64927 18.6375C2.27093 17.9837 2.4947 17.1453 3.15124 16.7678L7.81529 14.0907C8.06592 13.9452 8.34398 13.8894 8.61192 13.9123ZM13.3888 8.08788C12.6774 8.03564 12.1181 7.44365 12.1181 6.72515V1.36513C12.1181 0.611903 12.7305 0 13.4909 0C14.2505 0 14.8642 0.611903 14.8642 1.36513V4.36451L17.4757 2.86214C18.1323 2.4846 18.9707 2.70867 19.3492 3.36137C19.7268 4.01761 19.5043 4.85231 18.8472 5.22984L14.1837 7.90928C13.9331 8.05301 13.6556 8.10934 13.3888 8.08788ZM3.15124 5.22984C2.4947 4.85231 2.27093 4.01761 2.64927 3.36137C3.03001 2.70867 3.86799 2.4846 4.52327 2.86214L7.13666 4.36451V1.36513C7.13666 0.611903 7.75017 0 8.50995 0C9.26608 0 9.88198 0.611903 9.88198 1.36513V6.72515C9.88198 7.44365 9.32163 8.03564 8.61192 8.08788C8.34398 8.10934 8.06592 8.05301 7.81529 7.90928L3.15124 5.22984ZM11.5274 13.4514C11.4719 13.5083 11.365 13.5545 11.2838 13.5545H10.7139C10.6357 13.5545 10.5271 13.5083 10.4704 13.4514L8.53316 11.5247C8.47774 11.4702 8.43287 11.361 8.43287 11.2844V10.7156C8.43287 10.6371 8.47774 10.5282 8.53316 10.473L10.4704 8.54561C10.5271 8.48942 10.6357 8.44438 10.7139 8.44438H11.2838C11.3633 8.44438 11.4719 8.48942 11.5274 8.54561L13.4658 10.473C13.5213 10.5282 13.566 10.6371 13.566 10.7156V11.2844C13.566 11.361 13.5213 11.4702 13.4658 11.5247L11.5274 13.4514ZM11.9165 10.9896C11.9165 10.9116 11.8693 10.8032 11.8138 10.7456L11.2522 10.1894C11.1973 10.1344 11.0882 10.0888 11.01 10.0888H10.9879C10.9097 10.0888 10.8011 10.1344 10.7467 10.1894L10.1852 10.7456C10.1291 10.8032 10.0861 10.9116 10.0861 10.9896V11.0117C10.0861 11.0884 10.1291 11.1957 10.1852 11.252L10.7467 11.8093C10.8017 11.8645 10.9097 11.9099 10.9879 11.9099H11.01C11.0882 11.9099 11.1973 11.8645 11.2522 11.8093L11.8138 11.252C11.8693 11.1957 11.9165 11.0884 11.9165 11.0117V10.9896ZM18.8472 16.7678C19.5043 17.1453 19.7268 17.9837 19.3492 18.6375C18.9707 19.2901 18.1316 19.5148 17.4757 19.1349L14.8642 17.6349V20.6325C14.8642 21.3882 14.2505 22 13.4909 22C12.7305 22 12.1181 21.3882 12.1181 20.6325V15.2732C12.1181 14.5541 12.6774 13.9631 13.3888 13.9123C13.6556 13.8894 13.9331 13.9452 14.1837 14.0907L18.8472 16.7678ZM18.7081 11.0008L21.3126 12.4962C21.9703 12.8743 22.1953 13.7084 21.8151 14.3641C21.4355 15.0161 20.5959 15.2396 19.9406 14.8626L15.2765 12.1822C14.965 12.0017 14.7495 11.7195 14.6535 11.4018C14.608 11.2563 14.5865 11.1057 14.592 10.9572C14.5944 10.8494 14.6104 10.7421 14.6403 10.6348C14.7334 10.301 14.9525 10.0025 15.2765 9.81431L19.9406 7.13558C20.5959 6.75861 21.4355 6.98281 21.8151 7.63651C22.1953 8.28978 21.9703 9.12405 21.3126 9.50159L18.7081 11.0008Z" fill="#D9D9D9"/>
</svg>
