<svg xmlns="http://www.w3.org/2000/svg" width="61" height="58" fill="none"><path stroke="#FF8A00" stroke-linecap="round" stroke-linejoin="round" stroke-width="2.5" d="M3.667 24.943A1.664 1.664 0 0 1 2 23.276V5.059c0-.992.8-1.791 1.791-1.791H27.92c.992 0 1.778.799 1.792 1.791v18.093c0 .992-.8 1.791-1.792 1.791H3.667ZM29.71 8.27H2"/><path stroke="#FF8A00" stroke-linecap="round" stroke-linejoin="round" stroke-width="2.5" d="m22 13 3.335 3.335L22 19.669M10.335 13 7 16.335l3.335 3.334M17.53 13l-3.335 6.67M22.09 56.25h18.713l-1.874-7.193H23.964l-1.873 7.193ZM46.411 56.25H16.482M59.502 42.622H3.378"/><path stroke="#FF8A00" stroke-linecap="round" stroke-linejoin="round" stroke-width="2.5" d="M3.378 29.931v11.947c0 3.968 3.348 7.18 7.482 7.18h41.16c4.133 0 7.482-3.212 7.482-7.18V15.752c0-3.969-3.349-7.18-7.482-7.18H34.685"/><path stroke="#FF8A00" stroke-linecap="round" stroke-linejoin="round" stroke-width="2.5" d="m42.512 25.728 3.17 6.325 3.168-6.325V5.17a3.17 3.17 0 0 0-6.338 0v20.56ZM42.512 25.728h6.325M11 35h9M25 35h13"/></svg>